<?xml version="1.0" encoding="UTF-8"?>
<svg version="1.1" xmlns="http://www.w3.org/2000/svg" width="512" height="512">
<path d="M0 0 C21.78 0 43.56 0 66 0 C66.99 6.435 66.99 6.435 68 13 C72.06455802 25.64529163 80.20158155 35.64841663 92.0625 41.8125 C103.25503069 47.0163443 114.50895034 47.18670902 126.63671875 47.18530273 C128.73198017 47.18748126 130.82670673 47.20567417 132.921875 47.22460938 C150.91544969 47.3005971 165.67051217 44.96475583 178.94140625 32.12109375 C187.64935467 22.81130008 190.61199055 12.49208502 192 0 C213.78 0 235.56 0 258 0 C258 52.8 258 105.6 258 160 C172.86 160 87.72 160 0 160 C0 107.2 0 54.4 0 0 Z " fill="#000000" transform="translate(127,320)"/>
<path d="M0 0 C3.13183817 -0.29403812 6.06579426 -0.39078002 9.19998169 -0.36076355 C10.1654089 -0.36332682 11.1308361 -0.3658901 12.12551868 -0.36853105 C15.38088343 -0.37349722 18.63579081 -0.3569293 21.89111328 -0.34057617 C24.21650176 -0.33973051 26.54189104 -0.34020384 28.86727905 -0.34190369 C35.1976068 -0.34276745 41.52776539 -0.32508009 47.85805368 -0.30418181 C53.79811038 -0.28737165 59.73816027 -0.28431558 65.67823754 -0.2812262 C77.44584275 -0.27465589 89.21338566 -0.25467906 100.98095703 -0.22631836 C112.41389656 -0.19879275 123.84681919 -0.17755185 135.27978516 -0.16479492 C135.98419067 -0.16400675 136.68859618 -0.16321858 137.41434731 -0.16240653 C140.94804675 -0.15849149 144.48174631 -0.15470035 148.01544595 -0.15097082 C177.34367081 -0.11985688 206.67183474 -0.06678278 236 0 C236.64410022 1.27091715 237.28621233 2.54284199 237.92749023 3.81518555 C238.28528061 4.52337936 238.64307098 5.23157318 239.01170349 5.96122742 C247.18337386 22.81869615 247.45137814 42.79752719 247.29296875 61.10546875 C247.28735395 63.05129159 247.2830928 64.99711874 247.28010559 66.94294739 C247.26880481 71.99478451 247.23947014 77.04635118 247.20599365 82.0980835 C247.16948722 88.19658573 247.1560611 94.29517982 247.13863373 100.39376068 C247.10981972 109.59602693 247.05223082 118.79770309 247 128 C225.22 128 203.44 128 181 128 C180.34 123.71 179.68 119.42 179 115 C176.67289064 107.93556088 173.84192101 102.61569046 169 97 C168.49855469 96.39285156 167.99710938 95.78570312 167.48046875 95.16015625 C158.98455476 85.71336137 146.35370786 81.68107123 134 81 C129.42847181 80.86391672 124.86092356 80.81416384 120.2878418 80.81469727 C118.20145119 80.81251459 116.11559431 80.79430115 114.02929688 80.77539062 C96.05403527 80.69924116 81.31419647 83.05004326 68.05859375 95.87890625 C59.35064533 105.18869992 56.38800945 115.50791498 55 128 C33.22 128 11.44 128 -11 128 C-11.12032643 106.800266 -11.12032643 106.800266 -11.14648438 97.64648438 C-11.16430166 91.44124493 -11.18519858 85.23614037 -11.22631836 79.03100586 C-11.25931812 74.01888379 -11.27693703 69.00690669 -11.28463173 63.99468422 C-11.29010338 62.09847041 -11.30078373 60.20226301 -11.31719017 58.30611229 C-11.45014205 42.27830008 -10.51864224 26.18755842 -4.9375 11 C-4.68162109 10.25234375 -4.42574219 9.5046875 -4.16210938 8.734375 C-3.03754901 5.51969345 -1.89763307 2.8464496 0 0 Z " fill="#000000" transform="translate(138,160)"/>
<path d="M0 0 C21.12 0 42.24 0 64 0 C64.16065467 30.00672292 64.16065467 30.00672292 64.20101547 44.88330841 C64.22313693 52.91253685 64.25117253 60.94159812 64.30175781 68.97070312 C64.34180426 75.3301092 64.36747485 81.68938885 64.37635398 88.04891753 C64.381539 91.41196034 64.39574584 94.77435699 64.42292023 98.13733673 C64.45213887 101.90459754 64.45594813 105.6711199 64.45410156 109.43847656 C64.46848267 110.53612335 64.48286377 111.63377014 64.49768066 112.76467896 C64.42358954 126.81878874 59.13975187 137.56207758 49.6875 147.75 C35.3390317 161.32980035 19.85873592 160 0 160 C0 107.2 0 54.4 0 0 Z " fill="#000000" transform="translate(416,320)"/>
<path d="M0 0 C21.12 0 42.24 0 64 0 C64 52.8 64 105.6 64 160 C27.67644458 160 27.67644458 160 12.25 145.6875 C2.42103 135.3021732 -0.4767059 123.60986331 -0.34057617 109.66552734 C-0.34101425 108.47413147 -0.34145233 107.2827356 -0.34190369 106.05523682 C-0.34018404 102.82023527 -0.32524249 99.58563399 -0.30418181 96.35071135 C-0.28530084 92.95816031 -0.28365565 89.56559962 -0.28010559 86.17300415 C-0.27081839 79.76297263 -0.24625023 73.35309643 -0.21605712 66.943133 C-0.17910191 58.921754 -0.16278415 50.90034925 -0.14648438 42.87890625 C-0.11735017 28.58581682 -0.0572401 14.29306582 0 0 Z " fill="#000000" transform="translate(32,320)"/>
<path d="M0 0 C-0.84765335 6.52516483 -2.17406659 12.91924142 -3.5390625 19.35351562 C-3.71179688 20.19205078 -3.88453125 21.03058594 -4.0625 21.89453125 C-4.21847656 22.63550049 -4.37445313 23.37646973 -4.53515625 24.13989258 C-5.72625223 31.46851095 -6.15108393 38.797674 -6.20532227 46.21337891 C-6.21522186 47.07315338 -6.22512146 47.93292786 -6.23532104 48.8187561 C-6.26655785 51.62133157 -6.29154153 54.4239239 -6.31640625 57.2265625 C-6.33700857 59.185256 -6.35800583 61.14394538 -6.37937927 63.10263062 C-6.43426172 68.22842041 -6.48381849 73.35424805 -6.53222656 78.48010254 C-6.59158138 84.64606311 -6.65762105 90.81195534 -6.72252655 96.9778595 C-6.82010969 106.31853085 -6.90925686 115.65924842 -7 125 C-28.12 125 -49.24 125 -71 125 C-71.0825 117.760625 -71.165 110.52125 -71.25 103.0625 C-71.28641602 100.81574463 -71.32283203 98.56898926 -71.36035156 96.25415039 C-71.6137795 69.4576331 -63.95423986 46.19703087 -45.328125 26.3671875 C-44.55984375 25.58601563 -43.7915625 24.80484375 -43 24 C-42.25234375 23.23945313 -41.5046875 22.47890625 -40.734375 21.6953125 C-31.06320883 12.44045481 -13.94049596 0 0 0 Z " fill="#000000" transform="translate(103,163)"/>
<path d="M0 0 C20.73125268 2.96160753 40.53427472 18.9403257 53 35 C68.04393665 56.62565893 71.66686426 77.34326612 71.25 103.0625 C71.1675 110.301875 71.085 117.54125 71 125 C49.88 125 28.76 125 7 125 C6.94392578 115.85410156 6.94392578 115.85410156 6.88671875 106.5234375 C6.85636993 102.61325534 6.82517721 98.70311496 6.79101562 94.79296875 C6.73711415 88.61444468 6.68599392 82.43600319 6.65356445 76.25732422 C6.62716084 71.26450006 6.5865116 66.27196057 6.53681374 61.27931595 C6.5203911 59.39401472 6.50872648 57.50866455 6.50238609 55.62330246 C6.44118872 39.06654369 5.69121732 21.89288629 0.55078125 6.0234375 C0 4 0 4 0 0 Z " fill="#000000" transform="translate(409,163)"/>
<path d="M0 0 C0.95390625 -0.0038269 1.9078125 -0.00765381 2.890625 -0.01159668 C4.90105245 -0.01431036 6.91151553 -0.00698737 8.921875 0.00976562 C11.99038787 0.03118291 15.05655952 0.00994534 18.125 -0.015625 C20.08333848 -0.01298163 22.0416755 -0.00785645 24 0 C25.36898437 -0.01214539 25.36898437 -0.01214539 26.765625 -0.02453613 C32.32079872 0.056806 35.69337704 0.68925526 40 4.53125 C44.54282076 9.62345276 44.58891916 14.03098908 44.53125 20.53125 C44.53699036 21.96210938 44.53699036 21.96210938 44.54284668 23.421875 C44.54556036 25.43230245 44.53823737 27.44276553 44.52148438 29.453125 C44.50006709 32.52163787 44.52130466 35.58780952 44.546875 38.65625 C44.54423163 40.61458848 44.53910645 42.5729255 44.53125 44.53125 C44.53934692 45.44390625 44.54744385 46.3565625 44.55578613 47.296875 C44.474444 52.85204872 43.84199474 56.22462704 40 60.53125 C34.90779724 65.07407076 30.50026092 65.12016916 24 65.0625 C22.56914062 65.06824036 22.56914062 65.06824036 21.109375 65.07409668 C19.09894755 65.07681036 17.08848447 65.06948737 15.078125 65.05273438 C12.00961213 65.03131709 8.94344048 65.05255466 5.875 65.078125 C3.91666152 65.07548163 1.9583245 65.07035645 0 65.0625 C-0.91265625 65.07059692 -1.8253125 65.07869385 -2.765625 65.08703613 C-8.32079872 65.005694 -11.69337704 64.37324474 -16 60.53125 C-20.54282076 55.43904724 -20.58891916 51.03151092 -20.53125 44.53125 C-20.5350769 43.57734375 -20.53890381 42.6234375 -20.54284668 41.640625 C-20.54556036 39.63019755 -20.53823737 37.61973447 -20.52148438 35.609375 C-20.50006709 32.54086213 -20.52130466 29.47469048 -20.546875 26.40625 C-20.54423163 24.44791152 -20.53910645 22.4895745 -20.53125 20.53125 C-20.53934692 19.61859375 -20.54744385 18.7059375 -20.55578613 17.765625 C-20.474444 12.21045128 -19.84199474 8.83787296 -16 4.53125 C-10.90779724 -0.01157076 -6.50026092 -0.05766916 0 0 Z " fill="#000000" transform="translate(244,271.46875)"/>
<path d="M0 0 C5.8996806 4.06422441 9.8686356 10.23570786 13.8125 16.125 C16.991144 20.83283253 20.20378381 25.50501077 23.53125 30.109375 C24.15902344 30.98440674 24.78679687 31.85943848 25.43359375 32.76098633 C26.6565934 34.46247505 27.88796466 36.15798774 29.12890625 37.84643555 C33.68945104 44.22821157 37.60642958 50.55634248 36.3125 58.625 C34.82286168 63.85244244 32.2976207 67.37542413 27.625 70.3125 C20.95984203 71.79364621 15.49708922 71.89538665 9.51708984 68.23095703 C6.57466006 65.9982167 4.63028634 63.21558301 2.5625 60.1875 C2.09924316 59.53281738 1.63598633 58.87813477 1.15869141 58.20361328 C-0.30544303 56.12518433 -1.74805723 54.03308796 -3.1875 51.9375 C-4.13253498 50.57532826 -5.07784467 49.21334705 -6.0234375 47.8515625 C-7.87020519 45.1830443 -9.7050082 42.50682077 -11.53125 39.82421875 C-13.28388888 37.25115471 -15.05391429 34.69186049 -16.84375 32.14453125 C-17.26060059 31.54979004 -17.67745117 30.95504883 -18.10693359 30.34228516 C-19.23838817 28.73056958 -20.37299092 27.12106537 -21.5078125 25.51171875 C-24.59378159 20.78229171 -24.69518761 16.41864584 -24.1875 10.9375 C-22.36215409 5.66427847 -19.58030797 3.14058914 -15.1875 -0.0625 C-10.0582896 -1.7722368 -5.12602784 -1.70867595 0 0 Z " fill="#000000" transform="translate(135.1875,57.0625)"/>
<path d="M0 0 C4.95893049 2.65618739 8.21934292 5.9509975 9.99609375 11.28125 C11.46010425 21.69663898 5.39112808 29.03882748 -0.44140625 37.09375 C-1.49429461 38.56192301 -2.54634034 40.03070059 -3.59765625 41.5 C-4.14808594 42.26828125 -4.69851563 43.0365625 -5.265625 43.828125 C-7.11006511 46.4310652 -8.91947327 49.05582754 -10.72265625 51.6875 C-11.6518689 53.03751099 -11.6518689 53.03751099 -12.59985352 54.41479492 C-13.80387584 56.16631779 -15.00251916 57.92155363 -16.19506836 59.6809082 C-19.75856394 64.84049351 -22.83363447 69.22449274 -29.00390625 71.28125 C-34.97892347 71.81601918 -39.91639235 71.79405722 -45.00390625 68.28125 C-48.86463653 64.74224724 -49.84857048 61.01006695 -51 56.07421875 C-51.01097395 48.22784169 -46.10552672 42.10127066 -41.69140625 36.03125 C-40.43432855 34.27514553 -39.17783586 32.51862216 -37.921875 30.76171875 C-37.27653809 29.86372559 -36.63120117 28.96573242 -35.96630859 28.04052734 C-34.00546267 25.28343844 -32.08672153 22.50156013 -30.1796875 19.70703125 C-29.56327393 18.80823242 -28.94686035 17.90943359 -28.31176758 16.98339844 C-27.13514129 15.26541283 -25.96409727 13.54358622 -24.79956055 11.81738281 C-18.79588892 3.11630577 -11.32691834 -4.06267636 0 0 Z " fill="#000000" transform="translate(391.00390625,56.71875)"/>
<path d="M0 0 C4.6413483 2.15491171 8.07137126 5.20342786 10 10 C10.59970881 14.49879151 10.56031934 18.96691901 10.53125 23.5 C10.5350769 24.80904297 10.53890381 26.11808594 10.54284668 27.46679688 C10.54872605 30.23066196 10.54023041 32.99400802 10.52148438 35.7578125 C10.49869442 39.28862831 10.51182609 42.81822777 10.53577423 46.34899902 C10.55375956 49.73276177 10.54114232 53.11620276 10.53125 56.5 C10.53934692 57.76263672 10.54744385 59.02527344 10.55578613 60.32617188 C10.43994781 71.18018545 10.43994781 71.18018545 6 76 C2.18069828 79.62833663 -0.88279006 80.31000458 -6 80.5 C-11.11720994 80.31000458 -14.18069828 79.62833663 -18 76 C-23.30101051 70.24545317 -22.57940296 64.00898761 -22.53125 56.5 C-22.5350769 55.19095703 -22.53890381 53.88191406 -22.54284668 52.53320312 C-22.54872605 49.76933804 -22.54023041 47.00599198 -22.52148438 44.2421875 C-22.49869442 40.71137169 -22.51182609 37.18177223 -22.53577423 33.65100098 C-22.55375956 30.26723823 -22.54114232 26.88379724 -22.53125 23.5 C-22.53934692 22.23736328 -22.54744385 20.97472656 -22.55578613 19.67382812 C-22.43994781 8.81981455 -22.43994781 8.81981455 -18 4 C-12.72867143 -1.00776214 -6.89190982 -0.92775709 0 0 Z " fill="#000000" transform="translate(262,16)"/>
</svg>
