<?xml version="1.0" encoding="UTF-8"?>
<svg version="1.1" xmlns="http://www.w3.org/2000/svg" width="512" height="512">
<path d="M0 0 C9.05360989 8.8046139 15.45390083 18.85403332 21.83154297 29.68017578 C22.42692871 30.68975342 23.02231445 31.69933105 23.63574219 32.73950195 C32.45654297 48.04751194 32.45654297 48.04751194 32.45654297 53.49267578 C33.11654297 53.49267578 33.77654297 53.49267578 34.45654297 53.49267578 C34.5595874 52.87811523 34.66263184 52.26355469 34.76879883 51.63037109 C35.88416903 45.49202927 37.55638609 39.96764709 40.01904297 34.24267578 C40.3705542 33.42275146 40.72206543 32.60282715 41.08422852 31.75805664 C50.11297659 11.33233161 63.67845496 -3.75700304 84.08544922 -13.24560547 C101.05981662 -19.5987001 121.46378209 -18.24554584 137.87060547 -10.99951172 C155.63756637 -2.05361805 168.0380205 11.77300621 174.52294922 30.58642578 C178.86841802 45.86904068 178.56542486 59.92897129 171.26904297 74.30517578 C168.08053075 79.91913747 164.34048393 84.29375511 159.45654297 88.49267578 C161.41333984 88.54875 161.41333984 88.54875 163.40966797 88.60595703 C183.11752841 89.28944481 200.45249743 93.06976418 214.76123047 107.47314453 C233.05299006 127.19334189 230.45654297 149.34628382 230.45654297 175.49267578 C99.77654297 175.49267578 -30.90345703 175.49267578 -165.54345703 175.49267578 C-165.54345703 124.12073972 -165.54345703 124.12073972 -148.86914062 106.5546875 C-136.29600528 94.03261057 -120.90720458 89.64261724 -103.66845703 88.93017578 C-102.69392578 88.88699219 -101.71939453 88.84380859 -100.71533203 88.79931641 C-98.32482901 88.69385304 -95.9342326 88.59173403 -93.54345703 88.49267578 C-94.12353516 87.91001953 -94.70361328 87.32736328 -95.30126953 86.72705078 C-105.36191137 76.16835737 -111.25453649 63.86224436 -111.91845703 49.11767578 C-111.01738228 30.09113576 -103.43893344 14.2891802 -89.54345703 1.49267578 C-78.64641464 -7.95824436 -66.70413073 -13.79954667 -52.54345703 -16.50732422 C-51.79837891 -16.65041016 -51.05330078 -16.79349609 -50.28564453 -16.94091797 C-31.00505746 -19.82233412 -13.92908352 -13.03896177 0 0 Z M-72.84814453 31.14501953 C-77.96310536 38.22817957 -79.65832479 44.76407697 -78.54345703 53.49267578 C-74.25777816 65.44746421 -63.08585227 71.5078543 -52.23095703 76.68017578 C-32.73415887 85.62571581 -10.99277915 89.64345908 10.45654297 88.49267578 C5.903683 70.56957529 5.903683 70.56957529 -3.0090332 55.03320312 C-5.54937282 52.48275873 -6.98505823 49.205211 -8.66845703 46.05517578 C-15.59615017 33.45288274 -23.05808913 21.25171633 -37.13720703 16.18408203 C-50.4415525 12.36124251 -64.6618766 21.21875538 -72.84814453 31.14501953 Z M81.45654297 27.49267578 C73.50189919 37.40659143 69.36468457 48.52386896 65.45654297 60.49267578 C65.06869629 61.67619629 64.68084961 62.8597168 64.28125 64.07910156 C61.6263751 72.20226308 59.02552286 80.34193145 56.45654297 88.49267578 C84.57172738 89.40473729 115.62434237 82.36600222 137.02294922 63.02001953 C141.19509243 58.57503862 143.45654297 53.63215468 143.45654297 47.49267578 C141.09897213 36.05626071 136.18363559 27.14182429 126.45654297 20.49267578 C110.61877344 11.96045226 94.08423625 14.4147244 81.45654297 27.49267578 Z " fill="#000000" transform="translate(223.54345703125,43.50732421875)"/>
<path d="M0 0 C60.06 0 120.12 0 182 0 C182.0825 29.865 182.165 59.73 182.25 90.5 C182.28641602 99.90822266 182.32283203 109.31644531 182.36035156 119.00976562 C182.37841797 130.55371094 182.37841797 130.55371094 182.3817749 135.96862793 C182.38548132 139.72718879 182.40038987 143.48552057 182.42230225 147.24401855 C182.44997855 152.05578571 182.45792087 156.86722539 182.4522891 161.67906475 C182.45346469 163.43401269 182.4612537 165.18897348 182.47686052 166.94385242 C182.6411193 186.3328031 179.02429132 204.44636912 165.15625 219.0078125 C151.19320591 231.90845106 134.35700834 236.51409133 115.68237305 236.34057617 C114.40213414 236.34093778 113.12189524 236.34129938 111.80286121 236.34167194 C108.38284788 236.34234099 104.96315833 236.32513009 101.54322052 236.30384064 C98.31776384 236.28657912 95.09231857 236.28594179 91.86682129 236.28381348 C82.47367237 236.26815799 73.08058193 236.22627421 63.6875 236.1875 C42.670625 236.125625 21.65375 236.06375 0 236 C0 158.12 0 80.24 0 0 Z " fill="#000000" transform="translate(272,250)"/>
<path d="M0 0 C60.06 0 120.12 0 182 0 C182 77.88 182 155.76 182 236 C161.045 236.0825 140.09 236.165 118.5 236.25 C108.61643555 236.30462402 108.61643555 236.30462402 98.53320312 236.36035156 C90.41699219 236.37841797 90.41699219 236.37841797 86.60388184 236.3817749 C83.97010002 236.38787259 81.33711671 236.40030588 78.70349121 236.42230225 C55.74859986 236.60535211 34.60890423 235.93407546 16.9921875 219.15625 C2.51413483 203.48588711 -0.4764474 185.23157875 -0.34057617 164.7253418 C-0.33965532 162.89150671 -0.34006079 161.05767056 -0.34167194 159.22383595 C-0.3423443 154.34941077 -0.32506137 149.47521024 -0.30384064 144.60083771 C-0.28665099 140.01306006 -0.28594562 135.42533478 -0.28381348 130.83752441 C-0.26812305 117.45415363 -0.22623925 104.07082391 -0.1875 90.6875 C-0.125625 60.760625 -0.06375 30.83375 0 0 Z " fill="#000000" transform="translate(58,250)"/>
</svg>
