<?xml version="1.0" encoding="UTF-8"?>
<svg version="1.1" xmlns="http://www.w3.org/2000/svg" width="512" height="512">
<path d="M0 0 C1.10214844 0.45246094 2.20429688 0.90492188 3.33984375 1.37109375 C19.90713996 8.87224741 29.78348403 20.96582135 36.95703125 37.58984375 C40.64033988 49.63302141 40.2389623 61.79800646 40.125 74.25 C40.11494806 76.17056824 40.10582614 78.09114158 40.09765625 80.01171875 C40.07582288 84.67460722 40.04141555 89.33724603 40 94 C41.26374451 93.99333817 42.52748901 93.98667633 43.82952881 93.97981262 C55.77527327 93.91883351 67.72098589 93.87394688 79.66685104 93.84456348 C85.80742664 93.82894907 91.94787596 93.80778815 98.08837891 93.77368164 C104.02117392 93.74093736 109.95384793 93.72311526 115.88672638 93.71536827 C118.14319003 93.70985174 120.39964753 93.6990797 122.65605927 93.68280983 C142.02948578 93.54875182 157.99142283 94.6062731 172.7421875 108.6171875 C182.83022226 119.26372938 186.16743764 131.80147819 186.11352539 146.11450195 C186.11367142 147.12960342 186.11381744 148.1447049 186.1139679 149.19056702 C186.11327223 152.53982697 186.10549597 155.88903104 186.09765625 159.23828125 C186.09579084 161.56284047 186.09436752 163.88740008 186.09336853 166.21195984 C186.08955302 172.32590829 186.07973095 178.43983292 186.06866455 184.55377197 C186.05842968 190.79430825 186.05386646 197.03484837 186.04882812 203.27539062 C186.03810784 215.51693754 186.02104299 227.75846679 186 240 C187.74518921 239.97643433 187.74518921 239.97643433 189.52563477 239.95239258 C193.9147222 239.89737198 198.30378037 239.86339243 202.69311523 239.83520508 C204.57923539 239.82028045 206.46532185 239.79993336 208.35131836 239.77368164 C222.6576286 239.57978799 237.2137061 239.59350846 250.1875 246.5 C250.84621094 246.84329346 251.50492187 247.18658691 252.18359375 247.5402832 C267.22531698 255.78080091 277.14017708 269.26188374 282.15234375 285.640625 C285.10180425 298.6440859 284.50681931 313.80265255 279 326 C278.57589844 326.94746094 278.15179688 327.89492188 277.71484375 328.87109375 C274.2111163 335.90782771 269.52535556 341.45505098 264 347 C263.45859375 347.56460937 262.9171875 348.12921875 262.359375 348.7109375 C251.42007569 359.15299593 235.59163946 363.53316998 220.86328125 363.29296875 C219.35510078 363.28660149 219.35510078 363.28660149 217.81645203 363.28010559 C214.64817954 363.26349646 211.48057575 363.22587897 208.3125 363.1875 C206.14649365 363.17243016 203.98047719 363.15874581 201.81445312 363.14648438 C196.54274588 363.1136516 191.27142073 363.06363395 186 363 C186.00999275 364.91440887 186.00999275 364.91440887 186.02018738 366.86749268 C186.08116337 378.93096662 186.12605164 390.99440904 186.15543652 403.05800247 C186.17105171 409.25911157 186.19221409 415.46009565 186.22631836 421.66113281 C186.25905981 427.6522824 186.27688416 433.64331218 186.28463173 439.63454437 C186.29014876 441.91333653 186.3009218 444.19212258 186.31719017 446.47086334 C186.45104049 466.00727432 185.41512649 480.79481608 171.4453125 495.640625 C157.04075548 509.53895158 142.22227845 509.572574 123.296875 509.390625 C121.00474545 509.38315337 118.71260945 509.3774648 116.42047119 509.37347412 C110.42317694 509.35829051 104.42627768 509.31907183 98.42913818 509.2746582 C92.29526104 509.23354793 86.16131931 509.21542959 80.02734375 509.1953125 C68.01805679 509.15257016 56.0090614 509.08440776 44 509 C43.98018066 507.89188965 43.96036133 506.7837793 43.93994141 505.64208984 C43.86288241 501.46334101 43.77433561 497.28489593 43.68261719 493.10644531 C43.64473576 491.31060863 43.60981835 489.51470654 43.578125 487.71875 C43.16146886 464.38600636 40.62112944 444.12307063 23.9375 426.3125 C10.57441166 413.51610898 -6.65630119 407.54776552 -25.078125 407.72265625 C-42.80745565 408.97642366 -58.55701933 416.75690737 -70.6875 429.75 C-81.63797668 442.97321712 -86.02062076 457.55681383 -86.31640625 474.4296875 C-86.3475779 475.915186 -86.3475779 475.915186 -86.37937927 477.43069458 C-86.4445032 480.57872918 -86.50358629 483.72684367 -86.5625 486.875 C-86.60572059 489.0156331 -86.64933599 491.15625826 -86.69335938 493.296875 C-86.80014628 498.53116676 -86.90198012 503.76553712 -87 509 C-100.2222229 509.09293467 -113.44436728 509.16388401 -126.66685104 509.20724869 C-132.80747822 509.22806808 -138.9478809 509.2562825 -145.08837891 509.30175781 C-151.02118366 509.34541692 -156.9537733 509.36917953 -162.88672638 509.37950897 C-165.14320508 509.38686439 -167.39967285 509.40122731 -169.65605927 509.42292023 C-187.36169984 509.58627683 -201.4651847 508.39532748 -215.25390625 495.96875 C-225.04112437 485.7172426 -229.33364662 473.65495471 -229.22705078 459.75024414 C-229.22734283 458.74460419 -229.22763489 457.73896423 -229.22793579 456.70285034 C-229.2265485 453.39686288 -229.21101549 450.09110408 -229.1953125 446.78515625 C-229.19158024 444.4858767 -229.18873427 442.18659555 -229.18673706 439.88731384 C-229.17911742 433.84898452 -229.15948321 427.8107521 -229.1373291 421.77246094 C-229.11683473 415.60548208 -229.10772766 409.4384875 -229.09765625 403.27148438 C-229.07623579 391.18094712 -229.04211996 379.09048163 -229 367 C-227.70489502 366.98541748 -226.40979004 366.97083496 -225.07543945 366.95581055 C-220.2127086 366.897288 -215.35041505 366.82006419 -210.48803711 366.73754883 C-208.39435998 366.70455092 -206.30059926 366.67644315 -204.20678711 366.65356445 C-180.99187162 366.39309632 -162.28790474 363.10481606 -145.04296875 346.06640625 C-133.0563186 333.08739726 -127.54200599 316.44693124 -127.7265625 298.9140625 C-128.90782019 282.00520241 -135.826064 266.83340633 -148 255 C-148.61359375 254.36578125 -149.2271875 253.7315625 -149.859375 253.078125 C-162.91479075 240.46904825 -181.04976549 237.03404704 -198.53125 236.68359375 C-199.84603333 236.6524221 -199.84603333 236.6524221 -201.18737793 236.62062073 C-203.95818042 236.55579117 -206.72906901 236.49655342 -209.5 236.4375 C-211.39063352 236.39425127 -213.28125868 236.35063507 -215.171875 236.30664062 C-219.78116416 236.20017915 -224.39053899 236.09872881 -229 236 C-229.09298747 223.05581682 -229.16391053 210.1117141 -229.20724869 197.16726398 C-229.2280567 191.15557811 -229.2562499 185.14412202 -229.30175781 179.13256836 C-229.34545807 173.32295178 -229.36918805 167.5135552 -229.37950897 161.70378685 C-229.3868571 159.49558236 -229.40120544 157.28738889 -229.42292023 155.07927895 C-229.59327028 137.02667169 -228.22309924 121.72683154 -215.375 107.8125 C-199.9721714 93.34672561 -182.90642404 93.56547316 -163.078125 93.70703125 C-160.76357296 93.71263486 -158.44901734 93.71690134 -156.13446045 93.71989441 C-150.07806364 93.73128294 -144.02188679 93.76069804 -137.96557617 93.79400635 C-131.77135187 93.82483705 -125.57709161 93.83842741 -119.3828125 93.85351562 C-107.25511233 93.88557389 -95.12757454 93.93669699 -83 94 C-83.00888245 93.45479706 -83.01776489 92.90959412 -83.0269165 92.34786987 C-83.11634018 86.60392896 -83.17612198 80.86018994 -83.21972656 75.11572266 C-83.23967547 72.98022411 -83.26684458 70.84477898 -83.30175781 68.70947266 C-83.633055 47.90595837 -81.23500927 30.96545674 -66.265625 15.27734375 C-65.14414062 14.15005859 -65.14414062 14.15005859 -64 13 C-63.39671875 12.36191406 -62.7934375 11.72382813 -62.171875 11.06640625 C-47.07039468 -3.67395171 -19.22875922 -8.19057072 0 0 Z " fill="#000000" transform="translate(229,3)"/>
</svg>
