<?xml version="1.0" standalone="no"?>
<!DOCTYPE svg PUBLIC "-//W3C//DTD SVG 20010904//EN"
 "http://www.w3.org/TR/2001/REC-SVG-20010904/DTD/svg10.dtd">
<svg version="1.0" xmlns="http://www.w3.org/2000/svg"
 width="512.000000pt" height="512.000000pt" viewBox="0 0 512.000000 512.000000"
 preserveAspectRatio="xMidYMid meet">

<g transform="translate(0.000000,512.000000) scale(0.100000,-0.100000)"
fill="#000000" stroke="none">
<path d="M2753 5102 c-29 -10 -69 -30 -90 -45 -21 -15 -168 -157 -328 -317
l-290 -290 595 -595 595 -595 783 2 783 3 -30 60 c-25 49 -78 108 -298 326
-299 296 -316 309 -439 317 -55 3 -89 0 -142 -17 -83 -25 -111 -26 -159 -6
-50 21 -72 42 -94 90 -24 52 -24 97 2 170 17 47 20 76 17 136 -7 125 -19 141
-317 442 -225 227 -276 273 -329 299 -81 40 -181 48 -259 20z"/>
<path d="M1340 3745 l-485 -485 975 0 975 0 -485 485 c-267 267 -487 485 -490
485 -3 0 -223 -218 -490 -485z"/>
<path d="M253 2945 c-102 -31 -176 -96 -222 -195 l-26 -55 0 -405 0 -405 33
-68 c37 -74 90 -126 174 -167 28 -14 65 -43 82 -64 28 -34 31 -45 31 -106 0
-61 -3 -72 -31 -107 -16 -21 -53 -49 -82 -63 -83 -40 -137 -92 -174 -167 l-33
-68 0 -405 0 -405 26 -56 c37 -79 90 -133 167 -171 l67 -33 1747 -3 1748 -2 0
1480 0 1480 -1732 -1 c-1404 0 -1741 -3 -1775 -14z m3057 -835 l0 -150 -1130
0 -1130 0 0 150 0 150 1130 0 1130 0 0 -150z m0 -600 l0 -150 -1130 0 -1130 0
0 143 c0 79 3 147 7 150 3 4 512 7 1130 7 l1123 0 0 -150z m0 -610 l0 -150
-1127 2 -1128 3 -3 148 -3 147 1131 0 1130 0 0 -150z"/>
<path d="M4070 1480 l0 -1481 393 3 392 3 67 33 c77 38 130 92 167 171 l26 56
0 405 0 405 -32 65 c-39 79 -78 118 -163 163 -35 18 -78 51 -95 71 -27 34 -30
45 -30 106 0 61 3 72 30 106 17 20 59 52 95 70 84 44 124 85 163 164 l32 65 0
405 0 405 -26 56 c-37 79 -90 133 -167 171 l-67 33 -392 3 -393 3 0 -1481z"/>
</g>
</svg>
