<?xml version="1.0" encoding="UTF-8"?>
<svg version="1.1" xmlns="http://www.w3.org/2000/svg" width="50" height="50">
<path d="M0 0 C0.67546875 0.30164062 1.3509375 0.60328125 2.046875 0.9140625 C2.31640625 3.125 2.31640625 3.125 2.046875 5.9140625 C0.18359375 8.265625 0.18359375 8.265625 -2.265625 10.5390625 C-3.06613281 11.29445313 -3.86664063 12.04984375 -4.69140625 12.828125 C-5.43777344 13.51648437 -6.18414062 14.20484375 -6.953125 14.9140625 C-7.95858637 15.90857114 -8.96118263 16.90606928 -9.953125 17.9140625 C-9.38078125 18.16542969 -8.8084375 18.41679687 -8.21875 18.67578125 C-5.64834052 20.08064298 -3.80594913 21.68993839 -1.703125 23.7265625 C-0.99671875 24.39300781 -0.2903125 25.05945313 0.4375 25.74609375 C2.37023745 28.34965998 2.37870776 29.74505966 2.046875 32.9140625 C-0.21533203 33.60205078 -0.21533203 33.60205078 -2.953125 33.9140625 C-4.91357422 32.72998047 -4.91357422 32.72998047 -6.7578125 30.90625 C-7.42296875 30.24882813 -8.088125 29.59140625 -8.7734375 28.9140625 C-9.45148437 28.2128125 -10.12953125 27.5115625 -10.828125 26.7890625 C-11.529375 26.11101563 -12.230625 25.43296875 -12.953125 24.734375 C-13.61054688 24.06921875 -14.26796875 23.4040625 -14.9453125 22.71875 C-15.54714355 22.11015137 -16.14897461 21.50155273 -16.76904297 20.87451172 C-17.953125 18.9140625 -17.953125 18.9140625 -17.82763672 16.40039062 C-16.34597767 12.18787926 -13.32574875 9.63008075 -10.203125 6.5390625 C-9.58179688 5.88550781 -8.96046875 5.23195313 -8.3203125 4.55859375 C-3.66489008 -0.10665024 -3.66489008 -0.10665024 0 0 Z " fill="#000000" transform="translate(32.953125,8.0859375)"/>
</svg>
