<?xml version="1.0" encoding="UTF-8"?>
<svg version="1.1" xmlns="http://www.w3.org/2000/svg" width="512" height="512">
<path d="M0 0 C3.34581932 2.65358084 4.59498548 6.59376939 5.08214378 10.72309685 C5.18039082 13.38248336 5.1836762 16.02621033 5.15307617 18.68725586 C5.15351425 19.69289581 5.15395233 20.69853577 5.15440369 21.73464966 C5.15232268 25.0407489 5.12902369 28.34633368 5.10546875 31.65234375 C5.09987036 33.95162173 5.09560141 36.25090331 5.09260559 38.55018616 C5.08117603 44.58857176 5.05172486 50.62673933 5.01849365 56.66503906 C4.98775218 62.83200125 4.97409153 68.99899882 4.95898438 75.16601562 C4.92685354 87.25660597 4.87567985 99.34703482 4.8125 111.4375 C5.38180394 111.46380399 5.95110788 111.49010798 6.53766346 111.51720905 C9.15062541 111.63920712 11.76341826 111.76452661 14.3762207 111.88989258 C15.27163826 111.93120552 16.16705582 111.97251846 17.08960724 112.01508331 C24.12333548 112.35613757 31.03952801 113.0397386 38 114.125 C39.12946045 114.29870117 40.2589209 114.47240234 41.42260742 114.65136719 C61.2698495 117.84018965 80.15891888 122.9603577 98.8125 130.4375 C99.54259277 130.72737793 100.27268555 131.01725586 101.02490234 131.31591797 C128.07067335 142.188813 152.27829627 158.84088227 172.8125 179.4375 C174.16214844 180.73494141 174.16214844 180.73494141 175.5390625 182.05859375 C204.12077085 209.66760044 223.10448709 247.38328913 229.8125 286.4375 C229.98910156 287.43499268 230.16570312 288.43248535 230.34765625 289.46020508 C231.76353183 298.22846651 232.12328923 306.76785106 232.07324219 315.62329102 C232.06252586 317.86957882 232.07320663 320.11506437 232.0859375 322.36132812 C232.14913682 379.37764753 202.86389375 428.52872228 163.67773438 467.82788086 C157.97987111 473.43007105 151.92008743 478.37019718 145.52539062 483.14794922 C143.77612769 484.46488292 142.05010906 485.80778998 140.328125 487.16015625 C138.13290837 488.88380551 135.92510973 490.58694048 133.6953125 492.265625 C132.00278813 493.54075176 130.3237983 494.83490578 128.6796875 496.171875 C123.66298067 499.90816711 119.01409375 499.96517994 112.86328125 499.90625 C109.46499527 499.38410619 107.53425506 498.51998163 104.8125 496.4375 C103.33273639 492.96327239 102.46200083 490.69446254 103.4921875 487 C105.05554755 483.9657864 106.88473472 482.142983 109.375 479.8125 C117.56188309 471.86155014 124.59752634 463.00327601 130.8125 453.4375 C131.46089844 452.4475 132.10929687 451.4575 132.77734375 450.4375 C145.62410488 429.52760857 150.91601934 403.64644109 145.3125 379.5 C137.85564231 350.66704792 117.66869219 328.45220337 92.53344727 313.62695312 C76.50957083 304.44590404 59.75303786 298.46445451 41.6875 294.6875 C40.76662598 294.48882324 39.84575195 294.29014648 38.89697266 294.08544922 C31.4229453 292.61928853 23.94972675 291.97415917 16.36376953 291.37011719 C15.25147476 291.27959076 14.13917999 291.18906433 12.99317932 291.09579468 C10.2664546 290.87418711 7.53956948 290.65481667 4.8125 290.4375 C4.82249275 292.35310226 4.82249275 292.35310226 4.83268738 294.30740356 C4.89350584 306.34331453 4.93847627 318.37919431 4.96793652 330.41522408 C4.98359147 336.60305308 5.00482698 342.79075802 5.03881836 348.97851562 C5.07141736 354.9501861 5.08935429 360.92173725 5.09713173 366.89348984 C5.10267422 369.17165887 5.1134973 371.44982138 5.12969017 373.72793961 C5.1514712 376.9191931 5.15446658 380.10995365 5.15307617 383.30126953 C5.16925491 384.71360115 5.16925491 384.71360115 5.1857605 386.15446472 C5.16140742 391.32097438 4.7770339 395.00463989 1.8125 399.4375 C-1.27793846 401.49779231 -3.14087639 402.04789181 -6.83203125 401.93359375 C-14.72845731 400.27049904 -21.60864216 393.41551278 -27.7878418 388.55322266 C-32.60843482 384.79337014 -37.62166692 381.35703729 -42.6875 377.9375 C-49.24036446 373.5111043 -55.53175606 368.9170131 -61.75 364.03125 C-65.93295806 360.81358995 -70.31606767 357.89076533 -74.6875 354.9375 C-81.28279498 350.48001261 -87.6365435 345.86437172 -93.90234375 340.953125 C-98.33377221 337.51689599 -102.94101721 334.32980681 -107.53295898 331.11352539 C-112.84627038 327.39070596 -118.12078297 323.61824209 -123.375 319.8125 C-128.63425609 316.00434365 -133.89912506 312.20513061 -139.1875 308.4375 C-145.3164922 304.07000038 -151.41722592 299.66399015 -157.515625 295.25390625 C-162.06272111 291.96731467 -166.61844478 288.69348561 -171.1875 285.4375 C-177.31643427 281.06991834 -183.41722521 276.66399066 -189.515625 272.25390625 C-194.06272163 268.9673143 -198.61849168 265.6935519 -203.1875 262.4375 C-208.4511692 258.68549175 -213.69811224 254.91084039 -218.9375 251.125 C-220.07336548 250.3043103 -220.07336548 250.3043103 -221.23217773 249.46704102 C-225.06915963 246.69379293 -228.90451171 243.918312 -232.73828125 241.140625 C-234.24204341 240.05188429 -235.74594922 238.96334197 -237.25 237.875 C-237.99330566 237.33713867 -238.73661133 236.79927734 -239.50244141 236.24511719 C-244.57740564 232.58054019 -249.68767464 228.96937711 -254.8125 225.375 C-260.66126332 221.26341179 -266.45233977 217.08129137 -272.1875 212.8125 C-272.87666504 212.30323975 -273.56583008 211.79397949 -274.27587891 211.26928711 C-279.0683085 207.67588301 -279.0683085 207.67588301 -280.1875 205.4375 C-280.77078113 198.32147021 -280.77078113 198.32147021 -278.55078125 194.95703125 C-275.95769682 192.19250322 -273.17630317 190.05969985 -270.0625 187.9375 C-268.80418098 187.05931909 -267.54639452 186.18037472 -266.2890625 185.30078125 C-265.28987793 184.605896 -265.28987793 184.605896 -264.27050781 183.89697266 C-260.63050815 181.34658377 -257.03634686 178.73297321 -253.4375 176.125 C-251.90113893 175.01418838 -250.36467966 173.90351257 -248.828125 172.79296875 C-248.06048828 172.23786621 -247.29285156 171.68276367 -246.50195312 171.11083984 C-242.73156981 168.38486861 -238.95946306 165.66128466 -235.1875 162.9375 C-233.68749141 161.85417856 -232.18749142 160.77084521 -230.6875 159.6875 C-221.6875 153.1875 -221.6875 153.1875 -219.43774414 151.56274414 C-217.9368445 150.47871584 -216.43603078 149.39456858 -214.93530273 148.31030273 C-211.19976033 145.61162345 -207.46277746 142.91498688 -203.72265625 140.22265625 C-195.92834153 134.60846822 -188.162964 128.95864617 -180.4375 123.25 C-173.92027127 118.43463071 -167.36636685 113.67885527 -160.76171875 108.984375 C-156.63860426 106.05207267 -152.53784806 103.08901724 -148.4375 100.125 C-147.67945068 99.57706787 -146.92140137 99.02913574 -146.14038086 98.46459961 C-144.59416903 97.34677547 -143.04802687 96.22885496 -141.50195312 95.11083984 C-137.73156981 92.38486861 -133.95946306 89.66128466 -130.1875 86.9375 C-128.68749141 85.85417856 -127.18749142 84.77084521 -125.6875 83.6875 C-98.6875 64.1875 -98.6875 64.1875 -96.43774414 62.56274414 C-94.9368445 61.47871584 -93.43603078 60.39456858 -91.93530273 59.31030273 C-88.19976033 56.61162345 -84.46277746 53.91498688 -80.72265625 51.22265625 C-72.92834153 45.60846822 -65.162964 39.95864617 -57.4375 34.25 C-51.48519204 29.85203238 -45.51262403 25.48858802 -39.47705078 21.20556641 C-36.17216189 18.85950925 -32.88266331 16.49401956 -29.60546875 14.109375 C-28.81084229 13.53195557 -28.01621582 12.95453613 -27.19750977 12.35961914 C-25.65608288 11.23853838 -24.11610244 10.11546493 -22.57788086 8.98999023 C-7.53616205 -1.93787024 -7.53616205 -1.93787024 0 0 Z " fill="#000000" transform="translate(280.1875,6.5625)"/>
</svg>
