<?xml version="1.0" standalone="no"?>
<!DOCTYPE svg PUBLIC "-//W3C//DTD SVG 20010904//EN"
 "http://www.w3.org/TR/2001/REC-SVG-20010904/DTD/svg10.dtd">
<svg version="1.0" xmlns="http://www.w3.org/2000/svg"
 width="512.000000pt" height="512.000000pt" viewBox="0 0 512.000000 512.000000"
 preserveAspectRatio="xMidYMid meet">

<g transform="translate(0.000000,512.000000) scale(0.100000,-0.100000)"
fill="#000000" stroke="none">
<path d="M1847 4900 c-173 -30 -318 -178 -347 -356 -14 -82 -12 -276 2 -332
16 -64 86 -134 150 -150 34 -9 280 -12 901 -12 967 0 926 3 1097 -82 69 -34
103 -60 180 -138 78 -77 104 -111 138 -180 85 -171 82 -130 82 -1097 0 -621 3
-867 12 -901 16 -64 86 -134 150 -150 56 -14 250 -16 332 -2 183 30 326 173
356 356 13 79 13 2609 0 2688 -30 183 -173 326 -356 356 -72 12 -2627 11
-2697 0z"/>
<path d="M567 3620 c-173 -30 -318 -178 -347 -356 -13 -79 -13 -2609 0 -2688
30 -183 173 -326 356 -356 79 -13 2609 -13 2688 0 183 30 326 173 356 356 13
79 13 2609 0 2688 -30 183 -173 326 -356 356 -72 12 -2627 11 -2697 0z"/>
</g>
</svg>
