<?xml version="1.0" encoding="UTF-8"?>
<svg version="1.1" xmlns="http://www.w3.org/2000/svg" width="512" height="512">
<path d="M0 0 C7.96997131 7.1008177 15.47470528 14.6474461 23.01018715 22.20297337 C24.50896504 23.70203381 26.00796411 25.20087313 27.50716591 26.69950962 C31.55000857 30.74206696 35.58977418 34.78768631 39.62896967 38.83388734 C43.8605535 43.07174898 48.09499493 47.30675342 52.32912636 51.54206944 C60.33481168 59.55085507 68.33794583 67.56218499 76.3401531 75.57444566 C85.4555176 84.7010118 94.57374302 93.82471736 103.69220281 102.94819081 C122.43857633 121.70499925 141.1813772 140.46537425 159.92180824 159.22811985 C164.25433087 157.5678277 167.13913998 154.27016574 170.32709694 151.03642368 C170.96795469 150.39445252 171.60881244 149.75248136 172.26909012 149.09105653 C174.4192505 146.93481548 176.56217265 144.77152062 178.70525551 142.6082468 C180.24416907 141.06222174 181.78355343 139.5166652 183.32337379 137.97154331 C186.64149393 134.64031092 189.95658024 131.30609824 193.2694664 127.96966076 C198.51305956 122.68949515 203.76532779 117.41801767 209.01920509 112.1480875 C216.38999537 104.75346405 223.75871671 97.35678853 231.12420082 89.95687962 C231.59157053 89.48732966 232.05894025 89.0177797 232.54047268 88.53400096 C239.16172958 81.88157388 245.77996939 75.22615335 252.39697748 68.56950041 C261.10460053 59.80972253 269.8187531 51.056518 278.54230922 42.31260556 C283.76098364 37.08088149 288.97053096 31.8402896 294.1734153 26.59286463 C297.42232378 23.32039754 300.67965958 20.05641975 303.9393692 16.79471493 C305.44281716 15.28699288 306.94284662 13.77585257 308.43906593 12.26095676 C320.68547703 -0.13228749 331.68428967 -10.41573028 350.10930824 -11.08438015 C364.99377349 -9.86434202 375.53002867 -4.09097889 386.06829262 6.39364719 C388.24231518 8.54533391 390.44985956 10.6603587 392.65618324 12.7789011 C394.35037642 14.42711579 396.04308096 16.07686201 397.73430824 17.72811985 C398.93519081 18.88380466 398.93519081 18.88380466 400.16033363 20.06283665 C409.83670755 29.6484851 417.26333953 40.3569703 417.33196449 54.3335886 C417.31456215 55.51888157 417.31456215 55.51888157 417.29680824 56.72811985 C417.30840981 57.51831516 417.32001137 58.30851048 417.33196449 59.1226511 C417.25714812 74.36025188 408.18978899 84.42327423 397.83323097 94.70437717 C396.94000769 95.60298599 396.04678441 96.50159482 395.12649375 97.42743421 C392.67134177 99.89692611 390.20705742 102.35711666 387.74102461 104.81573653 C385.07364686 107.47835643 382.41494507 110.14961711 379.7550602 112.81971836 C374.55269628 118.03922324 369.3422406 123.25057594 364.12867554 128.45889011 C359.88969486 132.6938199 355.65348033 136.93149807 351.41919327 141.17112064 C350.81522481 141.77583752 350.21125636 142.38055439 349.58898583 143.00359602 C348.3618275 144.23228591 347.13467256 145.4609792 345.90752099 146.68967584 C334.41619861 158.19470566 322.91533542 169.69016059 311.41141752 181.18259409 C300.89780571 191.68627035 290.39568196 202.20134668 279.89900329 212.72194251 C269.10571567 223.53963665 258.30503969 234.34990147 247.49621803 245.15207505 C241.43403279 251.21077217 235.37472612 257.27228016 229.32305908 263.34148502 C224.17275064 268.50653463 219.01542477 273.66445142 213.84904536 278.81342784 C211.21592786 281.43804976 208.58606161 284.06571693 205.96487045 286.7022543 C203.1178385 289.56574723 200.25542376 292.41336312 197.39133644 295.2597971 C196.57312202 296.08761653 195.75490759 296.91543596 194.91189879 297.76834083 C185.02654464 307.52906676 175.09622997 312.72773845 161.10930824 313.41561985 C136.80424772 312.94731425 121.74829019 292.20961361 105.87760627 276.34396064 C103.32521719 273.79344592 100.76999001 271.24577685 98.21518898 268.69767857 C92.65088556 263.14685563 87.09026943 257.59234906 81.53049254 252.03699279 C78.05340033 248.56267697 74.57557727 245.08909335 71.09762955 241.61563396 C61.44901872 231.97919561 51.80134085 222.34182537 42.15711689 212.7009964 C41.23459292 211.77880178 41.23459292 211.77880178 40.29343211 210.83797697 C39.67705844 210.22182158 39.06068478 209.6056662 38.42563313 208.97083944 C37.17688251 207.72253227 35.92813033 206.47422665 34.6793766 205.22592258 C34.05996969 204.6067371 33.44056278 203.98755162 32.80238596 203.34960295 C22.75142561 193.30259615 12.69372008 183.26237066 2.63311603 173.22502153 C-7.72046717 162.8951761 -18.0683919 152.55969033 -28.41069573 142.2185517 C-34.20803485 136.42212725 -40.00774352 130.62811964 -45.8137207 124.84034634 C-50.7526608 119.91683905 -55.68638819 114.98818102 -60.61349664 110.0528323 C-63.12403686 107.5383987 -65.63688771 105.02640041 -68.15641594 102.52097034 C-70.8940727 99.79849231 -73.61988157 97.0643397 -76.34474754 94.32905674 C-77.13327136 93.54858933 -77.92179517 92.76812192 -78.73421365 91.96400398 C-88.11451968 82.49994379 -95.34343226 72.94589748 -95.54645348 59.23910618 C-95.53630211 58.45173069 -95.52615074 57.6643552 -95.51569176 56.85311985 C-95.50811852 56.02384983 -95.50054527 55.19457981 -95.49274254 54.3401804 C-95.10024469 39.67881009 -87.69462666 30.70192969 -77.95319176 20.47811985 C-77.30012047 19.78927708 -76.64704918 19.1004343 -75.97418785 18.39071751 C-74.01460364 16.33093542 -72.04718611 14.2789032 -70.07819176 12.22811985 C-69.51164879 11.63289524 -68.94510582 11.03767063 -68.36139488 10.42440891 C-49.46484183 -9.3768882 -23.39222698 -19.94436871 0 0 Z " fill="#000000" transform="translate(95.07819175720215,104.77188014984131)"/>
</svg>
