<?xml version="1.0" encoding="UTF-8"?>
<svg version="1.1" xmlns="http://www.w3.org/2000/svg" width="512" height="512">
<path d="M0 0 C64.27140058 -1.00165372 136.89335088 6.72519122 185.77539062 52.74951172 C213.52196557 81.28633722 220.88801022 128.23721234 224.65039062 166.06201172 C224.80483643 167.57939941 224.80483643 167.57939941 224.96240234 169.12744141 C228.88022548 209.39498856 227.33094257 250.19096828 220.65039062 290.06201172 C220.39781494 291.5842334 220.39781494 291.5842334 220.14013672 293.13720703 C215.42345708 320.58710673 207.10032693 352.23344008 187.65039062 373.06201172 C186.915625 373.87541016 186.18085938 374.68880859 185.42382812 375.52685547 C146.22777788 416.95720825 78.78281473 426.60663484 24.73144531 428.17578125 C-35.38686678 429.34405449 -108.66080214 422.57418444 -155.34960938 380.06201172 C-156.1978125 379.30662109 -157.04601562 378.55123047 -157.91992188 377.77294922 C-193.95723718 343.93975106 -199.87997271 280.23534833 -201.34960938 234.06201172 C-202.78875974 178.1165404 -203.13370949 98.64057796 -162.34960938 55.06201172 C-161.52976563 54.16353516 -160.70992187 53.26505859 -159.86523438 52.33935547 C-122.78699064 13.38576704 -59.4877636 2.32407635 -7.99023438 0.15185547 C-5.32698091 0.09211088 -2.66347194 0.04930917 0 0 Z M-2.34960938 107.06201172 C-3.59097656 107.94953125 -3.59097656 107.94953125 -4.85742188 108.85498047 C-9.80026814 113.23226596 -12.71609455 119.5086128 -13.86914062 125.97607422 C-14.20618737 134.83915534 -10.99508089 142.0662675 -5.06054688 148.55810547 C0.37824423 153.33877801 7.19571352 155.45964597 14.37304688 155.33935547 C21.80675544 154.43404962 28.78534536 150.74221084 33.65039062 145.06201172 C38.04178934 138.00631926 39.61481741 131.35174754 38.65039062 123.06201172 C35.678215 114.31814234 30.48262028 108.82945586 22.65039062 104.06201172 C14.41386721 101.31650392 4.74949131 101.91635485 -2.34960938 107.06201172 Z M-25.34960938 190.06201172 C-29.36521301 195.68385681 -30.40051416 201.25821581 -29.34960938 208.06201172 C-27.4738421 214.32196877 -23.66843621 218.41207186 -18.34960938 222.06201172 C-14.49546366 224.08084995 -12.941187 224.06201172 -8.34960938 224.06201172 C-8.34960938 245.51201172 -8.34960938 266.96201172 -8.34960938 289.06201172 C-11.81460938 289.55701172 -11.81460938 289.55701172 -15.34960938 290.06201172 C-21.59072733 292.96735973 -25.16147684 296.31092738 -28.66210938 302.31201172 C-30.32861511 308.97803467 -30.13467091 315.21414812 -26.68164062 321.24169922 C-22.84610035 326.48322933 -18.62103403 329.40629739 -12.34960938 331.06201172 C-8.6144106 331.37452499 -4.88939773 331.38988813 -1.14257812 331.39794922 C-0.06261063 331.40460602 1.01735687 331.41126282 2.13005066 331.41812134 C4.41033226 331.42822524 6.6906433 331.43293906 8.97094727 331.43261719 C12.44076845 331.43698388 15.90931037 331.47331139 19.37890625 331.51123047 C21.60090714 331.51710054 23.82291403 331.52106866 26.04492188 331.52294922 C27.07333694 331.53732025 28.10175201 331.55169128 29.16133118 331.5664978 C36.45776859 331.52073098 43.00666593 330.433799 48.53034973 325.32235718 C53.54624968 319.85462084 55.14565145 315.01042536 54.95898438 307.62060547 C54.149936 300.91267276 50.65892559 296.35326625 45.45117188 292.24951172 C41.52951989 289.66343318 38.29134642 289.06201172 33.65039062 289.06201172 C33.65705246 287.96477783 33.66371429 286.86754395 33.670578 285.73706055 C33.73148326 275.37941842 33.77640846 265.02181279 33.80582714 254.66403198 C33.82146019 249.33942176 33.84265541 244.0149565 33.87670898 238.69042969 C33.90938651 233.54868145 33.92726139 228.40707236 33.93502235 223.26522827 C33.94055079 221.30689301 33.95134646 219.34856508 33.9675808 217.39028931 C33.98946661 214.64007308 33.9923529 211.89042649 33.9909668 209.14013672 C34.00175262 208.3366832 34.01253845 207.53322968 34.02365112 206.70542908 C33.98878361 200.28099443 32.78904088 194.76753313 28.70507812 189.60107422 C27.98578125 188.96943359 27.26648438 188.33779297 26.52539062 187.68701172 C25.8215625 187.03990234 25.11773437 186.39279297 24.39257812 185.72607422 C17.53697267 181.56583501 9.51840329 181.72242805 1.71289062 181.74951172 C0.78798828 181.73339844 -0.13691406 181.71728516 -1.08984375 181.70068359 C-10.29109597 181.69423562 -18.88662986 183.13739081 -25.34960938 190.06201172 Z " fill="#000000" transform="translate(243.349609375,41.93798828125)"/>
</svg>
