<?xml version="1.0" encoding="UTF-8"?>
<svg version="1.1" xmlns="http://www.w3.org/2000/svg" width="512" height="512">
<path d="M0 0 C1.03382813 0.51175781 2.06765625 1.02351563 3.1328125 1.55078125 C25.77258081 13.71588342 42.00792103 35.14589021 49.96875 59.32421875 C54.57861004 75.75557593 54.35368406 92.02679241 54 109 C54.8760791 109.11827148 55.7521582 109.23654297 56.65478516 109.35839844 C57.81284668 109.5237207 58.9709082 109.68904297 60.1640625 109.859375 C61.3082666 110.01889648 62.4524707 110.17841797 63.63134766 110.34277344 C74.07136659 112.37962885 81.91695329 118.60393911 87.75 127.25 C94.03697156 136.94486269 94.43980589 146.84940167 94.38818359 158.11328125 C94.39225634 159.61575704 94.39760215 161.11822982 94.40411377 162.62069702 C94.41770965 166.67444172 94.41252094 170.72795558 94.40297651 174.78170395 C94.39533961 179.039778 94.40243666 183.29783331 94.40713501 187.5559082 C94.41258088 194.70430012 94.40543172 201.85259882 94.39111328 209.00097656 C94.37478901 217.24555464 94.38007834 225.48991008 94.3965925 233.73448277 C94.41024077 240.83458889 94.41211074 247.9346283 94.40427649 255.03474331 C94.39961829 259.26592593 94.39892379 263.49700417 94.40888596 267.72817993 C94.41760217 271.70756998 94.41144954 275.68667517 94.39420319 279.6660347 C94.39026304 281.11958978 94.39132959 282.57316917 94.39799118 284.02671432 C94.454042 297.50789314 92.35353254 309.10176135 82.890625 319.265625 C73.80733859 327.72247786 64.34923253 331.31438876 52.03877258 331.26742554 C51.15921109 331.27195665 50.2796496 331.27648776 49.37343472 331.28115618 C46.43811144 331.29377522 43.50297429 331.29218141 40.56762695 331.29052734 C38.45801048 331.29651422 36.3483962 331.30332014 34.23878479 331.31088257 C28.51542387 331.32853533 22.79212278 331.3332377 17.06873727 331.33451414 C13.48975457 331.33593691 9.91078702 331.34020896 6.33180809 331.34550858 C-6.16348865 331.36400774 -18.65874275 331.37217949 -31.15405273 331.37060547 C-42.785736 331.3694047 -54.41723351 331.39049486 -66.04886979 331.4220928 C-76.04742607 331.44828256 -86.04592179 331.4589716 -96.04451209 331.45769465 C-102.01070011 331.45718574 -107.97672308 331.46282986 -113.94287682 331.48405075 C-119.55803779 331.50347803 -125.17287708 331.50352674 -130.7880497 331.48901749 C-132.84225563 331.48693375 -134.89648193 331.49160417 -136.95065308 331.5037384 C-153.36207507 331.59435866 -165.36271635 330.07870483 -177.7109375 318.37890625 C-184.94465076 310.72292039 -188.10749433 300.98935796 -188.14717102 290.63304138 C-188.15432632 289.34773026 -188.16148163 288.06241913 -188.16885376 286.73815918 C-188.17169372 285.32080102 -188.17440548 283.90344261 -188.17700195 282.48608398 C-188.18327127 280.98759302 -188.18991849 279.48910359 -188.19691467 277.99061584 C-188.21790671 273.07578605 -188.22831446 268.16095614 -188.23828125 263.24609375 C-188.24233102 261.54967801 -188.246448 259.85326242 -188.25063133 258.156847 C-188.26967457 250.18304254 -188.28390583 242.20924727 -188.2922433 234.23542446 C-188.30200425 225.05349334 -188.32829745 215.87180402 -188.36874419 206.68995804 C-188.39898576 199.57889849 -188.41371988 192.46790792 -188.41702431 185.35678536 C-188.41936616 181.11644974 -188.42821277 176.87637269 -188.45348549 172.63610649 C-188.47691172 168.64116184 -188.48094167 164.64664333 -188.47072411 160.65164757 C-188.4702321 159.19407985 -188.47645234 157.7364901 -188.49028015 156.27898788 C-188.61744219 142.06810635 -185.75015064 130.65636085 -176 120 C-167.46237529 112.4797412 -159.04285433 110.09164378 -148 109 C-148.01571045 108.24605957 -148.0314209 107.49211914 -148.04760742 106.71533203 C-148.65002423 73.32059773 -143.87913856 44.74824607 -120.44140625 19.47265625 C-89.07496821 -12.88982405 -39.91472239 -20.26626452 0 0 Z M-93 51 C-106.79822307 68.72970207 -107 86.44982319 -107 109 C-67.4 109 -27.8 109 13 109 C13 84.680158 12.43174564 64.93123863 -4.58227539 47.03271484 C-16.64078008 35.18987069 -32.05423831 29.71203754 -48.70849609 29.75561523 C-66.31752426 30.05976756 -81.33955003 38.17697541 -93 51 Z M-62.5625 177.9375 C-67.01421083 184.61506625 -67.16572986 190.78498144 -67.203125 198.61328125 C-67.20882507 199.54166306 -67.21452515 200.47004486 -67.22039795 201.42655945 C-67.22982476 203.38747018 -67.23637269 205.34839659 -67.24023438 207.30932617 C-67.24993265 210.29178837 -67.28097515 213.2735589 -67.3125 216.25585938 C-67.31903167 218.1666626 -67.3242815 220.07747073 -67.328125 221.98828125 C-67.3404718 222.8718782 -67.3528186 223.75547516 -67.36553955 224.66584778 C-67.33667216 232.78567222 -65.35812735 239.46866916 -59.72265625 245.51953125 C-55.24450512 249.36810104 -50.68286917 250.27760045 -44.875 249.9375 C-38.8371912 249.06835141 -35.47811208 246.51170554 -31.25 242.1875 C-26.81000989 235.89751402 -26.69146531 229.68057683 -26.69921875 222.2265625 C-26.69279106 220.84179214 -26.69279106 220.84179214 -26.68623352 219.42904663 C-26.68051417 217.48428158 -26.67997221 215.53949515 -26.68432617 213.59472656 C-26.68748301 210.64089953 -26.6640076 207.68807828 -26.63867188 204.734375 C-26.63639812 202.83593875 -26.63569574 200.93749984 -26.63671875 199.0390625 C-26.627509 198.16690094 -26.61829926 197.29473938 -26.60881042 196.39614868 C-26.66199493 189.24414391 -27.87135156 182.4225826 -32.3125 176.625 C-36.92203731 172.12266124 -40.49768658 170.80482756 -46.875 170.5 C-53.74122079 170.70419987 -58.22244511 172.55583194 -62.5625 177.9375 Z " fill="#FFFFFF" transform="translate(303,96)"/>
</svg>
