<?xml version="1.0" encoding="UTF-8"?>
<svg version="1.1" xmlns="http://www.w3.org/2000/svg" width="512" height="512">
<path d="M0 0 C1.46566406 0.49306641 1.46566406 0.49306641 2.9609375 0.99609375 C20.76170471 7.608461 33.63305483 21.36345414 41.54296875 38.3046875 C49.01718183 56.58472771 48.88641994 75.65855719 41.40625 93.90234375 C37.31878036 102.90613103 31.90597934 109.95089156 25 117 C24.11248047 117.94166016 24.11248047 117.94166016 23.20703125 118.90234375 C10.13903434 131.62416855 -7.76910254 135.52035174 -25.35522461 135.42016602 C-43.71466536 134.9525523 -59.81021389 127.88864944 -73 115 C-80.27023432 106.70756844 -86.7314184 97.21170806 -89.07446289 86.30737305 C-89.24933731 85.49987106 -89.42421173 84.69236908 -89.60438538 83.86039734 C-89.7349382 83.24646622 -89.86549103 82.6325351 -90 82 C-91.01175797 82.00444122 -92.02351593 82.00888245 -93.06593323 82.01345825 C-102.61451638 82.0540535 -112.16308195 82.08400801 -121.71173191 82.10362434 C-126.62043933 82.1140484 -131.52907691 82.12818247 -136.43774414 82.15087891 C-141.1774813 82.17265638 -145.9171514 82.18457899 -150.65693474 82.18975449 C-152.4625752 82.19344144 -154.26821212 82.20064111 -156.07382393 82.21146011 C-158.60862195 82.22604022 -161.14314511 82.22797522 -163.67797852 82.22705078 C-164.41957214 82.23424133 -165.16116577 82.24143188 -165.92523193 82.24884033 C-172.03684963 82.22482197 -177.11077432 81.63732892 -181.8125 77.5625 C-186.14229622 72.490453 -186.43423039 69.45701726 -186.31640625 62.953125 C-185.89231976 58.9949844 -184.72934941 56.87688181 -182 54 C-176.28047659 49.63510055 -169.81579035 49.85260274 -162.88330078 49.88647461 C-161.69692772 49.88625557 -161.69692772 49.88625557 -160.48658752 49.8860321 C-157.88946731 49.88672511 -155.29242009 49.89448871 -152.6953125 49.90234375 C-150.8878483 49.9042101 -149.08038359 49.90563298 -147.2729187 49.90663147 C-142.52842804 49.91043951 -137.78396826 49.92025512 -133.03948975 49.93133545 C-128.19299741 49.94158645 -123.34650006 49.94613698 -118.5 49.95117188 C-108.99998647 49.96187898 -99.49999581 49.97893475 -90 50 C-89.87198502 49.39155243 -89.74397003 48.78310486 -89.61207581 48.15621948 C-89.43917526 47.35298248 -89.26627472 46.54974548 -89.08813477 45.72216797 C-88.91886978 44.9280954 -88.7496048 44.13402283 -88.57521057 43.31588745 C-85.01190093 28.96944722 -74.13620375 15.93957255 -62 8 C-43.28283222 -3.03147176 -21.03141531 -7.66188729 0 0 Z M-51.75 40.9140625 C-58.94271349 49.94091794 -61.86433684 59.55161389 -61 71 C-59.29083817 82.00762943 -53.6522773 90.49063118 -45.1171875 97.53125 C-35.79698929 103.99692256 -26.04920652 104.80050374 -15 104 C-11.34682874 103.13607436 -8.27851065 101.81136303 -5 100 C-3.83017578 99.36384766 -3.83017578 99.36384766 -2.63671875 98.71484375 C6.40139727 93.26159392 12.19732541 85.14446346 15 75 C17.2360062 63.52402699 14.92819499 53.95521958 9 44 C3.47988899 36.02650632 -5.58236778 30.28695571 -15 28 C-29.70700442 26.42825907 -41.66942418 29.8884327 -51.75 40.9140625 Z " fill="#000000" transform="translate(186,8)"/>
<path d="M0 0 C4.38985563 3.27499071 8.2100221 7.06057503 12 11 C12.88558594 11.85658203 12.88558594 11.85658203 13.7890625 12.73046875 C25.26873291 24.67055375 29.99491264 41.93127232 30.5 58.0625 C29.86115469 78.36580254 21.74948139 96.14313852 7 110 C-8.01384034 123.89973912 -25.66336502 127.76517115 -45.56640625 127.2734375 C-63.61857282 126.53060051 -78.80434711 117.94306958 -91 105 C-91.74894531 104.20851563 -92.49789062 103.41703125 -93.26953125 102.6015625 C-100.22480171 94.59568714 -105.42825966 84.51026362 -107 74 C-108.17604797 74.00666183 -108.17604797 74.00666183 -109.37585449 74.01345825 C-116.79029186 74.05365054 -124.20467587 74.08404289 -131.61919403 74.10362434 C-135.4304217 74.11403001 -139.24155881 74.1281299 -143.05273438 74.15087891 C-146.73560976 74.17272274 -150.41839842 74.18459279 -154.10133362 74.18975449 C-155.50144311 74.19342964 -156.90154824 74.20060595 -158.30162048 74.21146011 C-176.23426099 74.34486568 -176.23426099 74.34486568 -181.875 69.5625 C-186.11266694 64.45237222 -186.43398098 61.44325009 -186.31640625 54.953125 C-185.89231976 50.9949844 -184.72934941 48.87688181 -182 46 C-176.80096281 42.13404927 -171.79244531 41.87418943 -165.46557617 41.88647461 C-164.16460495 41.88655014 -162.86363373 41.88662567 -161.52323914 41.88670349 C-160.11314861 41.89180938 -158.70305849 41.89702536 -157.29296875 41.90234375 C-155.84279937 41.90421021 -154.39262935 41.90563304 -152.94245911 41.90663147 C-149.13667034 41.9104387 -145.33092009 41.92025358 -141.52514648 41.93133545 C-137.63721233 41.94158823 -133.74927192 41.94613736 -129.86132812 41.95117188 C-122.24086791 41.96187754 -114.62043936 41.9789323 -107 42 C-106.80539436 41.08093872 -106.80539436 41.08093872 -106.6068573 40.14331055 C-106.34549736 38.93348511 -106.34549736 38.93348511 -106.07885742 37.69921875 C-105.90787033 36.90088623 -105.73688324 36.10255371 -105.56071472 35.2800293 C-101.99585207 20.78425991 -89.83956626 7.32806419 -77.6875 -0.75 C-53.54628773 -15.30225523 -23.81495499 -15.22823967 0 0 Z M-68.75 32.87890625 C-76.16898827 42.05990423 -78.55199744 52.08954656 -77.49609375 63.65234375 C-76.039887 73.47887279 -71.17889424 81.58422097 -63.640625 88.01171875 C-53.47503566 95.54120029 -44.59373565 96.96240338 -32 96 C-22.79028791 94.57668086 -14.31068581 88.28120102 -8.5625 81.125 C-2.59844711 72.2651064 -0.00063895 62.5720818 -1.40625 51.921875 C-3.73354428 41.11658013 -8.8428842 32.33582132 -18 26 C-35.35245911 15.9387097 -54.82063107 17.92349005 -68.75 32.87890625 Z " fill="#000000" transform="translate(186,380)"/>
<path d="M0 0 C3.64451123 2.99708939 6.94465995 6.26936128 10.21386719 9.66748047 C11.09945312 10.5240625 11.09945312 10.5240625 12.00292969 11.39794922 C15.58186653 15.12042631 17.98937936 19.5476409 20.46386719 24.04248047 C20.80579102 24.65510742 21.14771484 25.26773438 21.5 25.89892578 C23.3242043 29.35272834 24.51952515 32.580848 25.32226562 36.41210938 C25.4922406 37.21210358 25.66221558 38.01209778 25.83734131 38.83633423 C25.96159485 39.44061249 26.08584839 40.04489075 26.21386719 40.66748047 C27.01264786 40.66303925 27.81142853 40.65859802 28.63441467 40.65402222 C36.18160907 40.61386027 43.72875125 40.58345287 51.27602482 40.56385612 C55.15566143 40.55344239 59.03520934 40.53932751 62.91479492 40.51660156 C66.6625041 40.49478683 70.41012824 40.48289373 74.15789604 40.47772598 C75.58395157 40.47404566 77.01000272 40.46685906 78.4360218 40.45602036 C80.44143211 40.44139138 82.44692893 40.44066258 84.45239258 40.44042969 C85.59156631 40.43598846 86.73074005 40.43154724 87.9044342 40.42697144 C93.12193034 40.80614665 97.04046229 41.65052956 101.02636719 45.10498047 C105.35616341 50.17702747 105.64809757 53.21046321 105.53027344 59.71435547 C105.10618695 63.67249607 103.94321659 65.79059866 101.21386719 68.66748047 C96.01483 72.5334312 91.0063125 72.79329104 84.67944336 72.78100586 C83.37847214 72.78093033 82.07750092 72.7808548 80.73710632 72.78077698 C79.3270158 72.77567109 77.91692567 72.77045511 76.50683594 72.76513672 C75.05666655 72.76327026 73.60649654 72.76184743 72.15632629 72.760849 C68.35053753 72.75704177 64.54478728 72.74722689 60.73901367 72.73614502 C56.85107952 72.72589224 52.96313911 72.72134311 49.07519531 72.71630859 C41.4547351 72.70560293 33.83430655 72.68854817 26.21386719 72.66748047 C26.08839005 73.27298233 25.9629129 73.87848419 25.83363342 74.50233459 C25.66270676 75.30328049 25.49178009 76.10422638 25.31567383 76.92944336 C25.14894669 77.72057022 24.98221954 78.51169708 24.81044006 79.32679749 C23.90937496 82.86217068 22.40103854 85.92038216 20.65136719 89.10498047 C20.30130615 89.74894775 19.95124512 90.39291504 19.59057617 91.05639648 C16.2264142 97.0171942 12.11602326 101.89254298 7.21386719 106.66748047 C6.55128906 107.36228516 5.88871094 108.05708984 5.20605469 108.77294922 C-7.36973672 121.13356549 -24.10424698 125.88958271 -41.28613281 126.04248047 C-60.19771663 125.87419051 -76.71451658 120.0271176 -90.17285156 106.44091797 C-91.03523438 105.52568359 -91.89761719 104.61044922 -92.78613281 103.66748047 C-93.53507812 102.87599609 -94.28402344 102.08451172 -95.05566406 101.26904297 C-107.1503518 87.347433 -112.20466773 68.97695664 -110.98876953 50.75146484 C-108.98809662 30.17586972 -99.15694125 14.00214051 -83.47363281 0.85498047 C-59.27963334 -16.81527986 -24.43189813 -18.22707764 0 0 Z M-69.78613281 30.66748047 C-76.9221656 39.29395048 -79.99432124 48.48082206 -79.78613281 59.66748047 C-78.32737063 70.85604479 -73.59446925 80.09194722 -64.79394531 87.20263672 C-55.12554937 94.25642754 -45.58620785 95.62851751 -33.78613281 94.66748047 C-23.45029526 92.49357005 -15.09388853 86.45167891 -9.06738281 77.84716797 C-3.41364239 68.22891445 -1.29417054 58.19135865 -3.91113281 47.29248047 C-7.21205218 36.20753264 -13.5335947 28.36284012 -23.34863281 22.35498047 C-39.6931436 14.33131154 -57.16038917 18.15248897 -69.78613281 30.66748047 Z " fill="#000000" transform="translate(406.7861328125,199.33251953125)"/>
<path d="M0 0 C0.99571994 -0.00226556 1.99143988 -0.00453111 3.01733315 -0.00686532 C6.35744325 -0.01320093 9.69751273 -0.01237624 13.03762817 -0.0115509 C15.43091891 -0.01454265 17.82420916 -0.01794522 20.21749878 -0.02172852 C26.04586623 -0.0296521 31.87422134 -0.03278308 37.70259391 -0.03334089 C42.44068871 -0.03381631 47.17878018 -0.03587235 51.91687393 -0.03904152 C65.35423217 -0.04784628 78.79158243 -0.05246114 92.22894357 -0.05171105 C92.95310441 -0.05167109 93.67726525 -0.05163113 94.42337036 -0.05158997 C95.51093985 -0.05152864 95.51093985 -0.05152864 96.62048043 -0.05146609 C108.37159247 -0.05105961 120.12267246 -0.06062999 131.87377523 -0.07472833 C143.94363206 -0.08909469 156.01347326 -0.09599838 168.08333886 -0.09513456 C174.85809249 -0.09480269 181.63281252 -0.09754533 188.40755844 -0.10831261 C194.77853135 -0.11798358 201.14943324 -0.11807959 207.52040863 -0.11079597 C209.85890684 -0.10974892 212.19740946 -0.11212018 214.53590012 -0.11815643 C217.72779328 -0.12586202 220.91944034 -0.12124088 224.11132812 -0.11352539 C225.03691902 -0.11866895 225.96250992 -0.12381252 226.91614902 -0.12911195 C233.4212146 -0.09435894 238.88833373 0.14530732 243.99514771 4.57121277 C247.62127917 8.81896677 248.81063668 11.55354744 249.18264771 17.13371277 C248.22238105 22.70325938 246.46205542 25.48055984 242.18264771 29.13371277 C236.63924875 32.82931207 230.81516751 32.27816502 224.36529541 32.26742554 C223.36957547 32.26969109 222.37385553 32.27195665 221.34796226 32.27429086 C218.00785216 32.28062647 214.66778268 32.27980177 211.32766724 32.27897644 C208.9343765 32.28196819 206.54108625 32.28537075 204.14779663 32.28915405 C198.31942918 32.29707764 192.49107407 32.30020862 186.6627015 32.30076643 C181.9246067 32.30124185 177.18651523 32.30329789 172.44842148 32.30646706 C159.01106324 32.31527182 145.57371298 32.31988668 132.13635184 32.31913658 C131.412191 32.31909663 130.68803016 32.31905667 129.94192505 32.3190155 C128.85435556 32.31895418 128.85435556 32.31895418 127.74481498 32.31889162 C115.99370294 32.31848515 104.24262295 32.32805553 92.49152018 32.34215387 C80.42166335 32.35652023 68.35182215 32.36342392 56.28195655 32.36256009 C49.50720292 32.36222823 42.73248289 32.36497087 35.95773697 32.37573814 C29.58676406 32.38540912 23.21586217 32.38550513 16.84488678 32.37822151 C14.50638857 32.37717445 12.16788595 32.37954572 9.82939529 32.38558197 C6.63750213 32.39328756 3.44585507 32.38866642 0.25396729 32.38095093 C-1.13441906 32.38866627 -1.13441906 32.38866627 -2.55085361 32.39653748 C-9.05591919 32.36178448 -14.52303832 32.12211821 -19.62985229 27.69621277 C-23.95964851 22.62416577 -24.25158268 19.59073003 -24.13375854 13.08683777 C-23.70967205 9.12869717 -22.5467017 7.01059458 -19.81735229 4.13371277 C-13.72304533 -0.39795138 -7.27596806 -0.01211499 0 0 Z " fill="#000000" transform="translate(23.817352294921875,239.8662872314453)"/>
<path d="M0 0 C0.99571994 -0.00226556 1.99143988 -0.00453111 3.01733315 -0.00686532 C6.35744325 -0.01320093 9.69751273 -0.01237624 13.03762817 -0.0115509 C15.43091891 -0.01454265 17.82420916 -0.01794522 20.21749878 -0.02172852 C26.04586623 -0.0296521 31.87422134 -0.03278308 37.70259391 -0.03334089 C42.44068871 -0.03381631 47.17878018 -0.03587235 51.91687393 -0.03904152 C65.35423217 -0.04784628 78.79158243 -0.05246114 92.22894357 -0.05171105 C92.95310441 -0.05167109 93.67726525 -0.05163113 94.42337036 -0.05158997 C95.51093985 -0.05152864 95.51093985 -0.05152864 96.62048043 -0.05146609 C108.37159247 -0.05105961 120.12267246 -0.06062999 131.87377523 -0.07472833 C143.94363206 -0.08909469 156.01347326 -0.09599838 168.08333886 -0.09513456 C174.85809249 -0.09480269 181.63281252 -0.09754533 188.40755844 -0.10831261 C194.77853135 -0.11798358 201.14943324 -0.11807959 207.52040863 -0.11079597 C209.85890684 -0.10974892 212.19740946 -0.11212018 214.53590012 -0.11815643 C217.72779328 -0.12586202 220.91944034 -0.12124088 224.11132812 -0.11352539 C225.03691902 -0.11866895 225.96250992 -0.12381252 226.91614902 -0.12911195 C233.4212146 -0.09435894 238.88833373 0.14530732 243.99514771 4.57121277 C248.32494392 9.64325977 248.61687809 12.67669551 248.49905396 19.18058777 C248.07496746 23.13872837 246.91199711 25.25683096 244.18264771 28.13371277 C238.01680137 32.83922708 230.7312059 32.27990556 223.32769775 32.26742554 C222.33999606 32.26969109 221.35229437 32.27195665 220.33466232 32.27429086 C217.02763121 32.28061702 213.72064123 32.27980238 210.41360474 32.27897644 C208.0414932 32.28196877 205.66938214 32.28537147 203.29727173 32.28915405 C197.52418541 32.29707253 191.75111156 32.30020835 185.97802009 32.30076643 C181.28429417 32.30124211 176.59057162 32.30329944 171.89684677 32.30646706 C158.58113739 32.31527009 145.26543605 32.31988693 131.94972374 32.31913658 C131.23236501 32.31909663 130.51500629 32.31905667 129.77590942 32.3190155 C129.05767214 32.31897462 128.33943486 32.31893374 127.59943281 32.31889162 C115.95899074 32.31848516 104.318581 32.32805577 92.67814828 32.34215387 C80.71786615 32.35652476 68.75759979 32.36342367 56.7973088 32.36256009 C50.08569527 32.36222839 43.37411566 32.36496381 36.66250992 32.37573814 C30.3506163 32.38541581 24.03879433 32.38550052 17.72689819 32.37822151 C15.41139496 32.3771753 13.09588728 32.37954072 10.78039169 32.38558197 C7.61736513 32.39329949 4.45458617 32.38865852 1.29156494 32.38095093 C-0.07975612 32.38866627 -0.07975612 32.38866627 -1.47878063 32.39653748 C-8.14783765 32.36067537 -14.41291107 32.17226077 -19.69235229 27.69621277 C-23.23849401 23.41998306 -24.44675186 20.69271925 -24.81735229 15.13371277 C-23.85708564 9.56416616 -22.09676001 6.7868657 -17.81735229 3.13371277 C-12.27395334 -0.56188653 -6.4498721 -0.01073949 0 0 Z " fill="#000000" transform="translate(263.8173522949219,421.8662872314453)"/>
<path d="M0 0 C0.92151043 -0.00226556 1.84302086 -0.00453111 2.79245585 -0.00686532 C5.8814813 -0.01319737 8.97046279 -0.01237646 12.05949402 -0.0115509 C14.27382463 -0.0145429 16.48815473 -0.01794552 18.70248413 -0.02172852 C24.71906503 -0.0305688 30.73563172 -0.03290665 36.75221848 -0.0335443 C41.77456522 -0.03449364 46.79690864 -0.03817225 51.8192541 -0.0417164 C62.99196517 -0.04939587 74.16467099 -0.05238501 85.33738414 -0.05171105 C86.00751634 -0.05167109 86.67764854 -0.05163113 87.36808777 -0.05158997 C88.03904072 -0.05154909 88.70999366 -0.0515082 89.40127852 -0.05146609 C100.27226851 -0.05105973 111.14322385 -0.06062706 122.01420382 -0.07472833 C133.18344405 -0.08910186 144.3526716 -0.09581495 155.52192229 -0.09513456 C161.78977521 -0.09487957 168.05758892 -0.09773088 174.32543373 -0.10831261 C180.22118238 -0.11799423 186.11685432 -0.11807226 192.01260567 -0.11079597 C194.17491518 -0.10975021 196.33722947 -0.11211255 198.49953079 -0.11815643 C201.45461126 -0.12588038 204.40942713 -0.12122875 207.36450195 -0.11352539 C208.64346343 -0.12124074 208.64346343 -0.12124074 209.94826251 -0.12911195 C216.47289364 -0.09160946 222.59195258 0.20001319 227.74772644 4.57121277 C231.98539338 9.68134055 232.30670742 12.69046268 232.18913269 19.18058777 C231.7650462 23.13872837 230.60207585 25.25683096 227.87272644 28.13371277 C221.95617663 32.53319853 215.78172711 32.28125446 208.71421814 32.27415466 C207.78932972 32.27712579 206.8644413 32.28009691 205.91152596 32.28315806 C202.81101852 32.29183266 199.71054974 32.29335227 196.61003113 32.29484558 C194.38747068 32.29947461 192.16491102 32.30449939 189.94235229 32.30989075 C183.90298079 32.32300816 177.8636204 32.32945838 171.82423687 32.33390141 C168.05064685 32.33683307 164.27705987 32.34093805 160.50347137 32.34540558 C150.04798417 32.35751239 139.59249876 32.36789523 129.13700485 32.37128067 C128.46829676 32.37150024 127.79958867 32.3717198 127.1106167 32.37194602 C126.44034314 32.3721643 125.77006958 32.37238258 125.0794847 32.37260747 C123.72134002 32.37305093 122.36319534 32.37349749 121.00505066 32.37394714 C119.99452878 32.37427929 119.99452878 32.37427929 118.96359232 32.37461814 C108.05122949 32.37856491 97.13893348 32.39601659 86.22659644 32.41930667 C75.01328056 32.44304524 63.799997 32.45522589 52.58665204 32.45664859 C46.29471052 32.45769647 40.00286329 32.46360092 33.71094513 32.4814682 C27.7913654 32.49795128 21.87195084 32.50010312 15.95235634 32.49132919 C13.78240072 32.49055896 11.61243621 32.49489965 9.44250298 32.50478745 C6.47452915 32.51751621 3.50713948 32.51162487 0.53916931 32.50120544 C-0.31444978 32.50926185 -1.16806887 32.51731825 -2.04755521 32.52561879 C-8.7895679 32.47046655 -15.52581514 31.60176306 -20.56477356 26.82121277 C-23.49037843 21.7891724 -24.60869616 17.82160833 -23.66633606 12.09074402 C-22.48037713 7.78519745 -20.22262911 4.94820792 -16.68977356 2.32121277 C-11.26453387 -0.1929227 -5.8627541 -0.01056525 0 0 Z " fill="#000000" transform="translate(280.1272735595703,57.86628723144531)"/>
</svg>
