<?xml version="1.0" encoding="UTF-8"?>
<svg version="1.1" xmlns="http://www.w3.org/2000/svg" width="512" height="512">
<path d="M0 0 C1.27825653 0.00323273 1.27825653 0.00323273 2.58233643 0.00653076 C63.97363204 0.25475322 120.51823917 24.19360752 164.875 66.3125 C165.40915527 66.81797363 165.94331055 67.32344727 166.49365234 67.84423828 C174.79313455 75.75402712 182.04323512 84.11420971 188.875 93.3125 C189.29346191 93.86486328 189.71192383 94.41722656 190.14306641 94.98632812 C220.27590967 134.81858446 236.44615727 184.57750673 236.1875 234.4375 C236.18534485 235.19496521 236.1831897 235.95243042 236.18096924 236.73284912 C235.91589628 295.20365349 212.91180369 348.54565848 174.875 392.3125 C174.07707031 393.23546875 173.27914063 394.1584375 172.45703125 395.109375 C168.51730765 399.58479252 164.49921736 403.72275793 159.93359375 407.55859375 C158.51868016 408.76408939 157.13689086 410.00921984 155.78515625 411.28515625 C143.58410298 422.77708847 129.45047866 432.11733053 114.875 440.3125 C114.23836426 440.67794922 113.60172852 441.04339844 112.94580078 441.41992188 C77.92775657 461.42032921 38.02292525 470.42339666 -2.06420898 470.48950195 C-3.75077449 470.4957798 -5.43733865 470.50242773 -7.12390137 470.50941467 C-12.622956 470.53028655 -18.12201041 470.54079569 -23.62109375 470.55078125 C-25.5236875 470.55483402 -27.42628111 470.55895109 -29.32887459 470.56313133 C-38.26481146 470.58213962 -47.20074026 470.59638415 -56.13669342 470.6047433 C-66.41826214 470.61452353 -76.69961604 470.64088194 -86.98110908 470.68124419 C-94.954278 470.71146177 -102.92738546 470.72621719 -110.90061051 470.72952431 C-115.65169205 470.73186666 -120.40254291 470.740722 -125.15356255 470.76598549 C-129.62298195 470.789373 -134.0920204 470.79345685 -138.56148529 470.78322411 C-140.19321274 470.78273136 -141.82495969 470.78897386 -143.4566288 470.80278015 C-157.99281795 470.91881378 -170.31581758 468.48333587 -181.28125 458.3125 C-191.222212 447.9264203 -193.65027761 436.74994787 -193.38671875 422.84375 C-193.06438894 415.17072824 -190.50556878 409.53968444 -186.5625 403.04296875 C-186.10278809 402.2837915 -185.64307617 401.52461426 -185.16943359 400.74243164 C-184.23594633 399.22659861 -183.28093727 397.72377427 -182.30322266 396.23608398 C-179.65590336 392.26034657 -179.65590336 392.26034657 -179.53515625 387.6796875 C-181.50773733 384.74262574 -183.66674316 382.01894157 -185.9375 379.3125 C-218.29542417 339.16880466 -234.68079234 286.39020671 -234.4375 235.1875 C-234.43567719 234.38367889 -234.43385437 233.57985779 -234.43197632 232.75167847 C-234.38132667 219.415973 -233.62251797 206.43997031 -231.125 193.3125 C-230.96402832 192.43770996 -230.80305664 191.56291992 -230.63720703 190.66162109 C-220.31095038 136.19334512 -190.50706764 84.20206795 -146.125 50.3125 C-145.59390625 49.89967773 -145.0628125 49.48685547 -144.515625 49.06152344 C-103.08113574 16.96404925 -52.34996952 -0.239955 0 0 Z M-142.125 106.5 C-157.46687732 123.876024 -169.8410021 143.62319542 -178.125 165.3125 C-178.51461914 166.32497803 -178.51461914 166.32497803 -178.91210938 167.35791016 C-197.21102897 215.91782087 -193.89734999 268.72376657 -173.24755859 315.87646484 C-166.85890271 329.74032052 -158.63496356 342.61614087 -149 354.4375 C-139.32067966 366.35794042 -133.4846771 377.57526607 -134.26953125 393.1875 C-135.64514217 404.55518588 -141.45459243 414.46744301 -148.05859375 423.640625 C-149.30425581 425.26302691 -149.30425581 425.26302691 -149.125 427.3125 C-130.44217197 427.35956743 -111.75935623 427.39465678 -93.07648087 427.41612434 C-84.39846037 427.4263644 -75.72047706 427.44028246 -67.04248047 427.46337891 C-59.4640941 427.48353884 -51.88573471 427.49626897 -44.30732226 427.50067699 C-40.3079282 427.50324685 -36.30861118 427.50912775 -32.30924225 427.52396011 C-17.07839688 427.57809264 -1.91517426 427.49559399 13.28613281 426.43310547 C14.38450344 426.35644213 15.48287407 426.27977879 16.61452866 426.20079231 C42.04352475 424.18769454 66.54058876 416.54174953 88.875 404.3125 C90.24595792 403.58307797 91.61705468 402.85391687 92.98828125 402.125 C101.52375789 397.52194655 109.28570518 392.38179501 116.875 386.3125 C117.71675781 385.67441406 118.55851562 385.03632813 119.42578125 384.37890625 C154.14918597 357.34839544 176.9095635 319.24559213 187.6875 276.9375 C187.88230957 276.17864502 188.07711914 275.41979004 188.27783203 274.63793945 C191.43089566 261.62981573 192.2838572 248.75877064 192.25 235.4375 C192.24945618 234.62812988 192.24891235 233.81875977 192.24835205 232.98486328 C192.205687 219.11087097 191.11478882 205.84513513 187.875 192.3125 C187.56151611 190.97759521 187.56151611 190.97759521 187.24169922 189.61572266 C175.13922277 139.67374307 142.51446789 96.95496863 98.875 70.3125 C80.68005353 59.43751695 60.58074461 51.75325545 39.875 47.3125 C39.16569336 47.15023926 38.45638672 46.98797852 37.72558594 46.82080078 C-27.86528308 32.31656708 -97.05426178 58.40050817 -142.125 106.5 Z " fill="#000000" transform="translate(255.125,20.6875)"/>
<path d="M0 0 C1.28003906 -0.01160156 2.56007812 -0.02320313 3.87890625 -0.03515625 C12.99356427 -0.00687913 20.73235051 0.60735051 27.5 7.375 C32.00962152 13.89566896 32.64761753 19.24392013 32.61352539 26.99902344 C32.61367142 27.86767532 32.61381744 28.73632721 32.6139679 29.63130188 C32.61327191 32.49901843 32.60549415 35.36666981 32.59765625 38.234375 C32.59579096 40.2240597 32.59436758 42.21374485 32.59336853 44.20343018 C32.58955212 49.43785879 32.57972929 54.67225961 32.56866455 59.90667725 C32.55843162 65.24897892 32.55386687 70.59128509 32.54882812 75.93359375 C32.53810626 86.4140747 32.52104032 96.89453504 32.5 107.375 C33.75425781 107.50519531 35.00851562 107.63539063 36.30078125 107.76953125 C41.94714151 108.35563853 45.55478877 111.13249429 49.25 115.3125 C53.71556218 121.3906263 54.44973643 126.98486341 53.5 134.375 C51.24272262 141.49953171 47.93583309 145.68035508 41.5 149.375 C35.90287372 151.24070876 29.62944659 150.68138482 23.75952148 150.72509766 C22.13697926 150.74160961 20.51450834 150.76883689 18.89233398 150.80712891 C2.6205112 151.18874604 2.6205112 151.18874604 -3.09545898 146.74243164 C-3.55895752 146.2911792 -4.02245605 145.83992676 -4.5 145.375 C-4.9937915 144.89861084 -5.48758301 144.42222168 -5.99633789 143.93139648 C-11.36422193 138.11484213 -11.79350387 132.01567419 -11.72705078 124.52392578 C-11.72734283 123.65498184 -11.72763489 122.7860379 -11.72793579 121.89076233 C-11.72654838 119.03384226 -11.71101493 116.17718672 -11.6953125 113.3203125 C-11.69158028 111.33348737 -11.68873429 109.34666039 -11.68673706 107.35983276 C-11.67911709 102.1418343 -11.65948263 96.92394796 -11.6373291 91.70599365 C-11.61683543 86.37692786 -11.60772781 81.04784388 -11.59765625 75.71875 C-11.57623521 65.27078419 -11.54211901 54.82290144 -11.5 44.375 C-12.11198242 44.25020264 -12.72396484 44.12540527 -13.35449219 43.99682617 C-14.16047852 43.82642822 -14.96646484 43.65603027 -15.796875 43.48046875 C-16.99328613 43.23139771 -16.99328613 43.23139771 -18.21386719 42.97729492 C-24.0200702 41.44761713 -27.25449667 37.80293202 -30.51953125 33.05859375 C-33.48578157 27.96515197 -33.01252292 22.06328259 -32.5 16.375 C-30.8180668 10.49303933 -27.5771536 6.79231492 -22.5 3.375 C-15.11128548 -0.24056765 -8.12123571 -0.07360637 0 0 Z " fill="#000000" transform="translate(245.5,209.625)"/>
<path d="M0 0 C5.98844387 4.82170928 9.13773462 10.62734084 10.05859375 18.265625 C10.24870603 27.34628237 8.7759559 33.71575136 2.5625 40.51171875 C-4.74481098 47.38700965 -10.90879113 48.67373742 -20.8359375 48.49609375 C-28.3430876 47.82972874 -33.76443912 44.69661697 -38.8046875 39.15234375 C-44.44671865 31.80016327 -45.43117709 24.30641327 -44.3125 15.1875 C-42.15114119 7.43203602 -37.79936267 1.44197976 -30.8125 -2.625 C-20.58727356 -8.1876672 -9.2834915 -6.56217117 0 0 Z " fill="#000000" transform="translate(273.3125,135.8125)"/>
</svg>
