<?xml version="1.0" encoding="UTF-8"?>
<svg version="1.1" xmlns="http://www.w3.org/2000/svg" width="512" height="512">
<path d="M0 0 C0.87624023 0.16097168 1.75248047 0.32194336 2.65527344 0.48779297 C57.4322292 10.87446163 110.1153871 41.14762483 144 86 C144.47614746 86.62148926 144.95229492 87.24297852 145.44287109 87.88330078 C176.94953805 129.21557629 194.57461476 179.49487554 194.3125 231.5625 C194.31034485 232.34203033 194.3081897 233.12156067 194.30596924 233.92471313 C194.07395182 286.59065536 176.41266742 338.08005604 143 379 C142.1853125 380.01835937 141.370625 381.03671875 140.53125 382.0859375 C128.9470585 396.34272322 115.82181337 409.15581613 101 420 C99.87216154 420.84604192 98.74455819 421.69239736 97.6171875 422.5390625 C67.08506681 445.18699466 31.42551688 459.05976728 -6 465 C-6.74942871 465.12842285 -7.49885742 465.2568457 -8.27099609 465.38916016 C-32.0466866 469.37126808 -58.3777351 468.2531058 -82 464 C-82.89477051 463.83902832 -83.78954102 463.67805664 -84.71142578 463.51220703 C-129.91184566 454.99879341 -171.35401482 433.74054643 -204.265625 401.6875 C-205.90547243 400.09197277 -207.56040286 398.51375075 -209.21875 396.9375 C-216.09008891 390.32733317 -222.07260707 383.24020003 -227.78759766 375.61376953 C-228.85830727 374.18860026 -229.94916093 372.77861319 -231.04296875 371.37109375 C-261.02199477 331.87295432 -276.56098631 281.79790951 -276.3125 232.4375 C-276.31034485 231.65796967 -276.3081897 230.87843933 -276.30596924 230.07528687 C-276.10522829 184.50883115 -263.06526406 138.68471913 -237 101 C-236.35297119 100.06220703 -236.35297119 100.06220703 -235.69287109 99.10546875 C-221.55740428 78.83379527 -204.66943071 59.87206215 -184.6796875 45.23095703 C-183.0029241 44.00214293 -181.34512847 42.75055492 -179.6875 41.49609375 C-149.58364685 19.03223364 -113.92309939 5.1046753 -77 -1 C-76.27683594 -1.12842285 -75.55367187 -1.2568457 -74.80859375 -1.38916016 C-50.87427926 -5.51079668 -23.77381288 -4.49497363 0 0 Z M-57 90 C-60.76070204 95.43777186 -62.12049474 99.98243951 -62.14044189 106.51434326 C-62.14615204 107.63577728 -62.15186218 108.7572113 -62.15774536 109.91262817 C-62.15886322 111.13867767 -62.15998108 112.36472717 -62.16113281 113.62792969 C-62.16609772 114.92264191 -62.17106262 116.21735413 -62.17617798 117.55130005 C-62.18928016 121.1010734 -62.19574281 124.65082786 -62.20018864 128.2006216 C-62.20312324 130.42054687 -62.20722881 132.64046702 -62.21169281 134.86038971 C-62.22536278 141.81223868 -62.23503155 148.7640759 -62.2388947 155.71593738 C-62.2433726 163.72912337 -62.26091002 171.74213855 -62.2898953 179.75527263 C-62.31154512 185.9567044 -62.32160076 192.15808824 -62.32293582 198.35955739 C-62.32398161 202.05982744 -62.32984077 205.75993681 -62.34775543 209.46016693 C-62.36736949 213.59171329 -62.36293403 217.72290433 -62.35644531 221.85449219 C-62.3656601 223.07244476 -62.37487488 224.29039734 -62.3843689 225.54525757 C-62.34118129 234.32921091 -61.4653036 241.02795762 -55.15869141 247.64111328 C-54.3587677 248.48724182 -53.55884399 249.33337036 -52.73468018 250.20513916 C-51.83223572 251.12744324 -50.92979126 252.04974731 -50 253 C-49.26607655 253.75598606 -49.26607655 253.75598606 -48.51732635 254.52724457 C-44.53102154 258.63137738 -40.50039439 262.69045175 -36.4609375 266.7421875 C-35.82700703 267.37894535 -35.19307655 268.0157032 -34.53993607 268.67175674 C-31.19531487 272.03124422 -27.84792735 275.3879445 -24.49804688 278.7421875 C-21.05393243 282.19181726 -17.61922162 285.65065622 -14.18654442 289.11166191 C-11.52693641 291.7899223 -8.86061607 294.46142329 -6.1924324 297.13113785 C-4.92295263 298.40363074 -3.65595799 299.6786082 -2.39158249 300.95617294 C-0.62405829 302.74083783 1.15278564 304.51570332 2.93212891 306.28857422 C3.44451614 306.81017624 3.95690338 307.33177826 4.4848175 307.8691864 C10.0146714 313.33657905 15.62981118 316.59871135 23.5078125 317.1015625 C29.59106314 316.85365573 34.7160797 314.2839203 39 310 C43.24451027 304.10484684 44.75681064 298.19938736 43.69921875 290.93359375 C40.75652668 281.02452863 31.59322524 274.39621582 23.23083496 269.23187256 C5.32245987 257.92165819 -14.55588228 242.19518321 -19.80426025 220.70718384 C-25.84542791 187.95546951 -22.94262979 152.39753329 -20.80944824 119.35601807 C-20.73727585 118.17696868 -20.66510345 116.99791929 -20.59074402 115.78314114 C-20.45314092 113.59913079 -20.30079822 111.4159733 -20.13020325 109.23429203 C-19.65830056 101.75000132 -20.6563082 96.68294426 -24.75 90.25 C-29.76513261 85.23486739 -34.52970677 83.3438485 -41.5078125 82.8984375 C-47.59106314 83.14634427 -52.7160797 85.7160797 -57 90 Z " fill="#000000" transform="translate(297,24)"/>
</svg>
