<?xml version="1.0" encoding="UTF-8"?>
<svg version="1.1" xmlns="http://www.w3.org/2000/svg" width="512" height="512">
<path d="M0 0 C1.60284348 -0.01925285 1.60284348 -0.01925285 3.23806763 -0.03889465 C4.3891098 -0.04628159 5.54015198 -0.05366852 6.72607422 -0.0612793 C7.91748016 -0.06935104 9.10888611 -0.07742279 10.33639526 -0.08573914 C12.85982818 -0.09956947 15.38327973 -0.11029632 17.90673828 -0.11816406 C21.7453207 -0.13533947 25.58303339 -0.17923281 29.42138672 -0.22338867 C31.87710957 -0.23351939 34.33283973 -0.24203431 36.78857422 -0.2487793 C37.92747101 -0.26628738 39.0663678 -0.28379547 40.23977661 -0.30183411 C48.54850713 -0.27948164 55.30330745 1.22495971 62.24169922 5.9309082 C69.42779214 13.19545192 72.08146262 21.44432484 72.18607324 31.56933224 C72.17646824 32.57392605 72.16686323 33.57851986 72.15696716 34.61355591 C72.16526876 36.25971683 72.16526876 36.25971683 72.17373806 37.93913352 C72.18726647 41.587832 72.17241728 45.23583715 72.1574707 48.88452148 C72.16125665 51.5119048 72.16675896 54.13928611 72.17384338 56.7666626 C72.1877274 63.14439504 72.18025613 69.52192857 72.1651678 75.89965142 C72.14825128 83.33492095 72.15152497 90.7701417 72.15526188 98.20542453 C72.16113139 111.4751245 72.1470036 124.74472938 72.12231445 138.0144043 C72.09838665 150.8764197 72.09131513 163.73830813 72.10180664 176.6003418 C72.11322677 190.62583004 72.11513314 204.65125966 72.10070854 218.6767472 C72.09918279 220.17338236 72.09766243 221.67001752 72.09614754 223.16665268 C72.09538972 223.90292296 72.09463191 224.63919324 72.09385113 225.39777473 C72.08911752 230.57490605 72.09095311 235.75201109 72.09521294 240.929142 C72.1006659 247.90105593 72.08985597 254.8727914 72.06825829 261.84467316 C72.06269886 264.4016371 72.06221735 266.95861793 72.06721115 269.51558304 C72.07317731 273.00872119 72.0606325 276.5013252 72.04344177 279.99441528 C72.04945182 281.00347054 72.05546186 282.01252579 72.06165403 283.05215847 C71.97301882 292.973131 69.7139723 299.98159742 62.84716797 307.2277832 C57.19372262 312.25642711 50.9588566 314.2817348 43.47924805 314.33813477 C42.44749954 314.34774231 41.41575104 314.35734985 40.35273743 314.36724854 C39.24230576 314.37149841 38.13187408 314.37574829 36.98779297 314.38012695 C35.83840744 314.38582703 34.68902191 314.3915271 33.50480652 314.3973999 C31.07132893 314.4068453 28.63783857 314.41338205 26.2043457 314.41723633 C22.49976972 314.4269196 18.79575388 314.45793908 15.09130859 314.48950195 C12.72347334 314.4960346 10.35563412 314.50128404 7.98779297 314.50512695 C6.88748245 314.51747375 5.78717194 314.52982056 4.65351868 314.5425415 C-5.68306478 314.51292735 -12.82349936 312.54351371 -20.39501953 305.3684082 C-25.2374909 299.92426704 -27.46240599 293.77009097 -27.47845936 286.53008175 C-27.48514612 285.12798597 -27.48514612 285.12798597 -27.49196798 283.69756502 C-27.49178361 282.67394556 -27.49159925 281.6503261 -27.4914093 280.59568787 C-27.49508599 279.50563936 -27.49876268 278.41559085 -27.50255078 277.29251057 C-27.51359495 273.62696846 -27.51743273 269.9614547 -27.52124023 266.29589844 C-27.52750436 263.6727947 -27.53415112 261.04969184 -27.54115295 258.42658997 C-27.56090379 250.54530688 -27.57098232 242.66402254 -27.57988074 234.78272089 C-27.58426635 231.06882605 -27.58963249 227.35493262 -27.59486961 223.64103889 C-27.61188134 211.29063812 -27.62637435 198.94023823 -27.63361835 186.58982754 C-27.63552817 183.38573137 -27.63744851 180.1816352 -27.6394043 176.97753906 C-27.63988804 176.18120172 -27.64037178 175.38486439 -27.64087018 174.56439561 C-27.64916613 161.67131637 -27.67449593 148.77833003 -27.70698497 135.88529133 C-27.74008818 122.64023437 -27.7580701 109.39522457 -27.7612626 96.15012604 C-27.76342479 88.71678503 -27.7721307 81.28357947 -27.79772377 73.85027885 C-27.81947549 67.51812758 -27.82745936 61.18614466 -27.81775699 54.85396027 C-27.81322495 51.62616967 -27.81723476 48.39879709 -27.83451843 45.17103958 C-27.85224911 41.66280309 -27.84512426 38.15543924 -27.83198547 34.64720154 C-27.84295472 33.63919713 -27.85392397 32.63119272 -27.86522561 31.59264272 C-27.79200331 23.46065191 -25.79658156 16.42144225 -21.71923828 9.36450195 C-15.33167331 3.48121842 -8.66526523 0.09093863 0 0 Z " fill="#000000" transform="translate(53.34423828125,171.822998046875)"/>
<path d="M0 0 C1.14872086 -0.01606293 2.29744171 -0.03212585 3.48097229 -0.04867554 C8.74952647 -0.09325724 14.0179321 -0.13465066 19.28662109 -0.15722656 C22.05974684 -0.17051604 24.83212799 -0.19827566 27.60498047 -0.23925781 C31.61169612 -0.29846206 35.61762495 -0.31593801 39.62475586 -0.33056641 C40.85428482 -0.35323578 42.08381378 -0.37590515 43.3506012 -0.39926147 C51.87062245 -0.37852124 58.90398633 1.00322396 65.30653381 6.96670532 C72.07381883 14.31048697 73.55354418 21.68482934 73.5425415 31.40228271 C73.54551263 32.22508232 73.54848375 33.04788193 73.5515449 33.89561486 C73.5602113 36.65063509 73.56173841 39.40561176 73.56323242 42.16064453 C73.56786204 44.1369028 73.5728869 46.11316017 73.57827759 48.0894165 C73.59138949 53.45732178 73.59784416 58.82521456 73.60228825 64.19313335 C73.60522085 67.54794927 73.60932602 70.90276179 73.61379242 74.25757599 C73.62746401 84.75742824 73.63713239 95.25727271 73.64099431 105.75713325 C73.64547471 117.87141087 73.66302326 129.98557564 73.69199491 142.09981894 C73.71362074 151.4681381 73.72369907 160.83642552 73.72503543 170.20476937 C73.72608278 175.79807389 73.73197592 181.39127227 73.74985504 186.98455048 C73.7663513 192.24751577 73.76848361 197.51029532 73.75971603 202.77327728 C73.7589465 204.70134987 73.76327727 206.62943252 73.77317429 208.55747986 C73.78592552 211.19704772 73.77999989 213.83596084 73.76959229 216.4755249 C73.78167689 217.61004298 73.78167689 217.61004298 73.79400563 218.76748061 C73.71039867 227.88303529 70.83622619 234.65603034 64.59350586 241.24365234 C58.94006051 246.27229625 52.70519449 248.29760394 45.22558594 248.35400391 C44.19383743 248.36361145 43.16208893 248.37321899 42.09907532 248.38311768 C40.98864365 248.38736755 39.87821198 248.39161743 38.73413086 248.39599609 C37.58474533 248.40169617 36.4353598 248.40739624 35.25114441 248.41326904 C32.81766682 248.42271444 30.38417646 248.42925119 27.95068359 248.43310547 C24.24610762 248.44278874 20.54209177 248.47380822 16.83764648 248.50537109 C14.46981123 248.51190374 12.10197201 248.51715319 9.73413086 248.52099609 C8.63382034 248.5333429 7.53350983 248.5456897 6.39985657 248.55841064 C-3.93672689 248.52879649 -11.07716147 246.55938285 -18.64868164 239.38427734 C-24.58905351 232.7058232 -25.74814956 225.79836961 -25.73834229 217.10371399 C-25.74131341 216.28176881 -25.74428453 215.45982362 -25.74734569 214.61297101 C-25.75602704 211.85484474 -25.75754047 209.0967619 -25.7590332 206.33862305 C-25.76366182 204.36251228 -25.76868654 202.38640241 -25.77407837 200.41029358 C-25.78720121 195.03819699 -25.79364724 189.66611289 -25.79808903 184.29400277 C-25.80102027 180.93701462 -25.80512521 177.58002988 -25.8095932 174.22304344 C-25.82326856 163.7178484 -25.83293472 153.21266117 -25.83679509 142.70745784 C-25.84127442 130.58468013 -25.8588164 118.46201525 -25.88779569 106.33927184 C-25.90942205 96.9667266 -25.9194999 87.59421308 -25.92083621 78.22164315 C-25.92188366 72.62497031 -25.92777864 67.02840352 -25.94565582 61.43175697 C-25.96215266 56.1647011 -25.9642841 50.89783082 -25.95551682 45.63075829 C-25.95474728 43.70107399 -25.95907815 41.77137965 -25.96897507 39.84172058 C-25.98172625 37.19990986 -25.97580065 34.55875334 -25.96539307 31.91694641 C-25.97344947 31.15991891 -25.98150588 30.4028914 -25.98980641 29.62292367 C-25.90715072 20.60334981 -22.92695366 12.67732522 -16.59790039 6.19287109 C-11.26543473 2.12282628 -6.76202571 0.08599034 0 0 Z " fill="#000000" transform="translate(412.597900390625,237.80712890625)"/>
<path d="M0 0 C1.12847351 -0.0159874 2.25694702 -0.03197479 3.4196167 -0.04844666 C5.22912811 -0.05649071 5.22912811 -0.05649071 7.07519531 -0.06469727 C8.3303595 -0.07372574 9.58552368 -0.08275421 10.87872314 -0.09205627 C13.53159941 -0.10654549 16.18404552 -0.11623674 18.83691406 -0.11914062 C22.21048964 -0.12451095 25.58286016 -0.16215341 28.95609665 -0.20788479 C32.2040558 -0.24506687 35.45205217 -0.24618238 38.70019531 -0.25219727 C40.49756134 -0.28149574 40.49756134 -0.28149574 42.33123779 -0.31138611 C50.95616789 -0.26544728 57.80328528 1.32957265 64.29803467 7.2671051 C70.6944441 13.87403879 72.60842203 21.06374784 72.55445862 30.00823975 C72.56125529 30.84782014 72.56805196 31.68740054 72.57505459 32.55242276 C72.59394117 35.34651892 72.59159531 38.14017352 72.58911133 40.93432617 C72.59809424 42.9455725 72.60830371 44.95681368 72.61964417 46.9680481 C72.64609516 52.41864728 72.6531756 57.86910507 72.65509152 63.31976223 C72.65722706 66.72907154 72.66363767 70.13834514 72.67158318 73.54764557 C72.69932124 85.45292942 72.71159072 97.35811264 72.70922852 109.26342773 C72.707427 120.34253724 72.73907157 131.42120815 72.78645951 142.50020671 C72.82575092 152.0274615 72.84177747 161.55457332 72.83986229 171.08190846 C72.83909919 176.7653619 72.84754967 182.44842542 72.87939644 188.13179779 C72.90855003 193.48036057 72.90860304 198.82816364 72.88684654 204.176754 C72.88372253 206.13260133 72.89071728 208.08849688 72.90892792 210.04426193 C73.00365504 220.92808674 72.87604342 230.13044636 66.15332031 239.30639648 C58.98765317 246.53636259 50.40085668 248.63006375 40.4362793 248.72323608 C39.37352783 248.71716339 38.31077637 248.7110907 37.21582031 248.70483398 C35.53564819 248.70913925 35.53564819 248.70913925 33.8215332 248.71353149 C31.46500133 248.71556327 29.10845226 248.71009583 26.75195312 248.69750977 C23.16400101 248.68144431 19.57717528 248.69738966 15.98925781 248.71655273 C13.68977618 248.71457015 11.39029525 248.71072615 9.09082031 248.70483398 C7.49669312 248.71394302 7.49669312 248.71394302 5.87036133 248.72323608 C-3.02985003 248.64001595 -10.82132847 247.08279637 -17.84667969 241.30639648 C-23.8444714 234.45999635 -26.14992905 228.99890921 -26.11410522 219.82450867 C-26.11863634 218.97241863 -26.12316745 218.12032858 -26.12783587 217.24241763 C-26.14049225 214.38828183 -26.13885869 211.53433654 -26.13720703 208.68017578 C-26.14319152 206.6333288 -26.14999688 204.58648408 -26.15756226 202.53964233 C-26.17523791 196.97964917 -26.17991831 191.41971756 -26.18119383 185.85969901 C-26.183093 181.21760241 -26.19045078 176.57552014 -26.19753802 171.93342906 C-26.21382566 160.98035157 -26.21870664 150.02730696 -26.21728516 139.07421875 C-26.21608373 127.77763737 -26.2371851 116.48124705 -26.26877248 105.18471402 C-26.29492956 95.484347 -26.30565268 85.78404241 -26.30437434 76.0836404 C-26.30386452 70.29081147 -26.30955859 64.49815229 -26.33073044 58.70535851 C-26.35010299 53.25602987 -26.35024382 47.8070331 -26.33569717 42.35769272 C-26.33360675 40.35986026 -26.33832386 38.36200708 -26.35041809 36.36421013 C-26.36588351 33.63216297 -26.35655393 30.90125827 -26.34115601 28.16923523 C-26.3565867 26.98949293 -26.3565867 26.98949293 -26.37232912 25.78591746 C-26.28612275 18.84191424 -24.00326166 13.73946332 -19.40917969 8.55639648 C-18.14074219 7.44264648 -18.14074219 7.44264648 -16.84667969 6.30639648 C-15.64011719 5.22358398 -15.64011719 5.22358398 -14.40917969 4.11889648 C-9.89306437 0.92457101 -5.4607886 0.05887425 0 0 Z " fill="#000000" transform="translate(172.8466796875,237.693603515625)"/>
<path d="M0 0 C1.48882726 1.1340258 2.9608865 2.29030876 4.41796875 3.46484375 C5.22492188 4.08681641 6.031875 4.70878906 6.86328125 5.34960938 C8.57901443 6.67396563 10.28804701 8.00704218 11.99072266 9.34814453 C15.45379068 12.0688032 18.9589204 14.73214552 22.46557617 17.39624023 C24.2347509 18.74066905 26.00182324 20.08786869 27.7668457 21.43774414 C33.50129986 25.82241794 39.28189174 30.13691443 45.10546875 34.40234375 C52.73286892 39.98896795 60.2619144 45.69510713 67.76953125 51.44140625 C74.26507858 56.40408105 80.82592854 61.26948755 87.42163086 66.09790039 C94.42915786 71.24095213 101.34025069 76.50650977 108.2265625 81.81054688 C109.04382813 82.43767578 109.86109375 83.06480469 110.703125 83.7109375 C111.40961182 84.25548584 112.11609863 84.80003418 112.84399414 85.36108398 C114.21092407 86.37150757 114.21092407 86.37150757 115.60546875 87.40234375 C116.5988752 88.2744474 116.5988752 88.2744474 117.61235046 89.16416931 C124.95940694 95.13229887 131.37054148 95.34758432 140.5546875 95.1640625 C141.98094438 95.1632883 143.40720746 95.1661901 144.83345032 95.17256165 C148.56139199 95.1820868 152.2879238 95.15370821 156.015625 95.11340332 C161.99006856 95.05159652 167.96416008 95.03223525 173.93888283 95.04322243 C176.01274033 95.03914497 178.08503889 95.0089452 180.15861511 94.97624207 C187.17922735 94.96032951 191.98631053 94.99918668 197.60546875 99.40234375 C199.53417016 101.42053244 201.2101061 103.52342231 202.85546875 105.77734375 C203.80826523 107.03540512 204.7613998 108.2932105 205.71484375 109.55078125 C206.43317383 110.51129395 206.43317383 110.51129395 207.16601562 111.49121094 C209.43159656 114.49917694 211.7700878 117.44847913 214.10546875 120.40234375 C215.02252397 121.56870502 215.93918985 122.73537251 216.85546875 123.90234375 C217.30921875 124.47984375 217.76296875 125.05734375 218.23046875 125.65234375 C222.35546875 130.90234375 222.35546875 130.90234375 223.73193359 132.65429688 C224.64360232 133.8145436 225.55538516 134.97470066 226.46728516 136.13476562 C228.83639033 139.1489116 231.2031668 142.16484592 233.56640625 145.18359375 C234.29827148 146.11751953 234.29827148 146.11751953 235.04492188 147.0703125 C235.96884568 148.24941526 236.89207868 149.42905983 237.81445312 150.609375 C240.67976166 154.26406077 243.61768357 157.84698647 246.60546875 161.40234375 C251.53781312 157.35945374 255.94472397 153.05608042 260.23046875 148.33984375 C265.38050914 142.73986051 270.6328675 137.27983443 276.07861328 131.96655273 C278.8427466 129.2490161 281.45363253 126.46081695 283.984375 123.5234375 C288.28228196 118.55422264 292.9570669 114.00000994 297.64453125 109.40234375 C300.92247509 106.16236838 304.09682436 102.89537306 307.10546875 99.40234375 C311.35579687 94.46772244 315.99805213 89.95980986 320.64453125 85.40234375 C324.63126375 81.46178962 328.42174062 77.42746956 332.0625 73.1640625 C333.51627241 71.50418564 335.02688461 69.94300394 336.60546875 68.40234375 C335.39890625 68.3765625 334.19234375 68.35078125 332.94921875 68.32421875 C331.33460137 68.26789489 329.72001942 68.21054855 328.10546875 68.15234375 C327.31398438 68.13816406 326.5225 68.12398438 325.70703125 68.109375 C319.98262487 67.87476818 315.36319432 66.70360839 310.60546875 63.40234375 C306.43632218 58.16418524 305.05819451 54.07908953 305.60546875 47.40234375 C307.41539487 42.12995028 309.83999257 38.45713618 314.60546875 35.40234375 C317.69329345 34.37306885 319.81106261 34.27324478 323.046875 34.26953125 C324.73453979 34.26614746 324.73453979 34.26614746 326.45629883 34.26269531 C328.29357544 34.26994629 328.29357544 34.26994629 330.16796875 34.27734375 C331.43471436 34.28217773 332.70145996 34.28701172 334.0065918 34.29199219 C337.46993883 34.31049868 340.93304456 34.34259096 344.39624023 34.3795166 C346.65541774 34.40285985 348.91460888 34.42160885 351.17382812 34.44042969 C355.00897967 34.47586336 358.84314972 34.53588238 362.67770386 34.61187744 C364.15963652 34.63864586 365.64169908 34.65905228 367.12380981 34.67279053 C381.81981355 34.82286216 381.81981355 34.82286216 388.60546875 39.40234375 C392.67697148 44.41342404 393.76193318 48.24118082 393.64306641 54.56298828 C393.62619781 55.59150909 393.60932922 56.62002991 393.59194946 57.67971802 C393.56805145 58.78701263 393.54415344 59.89430725 393.51953125 61.03515625 C393.49829193 62.1821701 393.47705261 63.32918396 393.45516968 64.51095581 C393.40890731 66.94029741 393.35997902 69.36958948 393.30859375 71.79882812 C393.23120748 75.49208774 393.16376978 79.18542958 393.09765625 82.87890625 C393.05137967 85.24350137 393.00452305 87.60808522 392.95703125 89.97265625 C392.9371817 91.06780548 392.91733215 92.16295471 392.8968811 93.29129028 C392.46333283 112.88801156 392.46333283 112.88801156 387.60546875 118.40234375 C382.98340902 122.37946492 378.61045945 123.6643416 372.60546875 123.40234375 C367.38866438 121.83730244 363.99963122 119.66929086 360.60546875 115.40234375 C357.64003305 108.76541622 358.42722053 101.54217522 358.60546875 94.40234375 C357.90164063 95.17835937 357.1978125 95.954375 356.47265625 96.75390625 C350.3443113 103.47100968 344.09200678 110.02046193 337.59130859 116.37939453 C334.66202106 119.26392069 331.87141596 122.20490369 329.1875 125.3203125 C324.90489304 130.27833825 320.24065502 134.81763998 315.56640625 139.40234375 C312.28846241 142.64231912 309.11411314 145.90931444 306.10546875 149.40234375 C301.85514063 154.33696506 297.21288537 158.84487764 292.56640625 163.40234375 C289.28846241 166.64231912 286.11411314 169.90931444 283.10546875 173.40234375 C278.85514063 178.33696506 274.21288537 182.84487764 269.56640625 187.40234375 C265.55619948 191.36610025 261.76271246 195.42408241 258.13012695 199.73828125 C254.52443896 203.67364864 250.81464057 204.5832876 245.66796875 204.83984375 C240.91026796 204.95588523 237.34527077 203.21864889 233.60546875 200.40234375 C231.28769233 198.07966347 229.29216161 195.56323965 227.29296875 192.96484375 C226.73174316 192.25473145 226.17051758 191.54461914 225.59228516 190.81298828 C223.9168729 188.68597215 222.25875498 186.54658433 220.60546875 184.40234375 C220.1470459 183.81146973 219.68862305 183.2205957 219.21630859 182.61181641 C217.15372618 179.95276804 215.10428388 177.28447472 213.0625 174.609375 C210.46144295 171.20380252 207.81854882 167.8319481 205.16796875 164.46484375 C204.71019043 163.88331543 204.25241211 163.30178711 203.78076172 162.70263672 C202.85287254 161.52444235 201.92481221 160.34638276 200.99658203 159.16845703 C199.18081861 156.86322141 197.36616745 154.5571542 195.55961609 152.24468994 C194.64295001 151.08331088 193.71589939 149.92998337 192.77452087 148.7885437 C190.39469128 145.8704738 188.36291659 143.08507656 186.70361328 139.69799805 C184.37912878 135.36837951 181.91660843 131.91154089 177.60546875 129.40234375 C168.68026635 127.11277713 159.16289493 127.84471409 150.02459717 128.15234375 C145.30261549 128.29672013 140.57841869 128.33080364 135.85464478 128.37565613 C133.34886663 128.40573198 130.84322383 128.45788632 128.33847046 128.53559875 C119.87339299 128.72332858 112.22771285 128.10435055 105.45703125 122.5390625 C104.77213623 121.98943848 104.08724121 121.43981445 103.3815918 120.87353516 C102.67172119 120.28491699 101.96185059 119.69629883 101.23046875 119.08984375 C99.64762559 117.81807863 98.06293128 116.54861462 96.4765625 115.28125 C95.6707373 114.63430176 94.86491211 113.98735352 94.03466797 113.32080078 C90.19464178 110.28814493 86.24776764 107.40772945 82.29296875 104.52734375 C75.50285462 99.56318383 68.78395589 94.51566592 62.10546875 89.40234375 C55.48608601 84.33571565 48.83043668 79.32798916 42.10546875 74.40234375 C34.4810253 68.81788517 26.95471942 63.11418743 19.45019531 57.36987305 C13.62967666 52.92271707 7.76306887 48.54550751 1.85546875 44.21484375 C-1.22970643 41.94650358 -4.312794 39.67535214 -7.39453125 37.40234375 C-8.19568359 36.81227539 -8.99683594 36.22220703 -9.82226562 35.61425781 C-12.1870916 33.86580616 -14.54197923 32.10476239 -16.89453125 30.33984375 C-17.9633252 29.55347534 -17.9633252 29.55347534 -19.05371094 28.7512207 C-23.40593344 25.46257923 -26.49580809 22.6218204 -28.01171875 17.19140625 C-28.65802434 11.76635632 -28.20619215 8.27588931 -25.39453125 3.40234375 C-18.76054861 -4.66601351 -8.65940412 -5.90139922 0 0 Z " fill="#000000" transform="translate(73.39453125,29.59765625)"/>
<path d="M0 0 C1.12294464 -0.00428513 2.24588928 -0.00857025 3.40286255 -0.01298523 C5.77133512 -0.01871194 8.13982528 -0.01924106 10.50830078 -0.01489258 C14.11391498 -0.0117353 17.71870597 -0.03520446 21.32421875 -0.06054688 C23.63281147 -0.06282043 25.94140638 -0.0635231 28.25 -0.0625 C29.85353836 -0.07631462 29.85353836 -0.07631462 31.48947144 -0.09040833 C41.55750491 -0.02879373 49.91257463 2.13157304 57.2578125 9.30078125 C61.37109557 14.68989654 63.37505195 19.18886827 63.41171265 26.02308655 C63.42031311 27.21598297 63.42891357 28.40887939 63.43777466 29.63792419 C63.44203461 30.94858353 63.44629456 32.25924286 63.45068359 33.60961914 C63.4585867 35.00268762 63.46685578 36.39575406 63.47546387 37.78881836 C63.50166923 42.3670049 63.51699426 46.94520049 63.53125 51.5234375 C63.53661109 53.1016433 63.54198861 54.67984904 63.54738235 56.25805473 C63.56901268 62.82659774 63.58774642 69.39513831 63.59900475 75.96370792 C63.61522342 85.36352057 63.64834839 94.7629185 63.70540559 104.16257483 C63.74418825 110.77844808 63.76364749 117.39421082 63.76892531 124.01019472 C63.77256864 127.95770499 63.78447958 131.9047728 63.81702805 135.8521595 C63.84725446 139.57136901 63.85336946 143.28987179 63.84164429 147.00917816 C63.84132072 149.01116586 63.86569129 151.01311089 63.89102173 153.01493835 C63.83198354 161.62129098 62.51649458 168.73204671 56.48421288 175.20350742 C50.21334972 180.98772191 43.54310999 183.38318179 35.09130859 183.4777832 C33.58351334 183.49703606 33.58351334 183.49703606 32.04525757 183.51667786 C30.96813507 183.52406479 29.89101257 183.53145172 28.78125 183.5390625 C27.09970322 183.55117012 27.09970322 183.55117012 25.38418579 183.56352234 C23.01216161 183.57733822 20.64011775 183.5880715 18.26806641 183.59594727 C15.85524627 183.60745232 13.44245128 183.62788048 11.02978516 183.6574707 C7.53009875 183.70037194 4.03116751 183.71634913 0.53125 183.7265625 C-0.53372711 183.74407059 -1.59870422 183.76157867 -2.69595337 183.77961731 C-11.11871854 183.75555605 -18.23840455 181.90296696 -25.5546875 177.67578125 C-31.13022426 171.62234134 -34.85110226 164.92142819 -34.89608765 156.65440369 C-34.90468811 155.47833557 -34.91328857 154.30226746 -34.92214966 153.09056091 C-34.92640961 151.79860306 -34.93066956 150.5066452 -34.93505859 149.17553711 C-34.94296181 147.80217279 -34.9512309 146.42881053 -34.95983887 145.05545044 C-34.98604312 140.54219542 -35.00136924 136.02893122 -35.015625 131.515625 C-35.02098616 129.9597072 -35.02636367 128.40378946 -35.03175735 126.84787178 C-35.05338761 120.37197517 -35.07212125 113.89608103 -35.08337975 107.42015743 C-35.09959779 98.1534683 -35.13272129 88.88719987 -35.18978059 79.62066931 C-35.22856609 73.09821355 -35.24802283 66.57586988 -35.25330031 60.05330187 C-35.25694328 56.16168021 -35.26885034 52.27050743 -35.30140305 48.37901115 C-35.33163449 44.7123284 -35.33774274 41.04636249 -35.32601929 37.37958145 C-35.3256958 35.40621953 -35.35006311 33.43290086 -35.37539673 31.45970154 C-35.31077651 22.17035006 -33.35054708 15.55679511 -27.3046875 8.42578125 C-18.36576757 1.01301838 -11.26189648 -0.00956521 0 0 Z " fill="#000000" transform="translate(301.7421875,302.69921875)"/>
</svg>
