<?xml version="1.0" encoding="UTF-8"?>
<svg version="1.1" xmlns="http://www.w3.org/2000/svg" width="512" height="512">
<path d="M0 0 C3.58707772 3.71586147 4.63891139 8.32318425 6.05444336 13.17822266 C6.3677359 14.20499115 6.68102844 15.23175964 7.0038147 16.28964233 C8.04577617 19.71699911 9.06533096 23.15062987 10.08569336 26.58447266 C10.81830029 29.00439282 11.55254908 31.42381646 12.28833008 33.84277344 C14.08976463 39.77702079 15.8773654 45.7152742 17.65802956 51.6557827 C21.3011078 63.80928063 24.96246438 75.9572525 28.6389122 88.10069656 C30.00536208 92.61678478 31.36223134 97.13561258 32.71216583 101.65666294 C42.155286 133.24348715 52.21108776 160.87409779 80.58569336 180.08447266 C81.39522461 180.63748047 82.20475586 181.19048828 83.03881836 181.76025391 C94.53036013 189.12321196 107.99766907 193.0319974 120.97241211 196.92041016 C122.4248613 197.36108041 123.87712688 197.80235621 125.32922363 198.2441864 C128.39395914 199.17548312 131.45983889 200.10286733 134.52670288 201.02713013 C139.3273986 202.47440194 144.12438278 203.93371977 148.92089844 205.39477539 C161.92055174 209.35204437 174.92413039 213.2958586 187.94444561 217.18466949 C193.43827367 218.82566961 198.9280864 220.47975365 204.41665649 222.13824463 C206.64090112 222.80668892 208.86694976 223.46916166 211.09481812 224.12542725 C214.15220469 225.02605365 217.20328238 225.94559852 220.25366211 226.86962891 C221.13671021 227.12395187 222.0197583 227.37827484 222.92956543 227.64030457 C228.00171764 229.20244204 231.14228339 230.83047114 234.58569336 235.08447266 C235.94860176 238.70063163 235.82694514 242.11946553 234.89819336 245.83447266 C232.11104191 250.61244658 229.06122238 252.59187157 223.82568359 254.18066406 C222.65290359 254.54334885 221.4801236 254.90603363 220.27180481 255.27970886 C218.97937146 255.66539415 217.68686312 256.05082825 216.39428711 256.43603516 C215.03556842 256.85101998 213.67719261 257.26712887 212.31913757 257.6842804 C209.41062066 258.57502977 206.49982747 259.45773114 203.5869751 260.334198 C198.99712753 261.71533663 194.41296157 263.11470044 189.8293457 264.51635742 C176.79179803 268.4985015 163.74054892 272.43534638 150.68968296 276.3735733 C145.27228992 278.00853156 139.85623864 279.64789316 134.44085598 281.28949738 C130.07997825 282.61048692 125.71508589 283.91761896 121.34912109 285.22167969 C100.22524459 291.37346012 100.22524459 291.37346012 80.96069336 301.77197266 C80.34371582 302.19494629 79.72673828 302.61791992 79.09106445 303.05371094 C68.41917407 310.54849463 59.92486459 319.24417982 52.58569336 330.08447266 C52.03268555 330.89400391 51.47967773 331.70353516 50.90991211 332.53759766 C43.40162779 344.25595355 39.48335464 358.00631887 35.49584961 371.23291016 C35.02992522 372.76103579 34.56342303 374.28898536 34.09638977 375.81677246 C33.11337773 379.03655314 32.13430547 382.25749369 31.15838623 385.47943115 C29.63484202 390.50805026 28.0994686 395.5330131 26.56274414 400.55761719 C22.33415636 414.39433411 18.12372439 428.23610058 13.9995575 442.1043396 C12.63752204 446.68257225 11.2654952 451.25778121 9.89279175 455.83282471 C8.98014702 458.89421696 8.08547012 461.96048325 7.19140625 465.02734375 C6.64402497 466.85654528 6.09582274 468.68550142 5.54663086 470.51416016 C5.20273064 471.72597961 5.20273064 471.72597961 4.85188293 472.96228027 C3.361274 477.83987788 1.63608283 480.74826275 -2.41430664 484.08447266 C-6.03046562 485.44738106 -9.44929952 485.32572444 -13.16430664 484.39697266 C-19.52198156 480.68832896 -20.79756236 475.81871645 -22.78540039 469.08837891 C-23.10010788 468.06019547 -23.41481537 467.03201202 -23.73905945 465.97267151 C-24.78837118 462.53422038 -25.81974946 459.09063819 -26.85180664 455.64697266 C-27.58931953 453.22259913 -28.32811697 450.79861606 -29.06811523 448.375 C-31.53414482 440.28335264 -33.97588188 432.18447455 -36.41430664 424.08447266 C-37.32617145 421.05596495 -38.23813316 418.02748643 -39.15014648 414.99902344 C-39.38041566 414.23429435 -39.61068483 413.46956526 -39.84793186 412.68166256 C-41.71720405 406.47530598 -43.5919751 400.27062021 -45.46913052 394.06664371 C-46.61205677 390.28703132 -47.75090262 386.5062806 -48.88058472 382.72268677 C-58.49460427 350.5241888 -68.29494428 321.63604453 -97.41430664 302.08447266 C-98.77942383 301.16214844 -98.77942383 301.16214844 -100.17211914 300.22119141 C-117.01682868 289.6404616 -137.64108155 285.12031872 -156.54589844 279.43676758 C-161.10921869 278.06473888 -165.66917955 276.68176163 -170.22875977 275.29736328 C-183.16231603 271.37297406 -196.10082954 267.46635571 -209.05844116 263.62207031 C-213.62615022 262.26517392 -218.19048902 260.89717446 -222.7543335 259.52734375 C-225.85065796 258.60346411 -228.95182739 257.69734847 -232.0534668 256.79150391 C-233.91361959 256.23387501 -235.77350108 255.67533996 -237.63305664 255.11572266 C-238.45998016 254.8801062 -239.28690369 254.64448975 -240.1388855 254.4017334 C-245.07346019 252.89027855 -248.04579883 251.19363272 -251.41430664 247.08447266 C-252.77721504 243.46831368 -252.65555842 240.04947978 -251.72680664 236.33447266 C-248.92769509 231.53599572 -245.86326759 229.56896836 -240.60668945 227.97241211 C-239.42433212 227.60653488 -238.24197479 227.24065765 -237.02378845 226.86369324 C-235.72174552 226.47479224 -234.41962407 226.08615404 -233.11743164 225.69775391 C-231.75056772 225.28004273 -230.38404348 224.86121866 -229.01783752 224.44136047 C-226.09578528 223.54604894 -223.17144387 222.65882796 -220.24502563 221.77789307 C-215.63953615 220.39148852 -211.03974084 218.98681867 -206.44042969 217.58007812 C-192.96024288 213.46235793 -179.4647454 209.39549678 -165.96456909 205.34385681 C-163.37512416 204.56667768 -160.78602735 203.78835753 -158.19729614 203.00880432 C-152.25962062 201.22081271 -146.32014246 199.43998831 -140.37426758 197.67944336 C-123.66171698 192.69295298 -107.47736628 187.72089946 -93.41430664 177.08447266 C-92.45782227 176.36130859 -91.50133789 175.63814453 -90.51586914 174.89306641 C-79.88677309 166.52083321 -72.0977759 156.80879357 -65.41430664 145.08447266 C-64.96039551 144.29331055 -64.50648438 143.50214844 -64.03881836 142.68701172 C-58.88184294 133.0857722 -55.94545506 122.84706646 -52.78930664 112.45947266 C-52.15416442 110.39673765 -51.51823645 108.33424445 -50.8815918 106.27197266 C-48.90989468 99.86923401 -46.95829588 93.46047813 -45.01141357 87.05015564 C-44.39299661 85.01431979 -43.77407199 82.97863883 -43.1550293 80.94299316 C-38.95047352 67.1158603 -34.75211083 53.28685812 -30.57832146 39.45040321 C-29.5782921 36.13585274 -28.57627173 32.82193887 -27.56869507 29.50967407 C-25.9769944 24.27415316 -24.39037564 19.04003335 -22.89575195 13.77587891 C-22.67746735 13.02588623 -22.45918274 12.27589355 -22.23428345 11.50317383 C-21.7008975 9.66620854 -21.18284174 7.82480845 -20.66674805 5.98291016 C-18.97787252 2.07446372 -16.48754425 -0.91465401 -12.60180664 -2.79052734 C-7.54147777 -3.07968899 -4.00033033 -3.17388935 0 0 Z " fill="#000000" transform="translate(264.414306640625,14.91552734375)"/>
</svg>
