<?xml version="1.0" encoding="UTF-8"?>
<svg version="1.1" xmlns="http://www.w3.org/2000/svg" width="638" height="638">
<path d="M0 0 C1.6980245 -0.00390489 3.39604806 -0.00824309 5.09407043 -0.01298523 C8.62955916 -0.02038177 12.16494793 -0.0202052 15.70043945 -0.01489258 C19.27934342 -0.01026406 22.85790741 -0.01717676 26.43676758 -0.03540039 C63.93157452 -0.22474694 63.93157452 -0.22474694 81.89453125 3.30078125 C83.61673656 3.60733516 85.33949286 3.91080732 87.06274414 4.21142578 C99.99477744 6.497972 112.42742542 10.2137554 124.89453125 14.30078125 C125.60931641 14.53442383 126.32410156 14.76806641 127.06054688 15.00878906 C134.58609414 17.50091753 141.74752216 20.50823016 148.90234375 23.9140625 C151.42066364 25.08116898 153.91809486 26.09212044 156.51953125 27.05078125 C171.25008898 32.85733389 184.79813489 41.47971013 198.00683594 50.09716797 C199.61739556 51.12407678 201.2718952 52.08152354 202.93359375 53.0234375 C203.58070313 53.44496094 204.2278125 53.86648437 204.89453125 54.30078125 C204.89453125 54.96078125 204.89453125 55.62078125 204.89453125 56.30078125 C205.67828125 56.61015625 206.46203125 56.91953125 207.26953125 57.23828125 C209.89453125 58.30078125 209.89453125 58.30078125 211.89453125 59.30078125 C211.89453125 59.96078125 211.89453125 60.62078125 211.89453125 61.30078125 C212.5803125 61.51347656 213.26609375 61.72617187 213.97265625 61.9453125 C217.7898162 63.71610729 220.52692515 66.19938205 223.64453125 68.98828125 C228.43313143 73.19927309 233.26509928 77.22981461 238.41796875 80.99609375 C238.90523437 81.42664063 239.3925 81.8571875 239.89453125 82.30078125 C239.89453125 82.96078125 239.89453125 83.62078125 239.89453125 84.30078125 C240.55453125 84.30078125 241.21453125 84.30078125 241.89453125 84.30078125 C241.89453125 84.96078125 241.89453125 85.62078125 241.89453125 86.30078125 C242.73757813 86.6565625 242.73757813 86.6565625 243.59765625 87.01953125 C246.41347167 88.59025822 248.37408541 90.51549589 250.64453125 92.80078125 C251.44375 93.59484375 252.24296875 94.38890625 253.06640625 95.20703125 C254.89453125 97.30078125 254.89453125 97.30078125 254.89453125 99.30078125 C255.55453125 99.30078125 256.21453125 99.30078125 256.89453125 99.30078125 C256.89453125 99.96078125 256.89453125 100.62078125 256.89453125 101.30078125 C257.88453125 101.63078125 258.87453125 101.96078125 259.89453125 102.30078125 C261.5026579 104.033044 263.03650441 105.83528215 264.51953125 107.67578125 C265.31617188 108.65289062 266.1128125 109.63 266.93359375 110.63671875 C268.89453125 113.30078125 268.89453125 113.30078125 269.89453125 116.30078125 C270.55453125 116.30078125 271.21453125 116.30078125 271.89453125 116.30078125 C275.38398344 120.12211068 278.34212888 124.33309367 279.89453125 129.30078125 C280.55453125 129.30078125 281.21453125 129.30078125 281.89453125 129.30078125 C284.89453125 133.68539663 284.89453125 133.68539663 284.89453125 136.30078125 C285.55453125 136.30078125 286.21453125 136.30078125 286.89453125 136.30078125 C288.31152344 138.25341797 288.31152344 138.25341797 289.94140625 140.98046875 C290.83859375 142.46933594 290.83859375 142.46933594 291.75390625 143.98828125 C292.3778125 145.04015625 293.00171875 146.09203125 293.64453125 147.17578125 C294.25296875 148.18898437 294.86140625 149.2021875 295.48828125 150.24609375 C296.70785948 152.27872413 297.9233536 154.31381051 299.13476562 156.35131836 C300.26200496 158.24063279 301.39795103 160.12479602 302.54492188 162.00219727 C305.62506305 167.05004498 308.42160959 172.1171213 310.89453125 177.48828125 C311.2306543 178.21023682 311.56677734 178.93219238 311.91308594 179.67602539 C315.18300133 186.78025039 318.06258 194.01254636 320.89453125 201.30078125 C321.58073435 202.9679823 322.2680948 204.63470784 322.95703125 206.30078125 C329.20996545 222.03647104 333.47915707 238.405619 337.08203125 254.92578125 C337.23679932 255.61575195 337.39156738 256.30572266 337.55102539 257.01660156 C340.49371293 271.01476936 341.20948724 285.06502448 341.1953125 299.3203125 C341.19921837 300.99688316 341.20355676 302.67345286 341.20829773 304.35002136 C341.21568629 307.83665192 341.21552303 311.32318109 341.21020508 314.80981445 C341.20557083 318.34021737 341.21251222 321.8702761 341.23071289 325.40063477 C341.42065781 362.593284 341.42065781 362.593284 337.89453125 379.30078125 C337.67015381 380.49727295 337.44577637 381.69376465 337.21459961 382.92651367 C336.59961913 386.12865342 335.92275115 389.30727605 335.20703125 392.48828125 C334.83010132 394.17159546 334.83010132 394.17159546 334.44555664 395.88891602 C330.66880224 412.18493297 325.48184424 427.93403098 318.89453125 443.30078125 C318.32636746 444.65866369 317.75859474 446.01670989 317.19140625 447.375 C310.75890694 462.40040873 302.95541245 476.4164795 294.45703125 490.36328125 C293.9187822 491.25306671 293.9187822 491.25306671 293.36965942 492.16082764 C292.34563532 493.84910656 291.30978363 495.53019427 290.2734375 497.2109375 C289.67088135 498.19199463 289.0683252 499.17305176 288.44750977 500.18383789 C287.6787854 501.23172485 287.6787854 501.23172485 286.89453125 502.30078125 C286.23453125 502.30078125 285.57453125 502.30078125 284.89453125 502.30078125 C284.58515625 503.08453125 284.27578125 503.86828125 283.95703125 504.67578125 C282.89453125 507.30078125 282.89453125 507.30078125 281.89453125 509.30078125 C281.23453125 509.30078125 280.57453125 509.30078125 279.89453125 509.30078125 C279.68183594 509.9865625 279.46914063 510.67234375 279.25 511.37890625 C277.47920521 515.1960662 274.99593045 517.93317515 272.20703125 521.05078125 C267.99603941 525.83938143 263.96549789 530.67134928 260.19921875 535.82421875 C259.76867187 536.31148437 259.338125 536.79875 258.89453125 537.30078125 C258.23453125 537.30078125 257.57453125 537.30078125 256.89453125 537.30078125 C256.89453125 537.96078125 256.89453125 538.62078125 256.89453125 539.30078125 C256.23453125 539.30078125 255.57453125 539.30078125 254.89453125 539.30078125 C254.56453125 540.29078125 254.23453125 541.28078125 253.89453125 542.30078125 C253.23453125 542.30078125 252.57453125 542.30078125 251.89453125 542.30078125 C251.89453125 542.96078125 251.89453125 543.62078125 251.89453125 544.30078125 C251.23453125 544.30078125 250.57453125 544.30078125 249.89453125 544.30078125 C249.56453125 545.29078125 249.23453125 546.28078125 248.89453125 547.30078125 C248.23453125 547.30078125 247.57453125 547.30078125 246.89453125 547.30078125 C246.89453125 547.96078125 246.89453125 548.62078125 246.89453125 549.30078125 C246.23453125 549.30078125 245.57453125 549.30078125 244.89453125 549.30078125 C244.56453125 550.29078125 244.23453125 551.28078125 243.89453125 552.30078125 C243.23453125 552.30078125 242.57453125 552.30078125 241.89453125 552.30078125 C241.89453125 552.96078125 241.89453125 553.62078125 241.89453125 554.30078125 C241.23453125 554.30078125 240.57453125 554.30078125 239.89453125 554.30078125 C239.56453125 555.29078125 239.23453125 556.28078125 238.89453125 557.30078125 C238.23453125 557.30078125 237.57453125 557.30078125 236.89453125 557.30078125 C236.89453125 557.96078125 236.89453125 558.62078125 236.89453125 559.30078125 C234.77734375 561.24609375 234.77734375 561.24609375 232.01953125 563.42578125 C231.11460937 564.15023437 230.2096875 564.8746875 229.27734375 565.62109375 C226.89453125 567.30078125 226.89453125 567.30078125 224.89453125 567.30078125 C224.89453125 567.96078125 224.89453125 568.62078125 224.89453125 569.30078125 C221.43299279 572.30078125 221.43299279 572.30078125 218.89453125 572.30078125 C218.89453125 572.96078125 218.89453125 573.62078125 218.89453125 574.30078125 C216.9907877 575.75042084 215.01985966 577.11262448 213.01953125 578.42578125 C211.92898438 579.15023437 210.8384375 579.8746875 209.71484375 580.62109375 C206.89453125 582.30078125 206.89453125 582.30078125 204.89453125 582.30078125 C204.89453125 582.96078125 204.89453125 583.62078125 204.89453125 584.30078125 C202.77758789 585.85375977 202.77758789 585.85375977 199.8046875 587.6796875 C198.71905518 588.34919434 197.63342285 589.01870117 196.51489258 589.70849609 C195.32942769 590.42756442 194.14346261 591.14580869 192.95703125 591.86328125 C192.36119232 592.22593079 191.76535339 592.58858032 191.15145874 592.96221924 C166.95065899 607.68322151 142.00696358 618.96222795 114.89453125 627.30078125 C114.10272461 627.54666992 113.31091797 627.79255859 112.49511719 628.04589844 C103.07596436 630.93301087 93.54721148 633.09196932 83.89453125 635.05078125 C82.33617554 635.36728638 82.33617554 635.36728638 80.74633789 635.69018555 C79.2418811 635.98469604 79.2418811 635.98469604 77.70703125 636.28515625 C76.82660156 636.45756836 75.94617188 636.62998047 75.0390625 636.80761719 C64.62831755 638.44035824 54.27334327 638.46420628 43.76171875 638.46875 C41.99830093 638.47197134 40.23488336 638.47533604 38.47146606 638.47883606 C34.78500755 638.48479927 31.09857237 638.48667894 27.41210938 638.48608398 C22.73260239 638.48598271 18.05324829 638.49961203 13.37377739 638.51685619 C9.73248636 638.52808195 6.09123101 638.52999995 2.44992447 638.52947426 C0.72708741 638.5306394 -0.99575104 638.53497665 -2.71857071 638.54280663 C-18.63396188 638.60835408 -33.69169128 636.96876034 -49.23046875 633.30078125 C-50.5038208 633.00099365 -51.77717285 632.70120605 -53.08911133 632.39233398 C-79.6523122 625.98615686 -105.3708615 616.4856995 -129.30566406 603.28662109 C-130.84078529 602.44576115 -132.38978394 601.63031919 -133.94140625 600.8203125 C-140.23393901 597.51915301 -146.26360402 593.80486172 -152.29296875 590.05078125 C-153.58823486 589.25256958 -153.58823486 589.25256958 -154.90966797 588.43823242 C-155.71033691 587.93396729 -156.51100586 587.42970215 -157.3359375 586.91015625 C-158.06192139 586.45608398 -158.78790527 586.00201172 -159.53588867 585.53417969 C-160.0538501 585.1271582 -160.57181152 584.72013672 -161.10546875 584.30078125 C-161.10546875 583.64078125 -161.10546875 582.98078125 -161.10546875 582.30078125 C-161.88921875 581.99140625 -162.67296875 581.68203125 -163.48046875 581.36328125 C-166.10546875 580.30078125 -166.10546875 580.30078125 -168.10546875 579.30078125 C-168.10546875 578.64078125 -168.10546875 577.98078125 -168.10546875 577.30078125 C-168.88921875 576.99140625 -169.67296875 576.68203125 -170.48046875 576.36328125 C-173.10546875 575.30078125 -173.10546875 575.30078125 -175.10546875 574.30078125 C-175.10546875 573.64078125 -175.10546875 572.98078125 -175.10546875 572.30078125 C-175.72421875 571.99140625 -176.34296875 571.68203125 -176.98046875 571.36328125 C-178.35546875 570.67578125 -179.73046875 569.98828125 -181.10546875 569.30078125 C-181.10546875 568.64078125 -181.10546875 567.98078125 -181.10546875 567.30078125 C-181.646875 567.06359375 -182.18828125 566.82640625 -182.74609375 566.58203125 C-185.73797012 564.95730368 -188.21706274 562.95059355 -190.85546875 560.80078125 C-192.33273438 559.6096875 -192.33273438 559.6096875 -193.83984375 558.39453125 C-194.96132812 557.358125 -194.96132812 557.358125 -196.10546875 556.30078125 C-196.10546875 555.64078125 -196.10546875 554.98078125 -196.10546875 554.30078125 C-196.68522461 554.04554688 -197.26498047 553.7903125 -197.86230469 553.52734375 C-200.33562187 552.17493348 -202.00148984 550.66345601 -203.99609375 548.67578125 C-204.70507812 547.969375 -205.4140625 547.26296875 -206.14453125 546.53515625 C-206.87414062 545.7978125 -207.60375 545.06046875 -208.35546875 544.30078125 C-209.10054688 543.5634375 -209.845625 542.82609375 -210.61328125 542.06640625 C-211.31710938 541.36 -212.0209375 540.65359375 -212.74609375 539.92578125 C-213.71337402 538.95511719 -213.71337402 538.95511719 -214.70019531 537.96484375 C-216.10546875 536.30078125 -216.10546875 536.30078125 -216.10546875 534.30078125 C-216.76546875 534.30078125 -217.42546875 534.30078125 -218.10546875 534.30078125 C-223.10546875 528.82459077 -223.10546875 528.82459077 -223.10546875 526.30078125 C-223.76546875 526.30078125 -224.42546875 526.30078125 -225.10546875 526.30078125 C-225.20859375 525.66140625 -225.31171875 525.02203125 -225.41796875 524.36328125 C-225.64484375 523.68265625 -225.87171875 523.00203125 -226.10546875 522.30078125 C-227.09546875 521.97078125 -228.08546875 521.64078125 -229.10546875 521.30078125 C-230.29296875 518.73828125 -230.29296875 518.73828125 -231.10546875 516.30078125 C-231.76546875 516.30078125 -232.42546875 516.30078125 -233.10546875 516.30078125 C-234.4465332 514.68359375 -234.4465332 514.68359375 -235.96875 512.42578125 C-236.52626953 511.60464844 -237.08378906 510.78351563 -237.65820312 509.9375 C-238.23892578 509.06738281 -238.81964844 508.19726562 -239.41796875 507.30078125 C-240.27165039 506.04201172 -240.27165039 506.04201172 -241.14257812 504.7578125 C-243.81398861 500.80130328 -246.44637638 496.81943419 -249.0234375 492.80078125 C-249.42715576 492.17171875 -249.83087402 491.54265625 -250.24682617 490.89453125 C-251.10546875 489.30078125 -251.10546875 489.30078125 -251.10546875 487.30078125 C-251.76546875 487.30078125 -252.42546875 487.30078125 -253.10546875 487.30078125 C-255.12045799 483.64219294 -257.11429975 479.9723824 -259.10546875 476.30078125 C-259.44819824 475.67397461 -259.79092773 475.04716797 -260.14404297 474.40136719 C-268.59487387 458.91770678 -275.78522395 443.17605071 -281.38330078 426.43945312 C-282.11364441 424.27656936 -282.87058397 422.12448974 -283.6328125 419.97265625 C-292.48893884 394.66823435 -297.23294413 368.6590861 -297.34375 341.87109375 C-297.34782553 341.03044247 -297.35190105 340.18979118 -297.35610008 339.32366562 C-297.37689512 334.85754401 -297.39121449 330.39145235 -297.40063477 325.92529297 C-297.40941519 322.29100365 -297.43010762 318.65710663 -297.4621582 315.02294922 C-297.69170693 288.41700226 -296.87992692 262.99146481 -289.10546875 237.30078125 C-288.63177843 235.61039031 -288.16202261 233.91889395 -287.6953125 232.2265625 C-283.57248702 217.34436334 -278.75458841 203.27459957 -272.10546875 189.30078125 C-271.31053483 187.53141219 -270.51876216 185.76061878 -269.73046875 183.98828125 C-268.8601138 182.09031094 -267.98475572 180.1946301 -267.10546875 178.30078125 C-266.60144531 177.2025 -266.09742188 176.10421875 -265.578125 174.97265625 C-261.21419737 165.73641827 -256.05110578 157.00901121 -250.73046875 148.30078125 C-250.37004486 147.70627167 -250.00962097 147.11176208 -249.63827515 146.49923706 C-248.60704283 144.80298117 -247.56353615 143.11420593 -246.51953125 141.42578125 C-245.91061035 140.43835938 -245.30168945 139.4509375 -244.67431641 138.43359375 C-244.15659668 137.72976562 -243.63887695 137.0259375 -243.10546875 136.30078125 C-242.44546875 136.30078125 -241.78546875 136.30078125 -241.10546875 136.30078125 C-240.83734375 135.57503906 -240.56921875 134.84929687 -240.29296875 134.1015625 C-239.11876494 131.33214101 -237.76603635 128.99158691 -236.10546875 126.48828125 C-235.58984375 125.69808594 -235.07421875 124.90789062 -234.54296875 124.09375 C-234.06859375 123.50207031 -233.59421875 122.91039063 -233.10546875 122.30078125 C-232.44546875 122.30078125 -231.78546875 122.30078125 -231.10546875 122.30078125 C-230.70328125 121.09421875 -230.70328125 121.09421875 -230.29296875 119.86328125 C-229.90109375 119.01765625 -229.50921875 118.17203125 -229.10546875 117.30078125 C-228.11546875 116.97078125 -227.12546875 116.64078125 -226.10546875 116.30078125 C-225.37223079 114.28569767 -225.37223079 114.28569767 -225.10546875 112.30078125 C-224.44546875 112.30078125 -223.78546875 112.30078125 -223.10546875 112.30078125 C-222.83734375 111.72328125 -222.56921875 111.14578125 -222.29296875 110.55078125 C-221.07617686 108.24528082 -219.80212996 106.28021933 -218.10546875 104.30078125 C-217.44546875 104.30078125 -216.78546875 104.30078125 -216.10546875 104.30078125 C-215.61046875 102.81578125 -215.61046875 102.81578125 -215.10546875 101.30078125 C-214.44546875 101.30078125 -213.78546875 101.30078125 -213.10546875 101.30078125 C-212.70231445 100.41084473 -212.70231445 100.41084473 -212.29101562 99.50292969 C-211.10256143 97.29538092 -209.89804486 95.83535243 -208.13671875 94.06640625 C-207.28013672 93.20595703 -207.28013672 93.20595703 -206.40625 92.328125 C-205.81199219 91.74160156 -205.21773438 91.15507813 -204.60546875 90.55078125 C-204.01121094 89.94878906 -203.41695313 89.34679687 -202.8046875 88.7265625 C-202.23363281 88.15808594 -201.66257812 87.58960937 -201.07421875 87.00390625 C-200.55279297 86.48473633 -200.03136719 85.96556641 -199.49414062 85.43066406 C-198.10546875 84.30078125 -198.10546875 84.30078125 -196.10546875 84.30078125 C-195.61046875 82.81578125 -195.61046875 82.81578125 -195.10546875 81.30078125 C-194.44546875 81.30078125 -193.78546875 81.30078125 -193.10546875 81.30078125 C-193.10546875 80.64078125 -193.10546875 79.98078125 -193.10546875 79.30078125 C-190.98828125 77.35546875 -190.98828125 77.35546875 -188.23046875 75.17578125 C-186.87308594 74.08910156 -186.87308594 74.08910156 -185.48828125 72.98046875 C-183.10546875 71.30078125 -183.10546875 71.30078125 -181.10546875 71.30078125 C-181.10546875 70.64078125 -181.10546875 69.98078125 -181.10546875 69.30078125 C-177.64393029 66.30078125 -177.64393029 66.30078125 -175.10546875 66.30078125 C-175.10546875 65.64078125 -175.10546875 64.98078125 -175.10546875 64.30078125 C-173.69458008 63.08666992 -173.69458008 63.08666992 -171.6875 61.71875 C-170.93839355 61.20538086 -170.18928711 60.69201172 -169.41748047 60.16308594 C-168.5926416 59.61040039 -167.76780273 59.05771484 -166.91796875 58.48828125 C-165.64203857 57.62638184 -165.64203857 57.62638184 -164.34033203 56.74707031 C-146.19837319 44.58623164 -127.68900126 33.02889551 -107.44921875 24.6875 C-104.90443286 23.63212735 -102.41250748 22.52681731 -99.91015625 21.37890625 C-94.63092678 19.02389058 -89.21662919 17.17335005 -83.73046875 15.36328125 C-82.67972168 15.01555664 -81.62897461 14.66783203 -80.54638672 14.30957031 C-71.15594118 11.24440594 -61.70853178 8.60559936 -52.10546875 6.30078125 C-51.34540527 6.11531738 -50.5853418 5.92985352 -49.80224609 5.73876953 C-47.51030737 5.18407288 -45.21526781 4.64530836 -42.91796875 4.11328125 C-41.94077881 3.8807666 -41.94077881 3.8807666 -40.94384766 3.64355469 C-27.38093896 0.61343783 -13.83230482 -0.01354409 0 0 Z " fill="#30A9F6" transform="translate(297.10546875,-0.30078125)"/>
<path d="M0 0 C1.64099355 -0.0024345 3.2819856 -0.00616015 4.92297363 -0.01106262 C9.3359794 -0.02038231 13.74875992 -0.01112375 18.16174793 0.00226951 C22.80149637 0.01367554 27.4412352 0.00946968 32.08099365 0.00752258 C39.86457961 0.00664283 47.64807794 0.0176559 55.43164062 0.03613281 C64.41016626 0.05732529 73.38856394 0.06080204 82.36710954 0.05457085 C91.03717363 0.04886364 99.70719302 0.05453693 108.37725067 0.0657444 C112.05322859 0.07036939 115.72917898 0.07127343 119.405159 0.06915855 C123.7358418 0.06726581 128.06639556 0.07545484 132.39704895 0.09121895 C133.97961137 0.09543656 135.56218694 0.09632949 137.1447525 0.09352875 C148.75564991 0.07610707 158.95050625 1.04693587 169.70996094 5.55981445 C170.44593506 5.86661133 171.18190918 6.1734082 171.94018555 6.48950195 C177.75913893 9.01248583 182.44920855 12.0968087 187.14746094 16.37231445 C187.829375 16.91500977 188.51128906 17.45770508 189.21386719 18.0168457 C198.10504421 25.22089236 203.65173532 34.96462732 208.14746094 45.37231445 C208.14746094 46.03231445 208.14746094 46.69231445 208.14746094 47.37231445 C206.68073189 47.3777829 206.68073189 47.3777829 205.18437195 47.38336182 C195.93114825 47.42043908 186.67825344 47.47834972 177.42528057 47.55621719 C172.66916796 47.59558415 167.9132375 47.62782521 163.15698242 47.64331055 C158.55963687 47.65854854 153.96279249 47.6931194 149.36567116 47.74062347 C147.61921376 47.75536403 145.87268479 47.76335122 144.12616539 47.7641983 C134.41311442 47.77363978 126.07132359 48.04108182 117.14746094 52.37231445 C116.34422897 52.75019104 115.54099701 53.12806763 114.71342468 53.51739502 C104.98535248 58.2817381 97.45213765 66.03074539 92.14746094 75.37231445 C91.75816406 76.05293945 91.36886719 76.73356445 90.96777344 77.43481445 C85.9086147 86.88842494 85.83521736 96.19682529 85.84667969 106.67700195 C85.84278481 108.16618975 85.83844853 109.65537646 85.83369446 111.14456177 C85.82626238 114.25616059 85.82650138 117.3676459 85.83178711 120.47924805 C85.83757568 124.44208086 85.82065118 128.40444536 85.79744244 132.36720085 C85.7826206 135.44038553 85.78184483 138.51345963 85.78495216 141.58667374 C85.78444312 143.04652966 85.77928477 144.50639246 85.76914024 145.96621323 C85.71891613 154.2036079 86.11352734 161.61985006 89.14746094 169.37231445 C89.67726563 170.74709961 89.67726563 170.74709961 90.21777344 172.1496582 C96.89573061 185.82710382 106.97916603 195.74153623 121.45996094 200.80981445 C128.17344599 202.89783003 134.72351835 203.49782547 141.73510742 203.48583984 C142.81928703 203.48605888 142.81928703 203.48605888 143.92536926 203.48628235 C146.28979605 203.48559145 148.65414184 203.47783797 151.01855469 203.4699707 C152.66764788 203.4681036 154.31674163 203.46668108 155.96583557 203.46568298 C160.28780675 203.46188085 164.60974386 203.45207043 168.93170166 203.440979 C173.34931986 203.43071516 177.76694361 203.42617474 182.18457031 203.42114258 C190.83888275 203.41044592 199.4931676 203.39339742 208.14746094 203.37231445 C206.27205079 213.33833696 200.73952923 220.86601772 194.14746094 228.37231445 C193.50292969 229.13543945 192.85839844 229.89856445 192.19433594 230.68481445 C180.38688327 243.66399906 162.7554316 250.68803261 145.47138977 251.55716705 C141.28656604 251.631096 137.10614223 251.64316896 132.92089844 251.63110352 C131.32285402 251.63381971 129.72481085 251.63738414 128.12677002 251.64172363 C123.82099537 251.65077526 119.51531748 251.64733347 115.20954132 251.64096546 C110.68282326 251.63586778 106.15611295 251.64060732 101.62939453 251.64373779 C94.03058398 251.64736652 86.43181243 251.64260713 78.83300781 251.63305664 C70.07383028 251.62217421 61.31474588 251.62570056 52.5555706 251.63670945 C45.00700018 251.64581358 37.45845764 251.64705237 29.9098835 251.64183211 C25.41376343 251.63872955 20.91768701 251.63825558 16.42156982 251.64490509 C12.19269241 251.65072359 7.96393397 251.64660009 3.73506927 251.63511658 C2.19204658 251.63249391 0.64901369 251.63319361 -0.89400482 251.63764191 C-22.20016424 251.69335602 -41.54294485 247.02638038 -57.16503906 231.62231445 C-62.27051746 226.38676538 -66.37390319 220.82597672 -69.85253906 214.37231445 C-70.55830078 213.06520508 -70.55830078 213.06520508 -71.27832031 211.73168945 C-76.84279677 200.50425023 -78.3076606 188.65096788 -78.24072266 176.25512695 C-78.24860809 174.41310699 -78.24860809 174.41310699 -78.25665283 172.53387451 C-78.26748257 169.21135371 -78.26510246 165.88940439 -78.25551558 162.56691742 C-78.24782603 159.06079949 -78.25499 155.55470305 -78.25967407 152.04858398 C-78.26510495 146.16491403 -78.2580107 140.28135771 -78.24365234 134.39770508 C-78.22733093 127.63227543 -78.23262135 120.86711719 -78.24913156 114.10169411 C-78.26282312 108.25323506 -78.26462893 102.40485687 -78.25681555 96.55638695 C-78.25218084 93.08077941 -78.25139634 89.60529868 -78.26142502 86.12969971 C-78.27184262 82.24952966 -78.25733306 78.36965433 -78.24072266 74.48950195 C-78.24679535 73.36493591 -78.25286804 72.24036987 -78.25912476 71.08172607 C-78.17243861 60.05545521 -76.46870114 48.99936601 -71.22753906 39.18481445 C-70.88053955 38.51828857 -70.53354004 37.8517627 -70.17602539 37.16503906 C-62.96962168 23.80011388 -52.44453588 13.97581896 -39.04003906 6.99731445 C-38.43732178 6.67545166 -37.83460449 6.35358887 -37.21362305 6.02197266 C-25.49870062 0.27172967 -12.7601393 -0.06722623 0 0 Z " fill="#FDFEFE" transform="translate(251.8525390625,193.627685546875)"/>
<path d="M0 0 C0.70949799 -0.00335861 1.41899597 -0.00671722 2.1499939 -0.01017761 C4.49226643 -0.01966472 6.83446726 -0.02162982 9.17675781 -0.02270508 C10.81097442 -0.02592 12.44519073 -0.02928425 14.07940674 -0.03279114 C17.50574408 -0.03877737 20.93205623 -0.04063164 24.35839844 -0.04003906 C28.73395773 -0.03993765 33.10935399 -0.0535705 37.48487473 -0.07081127 C40.86164074 -0.08197049 44.23836789 -0.08395704 47.61515045 -0.08342934 C49.22737437 -0.08460429 50.83959946 -0.08899867 52.45180511 -0.0967617 C54.71537936 -0.10663791 56.97860682 -0.10365348 59.2421875 -0.09765625 C60.52695984 -0.09908127 61.81173218 -0.10050629 63.13543701 -0.10197449 C76.07491713 0.75239313 86.09980458 6.86436101 94.87988281 16.14526367 C101.96590649 24.89451052 104.50460941 35.35425859 104.37597656 46.40307617 C104.37743179 47.43157684 104.37888702 48.46007751 104.38038635 49.51974487 C104.37873886 51.67603411 104.36730815 53.83233654 104.34643555 55.98852539 C104.31739268 59.2691485 104.32586996 62.5481598 104.33886719 65.82885742 C104.33263074 67.9369381 104.32424053 70.04501375 104.31347656 72.15307617 C104.3164122 73.12205841 104.31934784 74.09104065 104.32237244 75.08938599 C104.15774114 87.09276574 99.46522316 98.44425519 91.37988281 107.39526367 C82.83628672 115.41004918 72.11721942 119.23434543 60.58618164 119.32226562 C59.51190414 119.33212242 59.51190414 119.33212242 58.41592407 119.34217834 C56.0562528 119.36181531 53.69664494 119.37355348 51.33691406 119.38354492 C50.52653875 119.38762045 49.71616344 119.39169598 48.88123131 119.395895 C44.59033848 119.41671661 40.29947725 119.43103419 36.00854492 119.44042969 C31.59829898 119.45147557 27.18856011 119.48586539 22.77849293 119.52560139 C19.36819075 119.55186662 15.95800755 119.56013034 12.54761314 119.56371117 C10.92305776 119.56855292 9.29850681 119.58009733 7.67405128 119.59874916 C-4.4491167 119.72927667 -14.14054024 118.75971047 -23.30371094 110.05932617 C-33.02409481 99.81634101 -34.59391711 90.54437804 -34.55371094 76.61791992 C-34.55828325 75.219841 -34.56359191 73.82176431 -34.56959534 72.4236908 C-34.57848346 69.50632545 -34.57615287 66.58923449 -34.56616211 63.671875 C-34.55467683 59.95887759 -34.57489788 56.24683193 -34.60407925 52.53395939 C-34.62254717 49.65032577 -34.62212796 46.76691584 -34.61644173 43.88323784 C-34.61628981 42.51548363 -34.62222565 41.14771298 -34.6347332 39.78001595 C-34.73406069 27.14127961 -32.42504482 18.64403069 -23.63183594 9.41479492 C-16.27301009 2.76552926 -9.80380183 0.02915918 0 0 Z " fill="#FCFEFD" transform="translate(390.1201171875,259.854736328125)"/>
<path d="M0 0 C5.12017188 3.68309761 9.79895847 7.53725271 11 14 C11.80312766 20.8638436 12.20064532 27.06798489 8.375 33.0625 C4.17339454 38.36875291 -0.16880542 42.60846036 -7 44 C-13.91319021 44.72256508 -19.50533017 44.77525788 -25.25 40.5625 C-30.28392868 36.06792082 -34.61632491 31.50557868 -35.37109375 24.609375 C-35.50356859 16.91024911 -35.54878137 10.86943959 -30 5 C-21.74795816 -3.53990377 -10.66786909 -6.12414707 0 0 Z " fill="#32A9F5" transform="translate(416,299)"/>
<path d="M0 0 C0 0.33 0 0.66 0 1 C-1.65 1 -3.3 1 -5 1 C-5 2.65 -5 4.3 -5 6 C-5.99 6.0825 -6.98 6.165 -8 6.25 C-12.36348549 6.87335507 -16.39232104 8.44822708 -20 11 C-20.33 11.99 -20.66 12.98 -21 14 C-21.66 14 -22.32 14 -23 14 C-23 14.66 -23 15.32 -23 16 C-21.02 16 -19.04 16 -17 16 C-17 16.66 -17 17.32 -17 18 C-15.68 18 -14.36 18 -13 18 C-13 18.66 -13 19.32 -13 20 C-11.68 20.33 -10.36 20.66 -9 21 C-9.6290625 21.32871094 -10.258125 21.65742188 -10.90625 21.99609375 C-19.43281777 26.73450265 -26.24133289 32.83824892 -30 42 C-30.33 40.68 -30.66 39.36 -31 38 C-31.66 38 -32.32 38 -33 38 C-33 36.68 -33 35.36 -33 34 C-32.34 34 -31.68 34 -31 34 C-31 32.02 -31 30.04 -31 28 C-31.66 28 -32.32 28 -33 28 C-33 27.34 -33 26.68 -33 26 C-31.68 26 -30.36 26 -29 26 C-29.66 25.01 -30.32 24.02 -31 23 C-32.97747122 22.63702064 -32.97747122 22.63702064 -35.125 22.8125 C-36.40375 22.874375 -37.6825 22.93625 -39 23 C-39 19 -39 19 -37.6015625 17.0703125 C-32.5164554 12.06560235 -27.27622382 8.37624856 -21 5 C-19.948125 4.4225 -18.89625 3.845 -17.8125 3.25 C-11.71017927 0.53785745 -6.58014351 -0.23088223 0 0 Z " fill="#3DADF3" transform="translate(388,241)"/>
<path d="M0 0 C0.66 0 1.32 0 2 0 C2 0.66 2 1.32 2 2 C3.32 2 4.64 2 6 2 C6 1.34 6 0.68 6 0 C7.65 0 9.3 0 11 0 C11 0.33 11 0.66 11 1 C13.31 1.33 15.62 1.66 18 2 C18 3.32 18 4.64 18 6 C21.3 6 24.6 6 28 6 C28.495 8.475 28.495 8.475 29 11 C27.02 11.99 27.02 11.99 25 13 C25.99 13.33 26.98 13.66 28 14 C28 14.66 28 15.32 28 16 C28.99 16.33 29.98 16.66 31 17 C31 17.66 31 18.32 31 19 C32.65 19.33 34.3 19.66 36 20 C36 20.66 36 21.32 36 22 C37.98 22 39.96 22 42 22 C41.505 24.475 41.505 24.475 41 27 C42.65 27.33 44.3 27.66 46 28 C44.7874262 31.72433382 43.49140021 35.37802806 42 39 C39.58479341 36.75628737 37.88197446 34.40766766 36.125 31.625 C33.71953966 27.96066239 31.22807346 24.99187296 28 22 C27.49984375 21.45730469 26.9996875 20.91460937 26.484375 20.35546875 C17.77681443 11.01722038 6.76787199 7.11729516 -5 3 C-5 2.67 -5 2.34 -5 2 C-3.35 2 -1.7 2 0 2 C0 1.34 0 0.68 0 0 Z " fill="#45B1F2" transform="translate(415,193)"/>
<path d="M0 0 C0.66 0.33 1.32 0.66 2 1 C1.7215625 2.1446875 1.7215625 2.1446875 1.4375 3.3125 C0.77180827 6.08967375 0.77180827 6.08967375 2 9 C1.20613772 13.4715508 0.06575247 17.09820945 -3.4375 20.0625 C-6.67503583 21.24696433 -9.58534921 21 -13 21 C-13 20.34 -13 19.68 -13 19 C-13.61875 19.495 -14.2375 19.99 -14.875 20.5 C-17 22 -17 22 -19 22 C-19.33 23.65 -19.66 25.3 -20 27 C-20.99 27.33 -21.98 27.66 -23 28 C-23 28.66 -23 29.32 -23 30 C-25.64 30.66 -28.28 31.32 -31 32 C-31.3046875 29.69921875 -31.3046875 29.69921875 -31 27 C-28.9453125 25.33203125 -28.9453125 25.33203125 -26.125 23.8125 C-18.77146501 19.46679803 -12.08120412 13.80914736 -7.6875 6.375 C-7.130625 5.59125 -6.57375 4.8075 -6 4 C-3.25 3.625 -3.25 3.625 -1 4 C-0.67 2.68 -0.34 1.36 0 0 Z " fill="#25A3F5" transform="translate(458,409)"/>
<path d="M0 0 C2.97 0 5.94 0 9 0 C9 0.66 9 1.32 9 2 C6.36 2 3.72 2 1 2 C1 2.66 1 3.32 1 4 C3.64 4 6.28 4 9 4 C9 4.66 9 5.32 9 6 C-14.76 6 -38.52 6 -63 6 C-63 5.67 -63 5.34 -63 5 C-59.33468428 4.15478185 -55.9580702 3.87814175 -52.19995117 3.88647461 C-50.48874336 3.88658791 -50.48874336 3.88658791 -48.7429657 3.88670349 C-46.91146721 3.89444542 -46.91146721 3.89444542 -45.04296875 3.90234375 C-43.78486893 3.9037587 -42.5267691 3.90517365 -41.23054504 3.90663147 C-37.89821471 3.91127427 -34.56595368 3.92024772 -31.23364258 3.93133545 C-27.82829383 3.94159497 -24.4229379 3.94613879 -21.01757812 3.95117188 C-14.34503302 3.9621917 -7.67252051 3.978923 -1 4 C-0.67 2.68 -0.34 1.36 0 0 Z " fill="#19A5FE" transform="translate(448,391)"/>
<path d="M0 0 C3.36207846 0.29033493 4.68668062 0.66183324 7.01953125 3.1796875 C7.61121094 4.06914062 8.20289063 4.95859375 8.8125 5.875 C9.41707031 6.75929688 10.02164063 7.64359375 10.64453125 8.5546875 C12 11 12 11 12 14 C11.34 14 10.68 14 10 14 C10.33 15.65 10.66 17.3 11 19 C9.35 19.33 7.7 19.66 6 20 C6 19.34 6 18.68 6 18 C4.02 18.66 2.04 19.32 0 20 C0 19.34 0 18.68 0 18 C0.66 18 1.32 18 2 18 C1.34 17.01 0.68 16.02 0 15 C-0.125 12.3125 -0.125 12.3125 0 10 C1.32 9.67 2.64 9.34 4 9 C3.34 8.67 2.68 8.34 2 8 C2 7.34 2 6.68 2 6 C1.34 6 0.68 6 0 6 C0 4.02 0 2.04 0 0 Z " fill="#25A2F4" transform="translate(179,409)"/>
<path d="M0 0 C5.28 0 10.56 0 16 0 C16 0.66 16 1.32 16 2 C13.5 3.625 13.5 3.625 11 5 C11.495 6.485 11.495 6.485 12 8 C10.7625 7.566875 10.7625 7.566875 9.5 7.125 C2.92601741 5.01193417 -2.77858422 3.75227482 -9.70117188 3.68115234 C-10.42410431 3.67110672 -11.14703674 3.6610611 -11.89187622 3.65071106 C-14.25082699 3.62013781 -16.60966569 3.60291696 -18.96875 3.5859375 C-20.61642402 3.56720496 -22.26408867 3.54763002 -23.91174316 3.5272522 C-28.22540734 3.47614516 -32.53910254 3.43640545 -36.85290527 3.39910889 C-41.26399272 3.35893412 -45.67495349 3.30790356 -50.0859375 3.2578125 C-58.72387146 3.16130727 -67.36186866 3.07682208 -76 3 C-76 2.67 -76 2.34 -76 2 C-50.92 2 -25.84 2 0 2 C0 1.34 0 0.68 0 0 Z " fill="#69B5E2" transform="translate(459,257)"/>
<path d="M0 0 C2.31 0 4.62 0 7 0 C4.99134458 2.60381258 2.98364574 5.01592388 0.625 7.3125 C-2.07192241 10.07363485 -4.29750259 12.9562826 -6.57421875 16.0625 C-8.31627003 18.42978065 -10.1467821 20.71911643 -12 23 C-12.144375 22.05125 -12.28875 21.1025 -12.4375 20.125 C-12.82935399 17.1065506 -12.82935399 17.1065506 -14 15 C-14.66 15 -15.32 15 -16 15 C-16 13.35 -16 11.7 -16 10 C-15.34 10 -14.68 10 -14 10 C-14 10.66 -14 11.32 -14 12 C-13.34 12 -12.68 12 -12 12 C-12 12.66 -12 13.32 -12 14 C-11.34 14 -10.68 14 -10 14 C-10 13.34 -10 12.68 -10 12 C-9.34 12 -8.68 12 -8 12 C-8 10.02 -8 8.04 -8 6 C-7.34 6 -6.68 6 -6 6 C-6 5.34 -6 4.68 -6 4 C-4.35 4 -2.7 4 -1 4 C-0.67 2.68 -0.34 1.36 0 0 Z " fill="#41B0F5" transform="translate(193,209)"/>
<path d="M0 0 C0.66 0 1.32 0 2 0 C2 1.98 2 3.96 2 6 C3.65 6 5.3 6 7 6 C3.53258866 8.95749791 0.13126473 11.07848152 -4 13 C-4 12.01 -4 11.02 -4 10 C-5.32 10 -6.64 10 -8 10 C-8 8.68 -8 7.36 -8 6 C-4.77208445 3.8480563 -3.71599191 3.79913557 0 4 C0 2.68 0 1.36 0 0 Z " fill="#46B1EF" transform="translate(205,195)"/>
<path d="M0 0 C0.99 0.33 1.98 0.66 3 1 C2.67 4.63 2.34 8.26 2 12 C2.66 12 3.32 12 4 12 C4 13.32 4 14.64 4 16 C3.01 16.33 2.02 16.66 1 17 C0.35309078 15.3962669 -0.29248764 13.79199694 -0.9375 12.1875 C-1.29714844 11.29417969 -1.65679687 10.40085937 -2.02734375 9.48046875 C-2.73613486 7.6729091 -3.3860247 5.84192591 -4 4 C-3.34 4 -2.68 4 -2 4 C-2 3.34 -2 2.68 -2 2 C-1.34 2 -0.68 2 0 2 C0 1.34 0 0.68 0 0 Z " fill="#3DABF1" transform="translate(491,275)"/>
<path d="M0 0 C1.32 0.66 2.64 1.32 4 2 C3.67 3.65 3.34 5.3 3 7 C2.34 7 1.68 7 1 7 C1 7.66 1 8.32 1 9 C0.34 9 -0.32 9 -1 9 C-1 10.98 -1 12.96 -1 15 C-1.66 15 -2.32 15 -3 15 C-3 13.68 -3 12.36 -3 11 C-3.66 11 -4.32 11 -5 11 C-3.77472971 6.94718288 -2.30119506 3.55639236 0 0 Z " fill="#42ADEE" transform="translate(346,264)"/>
<path d="M0 0 C0.33 1.32 0.66 2.64 1 4 C-0.65 4.33 -2.3 4.66 -4 5 C-3.67 6.65 -3.34 8.3 -3 10 C-4.32 10 -5.64 10 -7 10 C-7 8.68 -7 7.36 -7 6 C-8.98 6 -10.96 6 -13 6 C-13 5.34 -13 4.68 -13 4 C-12.34 4 -11.68 4 -11 4 C-11 3.34 -11 2.68 -11 2 C-7.37 2 -3.74 2 0 2 C0 1.34 0 0.68 0 0 Z " fill="#44AFEF" transform="translate(460,239)"/>
<path d="M0 0 C0.33 0.66 0.66 1.32 1 2 C2.423125 1.9690625 2.423125 1.9690625 3.875 1.9375 C7 2 7 2 9 3 C9.625 5.0625 9.625 5.0625 10 7 C8.35 7.33 6.7 7.66 5 8 C5 7.34 5 6.68 5 6 C2.36 6 -0.28 6 -3 6 C-2.625 3.5625 -2.625 3.5625 -2 1 C-1.34 0.67 -0.68 0.34 0 0 Z " fill="#20A1F6" transform="translate(202,433)"/>
<path d="M0 0 C0.66 0.33 1.32 0.66 2 1 C1.6507442 4.14330223 1.16074267 5.79491452 -0.8125 8.3125 C-3 10 -3 10 -7 10 C-7.33 10.66 -7.66 11.32 -8 12 C-8 8 -8 8 -6.25 5.859375 C-5.5075 5.16328125 -4.765 4.4671875 -4 3.75 C-3.2575 3.04359375 -2.515 2.3371875 -1.75 1.609375 C-1.1725 1.07828125 -0.595 0.5471875 0 0 Z " fill="#42AEEF" transform="translate(357,252)"/>
<path d="M0 0 C0 0.33 0 0.66 0 1 C-1.65 1 -3.3 1 -5 1 C-5 2.65 -5 4.3 -5 6 C-12.38461538 6.36923077 -12.38461538 6.36923077 -15.5 4.5 C-15.995 4.005 -16.49 3.51 -17 3 C-11.10261508 0.70657253 -6.33393082 -0.34548714 0 0 Z " fill="#4CB4EF" transform="translate(388,241)"/>
<path d="M0 0 C1.65 0 3.3 0 5 0 C4.34 2.31 3.68 4.62 3 7 C1.35 7.33 -0.3 7.66 -2 8 C-2 6.02 -2 4.04 -2 2 C-1.34 2 -0.68 2 0 2 C0 1.34 0 0.68 0 0 Z " fill="#44B1F1" transform="translate(193,193)"/>
<path d="M0 0 C2.64 0 5.28 0 8 0 C8 1.32 8 2.64 8 4 C9.32 4.33 10.64 4.66 12 5 C9.36 5.99 6.72 6.98 4 8 C4 6.02 4 4.04 4 2 C2.68 2 1.36 2 0 2 C0 1.34 0 0.68 0 0 Z " fill="#4AB0EE" transform="translate(209,193)"/>
<path d="M0 0 C0.33 0 0.66 0 1 0 C1 2.31 1 4.62 1 7 C-0.32 7 -1.64 7 -3 7 C-3 8.32 -3 9.64 -3 11 C-3.66 11 -4.32 11 -5 11 C-5 10.34 -5 9.68 -5 9 C-5.66 8.67 -6.32 8.34 -7 8 C-5.85760183 6.66372225 -4.71098945 5.33104612 -3.5625 4 C-2.92441406 3.2575 -2.28632813 2.515 -1.62890625 1.75 C-1.09136719 1.1725 -0.55382812 0.595 0 0 Z " fill="#3EA9EA" transform="translate(390,300)"/>
<path d="M0 0 C0.66 0 1.32 0 2 0 C2 1.32 2 2.64 2 4 C1.34 4 0.68 4 0 4 C0 4.66 0 5.32 0 6 C-2.64 6.66 -5.28 7.32 -8 8 C-8 6.68 -8 5.36 -8 4 C-6.68 4 -5.36 4 -4 4 C-4 3.34 -4 2.68 -4 2 C-2.68 2 -1.36 2 0 2 C0 1.34 0 0.68 0 0 Z " fill="#19A2FA" transform="translate(435,433)"/>
<path d="M0 0 C2.46062979 3.69094468 2.26816777 5.67044195 2.25 10.0625 C2.25515625 11.31160156 2.2603125 12.56070312 2.265625 13.84765625 C2 17 2 17 0 19 C0 17.68 0 16.36 0 15 C-0.66 15 -1.32 15 -2 15 C-2 13.68 -2 12.36 -2 11 C-1.01 11 -0.02 11 1 11 C0.835 10.484375 0.67 9.96875 0.5 9.4375 C-0.15049 6.26636124 -0.0620734 3.22781666 0 0 Z " fill="#42ACEC" transform="translate(425,310)"/>
<path d="M0 0 C1.32 0 2.64 0 4 0 C4 0.66 4 1.32 4 2 C5.32 2.33 6.64 2.66 8 3 C3.05 5.475 3.05 5.475 -2 8 C-2 7.34 -2 6.68 -2 6 C-1.34 6 -0.68 6 0 6 C0 5.34 0 4.68 0 4 C-0.66 4 -1.32 4 -2 4 C-2 3.34 -2 2.68 -2 2 C-1.34 2 -0.68 2 0 2 C0 1.34 0 0.68 0 0 Z " fill="#46ADEB" transform="translate(371,259)"/>
<path d="M0 0 C2.89932357 2.39509338 3.50168276 4.31245243 4 8 C2.35 8 0.7 8 -1 8 C-1 7.34 -1 6.68 -1 6 C-1.66 6 -2.32 6 -3 6 C-3 5.34 -3 4.68 -3 4 C-2.34 4 -1.68 4 -1 4 C-0.67 2.68 -0.34 1.36 0 0 Z " fill="#EEF9F7" transform="translate(456,233)"/>
<path d="M0 0 C0 1.98 0 3.96 0 6 C-0.99 6.495 -0.99 6.495 -2 7 C-2 6.01 -2 5.02 -2 4 C-2.66 4 -3.32 4 -4 4 C-4 4.66 -4 5.32 -4 6 C-5.32 6 -6.64 6 -8 6 C-8 6.66 -8 7.32 -8 8 C-9.32 7.67 -10.64 7.34 -12 7 C-10.18924982 5.83061933 -8.37635257 4.66456267 -6.5625 3.5 C-5.55316406 2.8503125 -4.54382813 2.200625 -3.50390625 1.53125 C-1 0 -1 0 0 0 Z " fill="#36A2EA" transform="translate(439,429)"/>
<path d="M0 0 C0.33 0 0.66 0 1 0 C1 2.31 1 4.62 1 7 C0.34 7 -0.32 7 -1 7 C-1.33 8.98 -1.66 10.96 -2 13 C-2.12375 12.360625 -2.2475 11.72125 -2.375 11.0625 C-2.58125 10.381875 -2.7875 9.70125 -3 9 C-3.66 8.67 -4.32 8.34 -5 8 C-4.19185349 6.66402348 -3.37836819 5.331275 -2.5625 4 C-2.11003906 3.2575 -1.65757812 2.515 -1.19140625 1.75 C-0.79824219 1.1725 -0.40507812 0.595 0 0 Z " fill="#39A9EE" transform="translate(488,356)"/>
<path d="M0 0 C0.33 0.99 0.66 1.98 1 3 C0.04906703 4.69514137 -0.95107762 6.36368108 -2 8 C-2 8.66 -2 9.32 -2 10 C-4.31 10 -6.62 10 -9 10 C-8.2575 9.278125 -7.515 8.55625 -6.75 7.8125 C-4.30709485 5.31407427 -2.1318953 2.76356798 0 0 Z " fill="#E1F7FA" transform="translate(424,331)"/>
<path d="M0 0 C2.40072955 2.88087546 4.47291037 5.56404834 6 9 C4.68 8.67 3.36 8.34 2 8 C2 7.34 2 6.68 2 6 C0.68 6 -0.64 6 -2 6 C-2 4.68 -2 3.36 -2 2 C-1.34 2 -0.68 2 0 2 C0 1.34 0 0.68 0 0 Z " fill="#E4F7F8" transform="translate(343,369)"/>
<path d="M0 0 C2.31 0 4.62 0 7 0 C3.375 4.875 3.375 4.875 0 6 C-1.125 2.25 -1.125 2.25 0 0 Z " fill="#53B3E8" transform="translate(193,209)"/>
<path d="M0 0 C2.31 0 4.62 0 7 0 C7.33 2.64 7.66 5.28 8 8 C6.85073734 7.04578192 5.70569459 6.08647955 4.5625 5.125 C3.92441406 4.59132812 3.28632813 4.05765625 2.62890625 3.5078125 C1 2 1 2 0 0 Z " fill="#56B5EB" transform="translate(436,207)"/>
<path d="M0 0 C1.32 0 2.64 0 4 0 C4 0.66 4 1.32 4 2 C4.99 2.33 5.98 2.66 7 3 C7.33 4.98 7.66 6.96 8 9 C1.42857143 3.85714286 1.42857143 3.85714286 0 0 Z " fill="#ECF9F7" transform="translate(187,415)"/>
<path d="M0 0 C0 0.99 0 1.98 0 3 C-5.00932754 6.00559652 -8.32723489 6.29341888 -14 6 C-14 5.67 -14 5.34 -14 5 C-13.40832031 4.80664062 -12.81664062 4.61328125 -12.20703125 4.4140625 C-8.0853355 3.05585281 -4.0049476 1.67949415 0 0 Z " fill="#48A9E5" transform="translate(472,373)"/>
<path d="M0 0 C0.33 0 0.66 0 1 0 C1.06058594 0.81984375 1.12117188 1.6396875 1.18359375 2.484375 C1.26738281 3.56203125 1.35117187 4.6396875 1.4375 5.75 C1.55931641 7.35101563 1.55931641 7.35101563 1.68359375 8.984375 C1.94090773 11.43679962 2.31812218 13.63921291 3 16 C1.68 16 0.36 16 -1 16 C-0.67 10.72 -0.34 5.44 0 0 Z " fill="#D4E7ED" transform="translate(380,315)"/>
<path d="M0 0 C0.33 0 0.66 0 1 0 C1 3.96 1 7.92 1 12 C-0.32 10.68 -1.64 9.36 -3 8 C-2.34 8 -1.68 8 -1 8 C-1.020625 6.865625 -1.04125 5.73125 -1.0625 4.5625 C-1 1 -1 1 0 0 Z " fill="#38A6EA" transform="translate(390,327)"/>
<path d="M0 0 C0.99 0.33 1.98 0.66 3 1 C1.02 3.31 -0.96 5.62 -3 8 C-3.33 7.34 -3.66 6.68 -4 6 C-4.66 5.67 -5.32 5.34 -6 5 C-5.34 4.01 -4.68 3.02 -4 2 C-2.68 2 -1.36 2 0 2 C0 1.34 0 0.68 0 0 Z " fill="#E3F9FC" transform="translate(351,255)"/>
<path d="M0 0 C-2.3125 2.5 -2.3125 2.5 -5 5 C-5.99 5 -6.98 5 -8 5 C-8 4.01 -8 3.02 -8 2 C-4.77208445 -0.1519437 -3.71599191 -0.20086443 0 0 Z " fill="#ECF9FA" transform="translate(361,249)"/>
<path d="M0 0 C0.66 0.33 1.32 0.66 2 1 C2 2.32 2 3.64 2 5 C1.01 5 0.02 5 -1 5 C-1.33 5.66 -1.66 6.32 -2 7 C-3.32 6.67 -4.64 6.34 -6 6 C-4.02 4.02 -2.04 2.04 0 0 Z " fill="#4CADE4" transform="translate(357,252)"/>
<path d="M0 0 C1.32 0 2.64 0 4 0 C4 0.66 4 1.32 4 2 C5.32 2.66 6.64 3.32 8 4 C5.36 4 2.72 4 0 4 C0 2.68 0 1.36 0 0 Z " fill="#38B0F4" transform="translate(375,257)"/>
<path d="M0 0 C0.99 0 1.98 0 3 0 C3 1.98 3 3.96 3 6 C1.68 6 0.36 6 -1 6 C-0.67 4.02 -0.34 2.04 0 0 Z " fill="#46B2EE" transform="translate(172,249)"/>
<path d="M0 0 C1.32 0 2.64 0 4 0 C4.33 0.99 4.66 1.98 5 3 C1.846632 3.70074844 -0.72724974 4 -4 4 C-4 3.34 -4 2.68 -4 2 C-2.68 2 -1.36 2 0 2 C0 1.34 0 0.68 0 0 Z " fill="#41B1F1" transform="translate(179,207)"/>
<path d="M0 0 C1.32 0.33 2.64 0.66 4 1 C4 3.31 4 5.62 4 8 C3.01 8.495 3.01 8.495 2 9 C1.34 6.03 0.68 3.06 0 0 Z " fill="#E9F5F2" transform="translate(175,388)"/>
<path d="M0 0 C1.32 0 2.64 0 4 0 C3.34 1.32 2.68 2.64 2 4 C1.34 4 0.68 4 0 4 C0 4.66 0 5.32 0 6 C-0.66 6 -1.32 6 -2 6 C-2 4.68 -2 3.36 -2 2 C-1.34 2 -0.68 2 0 2 C0 1.34 0 0.68 0 0 Z " fill="#24A8FC" transform="translate(489,361)"/>
<path d="M0 0 C3.3 0.99 6.6 1.98 10 3 C10 3.33 10 3.66 10 4 C6.7 4 3.4 4 0 4 C0 2.68 0 1.36 0 0 Z " fill="#3AA4EA" transform="translate(373,375)"/>
<path d="M0 0 C0.66 0 1.32 0 2 0 C2 0.66 2 1.32 2 2 C2.66 2 3.32 2 4 2 C4 3.32 4 4.64 4 6 C3.34 6 2.68 6 2 6 C2 5.34 2 4.68 2 4 C0.68 4 -0.64 4 -2 4 C-2 3.34 -2 2.68 -2 2 C-1.34 2 -0.68 2 0 2 C0 1.34 0 0.68 0 0 Z " fill="#28ADFC" transform="translate(421,307)"/>
<path d="M0 0 C2.64 0 5.28 0 8 0 C4.79663178 2.83374881 2.21912747 3.5205537 -2 4 C-2 3.34 -2 2.68 -2 2 C-1.34 2 -0.68 2 0 2 C0 1.34 0 0.68 0 0 Z " fill="#50B1EB" transform="translate(225,193)"/>
<path d="M0 0 C2.97 0.495 2.97 0.495 6 1 C6 1.99 6 2.98 6 4 C4.68 4 3.36 4 2 4 C2 3.34 2 2.68 2 2 C1.34 2 0.68 2 0 2 C0 1.34 0 0.68 0 0 Z " fill="#1EA2F6" transform="translate(213,439)"/>
<path d="M0 0 C0.66 0 1.32 0 2 0 C2 0.66 2 1.32 2 2 C2.66 2 3.32 2 4 2 C4 2.66 4 3.32 4 4 C4.66 4 5.32 4 6 4 C5.67 5.32 5.34 6.64 5 8 C4.16382818 6.8562364 3.33113541 5.70992861 2.5 4.5625 C2.0359375 3.92441406 1.571875 3.28632813 1.09375 2.62890625 C0 1 0 1 0 0 Z M4 1 C6 2 6 2 6 2 Z " fill="#DFF8FB" transform="translate(359,359)"/>
<path d="M0 0 C1.32 0 2.64 0 4 0 C4 2.31 4 4.62 4 7 C1.49962266 4.82575883 0.56371414 3.26954202 0 0 Z " fill="#50B4EE" transform="translate(453,225)"/>
<path d="M0 0 C0.66 0 1.32 0 2 0 C0.60667426 3.36720387 -0.9789286 4.9859524 -4 7 C-4 5.35 -4 3.7 -4 2 C-2.68 2 -1.36 2 0 2 C0 1.34 0 0.68 0 0 Z " fill="#55B2E5" transform="translate(191,215)"/>
<path d="M0 0 C0.66 0 1.32 0 2 0 C2 2.31 2 4.62 2 7 C0 5.625 0 5.625 -2 4 C-2 3.34 -2 2.68 -2 2 C-1.34 2 -0.68 2 0 2 C0 1.34 0 0.68 0 0 Z " fill="#4DB0E9" transform="translate(449,215)"/>
<path d="M0 0 C0.763125 0.20625 1.52625 0.4125 2.3125 0.625 C0.9925 0.955 -0.3275 1.285 -1.6875 1.625 C-1.6875 2.285 -1.6875 2.945 -1.6875 3.625 C-3.0075 3.625 -4.3275 3.625 -5.6875 3.625 C-5.6875 2.965 -5.6875 2.305 -5.6875 1.625 C-2.6875 -0.375 -2.6875 -0.375 0 0 Z " fill="#2EA4EC" transform="translate(222.6875,441.375)"/>
<path d="M0 0 C0.78375 0.04125 1.5675 0.0825 2.375 0.125 C1.125 2.125 1.125 2.125 -0.625 4.125 C-1.945 4.125 -3.265 4.125 -4.625 4.125 C-4.625 0.73492581 -3.1763743 0.15125592 0 0 Z " fill="#1AA4FC" transform="translate(423.625,438.875)"/>
</svg>
