<?xml version="1.0" encoding="UTF-8"?>
<svg version="1.1" xmlns="http://www.w3.org/2000/svg" width="1024" height="1024">
<path d="M0 0 C0.98204402 -0.00307895 0.98204402 -0.00307895 1.98392731 -0.0062201 C4.16906601 -0.01185673 6.35414101 -0.010437 8.53928566 -0.00901413 C10.12538494 -0.0115997 11.71148358 -0.01461339 13.29758132 -0.01801753 C17.6499562 -0.02606856 22.00231458 -0.02787605 26.35469604 -0.028615 C31.05160636 -0.03046892 35.74850819 -0.03801807 40.44541359 -0.04475021 C50.71440689 -0.05832167 60.98339628 -0.06435671 71.25239706 -0.06876087 C77.66902785 -0.07152591 84.08565714 -0.0757638 90.50228691 -0.08026505 C108.28032715 -0.09245731 126.05836619 -0.10275596 143.83641052 -0.10614014 C144.97388606 -0.1063597 146.1113616 -0.10657927 147.2833061 -0.10680549 C148.99353172 -0.10713291 148.99353172 -0.10713291 150.73830736 -0.10746694 C153.04856388 -0.1079104 155.3588204 -0.10835696 157.66907692 -0.10880661 C158.81503643 -0.10902804 159.96099595 -0.10924947 161.14168151 -0.10947761 C179.69516751 -0.11342254 198.24861416 -0.13086744 216.80208497 -0.15416613 C235.86682944 -0.17791283 254.9315542 -0.19034354 273.99631369 -0.19150805 C284.69381963 -0.19242307 295.39127432 -0.19813146 306.0887661 -0.21632767 C315.20134783 -0.23177363 324.31386248 -0.23682276 333.42645483 -0.22858956 C338.07057117 -0.22469863 342.71455261 -0.22553595 347.35865211 -0.23964691 C351.62148148 -0.25248012 355.8840759 -0.25110673 360.14690538 -0.2390562 C361.67794634 -0.23711534 363.20900449 -0.2401018 364.74002139 -0.24890056 C375.53031885 -0.3069182 385.60452023 0.96465191 396.15784645 3.13142776 C396.48784645 2.47142776 396.81784645 1.81142776 397.15784645 1.13142776 C397.15784645 2.12142776 397.15784645 3.11142776 397.15784645 4.13142776 C397.69409645 4.18299026 398.23034645 4.23455276 398.78284645 4.28767776 C418.91243564 7.20117094 439.22538029 22.60819865 451.18909645 38.32283401 C466.19231499 59.72623506 473.88574703 82.96108769 469.93128395 109.20955276 C468.0413389 118.79291049 465.42299742 128.22753801 460.54065895 136.70955276 C460.01601051 137.62349808 459.49136208 138.53744339 458.9508152 139.47908401 C457.84752579 141.39885927 456.74337281 143.31813852 455.6383152 145.23689651 C452.36958038 150.90955168 452.36958038 150.90955168 449.40003395 156.74080276 C448.15784645 159.13142776 448.15784645 159.13142776 446.15784645 160.13142776 C445.44252638 161.77779936 444.7828604 163.4486979 444.15784645 165.13142776 C443.42969182 166.72492558 442.67899441 168.30828592 441.90784645 169.88142776 C441.5314402 170.66002151 441.15503395 171.43861526 440.76722145 172.24080276 C439.42977911 174.64300503 438.02028958 176.83632143 436.47034645 179.10017776 C432.77960642 184.56701545 429.58812773 190.29964717 426.40638161 196.07136917 C425.40031327 197.89508327 424.38692485 199.71458873 423.3726902 201.53377151 C422.72251664 202.70670814 422.0727618 203.87987699 421.42347145 205.05330276 C420.84371559 206.10098831 420.26395973 207.14867386 419.66663551 208.22810745 C417.08347484 212.94786603 417.08347484 212.94786603 416.15784645 218.13142776 C415.16784645 218.46142776 414.17784645 218.79142776 413.15784645 219.13142776 C410.80798918 222.48811709 408.87992788 226.08544251 406.89515114 229.668293 C405.9124886 231.43557902 404.90750851 233.18874239 403.90003395 234.94197464 C403.27870583 236.05250198 402.6573777 237.16302933 402.01722145 238.30720901 C401.44455544 239.32726028 400.87188942 240.34731155 400.28186989 241.39827347 C399.09788074 244.27723925 398.98655115 245.3081005 400.15784645 248.13142776 C399.16784645 247.80142776 398.17784645 247.47142776 397.15784645 247.13142776 C394.98427201 250.91917471 392.82016925 254.71224805 390.65784645 258.50642776 C390.03780739 259.58666214 389.41776833 260.66689651 388.7789402 261.77986526 C388.19241676 262.81111526 387.60589333 263.84236526 387.00159645 264.90486526 C386.45696754 265.85796585 385.91233864 266.81106644 385.35120583 267.79304886 C384.00632522 269.99078497 384.00632522 269.99078497 384.15784645 272.13142776 C383.72713844 272.55649612 383.29643044 272.98156448 382.85267067 273.4195137 C380.7171053 275.57661315 379.49735949 277.8584477 378.04065895 280.52205276 C377.44043922 281.61227737 376.8402195 282.70250198 376.22181129 283.8257637 C375.74817146 284.69437027 375.74817146 284.69437027 375.26496315 285.58052444 C373.92931067 288.02970486 372.58237546 290.47261423 371.23600197 292.91591263 C370.54605069 294.16816817 369.85666239 295.42073406 369.1678257 296.67360306 C365.9991225 302.43394051 362.77537914 308.16233464 359.53284645 313.88142776 C359.00803688 314.808022 358.48322731 315.73461624 357.94251442 316.68928909 C356.884731 318.55641494 355.82662659 320.42335897 354.76819801 322.29011917 C351.97743937 327.21414117 349.19284819 332.14164819 346.40784645 337.06892776 C345.85967262 338.0382222 345.31149879 339.00751663 344.74671364 340.00618362 C342.44752417 344.07293592 340.14971078 348.14033642 337.86878395 352.21736526 C333.30412578 360.37466671 328.65276706 368.47857753 323.97034645 376.56892776 C318.30259965 386.36429597 312.72747399 396.2069193 307.21546364 406.09065628 C303.59079276 412.58630801 299.92538439 419.05631895 296.22034645 425.50642776 C291.6266149 433.50823757 287.12778823 441.55986728 282.65784645 449.63142776 C275.29697057 462.91891524 267.80622835 476.12656592 260.18128395 489.26424026 C259.45086891 490.5230098 259.45086891 490.5230098 258.70569801 491.80720901 C257.80044618 493.36545994 256.89370972 494.92285004 255.98499489 496.47908401 C252.59648319 502.30300622 249.36594703 508.20655732 246.15784645 514.13142776 C245.1933517 515.90635704 244.22851195 517.68109889 243.2633152 519.45564651 C242.54945656 520.76843582 242.54945656 520.76843582 241.82117653 522.10774612 C236.69523823 531.52437884 231.56686075 540.93856275 226.23450661 550.24031448 C225.49761703 551.53463346 224.76847717 552.83338688 224.04603004 554.1358223 C218.14767448 564.76922532 211.41325529 575.27908418 199.15784645 579.13142776 C196.4813857 579.51655802 193.86326904 579.7507545 191.1617527 579.85799026 C190.50046364 579.94822464 189.83917458 580.03845901 189.15784645 580.13142776 C188.82784645 580.79142776 188.49784645 581.45142776 188.15784645 582.13142776 C175.84878228 580.05563884 165.58921427 576.57002002 156.15784645 568.13142776 C155.49784645 568.13142776 154.83784645 568.13142776 154.15784645 568.13142776 C154.03022926 567.09308792 154.03022926 567.09308792 153.90003395 566.03377151 C152.9720583 562.4048983 151.30669226 559.8408968 149.28284645 556.69392776 C142.15784645 545.55947205 142.15784645 545.55947205 142.15784645 542.13142776 C141.16784645 541.80142776 140.17784645 541.47142776 139.15784645 541.13142776 C139.15784645 540.14142776 139.15784645 539.15142776 139.15784645 538.13142776 C138.33868572 536.29458688 138.33868572 536.29458688 137.18909645 534.40877151 C136.78304176 533.70558792 136.37698708 533.00240433 135.9586277 532.27791214 C135.52936989 531.5489473 135.10011208 530.81998245 134.65784645 530.06892776 C133.81027194 528.62194245 132.96633447 527.17281866 132.12659645 525.72127151 C131.74954567 525.08052689 131.37249489 524.43978226 130.98401833 523.77962112 C130.15784645 522.13142776 130.15784645 522.13142776 130.15784645 520.13142776 C129.49784645 519.80142776 128.83784645 519.47142776 128.15784645 519.13142776 C126.84035382 516.85845624 125.60776866 514.59036414 124.40784645 512.25642776 C123.68166773 510.869508 122.95510318 509.48279019 122.22815895 508.09627151 C121.87269997 507.41419632 121.51724098 506.73212112 121.15101051 506.02937698 C118.88329179 501.69573752 116.51610093 497.41621965 114.15784645 493.13142776 C113.76774391 492.419543 113.37764137 491.70765823 112.97571754 490.9742012 C111.64391961 488.54559921 110.30754466 486.11955996 108.97034645 483.69392776 C108.5418943 482.91170853 108.11344215 482.12948929 107.67200661 481.32356644 C103.92401646 474.36876311 103.92401646 474.36876311 98.15784645 469.13142776 C98.15784645 467.81142776 98.15784645 466.49142776 98.15784645 465.13142776 C96.92751972 462.11112357 96.92751972 462.11112357 95.28284645 459.00642776 C94.74917458 457.95197464 94.2155027 456.89752151 93.66565895 455.81111526 C92.28904359 453.08296048 92.28904359 453.08296048 90.15784645 451.13142776 C90.15784645 450.14142776 90.15784645 449.15142776 90.15784645 448.13142776 C89.49784645 447.80142776 88.83784645 447.47142776 88.15784645 447.13142776 C86.806175 444.73235722 85.52615268 442.33568652 84.28284645 439.88142776 C81.92221688 435.22299907 79.55686583 431.14198619 76.15784645 427.13142776 C74.15784645 424.13142776 74.15784645 424.13142776 74.15784645 422.13142776 C73.32867523 419.06056941 73.32867523 419.06056941 72.15784645 416.13142776 C71.49784645 415.80142776 70.83784645 415.47142776 70.15784645 415.13142776 C70.01347145 414.47142776 69.86909645 413.81142776 69.72034645 413.13142776 C69.53472145 412.47142776 69.34909645 411.81142776 69.15784645 411.13142776 C68.16784645 410.80142776 67.17784645 410.47142776 66.15784645 410.13142776 C66.15784645 409.14142776 66.15784645 408.15142776 66.15784645 407.13142776 C65.24117683 405.30604541 64.2418286 403.52168018 63.2008152 401.76424026 C62.58270973 400.71365433 61.96460426 399.66306839 61.32776833 398.58064651 C60.3464695 396.93515823 60.3464695 396.93515823 59.34534645 395.25642776 C58.70274879 394.16716995 58.06015114 393.07791214 57.39808083 391.95564651 C53.97408811 386.14906635 53.97408811 386.14906635 50.44812965 380.40437698 C49.15784645 378.13142776 49.15784645 378.13142776 49.15784645 376.13142776 C48.49784645 375.80142776 47.83784645 375.47142776 47.15784645 375.13142776 C45.82451312 374.4647611 44.49117978 373.79809443 43.15784645 373.13142776 C43.81784645 372.14142776 44.47784645 371.15142776 45.15784645 370.13142776 C44.79690895 369.57713089 44.43597145 369.02283401 44.06409645 368.45174026 C43.60003395 367.72728714 43.13597145 367.00283401 42.65784645 366.25642776 C42.19378395 365.53713089 41.72972145 364.81783401 41.25159645 364.07674026 C40.15784645 362.13142776 40.15784645 362.13142776 40.15784645 360.13142776 C39.16784645 360.46142776 38.17784645 360.79142776 37.15784645 361.13142776 C37.15784645 360.14142776 37.15784645 359.15142776 37.15784645 358.13142776 C36.16784645 358.13142776 35.17784645 358.13142776 34.15784645 358.13142776 C34.3704612 357.40673294 34.58307594 356.68203812 34.80213356 355.93538284 C35.23854113 352.495341 34.55829982 351.24457689 32.8492527 348.26814651 C32.34974098 347.38191605 31.85022926 346.49568558 31.33558083 345.58259964 C30.80255348 344.67058792 30.26952614 343.7585762 29.72034645 342.81892776 C29.19118629 341.88758011 28.66202614 340.95623245 28.11683083 339.99666214 C26.80983416 337.70058691 25.48999074 335.41297457 24.15784645 333.13142776 C23.82784645 334.12142776 23.49784645 335.11142776 23.15784645 336.13142776 C22.09534645 334.25642776 22.09534645 334.25642776 21.15784645 332.13142776 C21.48784645 331.47142776 21.81784645 330.81142776 22.15784645 330.13142776 C21.23539497 327.94492354 21.23539497 327.94492354 19.84534645 325.63142776 C19.39546364 324.83736526 18.94558083 324.04330276 18.4820652 323.22517776 C17.19782853 321.02497995 17.19782853 321.02497995 15.15784645 319.13142776 C13.62111088 316.17393667 12.16601094 313.19028097 10.7242527 310.18611526 C9.401417 307.47231499 8.3090192 305.28260051 6.15784645 303.13142776 C5.66284645 301.64642776 5.66284645 301.64642776 5.15784645 300.13142776 C4.16784645 300.13142776 3.17784645 300.13142776 2.15784645 300.13142776 C2.11272926 299.19299026 2.06761208 298.25455276 2.0211277 297.28767776 C1.22930186 291.77401829 -1.83677136 287.33566084 -4.65465355 282.63142776 C-5.18896996 281.72006058 -5.72328636 280.80869339 -6.27379417 279.86970901 C-7.31409433 278.09620838 -8.36090696 276.3265081 -9.41490746 274.56111526 C-10.67798906 272.41089492 -11.86361365 270.23511419 -13.0413723 268.03767776 C-14.57917258 264.86360781 -14.57917258 264.86360781 -17.84215355 264.13142776 C-17.90402855 263.30642776 -17.96590355 262.48142776 -18.02965355 261.63142776 C-18.94515978 257.6877086 -20.52306646 255.17009331 -22.7835598 251.86580276 C-23.84215355 250.13142776 -23.84215355 250.13142776 -23.84215355 248.13142776 C-24.50215355 247.80142776 -25.16215355 247.47142776 -25.84215355 247.13142776 C-27.84215355 245.13142776 -27.84215355 245.13142776 -29.84215355 242.13142776 C-29.84215355 241.47142776 -29.84215355 240.81142776 -29.84215355 240.13142776 C-31.04616294 237.65956 -32.29187926 235.23982597 -33.59215355 232.81892776 C-33.98757347 232.0770723 -34.38299339 231.33521683 -34.79039574 230.57088089 C-39.50100194 221.80140493 -44.46727247 213.17540377 -49.46129417 204.56502151 C-50.40307217 202.90525436 -51.3174823 201.22973116 -52.20738792 199.54158401 C-52.63857933 198.72560745 -53.06977074 197.90963089 -53.51402855 197.06892776 C-53.8914016 196.3354512 -54.26877464 195.60197464 -54.65758324 194.84627151 C-55.81216275 192.80763057 -55.81216275 192.80763057 -58.84215355 192.13142776 C-58.95768578 191.40222122 -59.073218 190.67301468 -59.19225121 189.92171097 C-60.27809374 185.25976721 -62.82719793 181.42781301 -65.21715355 177.31892776 C-65.71215355 176.43527542 -66.20715355 175.55162308 -66.71715355 174.64119339 C-67.19926292 173.80652542 -67.6813723 172.97185745 -68.17809105 172.11189651 C-68.6168557 171.34772415 -69.05562035 170.58355179 -69.50768089 169.79622269 C-70.16824486 168.9721492 -70.16824486 168.9721492 -70.84215355 168.13142776 C-71.83215355 168.13142776 -72.82215355 168.13142776 -73.84215355 168.13142776 C-75.84215355 161.38142776 -75.84215355 161.38142776 -75.84215355 159.13142776 C-76.67111403 157.53376811 -77.55609251 155.96498561 -78.46715355 154.41267776 C-79.0085598 153.48068558 -79.54996605 152.54869339 -80.10777855 151.58845901 C-80.6801223 150.6126387 -81.25246605 149.63681839 -81.84215355 148.63142776 C-82.97108743 146.70664636 -84.09628755 144.77966852 -85.21715355 142.85017776 C-85.71988792 141.99359573 -86.2226223 141.1370137 -86.74059105 140.25447464 C-87.84215355 138.13142776 -87.84215355 138.13142776 -87.84215355 136.13142776 C-89.16215355 135.80142776 -90.48215355 135.47142776 -91.84215355 135.13142776 C-91.84215355 134.14142776 -91.84215355 133.15142776 -91.84215355 132.13142776 C-92.50215355 131.80142776 -93.16215355 131.47142776 -93.84215355 131.13142776 C-92.85215355 131.13142776 -91.86215355 131.13142776 -90.84215355 131.13142776 C-91.17988792 130.29740433 -91.5176223 129.46338089 -91.86559105 128.60408401 C-99.94078671 108.22938514 -101.54847299 85.09261665 -93.84215355 64.13142776 C-92.85215355 63.63642776 -92.85215355 63.63642776 -91.84215355 63.13142776 C-91.47090355 61.95580276 -91.47090355 61.95580276 -91.09215355 60.75642776 C-86.85299676 48.46287306 -78.62252899 37.15571558 -69.0569973 28.43611526 C-67.61500055 27.184594 -67.61500055 27.184594 -67.84215355 25.13142776 C-66.81992699 24.56037308 -65.79770042 23.98931839 -64.7444973 23.40095901 C-61.18203916 21.36718429 -57.80387147 19.11635837 -54.40465355 16.81892776 C-38.24111701 6.27369781 -19.41332473 0.02084828 0 0 Z M-21.71715355 79.44392776 C-26.17531065 85.08218528 -27.22862911 89.44082063 -26.41734886 96.39583206 C-25.40991778 101.18711611 -23.15189884 105.19936002 -20.77965355 109.44392776 C-20.32654808 110.29148636 -19.87344261 111.13904495 -19.40660667 112.01228714 C-16.73785013 116.94007411 -13.88009926 121.72637875 -10.9241848 126.48689651 C-6.93073383 132.92255282 -3.23378226 139.49192953 0.40784645 146.13142776 C1.71704474 148.5049306 3.02904904 150.87687667 4.3414402 153.24861526 C4.66529198 153.83432297 4.98914375 154.42003067 5.32280922 155.02348709 C12.12212046 167.30679886 19.14608585 179.46034206 26.29969215 191.54011917 C30.40471756 198.49787226 34.35691447 205.54046822 38.31702614 212.58137894 C42.16133152 219.40382037 46.08078937 226.17655833 50.08753395 232.90486526 C51.88984072 235.93741557 53.58121182 238.9781585 55.15784645 242.13142776 C55.95910227 243.57579012 56.77109588 245.01422713 57.5914402 246.44783401 C58.30880348 247.70261551 58.30880348 247.70261551 59.04065895 248.98274612 C59.81022926 250.32478104 59.81022926 250.32478104 60.59534645 251.69392776 C61.13030739 252.62922318 61.66526833 253.56451859 62.2164402 254.52815628 C64.78690742 259.01700137 67.36705654 263.49974377 69.9742527 267.96736526 C74.80640734 276.2494332 79.52690558 284.57551059 84.09534645 293.00642776 C89.41377317 302.82092332 94.90588519 312.52451375 100.47278786 322.19978714 C103.3448698 327.19659386 106.20518417 332.20013255 109.06510353 337.20390701 C109.75173681 338.40524575 110.43848398 339.6065194 111.12534523 340.80772781 C116.29631521 349.85159271 121.43080198 358.91559362 126.54700661 367.99055862 C131.67846626 377.07944009 136.90598986 386.11170612 142.15784645 395.13142776 C142.63222145 394.63642776 143.10659645 394.14142776 143.59534645 393.63142776 C145.15784645 392.13142776 145.15784645 392.13142776 146.15784645 392.13142776 C146.15784645 286.86142776 146.15784645 181.59142776 146.15784645 73.13142776 C56.03855707 58.73910001 56.03855707 58.73910001 -21.71715355 79.44392776 Z M226.15784645 73.13142776 C226.15784645 181.04142776 226.15784645 288.95142776 226.15784645 400.13142776 C229.03630386 396.533356 231.08016212 393.70741224 233.18128395 389.74470901 C233.72784645 388.72312698 234.27440895 387.70154495 234.83753395 386.64900589 C235.67671364 385.06249222 235.67671364 385.06249222 236.53284645 383.44392776 C240.16530536 376.60760615 243.837101 369.85426464 247.94397926 363.28889847 C249.62546944 360.30029656 250.43182397 357.47113117 251.15784645 354.13142776 C251.81784645 354.13142776 252.47784645 354.13142776 253.15784645 354.13142776 C253.53892555 353.4392012 253.92000465 352.74697464 254.31263161 352.03377151 C261.81994029 338.41429785 269.41767405 324.86454196 277.28919411 311.45100784 C283.02766124 301.66964185 288.61412291 291.81236025 294.03284645 281.85017776 C297.02724808 276.35434383 300.07759627 270.89204502 303.15784645 265.44392776 C303.71109596 264.46496536 304.26434547 263.48600296 304.83436012 262.47737503 C310.13216871 253.13026707 315.54805915 243.85359626 320.9742527 234.58064651 C327.29075657 224.05280516 327.29075657 224.05280516 333.08558083 213.24202347 C334.21915865 211.0107438 335.46721245 208.89098557 336.76722145 206.75252151 C337.27196999 205.91857864 337.77671852 205.08463577 338.29676247 204.22542191 C338.82842018 203.34877884 339.3600779 202.47213577 339.90784645 201.56892776 C343.73923806 195.2228112 347.50820246 188.87701625 350.9742527 182.32283401 C351.86334266 180.67669715 352.8289178 179.07151134 353.82972145 177.49080276 C355.40905584 175.2397003 355.40905584 175.2397003 354.84534645 172.81892776 C354.50503395 171.98361526 354.50503395 171.98361526 354.15784645 171.13142776 C355.06663551 171.02314651 355.06663551 171.02314651 355.99378395 170.91267776 C358.99603216 169.82883365 359.38875928 168.4709182 360.78284645 165.63142776 C363.41822982 160.48807142 366.25707072 155.52666346 369.22034645 150.56892776 C374.77159148 141.63458295 374.77159148 141.63458295 379.15784645 132.13142776 C378.82784645 131.47142776 378.49784645 130.81142776 378.15784645 130.13142776 C379.14784645 130.13142776 380.13784645 130.13142776 381.15784645 130.13142776 C383.09853134 126.68191685 385.03734466 123.23136135 386.97449684 119.77986526 C387.95456646 118.03452923 388.93607759 116.29000291 389.91761208 114.54549026 C390.85057106 112.88259964 390.85057106 112.88259964 391.8023777 111.18611526 C392.37319069 110.17017288 392.94400368 109.1542305 393.53211403 108.10750198 C397.62351775 100.61775708 399.00476824 95.68298523 398.15784645 87.13142776 C396.20813399 81.17397303 392.37429939 78.14171085 387.15784645 74.88142776 C336.90521224 56.03668994 279.82768331 73.13142776 226.15784645 73.13142776 Z M-90.84215355 132.13142776 C-89.84215355 134.13142776 -89.84215355 134.13142776 -89.84215355 134.13142776 Z M-72.84215355 164.13142776 C-71.84215355 166.13142776 -71.84215355 166.13142776 -71.84215355 166.13142776 Z M143.15784645 395.13142776 C143.81784645 396.45142776 144.47784645 397.77142776 145.15784645 399.13142776 C145.48784645 398.14142776 145.81784645 397.15142776 146.15784645 396.13142776 C145.16784645 395.80142776 144.17784645 395.47142776 143.15784645 395.13142776 Z M145.15784645 399.13142776 C146.15784645 401.13142776 146.15784645 401.13142776 146.15784645 401.13142776 Z " fill="#FCFCFC" transform="translate(325.84215354919434,215.86857223510742)"/>
<path d="M0 0 C1.27428864 -0.00571014 2.54857727 -0.01142029 3.86148071 -0.01730347 C5.28709402 -0.01854901 6.71270744 -0.01967406 8.13832092 -0.02069092 C9.6296145 -0.02531697 11.12090688 -0.03034134 12.61219788 -0.03573608 C16.6767296 -0.04889054 20.74124478 -0.05531201 24.80579448 -0.05974674 C27.34649997 -0.06267514 29.88720092 -0.0667797 32.42790413 -0.07125092 C40.38036356 -0.08493952 48.33281263 -0.09459709 56.28528303 -0.09845281 C65.45761029 -0.1029243 74.62978785 -0.12042407 83.8020696 -0.1494534 C90.89348559 -0.17111484 97.98485962 -0.18115961 105.07630831 -0.18249393 C109.30988186 -0.18353961 113.54331493 -0.18939567 117.77685356 -0.20731354 C121.7667635 -0.22386942 125.7564286 -0.22591353 129.74636078 -0.21717453 C131.2047574 -0.21640791 132.66316756 -0.22069696 134.12153053 -0.23063278 C144.69414193 -0.29839079 154.69228848 0.17226372 163.13856506 7.14044189 C164.29481506 9.26934814 164.29481506 9.26934814 165.13856506 11.14044189 C164.58169006 10.73052002 164.02481506 10.32059814 163.45106506 9.89825439 C162.68794006 9.35942627 161.92481506 8.82059814 161.13856506 8.26544189 C160.39606506 7.73177002 159.65356506 7.19809814 158.88856506 6.64825439 C111.00924025 -19.60376177 49.74141053 2.49732324 -4.86143494 2.14044189 C-4.53143494 109.39044189 -4.20143494 216.64044189 -3.86143494 327.14044189 C-2.87143494 326.15044189 -1.88143494 325.16044189 -0.86143494 324.14044189 C-1.33874332 325.5993845 -1.81834536 327.05757686 -2.29893494 328.51544189 C-2.56577087 329.32755127 -2.83260681 330.13966064 -3.10752869 330.97637939 C-3.86143494 333.14044189 -3.86143494 333.14044189 -4.86143494 335.14044189 C-5.52143494 335.14044189 -6.18143494 335.14044189 -6.86143494 335.14044189 C-6.88429952 292.60783898 -6.90193225 250.07523678 -6.91250027 207.54262895 C-6.91375105 202.52681203 -6.91504536 197.51099512 -6.91636658 192.49517822 C-6.91662889 191.4965752 -6.9168912 190.49797218 -6.91716146 189.46910845 C-6.92151854 173.2775999 -6.9294063 157.08609488 -6.93858773 140.89458842 C-6.94792321 124.29357164 -6.95349032 107.69255671 -6.95552343 91.09153742 C-6.95689888 80.83918096 -6.96125064 70.58683449 -6.9693514 60.33448111 C-6.97461756 53.31406396 -6.97623953 46.293652 -6.97493631 39.273233 C-6.97429273 35.21649347 -6.97531274 31.15977144 -6.98064041 27.10303497 C-6.98547442 23.39534261 -6.98577358 19.68767967 -6.98233383 15.979986 C-6.98170519 13.99043675 -6.98604691 12.00088788 -6.99051625 10.01134354 C-6.9885252 8.84589837 -6.98653415 7.6804532 -6.98448277 6.47969151 C-6.98486249 5.4654585 -6.98524221 4.4512255 -6.98563343 3.40625817 C-6.73895704 -1.09398469 -3.87663254 0.01034821 0 0 Z " fill="#BDBFBF" transform="translate(556.8614349365234,286.85955810546875)"/>
<path d="M0 0 C0.33 0 0.66 0 1 0 C1.33 19.47 1.66 38.94 2 59 C2.99 58.01 3.98 57.02 5 56 C4.54917531 57.46067199 4.08906463 58.91848032 3.625 60.375 C3.24214844 61.59316406 3.24214844 61.59316406 2.8515625 62.8359375 C2 65 2 65 0 67 C0 44.89 0 22.78 0 0 Z " fill="#F4F5F6" transform="translate(551,555)"/>
<path d="M0 0 C4.43444237 4.15116542 6.9354579 8.83483416 9.8125 14.125 C10.32748047 15.04410156 10.84246094 15.96320312 11.37304688 16.91015625 C11.85451172 17.78800781 12.33597656 18.66585937 12.83203125 19.5703125 C13.27264893 20.37227051 13.7132666 21.17422852 14.16723633 22.00048828 C14.44204834 22.66032715 14.71686035 23.32016602 15 24 C14.67 24.66 14.34 25.32 14 26 C12.66121428 23.8782637 11.32884524 21.75294812 10 19.625 C9.6184375 19.02171875 9.236875 18.4184375 8.84375 17.796875 C6 13.2265625 6 13.2265625 6 11 C5.34 10.67 4.68 10.34 4 10 C2.66666667 9.33333333 1.33333333 8.66666667 0 8 C0.66 7.01 1.32 6.02 2 5 C1.19838209 2.32854463 1.19838209 2.32854463 0 0 Z " fill="#ADADAD" transform="translate(369,581)"/>
<path d="M0 0 C2.81158409 2.49824489 4.44837831 5.278476 6.25 8.5625 C6.79140625 9.53316406 7.3328125 10.50382813 7.890625 11.50390625 C8.25671875 12.32761719 8.6228125 13.15132812 9 14 C8.67 14.66 8.34 15.32 8 16 C7.34 14.35 6.68 12.7 6 11 C5.01 11.33 4.02 11.66 3 12 C3 11.01 3 10.02 3 9 C2.01 9 1.02 9 0 9 C0.185625 8.2575 0.37125 7.515 0.5625 6.75 C0.99203108 4.05009037 0.85122974 2.55368923 0 0 Z " fill="#C6C7C7" transform="translate(360,565)"/>
<path d="M0 0 C0.66 0 1.32 0 2 0 C2 0.99 2 1.98 2 3 C2.99 2.01 3.98 1.02 5 0 C4.54917531 1.46067199 4.08906463 2.91848032 3.625 4.375 C3.36976563 5.18710937 3.11453125 5.99921875 2.8515625 6.8359375 C2 9 2 9 0 11 C0 7.37 0 3.74 0 0 Z " fill="#D6D6D7" transform="translate(551,611)"/>
<path d="M0 0 C2.65269897 2.47585238 4.68010103 4.59026101 6 8 C6 8.99 6 9.98 6 11 C3 9.5 3 9.5 0 8 C0.66 7.01 1.32 6.02 2 5 C1.19838209 2.32854463 1.19838209 2.32854463 0 0 Z " fill="#C6C8C8" transform="translate(369,581)"/>
<path d="M0 0 C1.98 0.99 1.98 0.99 4 2 C3.67 2.66 3.34 3.32 3 4 C2.01 3.34 1.02 2.68 0 2 C0 1.34 0 0.68 0 0 Z " fill="#E9EAE9" transform="translate(756,232)"/>
<path d="M0 0 C0.99 0.99 1.98 1.98 3 3 C2.67 3.66 2.34 4.32 2 5 C1.34 4.67 0.68 4.34 0 4 C0 2.68 0 1.36 0 0 Z " fill="#EEEEEE" transform="translate(272,416)"/>
<path d="M0 0 C1.65 0 3.3 0 5 0 C5.33 0.66 5.66 1.32 6 2 C3.03 1.505 3.03 1.505 0 1 C0 0.67 0 0.34 0 0 Z " fill="#EAEAEB" transform="translate(715,216)"/>
<path d="M0 0 C0.99 0.495 0.99 0.495 2 1 C2 1.99 2 2.98 2 4 C1.34 3.67 0.68 3.34 0 3 C0 2.01 0 1.02 0 0 Z " fill="#F0F1F0" transform="translate(378,601)"/>
<path d="M0 0 C0.99 0.495 0.99 0.495 2 1 C1.67 1.99 1.34 2.98 1 4 C0.67 2.68 0.34 1.36 0 0 Z " fill="#EFEFEF" transform="translate(336,530)"/>
<path d="M0 0 C0.99 0.495 0.99 0.495 2 1 C2 1.66 2 2.32 2 3 C1.34 3 0.68 3 0 3 C0 2.01 0 1.02 0 0 Z " fill="#F1F0F0" transform="translate(368,584)"/>
<path d="M0 0 C0.99 0.33 1.98 0.66 3 1 C2.01 1.33 1.02 1.66 0 2 C0 1.34 0 0.68 0 0 Z " fill="#F1F1F0" transform="translate(284,438)"/>
<path d="M0 0 C0.33 0.99 0.66 1.98 1 3 C0.34 3 -0.32 3 -1 3 C-0.67 2.01 -0.34 1.02 0 0 Z " fill="#EFEEEE" transform="translate(739,436)"/>
<path d="M0 0 C0.33 0.66 0.66 1.32 1 2 C0.01 2.33 -0.98 2.66 -2 3 C-2 2.34 -2 1.68 -2 1 C-1.34 0.67 -0.68 0.34 0 0 Z " fill="#FBFAFA" transform="translate(358,409)"/>
<path d="M0 0 C0.66 1.32 1.32 2.64 2 4 C1.34 3.67 0.68 3.34 0 3 C0 2.01 0 1.02 0 0 Z " fill="#F0F2F1" transform="translate(256,387)"/>
<path d="M0 0 C0.66 0.33 1.32 0.66 2 1 C1.67 1.66 1.34 2.32 1 3 C0.34 2.67 -0.32 2.34 -1 2 C-0.67 1.34 -0.34 0.68 0 0 Z " fill="#FBFBFB" transform="translate(721,313)"/>
<path d="M0 0 C0.66 0.99 1.32 1.98 2 3 C1.01 2.67 0.02 2.34 -1 2 C-0.67 1.34 -0.34 0.68 0 0 Z " fill="#FAF9F9" transform="translate(308,293)"/>
<path d="M0 0 C0.66 0 1.32 0 2 0 C2 0.66 2 1.32 2 2 C1.01 1.67 0.02 1.34 -1 1 C-0.67 0.67 -0.34 0.34 0 0 Z " fill="#E9E9EA" transform="translate(727,218)"/>
<path d="M0 0 C0.99 0.33 1.98 0.66 3 1 C2.01 1 1.02 1 0 1 C0 0.67 0 0.34 0 0 Z " fill="#E3E3E2" transform="translate(508,798)"/>
<path d="M0 0 C4 1 4 1 4 1 Z " fill="#E6E5E5" transform="translate(522,796)"/>
<path d="M0 0 C0.66 0.66 1.32 1.32 2 2 C1.01 1.67 0.02 1.34 -1 1 C-0.67 0.67 -0.34 0.34 0 0 Z " fill="#EBEBEA" transform="translate(548,774)"/>
<path d="M0 0 C0 3 0 3 0 3 Z " fill="#EDEDED" transform="translate(473,771)"/>
<path d="M0 0 C0.66 0.66 1.32 1.32 2 2 C1.01 1.67 0.02 1.34 -1 1 C-0.67 0.67 -0.34 0.34 0 0 Z " fill="#F0EFEF" transform="translate(580,717)"/>
<path d="M0 0 C0 3 0 3 0 3 Z " fill="#EFEDEF" transform="translate(441,713)"/>
<path d="M0 0 C0.99 1.485 0.99 1.485 2 3 C1.34 3 0.68 3 0 3 C0 2.01 0 1.02 0 0 Z " fill="#F1F1F0" transform="translate(411,659)"/>
<path d="M0 0 C0.99 0.495 0.99 0.495 2 1 C1.67 1.66 1.34 2.32 1 3 C0.67 2.01 0.34 1.02 0 0 Z " fill="#F1F2F1" transform="translate(409,656)"/>
<path d="M0 0 C0.99 0.495 0.99 0.495 2 1 C1.67 1.66 1.34 2.32 1 3 C0.67 2.01 0.34 1.02 0 0 Z " fill="#F5F5F5" transform="translate(403,645)"/>
<path d="M0 0 C0.99 1.485 0.99 1.485 2 3 C1.34 3 0.68 3 0 3 C0 2.01 0 1.02 0 0 Z " fill="#FBFBFA" transform="translate(469,600)"/>
<path d="M0 0 C0 3 0 3 0 3 Z " fill="#F0F0EF" transform="translate(676,547)"/>
<path d="M0 0 C0.99 0.495 0.99 0.495 2 1 C1.67 1.66 1.34 2.32 1 3 C0.67 2.01 0.34 1.02 0 0 Z " fill="#FBFBFA" transform="translate(592,538)"/>
<path d="M0 0 C0.99 1.485 0.99 1.485 2 3 C1.34 3 0.68 3 0 3 C0 2.01 0 1.02 0 0 Z " fill="#FBFBFB" transform="translate(412,508)"/>
<path d="M0 0 C0.66 0.66 1.32 1.32 2 2 C1.01 2.495 1.01 2.495 0 3 C0 2.01 0 1.02 0 0 Z " fill="#F1F1F1" transform="translate(314,489)"/>
<path d="M0 0 C0.99 0.495 0.99 0.495 2 1 C1.67 1.66 1.34 2.32 1 3 C0.67 2.01 0.34 1.02 0 0 Z " fill="#F2F2F2" transform="translate(306,475)"/>
<path d="M0 0 C1 4 1 4 1 4 Z " fill="#ECECEC" transform="translate(796,324)"/>
<path d="M0 0 C1 4 1 4 1 4 Z " fill="#E7E6E6" transform="translate(797,297)"/>
<path d="M0 0 C3 1 3 1 3 1 Z " fill="#E5E3E4" transform="translate(504,797)"/>
<path d="M0 0 C0.66 0 1.32 0 2 0 C1.67 0.66 1.34 1.32 1 2 C0.67 1.34 0.34 0.68 0 0 Z " fill="#F2F1F1" transform="translate(443,718)"/>
<path d="M0 0 C0.99 0.495 0.99 0.495 2 1 C1.01 1.495 1.01 1.495 0 2 C0 1.34 0 0.68 0 0 Z " fill="#F1F1F1" transform="translate(604,673)"/>
<path d="M0 0 C0.33 0.66 0.66 1.32 1 2 C0.34 1.67 -0.32 1.34 -1 1 C-0.67 0.67 -0.34 0.34 0 0 Z " fill="#EEEEED" transform="translate(613,662)"/>
<path d="M0 0 C0.66 0.66 1.32 1.32 2 2 C1.34 2 0.68 2 0 2 C0 1.34 0 0.68 0 0 Z " fill="#F2F2F2" transform="translate(380,605)"/>
<path d="M0 0 C3 1 3 1 3 1 Z " fill="#F9FAFA" transform="translate(432,545)"/>
<path d="M0 0 C0.66 0 1.32 0 2 0 C1.67 0.66 1.34 1.32 1 2 C0.67 1.34 0.34 0.68 0 0 Z " fill="#FAF9F9" transform="translate(430,541)"/>
<path d="" fill="#F1F0F0" transform="translate(0,0)"/>
<path d="M0 0 C0.66 0 1.32 0 2 0 C1.67 0.66 1.34 1.32 1 2 C0.67 1.34 0.34 0.68 0 0 Z " fill="#FBFCFC" transform="translate(409,504)"/>
<path d="M0 0 C0.66 0 1.32 0 2 0 C1.67 0.66 1.34 1.32 1 2 C0.67 1.34 0.34 0.68 0 0 Z " fill="#FAFAFA" transform="translate(624,483)"/>
<path d="" fill="#F9FAF9" transform="translate(0,0)"/>
<path d="M0 0 C0.66 0.66 1.32 1.32 2 2 C1.34 2 0.68 2 0 2 C0 1.34 0 0.68 0 0 Z " fill="#EEEFEF" transform="translate(280,433)"/>
<path d="M0 0 C0.66 0.66 1.32 1.32 2 2 C1.34 2 0.68 2 0 2 C0 1.34 0 0.68 0 0 Z " fill="#F0EEEE" transform="translate(756,406)"/>
<path d="M0 0 C0.66 0 1.32 0 2 0 C1.67 0.66 1.34 1.32 1 2 C0.67 1.34 0.34 0.68 0 0 Z " fill="#FAF9F9" transform="translate(349,399)"/>
<path d="M0 0 C0.33 0.66 0.66 1.32 1 2 C0.34 1.67 -0.32 1.34 -1 1 C-0.67 0.67 -0.34 0.34 0 0 Z " fill="#F9F9F7" transform="translate(675,394)"/>
<path d="M0 0 C0.33 0.66 0.66 1.32 1 2 C0.34 1.67 -0.32 1.34 -1 1 C-0.67 0.67 -0.34 0.34 0 0 Z " fill="#F1F0F0" transform="translate(243,364)"/>
<path d="M0 0 C0.33 0.66 0.66 1.32 1 2 C0.34 1.67 -0.32 1.34 -1 1 C-0.67 0.67 -0.34 0.34 0 0 Z " fill="#EEEDEF" transform="translate(241,361)"/>
<path d="M0 0 C3 1 3 1 3 1 Z " fill="#FCFBFB" transform="translate(323,354)"/>
<path d="M0 0 C0.99 0.495 0.99 0.495 2 1 C1.01 1.495 1.01 1.495 0 2 C0 1.34 0 0.68 0 0 Z " fill="#FAFAF9" transform="translate(706,339)"/>
<path d="" fill="#FAFAFA" transform="translate(0,0)"/>
<path d="M0 0 C2 1 2 1 2 1 Z " fill="#E4E3E3" transform="translate(526,795)"/>
<path d="M0 0 C2 1 2 1 2 1 Z " fill="#E8E7E7" transform="translate(497,795)"/>
<path d="" fill="#F0F1EF" transform="translate(0,0)"/>
<path d="M0 0 C2 1 2 1 2 1 Z " fill="#EEEDEC" transform="translate(572,731)"/>
<path d="" fill="#EFEEED" transform="translate(0,0)"/>
<path d="M0 0 C2 1 2 1 2 1 Z " fill="#F0EFF0" transform="translate(574,727)"/>
<path d="" fill="#F4F4F3" transform="translate(0,0)"/>
<path d="" fill="#F2F0F0" transform="translate(0,0)"/>
<path d="" fill="#F2F3F2" transform="translate(0,0)"/>
<path d="" fill="#F0F0F0" transform="translate(0,0)"/>
<path d="" fill="#EFEFEE" transform="translate(0,0)"/>
<path d="" fill="#F4F3F2" transform="translate(0,0)"/>
<path d="" fill="#F1F1F0" transform="translate(0,0)"/>
<path d="" fill="#F1F0F0" transform="translate(0,0)"/>
<path d="M0 0 C2 1 2 1 2 1 Z " fill="#F1F2F0" transform="translate(384,613)"/>
<path d="M0 0 C2 1 2 1 2 1 Z " fill="#ECECEA" transform="translate(646,600)"/>
<path d="M0 0 C2 1 2 1 2 1 Z " fill="#EFEEED" transform="translate(652,591)"/>
<path d="M0 0 C2 1 2 1 2 1 Z " fill="#EFEFF0" transform="translate(655,583)"/>
<path d="" fill="#FAF9F9" transform="translate(0,0)"/>
<path d="M0 0 C2 1 2 1 2 1 Z " fill="#EEEEEC" transform="translate(668,561)"/>
<path d="" fill="#F4F4F5" transform="translate(0,0)"/>
<path d="" fill="#F5F4F7" transform="translate(0,0)"/>
<path d="M0 0 C2 1 2 1 2 1 Z " fill="#FBFBFB" transform="translate(437,553)"/>
<path d="" fill="#FAFAF9" transform="translate(0,0)"/>
<path d="" fill="#EFEFEE" transform="translate(0,0)"/>
<path d="" fill="#F3F3F3" transform="translate(0,0)"/>
<path d="" fill="#F3F2F3" transform="translate(0,0)"/>
<path d="" fill="#F1F0F0" transform="translate(0,0)"/>
<path d="" fill="#F8F7F8" transform="translate(0,0)"/>
<path d="" fill="#FBFCFB" transform="translate(0,0)"/>
<path d="" fill="#F1F1F1" transform="translate(0,0)"/>
<path d="" fill="#FAFAFA" transform="translate(0,0)"/>
<path d="M0 0 C2 1 2 1 2 1 Z " fill="#FCFBFA" transform="translate(611,506)"/>
<path d="" fill="#F1F1F1" transform="translate(0,0)"/>
<path d="" fill="#F3F4F3" transform="translate(0,0)"/>
<path d="" fill="#F2F1F0" transform="translate(0,0)"/>
<path d="" fill="#F0EFEE" transform="translate(0,0)"/>
<path d="" fill="#F9F8F7" transform="translate(0,0)"/>
<path d="" fill="#F7F6F6" transform="translate(0,0)"/>
<path d="" fill="#FAFAF9" transform="translate(0,0)"/>
<path d="" fill="#F9FAF8" transform="translate(0,0)"/>
<path d="" fill="#F4F4F3" transform="translate(0,0)"/>
<path d="M0 0 C2 1 2 1 2 1 Z " fill="#FAFAF9" transform="translate(372,432)"/>
<path d="" fill="#F9F9F8" transform="translate(0,0)"/>
<path d="" fill="#F8F8F7" transform="translate(0,0)"/>
<path d="" fill="#EEEEED" transform="translate(0,0)"/>
<path d="" fill="#EBECEB" transform="translate(0,0)"/>
<path d="" fill="#F8F6F6" transform="translate(0,0)"/>
<path d="" fill="#F1F1F0" transform="translate(0,0)"/>
<path d="" fill="#FAF9F8" transform="translate(0,0)"/>
<path d="M0 0 C2 1 2 1 2 1 Z " fill="#F1F0F2" transform="translate(260,396)"/>
<path d="" fill="#F9FAFA" transform="translate(0,0)"/>
<path d="" fill="#EFEDED" transform="translate(0,0)"/>
<path d="" fill="#F9FAF9" transform="translate(0,0)"/>
<path d="M0 0 C2 1 2 1 2 1 Z " fill="#EEEFEC" transform="translate(787,351)"/>
<path d="" fill="#F8F7F8" transform="translate(0,0)"/>
<path d="" fill="#EEEEEE" transform="translate(0,0)"/>
<path d="" fill="#E9EAE9" transform="translate(0,0)"/>
<path d="M0 0 C2 1 2 1 2 1 Z " fill="#EAE9E8" transform="translate(228,335)"/>
<path d="" fill="#E9EBE9" transform="translate(0,0)"/>
<path d="" fill="#EEEEF0" transform="translate(0,0)"/>
<path d="" fill="#FCFBFB" transform="translate(0,0)"/>
<path d="" fill="#E9EAEB" transform="translate(0,0)"/>
<path d="" fill="#ECEDED" transform="translate(0,0)"/>
<path d="" fill="#F9FAFA" transform="translate(0,0)"/>
<path d="" fill="#EAEAE9" transform="translate(0,0)"/>
<path d="M0 0 C2 1 2 1 2 1 Z " fill="#FAF9F9" transform="translate(713,293)"/>
<path d="M0 0 C2 1 2 1 2 1 Z " fill="#E6E6E7" transform="translate(777,253)"/>
<path d="M0 0 C2 1 2 1 2 1 Z " fill="#EBEBEB" transform="translate(744,226)"/>
<path d="M0 0 C2 1 2 1 2 1 Z " fill="#EDEDEE" transform="translate(742,225)"/>
<path d="M0 0 C2 1 2 1 2 1 Z " fill="#E8E9EB" transform="translate(740,224)"/>
<path d="M0 0 C2 1 2 1 2 1 Z " fill="#EDEEEE" transform="translate(296,219)"/>
<path d="" fill="#4E4F4F" transform="translate(0,0)"/>
<path d="" fill="#3F403F" transform="translate(0,0)"/>
<path d="" fill="#3F403F" transform="translate(0,0)"/>
<path d="" fill="#3E403E" transform="translate(0,0)"/>
<path d="" fill="#4C4C49" transform="translate(0,0)"/>
<path d="" fill="#40413F" transform="translate(0,0)"/>
<path d="" fill="#484947" transform="translate(0,0)"/>
<path d="" fill="#3F413F" transform="translate(0,0)"/>
<path d="" fill="#424140" transform="translate(0,0)"/>
<path d="" fill="#40413F" transform="translate(0,0)"/>
<path d="" fill="#585956" transform="translate(0,0)"/>
<path d="" fill="#E1E0E0" transform="translate(0,0)"/>
<path d="" fill="#E6E7E6" transform="translate(0,0)"/>
<path d="" fill="#E6E5E6" transform="translate(0,0)"/>
<path d="" fill="#E4E4E3" transform="translate(0,0)"/>
<path d="" fill="#E8E6E7" transform="translate(0,0)"/>
<path d="" fill="#E4E5E6" transform="translate(0,0)"/>
<path d="" fill="#E5E6E5" transform="translate(0,0)"/>
<path d="" fill="#E9EAE9" transform="translate(0,0)"/>
<path d="" fill="#E9EDEA" transform="translate(0,0)"/>
<path d="" fill="#EBEBE9" transform="translate(0,0)"/>
<path d="" fill="#E6EAE6" transform="translate(0,0)"/>
<path d="" fill="#ECEBEB" transform="translate(0,0)"/>
<path d="" fill="#EBEBEA" transform="translate(0,0)"/>
<path d="" fill="#EEEDEE" transform="translate(0,0)"/>
<path d="" fill="#EEEEEF" transform="translate(0,0)"/>
<path d="" fill="#EAEAEA" transform="translate(0,0)"/>
<path d="" fill="#ECECEB" transform="translate(0,0)"/>
<path d="" fill="#EEEEEE" transform="translate(0,0)"/>
<path d="" fill="#EFF0EF" transform="translate(0,0)"/>
<path d="" fill="#EEEEED" transform="translate(0,0)"/>
<path d="" fill="#ECECEC" transform="translate(0,0)"/>
<path d="" fill="#F0EFEF" transform="translate(0,0)"/>
<path d="" fill="#F4F3F3" transform="translate(0,0)"/>
<path d="" fill="#F1F0F2" transform="translate(0,0)"/>
<path d="" fill="#F1F2F2" transform="translate(0,0)"/>
<path d="" fill="#F1F1F1" transform="translate(0,0)"/>
<path d="" fill="#EEEEEE" transform="translate(0,0)"/>
<path d="" fill="#F1EFF1" transform="translate(0,0)"/>
<path d="" fill="#474849" transform="translate(0,0)"/>
<path d="" fill="#EEEEED" transform="translate(0,0)"/>
<path d="" fill="#EFEDED" transform="translate(0,0)"/>
<path d="" fill="#EFF0ED" transform="translate(0,0)"/>
<path d="" fill="#F5F4F5" transform="translate(0,0)"/>
<path d="" fill="#F1EEEF" transform="translate(0,0)"/>
<path d="" fill="#F1F1EE" transform="translate(0,0)"/>
<path d="" fill="#F1F1F0" transform="translate(0,0)"/>
<path d="" fill="#EFEEEE" transform="translate(0,0)"/>
<path d="" fill="#F2F1F1" transform="translate(0,0)"/>
<path d="" fill="#EFEDF0" transform="translate(0,0)"/>
<path d="" fill="#EDECEC" transform="translate(0,0)"/>
<path d="" fill="#EEEFED" transform="translate(0,0)"/>
<path d="" fill="#F1F4F3" transform="translate(0,0)"/>
<path d="" fill="#F2F2F1" transform="translate(0,0)"/>
<path d="" fill="#F2F1F1" transform="translate(0,0)"/>
<path d="" fill="#F2F2F0" transform="translate(0,0)"/>
<path d="" fill="#F2F3F3" transform="translate(0,0)"/>
<path d="" fill="#EFF0EE" transform="translate(0,0)"/>
<path d="" fill="#EEECEE" transform="translate(0,0)"/>
<path d="" fill="#F3F3F3" transform="translate(0,0)"/>
<path d="" fill="#F4F3F5" transform="translate(0,0)"/>
<path d="" fill="#EDECEC" transform="translate(0,0)"/>
<path d="" fill="#F3F3F4" transform="translate(0,0)"/>
<path d="" fill="#EEEEEB" transform="translate(0,0)"/>
<path d="" fill="#EFF1F0" transform="translate(0,0)"/>
<path d="" fill="#F1F2F3" transform="translate(0,0)"/>
<path d="" fill="#EEEFED" transform="translate(0,0)"/>
<path d="" fill="#EFF1EF" transform="translate(0,0)"/>
<path d="" fill="#EFEFEF" transform="translate(0,0)"/>
<path d="" fill="#F1F2F1" transform="translate(0,0)"/>
<path d="" fill="#F2F0EF" transform="translate(0,0)"/>
<path d="" fill="#F5F4F6" transform="translate(0,0)"/>
<path d="" fill="#EDECEB" transform="translate(0,0)"/>
<path d="" fill="#F2F0F0" transform="translate(0,0)"/>
<path d="" fill="#F2F2F0" transform="translate(0,0)"/>
<path d="" fill="#F3F4F3" transform="translate(0,0)"/>
<path d="" fill="#F2F3F2" transform="translate(0,0)"/>
<path d="" fill="#F3F2F2" transform="translate(0,0)"/>
<path d="" fill="#F4F5F4" transform="translate(0,0)"/>
<path d="" fill="#EFEFF0" transform="translate(0,0)"/>
<path d="" fill="#50514F" transform="translate(0,0)"/>
<path d="" fill="#F2F3F4" transform="translate(0,0)"/>
<path d="" fill="#F4F5F4" transform="translate(0,0)"/>
<path d="" fill="#464746" transform="translate(0,0)"/>
<path d="" fill="#EEEEEE" transform="translate(0,0)"/>
<path d="" fill="#F2F1F1" transform="translate(0,0)"/>
<path d="" fill="#F3F3F2" transform="translate(0,0)"/>
<path d="" fill="#FBFCFC" transform="translate(0,0)"/>
<path d="" fill="#F7F7F5" transform="translate(0,0)"/>
<path d="" fill="#ECEBEA" transform="translate(0,0)"/>
<path d="" fill="#FBFBF9" transform="translate(0,0)"/>
<path d="" fill="#EEEDED" transform="translate(0,0)"/>
<path d="" fill="#F1F1F0" transform="translate(0,0)"/>
<path d="" fill="#FAFAF9" transform="translate(0,0)"/>
<path d="" fill="#FBFBFB" transform="translate(0,0)"/>
<path d="" fill="#F0F0EF" transform="translate(0,0)"/>
<path d="" fill="#FAFAFA" transform="translate(0,0)"/>
<path d="" fill="#F7F8F8" transform="translate(0,0)"/>
<path d="" fill="#F3F2F3" transform="translate(0,0)"/>
<path d="" fill="#FBFAF9" transform="translate(0,0)"/>
<path d="" fill="#FDFDFB" transform="translate(0,0)"/>
<path d="" fill="#FCFCFA" transform="translate(0,0)"/>
<path d="" fill="#F9F9F9" transform="translate(0,0)"/>
<path d="" fill="#F3F4F4" transform="translate(0,0)"/>
<path d="" fill="#F0EEEC" transform="translate(0,0)"/>
<path d="" fill="#EEEFEC" transform="translate(0,0)"/>
<path d="" fill="#F6F6F6" transform="translate(0,0)"/>
<path d="" fill="#FAF9FA" transform="translate(0,0)"/>
<path d="" fill="#FBFBF9" transform="translate(0,0)"/>
<path d="" fill="#FEFEFE" transform="translate(0,0)"/>
<path d="" fill="#FCFBF9" transform="translate(0,0)"/>
<path d="" fill="#FCFCFB" transform="translate(0,0)"/>
<path d="" fill="#F3F2F2" transform="translate(0,0)"/>
<path d="" fill="#F4F2F1" transform="translate(0,0)"/>
<path d="" fill="#EFEFEF" transform="translate(0,0)"/>
<path d="" fill="#F1F1F1" transform="translate(0,0)"/>
<path d="" fill="#F1F1F1" transform="translate(0,0)"/>
<path d="" fill="#FBF9FB" transform="translate(0,0)"/>
<path d="" fill="#FAFCF9" transform="translate(0,0)"/>
<path d="" fill="#F2F0EF" transform="translate(0,0)"/>
<path d="" fill="#FCFBFB" transform="translate(0,0)"/>
<path d="" fill="#F0F0F0" transform="translate(0,0)"/>
<path d="" fill="#EEEFEF" transform="translate(0,0)"/>
<path d="" fill="#FDFBFC" transform="translate(0,0)"/>
<path d="" fill="#F1F1F1" transform="translate(0,0)"/>
<path d="" fill="#F0F1EF" transform="translate(0,0)"/>
<path d="" fill="#FAFBFA" transform="translate(0,0)"/>
<path d="" fill="#FCFBFB" transform="translate(0,0)"/>
<path d="" fill="#F0F0F0" transform="translate(0,0)"/>
<path d="" fill="#FDFEFA" transform="translate(0,0)"/>
<path d="" fill="#FAF9F9" transform="translate(0,0)"/>
<path d="" fill="#EEEFF1" transform="translate(0,0)"/>
<path d="" fill="#FDFBFC" transform="translate(0,0)"/>
<path d="" fill="#FAFCFC" transform="translate(0,0)"/>
<path d="" fill="#ECECEC" transform="translate(0,0)"/>
<path d="" fill="#EEEFEE" transform="translate(0,0)"/>
<path d="" fill="#F8F9F8" transform="translate(0,0)"/>
<path d="" fill="#FAFBF9" transform="translate(0,0)"/>
<path d="" fill="#ECEDEC" transform="translate(0,0)"/>
<path d="" fill="#EDEBEC" transform="translate(0,0)"/>
<path d="" fill="#FDFCFB" transform="translate(0,0)"/>
<path d="" fill="#F6F7F6" transform="translate(0,0)"/>
<path d="" fill="#F3F4F3" transform="translate(0,0)"/>
<path d="" fill="#FAFBF9" transform="translate(0,0)"/>
<path d="" fill="#FCFBFA" transform="translate(0,0)"/>
<path d="" fill="#FBFCFA" transform="translate(0,0)"/>
<path d="" fill="#FAFBFA" transform="translate(0,0)"/>
<path d="" fill="#F2F0F1" transform="translate(0,0)"/>
<path d="" fill="#FBFCFA" transform="translate(0,0)"/>
<path d="" fill="#FAFAF9" transform="translate(0,0)"/>
<path d="" fill="#F4F3F1" transform="translate(0,0)"/>
<path d="" fill="#F9FBFA" transform="translate(0,0)"/>
<path d="" fill="#F3F5F5" transform="translate(0,0)"/>
<path d="" fill="#EFF0EE" transform="translate(0,0)"/>
<path d="" fill="#FDFCFB" transform="translate(0,0)"/>
<path d="" fill="#F5F5F4" transform="translate(0,0)"/>
<path d="" fill="#F2F0EF" transform="translate(0,0)"/>
<path d="" fill="#F3F3F1" transform="translate(0,0)"/>
<path d="" fill="#F5F5F4" transform="translate(0,0)"/>
<path d="" fill="#EAEAEB" transform="translate(0,0)"/>
<path d="" fill="#FBF9FB" transform="translate(0,0)"/>
<path d="" fill="#FBFBFA" transform="translate(0,0)"/>
<path d="" fill="#FAF9F9" transform="translate(0,0)"/>
<path d="" fill="#FDFDFB" transform="translate(0,0)"/>
<path d="" fill="#FDFCFD" transform="translate(0,0)"/>
<path d="" fill="#FAFCFB" transform="translate(0,0)"/>
<path d="" fill="#FCFBFB" transform="translate(0,0)"/>
<path d="" fill="#EEEFED" transform="translate(0,0)"/>
<path d="" fill="#EFEFF1" transform="translate(0,0)"/>
<path d="" fill="#F2F0F1" transform="translate(0,0)"/>
<path d="" fill="#FCFCFC" transform="translate(0,0)"/>
<path d="" fill="#F4F4F2" transform="translate(0,0)"/>
<path d="" fill="#ECEDEF" transform="translate(0,0)"/>
<path d="" fill="#FAFBFA" transform="translate(0,0)"/>
<path d="" fill="#EFF0EF" transform="translate(0,0)"/>
<path d="" fill="#F0F1F1" transform="translate(0,0)"/>
<path d="" fill="#FDFBFC" transform="translate(0,0)"/>
<path d="" fill="#FBFEFE" transform="translate(0,0)"/>
<path d="" fill="#FBFAF9" transform="translate(0,0)"/>
<path d="" fill="#F3F4F3" transform="translate(0,0)"/>
<path d="" fill="#F0F1EF" transform="translate(0,0)"/>
<path d="" fill="#FBF9F9" transform="translate(0,0)"/>
<path d="" fill="#FBFAFA" transform="translate(0,0)"/>
<path d="" fill="#EEEEED" transform="translate(0,0)"/>
<path d="" fill="#EFF0F1" transform="translate(0,0)"/>
<path d="" fill="#F5F7F5" transform="translate(0,0)"/>
<path d="" fill="#F1F0F1" transform="translate(0,0)"/>
<path d="" fill="#F7F8F7" transform="translate(0,0)"/>
<path d="" fill="#F7F7F6" transform="translate(0,0)"/>
<path d="" fill="#F9FAFB" transform="translate(0,0)"/>
<path d="" fill="#FCFCFD" transform="translate(0,0)"/>
<path d="" fill="#F9F9F9" transform="translate(0,0)"/>
<path d="" fill="#FBFBFB" transform="translate(0,0)"/>
<path d="" fill="#EFF1F0" transform="translate(0,0)"/>
<path d="" fill="#FAFAF9" transform="translate(0,0)"/>
<path d="" fill="#F1F0EF" transform="translate(0,0)"/>
<path d="" fill="#FAFBF8" transform="translate(0,0)"/>
<path d="" fill="#F3F0F2" transform="translate(0,0)"/>
<path d="" fill="#F1F2F1" transform="translate(0,0)"/>
<path d="" fill="#F2F2F1" transform="translate(0,0)"/>
<path d="" fill="#F7F9F7" transform="translate(0,0)"/>
<path d="" fill="#F3F2F3" transform="translate(0,0)"/>
<path d="" fill="#F1EFEF" transform="translate(0,0)"/>
<path d="" fill="#EFF0F0" transform="translate(0,0)"/>
<path d="" fill="#F9F9FA" transform="translate(0,0)"/>
<path d="" fill="#FCFEFC" transform="translate(0,0)"/>
<path d="" fill="#FAFAF9" transform="translate(0,0)"/>
<path d="" fill="#EFEFEF" transform="translate(0,0)"/>
<path d="" fill="#FCFDFC" transform="translate(0,0)"/>
<path d="" fill="#F2F2F3" transform="translate(0,0)"/>
<path d="" fill="#F2F4F2" transform="translate(0,0)"/>
<path d="" fill="#F3F3F3" transform="translate(0,0)"/>
<path d="" fill="#F4F5F3" transform="translate(0,0)"/>
<path d="" fill="#FCFDFB" transform="translate(0,0)"/>
<path d="" fill="#F1F1F1" transform="translate(0,0)"/>
<path d="" fill="#5A5B5A" transform="translate(0,0)"/>
<path d="" fill="#F4F4F3" transform="translate(0,0)"/>
<path d="" fill="#F5F5F4" transform="translate(0,0)"/>
<path d="" fill="#FAFAF9" transform="translate(0,0)"/>
<path d="" fill="#F0F2EF" transform="translate(0,0)"/>
<path d="" fill="#F7F9F7" transform="translate(0,0)"/>
<path d="" fill="#FAFBFB" transform="translate(0,0)"/>
<path d="" fill="#EEEFEE" transform="translate(0,0)"/>
<path d="" fill="#F9F8F7" transform="translate(0,0)"/>
<path d="" fill="#F3F4F2" transform="translate(0,0)"/>
<path d="" fill="#EDEEED" transform="translate(0,0)"/>
<path d="" fill="#EEEFEE" transform="translate(0,0)"/>
<path d="" fill="#F0F0EE" transform="translate(0,0)"/>
<path d="" fill="#FBFAF9" transform="translate(0,0)"/>
<path d="" fill="#FAFAFA" transform="translate(0,0)"/>
<path d="" fill="#F9FAFA" transform="translate(0,0)"/>
<path d="" fill="#F9F8F8" transform="translate(0,0)"/>
<path d="" fill="#F1F0F0" transform="translate(0,0)"/>
<path d="" fill="#F8FAF8" transform="translate(0,0)"/>
<path d="" fill="#EFF1EF" transform="translate(0,0)"/>
<path d="" fill="#F9F9F9" transform="translate(0,0)"/>
<path d="" fill="#FAFCFA" transform="translate(0,0)"/>
<path d="" fill="#FAF9F9" transform="translate(0,0)"/>
<path d="" fill="#EFEFED" transform="translate(0,0)"/>
<path d="" fill="#F1F0F0" transform="translate(0,0)"/>
<path d="" fill="#F9F9F8" transform="translate(0,0)"/>
<path d="" fill="#EEEDEE" transform="translate(0,0)"/>
<path d="" fill="#EEEEEE" transform="translate(0,0)"/>
<path d="" fill="#FAFBF9" transform="translate(0,0)"/>
<path d="" fill="#FAFAFA" transform="translate(0,0)"/>
<path d="" fill="#FDFBFA" transform="translate(0,0)"/>
<path d="" fill="#F2F4F2" transform="translate(0,0)"/>
<path d="" fill="#FDFAFB" transform="translate(0,0)"/>
<path d="" fill="#FBF8F8" transform="translate(0,0)"/>
<path d="" fill="#F1F0EE" transform="translate(0,0)"/>
<path d="" fill="#F2F1F2" transform="translate(0,0)"/>
<path d="" fill="#F2F1F3" transform="translate(0,0)"/>
<path d="" fill="#F2F1F1" transform="translate(0,0)"/>
<path d="" fill="#F8F6F6" transform="translate(0,0)"/>
<path d="" fill="#FCFCFB" transform="translate(0,0)"/>
<path d="" fill="#EFEFEE" transform="translate(0,0)"/>
<path d="" fill="#FDFAFB" transform="translate(0,0)"/>
<path d="" fill="#EEEEED" transform="translate(0,0)"/>
<path d="" fill="#F8F8F8" transform="translate(0,0)"/>
<path d="" fill="#FAFAFA" transform="translate(0,0)"/>
<path d="" fill="#EFEFEF" transform="translate(0,0)"/>
<path d="" fill="#EDEEED" transform="translate(0,0)"/>
<path d="" fill="#FBFAFA" transform="translate(0,0)"/>
<path d="" fill="#FBFBFA" transform="translate(0,0)"/>
<path d="" fill="#FBFBFA" transform="translate(0,0)"/>
<path d="" fill="#F0F1F1" transform="translate(0,0)"/>
<path d="" fill="#EEEFEF" transform="translate(0,0)"/>
<path d="" fill="#EEEFED" transform="translate(0,0)"/>
<path d="" fill="#ECEDEE" transform="translate(0,0)"/>
<path d="" fill="#ECEBEC" transform="translate(0,0)"/>
<path d="" fill="#F9FAFB" transform="translate(0,0)"/>
<path d="" fill="#F2F3F1" transform="translate(0,0)"/>
<path d="" fill="#ECEEEE" transform="translate(0,0)"/>
<path d="" fill="#F7F8F9" transform="translate(0,0)"/>
<path d="" fill="#EDEDEC" transform="translate(0,0)"/>
<path d="" fill="#F1F1F0" transform="translate(0,0)"/>
<path d="" fill="#FCFCFC" transform="translate(0,0)"/>
<path d="" fill="#FAFAF9" transform="translate(0,0)"/>
<path d="" fill="#F2F2F0" transform="translate(0,0)"/>
<path d="" fill="#F9F8F8" transform="translate(0,0)"/>
<path d="" fill="#FBF9FA" transform="translate(0,0)"/>
<path d="" fill="#F9F9F8" transform="translate(0,0)"/>
<path d="" fill="#EDEDEC" transform="translate(0,0)"/>
<path d="" fill="#F4F2F4" transform="translate(0,0)"/>
<path d="" fill="#F1EFF0" transform="translate(0,0)"/>
<path d="" fill="#ECEDEB" transform="translate(0,0)"/>
<path d="" fill="#F0F0EF" transform="translate(0,0)"/>
<path d="" fill="#F6F7F7" transform="translate(0,0)"/>
<path d="" fill="#F0EFEF" transform="translate(0,0)"/>
<path d="" fill="#FBFBFB" transform="translate(0,0)"/>
<path d="" fill="#FAF9F9" transform="translate(0,0)"/>
<path d="" fill="#EEEDED" transform="translate(0,0)"/>
<path d="" fill="#FCFEFC" transform="translate(0,0)"/>
<path d="" fill="#ECEDEA" transform="translate(0,0)"/>
<path d="" fill="#525553" transform="translate(0,0)"/>
<path d="" fill="#7F8181" transform="translate(0,0)"/>
<path d="" fill="#FBF9FA" transform="translate(0,0)"/>
<path d="" fill="#F7F8F8" transform="translate(0,0)"/>
<path d="" fill="#EBEBEC" transform="translate(0,0)"/>
<path d="" fill="#F8F8F7" transform="translate(0,0)"/>
<path d="" fill="#FCFAF7" transform="translate(0,0)"/>
<path d="" fill="#F8F9F7" transform="translate(0,0)"/>
<path d="" fill="#FAF9FB" transform="translate(0,0)"/>
<path d="" fill="#FAFAF9" transform="translate(0,0)"/>
<path d="" fill="#FCFBFB" transform="translate(0,0)"/>
<path d="" fill="#FDFBFC" transform="translate(0,0)"/>
<path d="" fill="#FAF7F7" transform="translate(0,0)"/>
<path d="" fill="#EBEAEB" transform="translate(0,0)"/>
<path d="" fill="#FDFAFA" transform="translate(0,0)"/>
<path d="" fill="#EDEFF0" transform="translate(0,0)"/>
<path d="" fill="#FAFBFA" transform="translate(0,0)"/>
<path d="" fill="#FCFBFB" transform="translate(0,0)"/>
<path d="" fill="#EDEDED" transform="translate(0,0)"/>
<path d="" fill="#FAF9F8" transform="translate(0,0)"/>
<path d="" fill="#ECECEB" transform="translate(0,0)"/>
<path d="" fill="#FAF9F9" transform="translate(0,0)"/>
<path d="" fill="#FAFBFB" transform="translate(0,0)"/>
<path d="" fill="#E7E9E9" transform="translate(0,0)"/>
<path d="" fill="#FBFBFA" transform="translate(0,0)"/>
<path d="" fill="#EBEAEA" transform="translate(0,0)"/>
<path d="" fill="#FAFAFA" transform="translate(0,0)"/>
<path d="" fill="#FAFBFC" transform="translate(0,0)"/>
<path d="" fill="#FAFAFB" transform="translate(0,0)"/>
<path d="" fill="#FAFCFB" transform="translate(0,0)"/>
<path d="" fill="#F9F8F9" transform="translate(0,0)"/>
<path d="" fill="#FAFBFB" transform="translate(0,0)"/>
<path d="" fill="#FAF8FA" transform="translate(0,0)"/>
<path d="" fill="#FAFAF9" transform="translate(0,0)"/>
<path d="" fill="#ECEAEB" transform="translate(0,0)"/>
<path d="" fill="#FAFAF9" transform="translate(0,0)"/>
<path d="" fill="#F9FCFA" transform="translate(0,0)"/>
<path d="" fill="#FAFAF9" transform="translate(0,0)"/>
<path d="" fill="#FBFBFA" transform="translate(0,0)"/>
<path d="" fill="#FAFBFB" transform="translate(0,0)"/>
<path d="" fill="#F9FAF9" transform="translate(0,0)"/>
<path d="" fill="#F9FAFA" transform="translate(0,0)"/>
<path d="" fill="#E8E8E8" transform="translate(0,0)"/>
<path d="" fill="#E9E9EA" transform="translate(0,0)"/>
<path d="" fill="#E8EAEA" transform="translate(0,0)"/>
<path d="" fill="#ECECEC" transform="translate(0,0)"/>
<path d="" fill="#E8E9E8" transform="translate(0,0)"/>
<path d="" fill="#EBEBEA" transform="translate(0,0)"/>
<path d="" fill="#E1DFDF" transform="translate(0,0)"/>
<path d="" fill="#EAEAEA" transform="translate(0,0)"/>
<path d="" fill="#EAEBE9" transform="translate(0,0)"/>
<path d="" fill="#E7E8E7" transform="translate(0,0)"/>
<path d="" fill="#ECEBEB" transform="translate(0,0)"/>
<path d="" fill="#EEEFEF" transform="translate(0,0)"/>
<path d="" fill="#E4E5E6" transform="translate(0,0)"/>
<path d="" fill="#E9EAEB" transform="translate(0,0)"/>
<path d="" fill="#EBEBEC" transform="translate(0,0)"/>
<path d="" fill="#EBEAEC" transform="translate(0,0)"/>
<path d="" fill="#E9EBEC" transform="translate(0,0)"/>
<path d="" fill="#ECEFED" transform="translate(0,0)"/>
<path d="" fill="#E9E9EA" transform="translate(0,0)"/>
<path d="" fill="#EBECEC" transform="translate(0,0)"/>
<path d="" fill="#EDEDEE" transform="translate(0,0)"/>
<path d="" fill="#EAEBED" transform="translate(0,0)"/>
<path d="" fill="#EDEFF1" transform="translate(0,0)"/>
<path d="" fill="#EDECEC" transform="translate(0,0)"/>
<path d="" fill="#E7E8E8" transform="translate(0,0)"/>
<path d="" fill="#ECEBEC" transform="translate(0,0)"/>
<path d="" fill="#E9EAE8" transform="translate(0,0)"/>
<path d="" fill="#EDEDED" transform="translate(0,0)"/>
<path d="" fill="#ECEDED" transform="translate(0,0)"/>
<path d="" fill="#E8E9EA" transform="translate(0,0)"/>
<path d="" fill="#E9EAEA" transform="translate(0,0)"/>
<path d="" fill="#E8E7E7" transform="translate(0,0)"/>
<path d="" fill="#EBEBEA" transform="translate(0,0)"/>
<path d="" fill="#E4E5E5" transform="translate(0,0)"/>
<path d="" fill="#ECEDEE" transform="translate(0,0)"/>
<path d="" fill="#EBECEB" transform="translate(0,0)"/>
<path d="" fill="#EAE9E9" transform="translate(0,0)"/>
<path d="" fill="#EBEBEA" transform="translate(0,0)"/>
<path d="" fill="#424441" transform="translate(0,0)"/>
<path d="" fill="#525551" transform="translate(0,0)"/>
<path d="" fill="#444444" transform="translate(0,0)"/>
<path d="" fill="#525451" transform="translate(0,0)"/>
<path d="" fill="#575857" transform="translate(0,0)"/>
<path d="" fill="#5E5E5C" transform="translate(0,0)"/>
</svg>
