<?xml version="1.0" encoding="UTF-8"?>
<svg version="1.1" xmlns="http://www.w3.org/2000/svg" width="512" height="512">
<path d="M0 0 C4.04635717 3.05421552 7.57450292 6.55944764 11.12475586 10.16748047 C12.21723633 11.24255859 12.21723633 11.24255859 13.33178711 12.33935547 C20.8692703 19.91787759 26.50684326 27.48121387 26.75537109 38.55224609 C26.70712266 56.19019569 17.0186949 64.2955166 5.10256958 76.22529602 C4.07154254 77.26106364 3.04072176 78.2970366 2.01008785 79.33319539 C-0.80487452 82.16196021 -3.62290625 84.98764928 -6.4415195 87.81277573 C-8.86280314 90.24046304 -11.28225106 92.66997576 -13.7016872 95.09950409 C-21.66326356 103.09426804 -29.63062574 111.08325242 -37.59961241 119.07062915 C-39.67459362 121.15041135 -41.74948395 123.23028417 -43.82435465 125.31017661 C-56.72039662 138.23717349 -69.61858165 151.16202962 -82.52171135 164.0819521 C-85.50465683 167.06884671 -88.48757531 170.05576827 -91.47045898 173.04272461 C-92.21179337 173.78506736 -92.95312776 174.52741011 -93.71692683 175.29224809 C-105.74134677 187.33369657 -117.75365829 199.38715105 -129.76116954 211.44545815 C-142.09789251 223.833939 -154.44590146 236.21108111 -166.80490124 248.57733887 C-173.74048077 255.51758047 -180.67093128 262.46278273 -187.58864975 269.42083168 C-193.47550478 275.34196735 -199.37241774 281.25284629 -205.28277193 287.15052972 C-208.29712152 290.15904981 -211.30640162 293.17221872 -214.30274963 296.19867706 C-217.04726005 298.97054136 -219.80532966 301.72812671 -222.57471503 304.47513201 C-223.57250678 305.46970044 -224.56527551 306.46934004 -225.55234073 307.47455493 C-231.8987694 313.93051829 -237.22479784 318.38971641 -246.48071289 318.97216797 C-247.2502832 318.87162109 -248.01985352 318.77107422 -248.81274414 318.66748047 C-249.97870117 318.53986328 -249.97870117 318.53986328 -251.16821289 318.40966797 C-257.02572716 316.93830508 -260.92536586 313.86897375 -265.14126587 309.66413879 C-265.6621813 309.1486089 -266.18309674 308.633079 -266.71979749 308.10192698 C-268.45408151 306.3818889 -270.17751905 304.65138938 -271.90112305 302.9206543 C-273.14612155 301.68136115 -274.39174852 300.44269908 -275.63795471 299.20462036 C-279.01473592 295.84576855 -282.38190418 292.47743409 -285.74687624 289.10675645 C-288.5596292 286.29091092 -291.37696297 283.47967119 -294.19427907 280.66839236 C-300.84250469 274.03421006 -307.48289777 267.39225955 -314.1184082 260.74536133 C-320.95724561 253.89504652 -327.80875679 247.05760148 -334.66672385 240.22644216 C-340.5603319 234.35500872 -346.44612976 228.47582652 -352.32572687 222.59036273 C-355.83472756 219.07799508 -359.34654654 215.56857131 -362.86583328 212.06650734 C-366.17610065 208.77173458 -369.47647115 205.46735466 -372.76959038 202.1554451 C-373.97707096 200.94428547 -375.18794264 199.73649534 -376.40249443 198.53242683 C-385.27375642 189.73188979 -391.82102348 182.38151837 -391.93774414 169.22998047 C-391.89879971 156.32350692 -387.01219356 149.25048304 -378.10864258 140.30371094 C-376.66341418 138.83136667 -375.27025628 137.32330791 -373.88305664 135.79638672 C-365.75540605 127.11511356 -357.0511161 121.37357509 -345.00024414 120.54248047 C-331.37768318 120.79950992 -323.06701858 128.0245244 -313.92407227 137.26660156 C-313.20113983 137.98924194 -312.4782074 138.71188232 -311.73336792 139.4564209 C-309.36963204 141.82153859 -307.01303972 144.19363785 -304.65649414 146.56591797 C-303.00926806 148.21687827 -301.36159683 149.86739454 -299.71350098 151.51748657 C-295.39533193 155.84325989 -291.08320524 160.17500742 -286.77233887 164.50805664 C-282.36498451 168.93593868 -277.95190118 173.35810285 -273.53930664 177.78076172 C-264.89569152 186.44577014 -256.25845345 195.11710524 -247.62524414 203.79248047 C-244.50360081 202.40614201 -242.38898689 200.80266805 -239.98507309 198.38723183 C-239.27491318 197.67858722 -238.56475328 196.96994262 -237.83307338 196.23982394 C-236.67394211 195.06786142 -236.67394211 195.06786142 -235.49139404 193.8722229 C-234.66465974 193.04437518 -233.83792544 192.21652747 -232.98613858 191.36359346 C-230.69246687 189.06489587 -228.40334846 186.76177191 -226.11602712 184.4567585 C-223.64789303 181.9717689 -221.17392564 179.4925995 -218.70057678 177.01280212 C-214.41473391 172.71435899 -210.13235169 168.41249319 -205.85207367 164.10850906 C-199.65680643 157.87929219 -193.45412354 151.65750041 -187.24921289 145.43789081 C-177.17369821 135.33847752 -167.10119103 125.23607159 -157.03198242 115.13037109 C-156.42924811 114.52545654 -155.8265138 113.92054199 -155.20551482 113.29729669 C-146.65553646 104.71610987 -138.10855558 96.1319437 -129.56278279 87.54656892 C-128.66050048 86.64010666 -128.66050048 86.64010666 -127.73999023 85.71533203 C-127.13920425 85.11175899 -126.53841827 84.50818595 -125.91942665 83.88632281 C-115.89654468 73.8173474 -105.86593018 63.75611623 -95.82896066 53.70118368 C-89.63972381 47.50024841 -83.45708026 41.29288073 -77.28278741 35.07706486 C-73.04948886 30.81631749 -68.80897143 26.56284512 -64.56273475 22.31499197 C-62.11407601 19.86492732 -59.66880478 17.41171511 -57.23226357 14.9495945 C-54.58634971 12.27929744 -51.92835932 9.6216249 -49.26702881 6.96670532 C-48.50319752 6.18985842 -47.73936622 5.41301152 -46.95238853 4.61262381 C-33.34064595 -8.87197608 -15.97654193 -10.94465148 0 0 Z " fill="#000000" transform="translate(438.625244140625,96.20751953125)"/>
</svg>
