<?xml version="1.0" standalone="no"?>
<!DOCTYPE svg PUBLIC "-//W3C//DTD SVG 20010904//EN"
 "http://www.w3.org/TR/2001/REC-SVG-20010904/DTD/svg10.dtd">
<svg version="1.0" xmlns="http://www.w3.org/2000/svg"
 width="512.000000pt" height="512.000000pt" viewBox="0 0 512.000000 512.000000"
 preserveAspectRatio="xMidYMid meet">

<g transform="translate(0.000000,512.000000) scale(0.100000,-0.100000)"
fill="#000000" stroke="none">
<path d="M2375 4899 c-544 -42 -1055 -274 -1449 -658 -362 -353 -586 -777
-676 -1276 -133 -732 100 -1492 621 -2030 334 -344 722 -563 1184 -666 316
-71 714 -70 1023 2 454 105 839 323 1164 658 618 636 822 1544 538 2394 -159
473 -504 916 -935 1200 -431 284 -950 417 -1470 376z m1230 -1255 c171 -44
284 -182 293 -359 3 -60 0 -93 -15 -135 -16 -49 -1087 -1961 -1168 -2086 -63
-97 -169 -120 -257 -58 -36 26 -110 151 -625 1064 -347 615 -590 1057 -600
1089 -48 165 31 358 182 446 92 55 70 54 1140 54 865 1 998 -1 1050 -15z"/>
<path d="M1541 3354 c-34 -29 -54 -85 -42 -117 5 -12 164 -297 353 -632 190
-336 391 -693 448 -795 57 -102 107 -189 112 -194 4 -6 8 389 8 877 l0 887
-424 0 -424 0 -31 -26z"/>
<path d="M2700 2493 c0 -488 4 -883 8 -877 22 25 911 1612 912 1629 5 48 -2
69 -34 101 l-34 34 -426 0 -426 0 0 -887z"/>
</g>
</svg>
