<?xml version="1.0" encoding="UTF-8"?>
<svg version="1.1" xmlns="http://www.w3.org/2000/svg" width="2000" height="2000">
<path d="M0 0 C2.67563966 0.26690138 5.35231471 0.52084026 8.02935791 0.77325439 C79.71552763 7.60853907 151.10320341 21.7132739 219.53863525 44.25323486 C220.35592102 44.52178284 221.17320679 44.79033081 222.01525879 45.0670166 C244.46054746 52.45541499 266.69075838 60.23322552 288.53863525 69.25323486 C290.17759766 69.92733398 290.17759766 69.92733398 291.84967041 70.61505127 C307.58853384 77.1139316 323.1253353 84.01790896 338.53863525 91.25323486 C339.54217041 91.72342041 340.54570557 92.19360596 341.57965088 92.67803955 C390.86490103 115.84618547 437.80484681 143.21223457 482.53863525 174.25323486 C483.31610107 174.79222412 484.09356689 175.33121338 484.89459229 175.88653564 C495.2869958 183.10983332 505.46576599 190.59176564 515.53863525 198.25323486 C516.10002197 198.67814209 516.66140869 199.10304932 517.23980713 199.54083252 C525.24248943 205.60048662 533.05222852 211.87451223 540.8237915 218.22589111 C543.74961321 220.61613369 546.69875449 222.97401459 549.66363525 225.31573486 C559.11852883 232.86375915 568.19599167 240.86172271 577.10894775 249.03839111 C579.14378941 250.89330304 581.20184772 252.70752285 583.28863525 254.50323486 C592.93599393 262.90257794 602.14993137 271.78080181 611.13238525 280.88214111 C613.18416215 282.90394075 615.27041874 284.77959131 617.47613525 286.62823486 C621.59989502 290.14728851 625.18759435 294.12624958 628.82427979 298.13238525 C632.39649214 302.05530963 636.0736477 305.84061324 639.85113525 309.56573486 C643.60671193 313.27839067 647.21790186 317.05026293 650.64019775 321.07354736 C652.65833071 323.39066298 654.7416731 325.63489868 656.83917236 327.87994385 C661.81572471 333.20838142 666.57017054 338.63056816 671.1362915 344.31964111 C673.988251 347.80227783 676.94705651 351.18084779 679.91363525 354.56573486 C685.52519446 360.9955113 690.85623763 367.59507248 696.06695557 374.35186768 C697.64972516 376.39675977 699.2454305 378.43107806 700.84332275 380.46417236 C737.16533817 426.75162894 768.97830332 476.28583334 796.53863525 528.25323486 C797.08987061 529.28722412 797.64110596 530.32121338 798.20904541 531.38653564 C838.24659149 606.66913239 867.38642106 687.18456777 908.31860352 903.87597656 C908.53522826 906.21642511 908.76445307 908.55534916 908.99615479 910.89434814 C914.64655396 969.04711393 914.43923648 1030.13329575 908.53863525 1088.25323486 C908.35967541 1090.07759197 908.18097207 1091.90197426 908.00250244 1093.72637939 C900.55563837 1168.83238078 885.03194067 1242.54214732 861.53863525 1314.25323486 C861.31433838 1314.93815002 861.0900415 1315.62306519 860.85894775 1316.32873535 C841.91316731 1374.02490156 817.18187599 1430.26145194 787.53863525 1483.25323486 C786.92858643 1484.34442627 786.3185376 1485.43561768 785.69000244 1486.55987549 C763.31505014 1526.44517043 738.22857218 1564.84806161 710.53863525 1601.25323486 C710.11372803 1601.81462158 709.6888208 1602.3760083 709.2510376 1602.95440674 C702.70048547 1611.60539354 695.90022869 1620.03778194 689.0269165 1628.43292236 C687.72454147 1630.02585351 686.42797493 1631.62353006 685.13238525 1633.22198486 C676.87157818 1643.39834141 668.34138665 1653.3420416 659.53082275 1663.04620361 C657.77670144 1664.98949487 656.05890832 1666.95682934 654.35113525 1668.94073486 C646.13187647 1678.35863556 637.49138586 1687.40563253 628.59112549 1696.17926025 C625.90499564 1698.84001078 623.3526823 1701.55253929 620.91363525 1704.44073486 C617.70914556 1708.19851775 614.12171803 1711.37082161 610.4175415 1714.62823486 C606.96961332 1717.77207168 603.69304381 1721.06045025 600.41363525 1724.37823486 C596.27826101 1728.55311906 592.13687889 1732.62683641 587.64801025 1736.42510986 C585.35231499 1738.41471242 583.13572118 1740.47553321 580.9163208 1742.54937744 C575.58681555 1747.52784204 570.16291483 1752.28347564 564.472229 1756.85089111 C560.98959228 1759.70285061 557.61102232 1762.66165612 554.22613525 1765.62823486 C547.79635882 1771.23979407 541.19679764 1776.57083724 534.44000244 1781.78155518 C532.39511034 1783.36432477 530.36079205 1784.96003011 528.32769775 1786.55792236 C482.04024118 1822.87993778 432.50603677 1854.69290293 380.53863525 1882.25323486 C379.504646 1882.80447021 378.47065674 1883.35570557 377.40533447 1883.92364502 C307.62808116 1921.03328411 233.20307213 1949.14228602 156.53863525 1968.25323486 C155.73142029 1968.45477173 154.92420532 1968.65630859 154.0925293 1968.86395264 C83.00522947 1986.5414155 8.86590272 1997.39036419 -64.46917725 1997.42120361 C-66.33212303 1997.42443629 -68.19506859 1997.42780165 -70.05801392 1997.43128967 C-73.93872665 1997.43721928 -77.81941734 1997.43913627 -81.70013428 1997.4385376 C-85.5992705 1997.43845682 -89.49828802 1997.44533291 -93.3973999 1997.45904541 C-117.82898251 1997.5435398 -142.09667695 1997.13740382 -166.46136475 1995.25323486 C-167.47557495 1995.17517609 -168.48978516 1995.09711731 -169.534729 1995.01669312 C-175.28864397 1994.56082527 -181.03187232 1994.02679884 -186.77386475 1993.44073486 C-187.61501831 1993.35642212 -188.45617187 1993.27210937 -189.32281494 1993.1852417 C-273.60189346 1984.69830448 -355.75432333 1965.47454209 -515.46136475 1903.25323486 C-516.10287476 1902.95139282 -516.74438477 1902.64955078 -517.40533447 1902.33856201 C-567.05052179 1878.94161678 -614.36840194 1851.54346804 -659.46136475 1820.25323486 C-660.62756348 1819.44475098 -660.62756348 1819.44475098 -661.81732178 1818.61993408 C-672.2097253 1811.39663641 -682.38849548 1803.91470409 -692.46136475 1796.25323486 C-693.02275146 1795.82832764 -693.58413818 1795.40342041 -694.16253662 1794.96563721 C-702.81184031 1788.41635953 -711.24295799 1781.61766431 -719.63665771 1774.74591064 C-721.2436017 1773.43137284 -722.85415665 1772.12125184 -724.465271 1770.81182861 C-734.53314709 1762.61977222 -744.43520444 1754.282636 -753.996521 1745.50323486 C-756.04252429 1743.63556783 -758.11153631 1741.80953889 -760.21136475 1740.00323486 C-769.61676949 1731.81205245 -778.63771116 1723.18138256 -787.39178467 1714.30133057 C-790.01033301 1711.65786486 -792.6753922 1709.14618245 -795.52386475 1706.75323486 C-799.38001307 1703.46954567 -802.72552412 1699.77384772 -806.10516357 1696.01593018 C-809.52849746 1692.22440086 -813.07459234 1688.58984489 -816.71136475 1685.00323486 C-820.48774551 1681.2696864 -824.12153543 1677.47865616 -827.56292725 1673.43292236 C-829.5810602 1671.11580675 -831.6644026 1668.87157105 -833.76190186 1666.62652588 C-838.7384542 1661.2980883 -843.49290003 1655.87590157 -848.059021 1650.18682861 C-850.91098049 1646.70419189 -853.869786 1643.32562193 -856.83636475 1639.94073486 C-862.44792395 1633.51095843 -867.77896712 1626.91139725 -872.98968506 1620.15460205 C-874.57245465 1618.10970995 -876.16815999 1616.07539166 -877.76605225 1614.04229736 C-914.08806766 1567.75484079 -945.90103281 1518.22063638 -973.46136475 1466.25323486 C-974.0126001 1465.21924561 -974.56383545 1464.18525635 -975.1317749 1463.11993408 C-990.49541175 1434.23168816 -1004.30152585 1404.62776514 -1016.46136475 1374.25323486 C-1016.7215741 1373.60388977 -1016.98178345 1372.95454468 -1017.24987793 1372.28552246 C-1048.36077648 1294.45426827 -1070.10847314 1213.06749056 -1088.66448975 1022.32745361 C-1088.67151074 1020.46172563 -1088.67859757 1018.59599789 -1088.68574524 1016.73027039 C-1088.70514863 1010.8004217 -1088.71017916 1004.87061209 -1088.71136475 998.94073486 C-1088.7118066 997.93108421 -1088.71224846 996.92143356 -1088.7127037 995.88118744 C-1088.71958725 965.90173255 -1088.49216761 936.10613822 -1085.46136475 906.25323486 C-1085.28240491 904.42887775 -1085.10370156 902.60449546 -1084.92523193 900.78009033 C-1076.3487704 814.28096573 -1057.54180363 728.87651994 -1019.2076416 627.11181641 C-1018.47614299 625.29003967 -1017.75212186 623.46526618 -1017.02825928 621.64044189 C-1001.98384321 583.7865814 -984.36201862 546.78804647 -964.46136475 511.25323486 C-963.85276611 510.16494385 -963.24416748 509.07665283 -962.61712646 507.9553833 C-940.66745553 468.82698878 -916.15039249 431.01263389 -888.99993896 395.28009033 C-887.43132205 393.21365783 -885.87001411 391.14183665 -884.309021 389.06964111 C-877.11343644 379.55215866 -869.64667393 370.29324722 -862.01263428 361.12481689 C-859.86953299 358.53919926 -857.76064052 355.92699151 -855.64886475 353.31573486 C-852.08521582 348.95208311 -848.370541 344.75120531 -844.57855225 340.58526611 C-842.68085305 338.49499597 -840.8140306 336.38337371 -838.96136475 334.25323486 C-834.84902045 329.5372437 -830.66158392 324.89097686 -826.46136475 320.25323486 C-825.61573975 319.3135083 -824.77011475 318.37378174 -823.89886475 317.40557861 C-818.4388751 311.36832134 -812.80948665 305.54939211 -807.01702881 299.8303833 C-804.20405767 297.04095167 -801.5054213 294.23226782 -798.96136475 291.19073486 C-795.49121338 287.1036677 -791.54353471 283.56365376 -787.58172607 279.96710205 C-783.65892173 276.39509935 -779.87382383 272.71805759 -776.14886475 268.94073486 C-772.43620894 265.18515818 -768.66433668 261.57396825 -764.64105225 258.15167236 C-762.32354828 256.13320117 -760.07896851 254.04945162 -757.83343506 251.95172119 C-752.40145851 246.87794019 -746.86315417 242.04517897 -741.06292725 237.38995361 C-738.51149746 235.29440993 -736.07809701 233.11360332 -733.64886475 230.87823486 C-728.68418916 226.35991024 -723.46049078 222.2476155 -718.1605835 218.13604736 C-715.06100295 215.73081877 -711.99960872 213.28188889 -708.94720459 210.81719971 C-701.26236596 204.6164968 -693.44313254 198.61914143 -685.49749756 192.75665283 C-684.17424422 191.77960318 -682.85315148 190.79961813 -681.53460693 189.81622314 C-642.45981332 160.70342029 -600.51717216 135.00732338 -557.46136475 112.25323486 C-556.43462646 111.7063501 -555.40788818 111.15946533 -554.35003662 110.5960083 C-525.45467744 95.22707875 -495.84406626 81.41634495 -465.46136475 69.25323486 C-464.81201965 68.99302551 -464.16267456 68.73281616 -463.49365234 68.46472168 C-382.7120524 36.17450373 -298.72483542 14.76086725 -182.1126709 0.51037598 C-179.57795446 0.2645425 -177.04435327 0.00908148 -174.51068115 -0.24725342 C-117.3865163 -5.88804816 -57.10834884 -5.7310655 0 0 Z " fill="#0098EA" transform="translate(1088.4613647460938,2.74676513671875)"/>
<path d="M0 0 C3.61929734 0.00329803 7.23857233 -0.00504174 10.85786227 -0.01181835 C17.1884554 -0.02207836 23.51901797 -0.02496914 29.84961859 -0.02290613 C39.26423763 -0.01984566 48.67882306 -0.02820324 58.09343554 -0.03865538 C75.89100346 -0.05796317 93.68855983 -0.06362242 111.486137 -0.06476949 C125.23601186 -0.06568988 138.98588221 -0.06981335 152.7357556 -0.07617074 C156.69898068 -0.07796594 160.66220577 -0.07974557 164.62543086 -0.0815205 C165.61081087 -0.0819626 166.59619087 -0.08240469 167.61143088 -0.08286019 C195.31642907 -0.09516305 223.02142571 -0.10306189 250.72642676 -0.10217363 C252.29218074 -0.10212689 252.29218074 -0.10212689 253.88956612 -0.10207921 C259.17969931 -0.10191301 264.46983249 -0.10171493 269.75996568 -0.1015098 C270.81053134 -0.10146991 271.86109699 -0.10143002 272.94349797 -0.10138892 C275.06799747 -0.10130804 277.19249696 -0.10122445 279.31699646 -0.10113813 C312.35570807 -0.09991318 345.39437859 -0.11491782 378.43307845 -0.14228326 C415.58643603 -0.17304443 452.73976662 -0.1902133 489.89313773 -0.18835682 C493.85950637 -0.18820757 497.825875 -0.18811015 501.79224364 -0.18804819 C503.25707867 -0.18801322 503.25707867 -0.18801322 504.75150633 -0.18797755 C520.42621355 -0.18791616 536.10088494 -0.20065539 551.77558153 -0.21791271 C567.5466156 -0.23491621 583.31759758 -0.23680628 599.08863577 -0.22369407 C608.4414676 -0.21633607 617.79414056 -0.21986793 627.14695536 -0.23957875 C633.41390961 -0.25166298 639.68074997 -0.24889502 645.9476992 -0.23463776 C649.50557719 -0.2269451 653.06315001 -0.22511483 656.62100532 -0.24155246 C687.47719562 -0.35615539 716.51362821 3.66891206 744.43307845 17.26933783 C745.55069563 17.81332221 746.66831282 18.35730658 747.8197972 18.91777533 C760.57200471 25.47077943 771.68888977 33.9024601 781.96091048 43.84843939 C783.44692195 45.28269922 784.95267928 46.6939156 786.4604222 48.10527533 C812.20658313 72.58150191 826.42399815 105.76194094 832.43307845 140.26933783 C832.73085188 141.90709174 832.73085188 141.90709174 833.03464095 143.57793158 C833.61957284 148.99715349 833.58144601 154.38524774 833.55807845 159.83183783 C833.55324446 160.99916449 833.54841048 162.16649115 833.54343001 163.36919135 C833.27038044 202.53269061 818.89547912 233.73179191 799.48927657 267.00945014 C796.08121867 272.85993162 792.72832834 278.74142155 789.37814681 284.62517279 C783.55381932 294.8519693 777.66559177 305.03944759 771.71969954 315.19609564 C766.91896248 323.40848958 762.19167587 331.66195158 757.47995345 339.92558783 C752.04374 349.45986988 746.57212739 358.97315987 741.0800511 368.47539252 C736.82570665 375.8415562 732.5995879 383.22345972 728.38620345 390.61308783 C722.55439013 400.84119118 716.66805615 411.03523799 710.71969954 421.19609564 C706.263915 428.81839561 701.86910699 436.47465094 697.49557845 444.14433783 C689.24142208 458.61884152 680.91590472 473.05155629 672.57858626 487.47832221 C665.50178055 499.72592388 658.44431397 511.98408901 651.43307845 524.26933783 C644.4234614 536.55175072 637.36735425 548.80691578 630.29196517 561.05156439 C627.16983242 566.45604425 624.05161964 571.86278502 620.93307845 577.26933783 C617.1967093 583.74700668 613.45959498 590.22423766 609.7182347 596.69902533 C602.89805207 608.50563267 596.10984585 620.32960783 589.35571639 632.17406195 C584.19891237 641.21405491 578.97764076 650.21459104 573.71969954 659.19609564 C568.91896248 667.40848958 564.19167587 675.66195158 559.47995345 683.92558783 C554.04374 693.45986988 548.57212739 702.97315987 543.0800511 712.47539252 C538.82570665 719.8415562 534.5995879 727.22345972 530.38620345 734.61308783 C524.55439013 744.84119118 518.66805615 755.03523799 512.71969954 765.19609564 C508.263915 772.81839561 503.86910699 780.47465094 499.49557845 788.14433783 C491.24142208 802.61884152 482.91590472 817.05155629 474.57858626 831.47832221 C472.71705173 834.70002058 470.85609005 837.92204862 468.99557845 841.14433783 C468.3800511 842.21039252 467.76452376 843.27644721 467.13034407 844.37480658 C462.17854803 852.9592938 457.26482977 861.56514076 452.35571639 870.17406195 C447.19891237 879.21405491 441.97764076 888.21459104 436.71969954 897.19609564 C432.26391317 904.81839875 427.86935894 912.47479261 423.49557845 920.14433783 C416.4422633 932.50958728 409.3671958 944.8616798 402.22360579 957.17509955 C400.44743497 960.24452811 398.68416392 963.32112467 396.9213597 966.39824408 C384.49233904 987.96126585 370.96553729 1003.96665941 346.49557845 1011.76152533 C340.20213633 1013.31104706 334.13048818 1013.45248147 327.68307845 1013.45683783 C326.74464095 1013.46908392 325.80620345 1013.48133002 324.83932845 1013.49394721 C305.63339269 1013.53373851 289.12705204 1006.14759139 275.2572972 993.14824408 C269.98243644 987.88627354 265.66348008 982.43992001 261.99557845 975.95683783 C261.58074202 975.23810492 261.1659056 974.51937201 260.73849837 973.77885932 C259.80999479 972.16843615 258.88479393 970.55610562 257.96237532 968.94218939 C256.3099564 966.05414942 254.6459565 963.17299953 252.97995345 960.29277533 C250.43424478 955.89014515 247.89271848 951.48514552 245.35495345 947.07793158 C242.80611654 942.65156937 240.25429492 938.22695993 237.69870345 933.80449408 C230.90969944 922.0542604 224.15050357 910.28754219 217.42410628 898.5013935 C210.7502224 886.80866166 204.02785563 875.14422452 197.29196517 863.48711127 C193.54329811 856.99808687 189.79999178 850.50596833 186.05563704 844.01445502 C182.94489506 838.62185469 179.83294518 833.22995961 176.7182347 827.83965033 C169.89805207 816.033043 163.10984585 804.20906783 156.35571639 792.36461371 C151.75913622 784.30670571 147.11983685 776.27515997 142.43307845 768.26933783 C136.71059396 758.49431018 131.07464405 748.67146827 125.46432845 738.83183783 C120.97752108 730.96396378 116.46543087 723.11108381 111.93307845 715.26933783 C106.71665359 706.24402937 101.5339287 697.2000598 96.37057845 688.14433783 C91.43711111 679.49237924 86.46488431 670.86456279 81.43307845 662.26933783 C76.40127155 653.67411112 71.42918773 645.04621653 66.49557845 636.39433783 C61.30865418 627.29853796 56.10626338 618.2122152 50.87057845 609.14433783 C50.2550511 608.07828314 49.63952376 607.01222846 49.00534407 605.91386908 C47.14837651 602.6987626 45.29084265 599.48398406 43.43307845 596.26933783 C35.3721854 582.32089416 27.33598419 568.35929895 19.35571639 554.36461371 C14.75913622 546.30670571 10.11983685 538.27515997 5.43307845 530.26933783 C-0.28940604 520.49431018 -5.92535595 510.67146827 -11.53567155 500.83183783 C-16.02247892 492.96396378 -20.53456913 485.11108381 -25.06692155 477.26933783 C-30.28334641 468.24402937 -35.4660713 459.2000598 -40.62942155 450.14433783 C-45.56288889 441.49237924 -50.53511569 432.86456279 -55.56692155 424.26933783 C-60.59872845 415.67411112 -65.57081227 407.04621653 -70.50442155 398.39433783 C-75.69134582 389.29853796 -80.89373662 380.2122152 -86.12942155 371.14433783 C-87.05271257 369.5452558 -87.05271257 369.5452558 -87.99465593 367.91386908 C-89.85162349 364.6987626 -91.70915735 361.48398406 -93.56692155 358.26933783 C-101.6278146 344.32089416 -109.66401581 330.35929895 -117.64428361 316.36461371 C-122.24086654 308.30670088 -126.88061079 300.27542499 -131.56692155 292.26933783 C-139.33132549 278.9909043 -147.01746745 265.67111391 -154.56692155 252.26933783 C-155.08335222 251.35748725 -155.59978288 250.44563666 -156.13186296 249.50615424 C-165.21223724 233.3670739 -171.48947092 216.33766174 -175.56692155 198.26933783 C-175.74497331 197.54351508 -175.92302507 196.81769232 -176.10647233 196.06987494 C-177.9501772 187.60306522 -177.87013623 179.16704812 -177.82766374 170.54594916 C-177.81698605 167.97238349 -177.8275859 165.39952239 -177.84035905 162.82597846 C-177.84900606 153.11469167 -177.33365772 143.84285925 -175.56692155 134.26933783 C-175.42093522 133.47261664 -175.2749489 132.67589545 -175.12453874 131.85503119 C-166.83694407 89.9366879 -140.59005946 51.66154791 -105.55373796 27.58330267 C-99.7741886 23.76104479 -93.72090261 20.4440106 -87.56692155 17.26933783 C-86.6233278 16.78207221 -86.6233278 16.78207221 -85.66067155 16.28496283 C-58.56750592 2.51260364 -29.9586848 -0.04570795 0 0 Z " fill="#FEFEFE" transform="translate(671.5669215526432,556.7306621689349)"/>
<path d="M0 0 C0 208.23 0 416.46 0 631 C-2.06489236 628.24681018 -3.59538027 626.0657987 -5.10961914 623.08374023 C-5.49755142 622.32451767 -5.8854837 621.5652951 -6.28517151 620.7830658 C-6.90391396 619.55820213 -6.90391396 619.55820213 -7.53515625 618.30859375 C-7.97331161 617.4492775 -8.41146698 616.58996124 -8.86289978 615.7046051 C-10.2663492 612.95070975 -11.66468337 610.19425808 -13.0625 607.4375 C-14.8848783 603.85192622 -16.70944248 600.26747021 -18.53515625 596.68359375 C-18.98890625 595.79237823 -19.44265625 594.90116272 -19.91015625 593.98294067 C-23.77407535 586.40891379 -27.72592269 578.88318994 -31.69799805 571.36547852 C-34.9642832 565.18123656 -38.16985863 558.96611198 -41.375 552.75 C-42.67258668 550.23667397 -43.97091789 547.72373318 -45.26953125 545.2109375 C-45.58802536 544.59461456 -45.90651947 543.97829163 -46.23466492 543.34329224 C-49.16287525 537.67965536 -52.10969154 532.0258414 -55.0625 526.375 C-59.39095586 518.09155802 -63.70044794 509.79848123 -68 501.5 C-69.77059605 498.08467507 -71.5414552 494.66948678 -73.3125 491.25439453 C-74.39621272 489.16442194 -75.47957615 487.07426817 -76.5625 484.98388672 C-86.84148484 465.15200418 -97.24337348 445.38575752 -108.3972168 426.02929688 C-114.41266152 415.58209558 -120.23239858 405.02647739 -126.07226562 394.48046875 C-129.23159997 388.77638182 -132.39652349 383.07540238 -135.5625 377.375 C-136.18286133 376.25802734 -136.80322266 375.14105469 -137.44238281 373.99023438 C-143.93287987 362.31072896 -150.4643146 350.65426001 -157 339 C-164.21254609 326.13878004 -171.41067691 313.2701066 -178.5625 300.375 C-183.17297724 292.06300368 -187.8123695 283.7687295 -192.5 275.5 C-200.39810314 261.56587913 -208.15172262 247.55193778 -215.91601562 233.54296875 C-222.40412397 221.83919006 -228.90131522 210.14187849 -235.5 198.5 C-243.39798112 184.56580863 -251.15172169 170.55193945 -258.91601562 156.54296875 C-265.92484767 143.89986621 -272.95936518 131.2733835 -280.08862305 118.69775391 C-284.88060154 110.23496659 -289.60508714 101.7353944 -294.31958008 93.22924805 C-297.50609833 87.48195038 -300.70235164 81.74057649 -303.921875 76.01171875 C-304.55424072 74.88620605 -305.18660645 73.76069336 -305.83813477 72.60107422 C-307.03493943 70.47289484 -308.23324556 68.34555884 -309.43334961 66.21923828 C-318.53076421 50.03853688 -318.53076421 50.03853688 -319 43 C-319.07476563 42.11441406 -319.14953125 41.22882812 -319.2265625 40.31640625 C-319.75169416 29.68939973 -316.57562589 21.58245295 -309.625 13.5625 C-237.52892293 -60.42772688 -103.30729889 0 0 0 Z " fill="#0098EA" transform="translate(939,682)"/>
<path d="M0 0 C295.7328125 0 295.7328125 0 308.375 11.625 C314.92333508 18.69282722 319.11080786 27.90370042 319.3125 37.5 C319.34988281 38.6446875 319.38726563 39.789375 319.42578125 40.96875 C318.91570593 50.41423035 313.55325682 59.18107183 309.0625 67.25 C308.49257324 68.28793701 307.92264648 69.32587402 307.33544922 70.39526367 C302.42301488 79.31364714 297.40779878 88.1742725 292.37890625 97.02734375 C288.73359716 103.45451478 285.1454739 109.91292473 281.5625 116.375 C273.83928609 130.30095413 266.05954966 144.19477254 258.27050781 158.08398438 C251.65793639 169.87696285 245.06104646 181.67826416 238.5 193.5 C230.79505636 207.38281717 223.03676476 221.23540197 215.27050781 235.08398438 C213.534084 238.18075374 211.79811386 241.27777662 210.0625 244.375 C209.20108398 245.91220703 209.20108398 245.91220703 208.32226562 247.48046875 C204.00839397 255.18484154 199.72011713 262.90322003 195.4375 270.625 C190.82702276 278.93699632 186.1876305 287.2312705 181.5 295.5 C174.25155188 308.28797586 167.12565387 321.14331564 160 334 C152.35289623 347.79752668 144.68791761 361.58282675 136.90917969 375.30664062 C130.85030501 386.00831701 124.89140267 396.7652603 118.92919922 407.52099609 C116.32766607 412.21244729 113.72233476 416.90178249 111.11645508 421.59082031 C109.83573683 423.89582138 108.55562106 426.2011573 107.27612305 428.50683594 C104.63813614 433.25972768 101.99854259 438.0113326 99.328125 442.74609375 C92.488549 454.89709455 86.10594744 467.27542164 79.71972656 479.66943359 C77.16275656 484.62147573 74.58220758 489.56108436 72 494.5 C67.65091557 502.82520323 63.32088423 511.16012737 59 519.5 C54.19524533 528.77380595 49.37478383 538.0391839 44.5390625 547.296875 C40.67874934 554.69070233 36.83702971 562.09406658 33 569.5 C28.17971723 578.80336309 23.34545613 588.09923702 18.49511719 597.38696289 C12.64860437 608.58360505 6.82452227 619.7919064 1 631 C0.67 631 0.34 631 0 631 C0 422.77 0 214.54 0 0 Z " fill="#0098EA" transform="translate(1061,682)"/>
</svg>
