<?xml version="1.0" encoding="UTF-8"?>
<svg version="1.1" xmlns="http://www.w3.org/2000/svg" width="512" height="512">
<path d="M0 0 C3.26432655 2.75920832 6.13129698 5.76163968 8.89862728 9.01346684 C12.85026523 13.56010608 17.05730229 17.80963164 21.32899475 22.05406189 C22.17195412 22.89575898 23.01491348 23.73745607 23.88341707 24.60465914 C26.20293427 26.9197561 28.52468078 29.23258932 30.8473922 31.54448068 C33.35985831 34.04639507 35.86933966 36.55130002 38.37913513 39.05589294 C42.72268278 43.38976018 47.06790043 47.72194701 51.41411018 52.05314445 C58.28810149 58.90368618 65.15684112 65.75948039 72.02476501 72.61610413 C74.37825923 74.96559763 76.73178743 77.31505708 79.08532619 79.66450596 C79.67337135 80.25153189 80.26141651 80.83855782 80.86728122 81.44337241 C87.55004777 88.11441331 94.23389197 94.78437401 100.91821289 101.45385742 C101.52874716 102.06303926 102.13928143 102.6722211 102.76831674 103.29986299 C112.66766005 113.17701367 122.57083625 123.05031451 132.47497708 132.9226542 C142.6576124 143.07287466 152.83446079 153.22887317 163.00640386 163.38980871 C169.27331676 169.64950993 175.54491225 175.90444415 181.82266771 182.1532718 C186.12472805 186.43630044 190.42128214 190.72480176 194.71359236 195.01760142 C197.18748273 197.49142894 199.66373013 199.96276705 202.1466713 202.42751312 C204.84213775 205.10577154 207.52814322 207.79318305 210.21205139 210.48301697 C210.99133485 211.25287979 211.77061832 212.0227426 212.57351643 212.8159346 C221.56966006 221.87852441 227.98142175 231.23200705 228.17529297 244.32104492 C228.1651416 245.10842041 228.15499023 245.8957959 228.14453125 246.70703125 C228.13317139 247.95093628 228.13317139 247.95093628 228.12158203 249.2199707 C227.73434577 263.68479978 220.57484057 272.7336178 210.76171875 282.68359375 C210.11059113 283.34612152 209.4594635 284.00864929 208.78860474 284.69125366 C207.41816682 286.08044759 206.04490623 287.46686219 204.66894531 288.85058594 C202.59393988 290.94501116 200.54130247 293.05983217 198.48828125 295.17578125 C187.25641145 306.58734339 177.23543989 313.30511251 160.89453125 314.64453125 C137.48732182 313.83901999 122.93756431 294.71773988 107.57519531 279.3137207 C106.09582669 277.83406936 104.61623654 276.35463946 103.13644409 274.87541199 C99.15570164 270.89495418 95.17803045 266.91144047 91.20094013 262.92733407 C87.03076679 258.75087137 82.85772474 254.57727695 78.68499756 250.40336609 C70.79979142 242.515063 62.91713589 234.62421631 55.0354135 226.73243254 C46.05543458 217.74124146 37.07258552 208.75292016 28.08950472 199.76482832 C9.62550468 181.29040098 -8.83492216 162.81240663 -27.29296875 144.33203125 C-31.59719419 145.98950683 -34.46878092 149.24210861 -37.64251709 152.45452881 C-38.5947281 153.40629324 -38.5947281 153.40629324 -39.5661757 154.37728524 C-41.69570532 156.50820565 -43.81799797 158.6461913 -45.94042969 160.78417969 C-47.46452146 162.31210922 -48.98906881 163.83958445 -50.51403809 165.36663818 C-53.79953917 168.65846684 -57.08190544 171.95337911 -60.36193085 175.25066376 C-65.55094515 180.4667003 -70.74755861 185.67512057 -75.94537354 190.88238525 C-87.92155794 202.88267631 -99.88774896 214.89291649 -111.8538208 226.90328979 C-122.80969631 237.89953971 -133.76767767 248.89366863 -144.73380113 259.87969995 C-149.89767279 265.05352443 -155.05662988 270.23218477 -160.21186018 275.41461897 C-163.42563758 278.64334788 -166.64358254 281.8678985 -169.86265564 285.09134674 C-171.35108191 286.58350769 -172.83778295 288.07739192 -174.32259369 289.57315063 C-176.35558613 291.62065478 -178.39475286 293.66181391 -180.43548584 295.70159912 C-181.01644256 296.28974577 -181.59739929 296.87789241 -182.19596076 297.48386168 C-192.22156506 307.45997992 -202.84351758 314.11591992 -217.29296875 314.58203125 C-235.20556695 313.93717771 -246.0064003 304.56658299 -257.96777344 292.32958984 C-260.16688353 290.08313983 -262.39160085 287.86469462 -264.62109375 285.6484375 C-275.29072321 274.93895238 -284.3758513 265.37245695 -284.67333984 249.46826172 C-284.63791461 233.31757689 -279.2002954 222.95827998 -267.83318973 211.46635991 C-267.0053703 210.64455053 -266.17755086 209.82274114 -265.324646 208.97602844 C-264.43227714 208.07827405 -263.53990828 207.18051965 -262.62049794 206.25556058 C-260.16309975 203.78379638 -257.69653866 201.32136353 -255.22825074 198.86048019 C-252.56017695 196.19715776 -249.90076995 193.52520396 -247.2401886 190.85440063 C-242.03435217 185.63140985 -236.8204091 180.41658606 -231.60336629 175.20479123 C-227.36150228 170.96697609 -223.12240122 166.72641579 -218.88523102 162.4839077 C-218.28112708 161.87905533 -217.67702313 161.27420297 -217.05461301 160.65102175 C-215.82721313 159.42209033 -214.59981666 158.19315551 -213.37242356 156.96421733 C-201.8744317 145.45251283 -190.36689215 133.95039008 -178.85630384 122.45128282 C-168.33616315 111.94107524 -157.8275055 101.41947261 -147.32429931 90.89234409 C-136.52652346 80.0701614 -125.72135879 69.25540849 -114.90804887 58.44874638 C-108.84249513 52.38668107 -102.77982119 46.3218036 -96.72478485 40.24923134 C-91.57079267 35.08049746 -86.40978221 29.91889716 -81.23971906 24.76623646 C-78.60458322 22.13959632 -75.97269878 19.5099106 -73.34948921 16.87135506 C-70.50021427 14.00561916 -67.63555635 11.15576011 -64.76922607 8.30708313 C-63.95032953 7.47858158 -63.13143299 6.65008003 -62.2877214 5.79647237 C-44.55494535 -11.71291716 -20.63516831 -15.01059092 0 0 Z " fill="#000000" transform="translate(284.29296875,103.66796875)"/>
</svg>
