<?xml version="1.0" encoding="UTF-8"?>
<svg version="1.1" xmlns="http://www.w3.org/2000/svg" width="512" height="512">
<path d="M0 0 C1.29037086 -0.00467997 2.58074172 -0.00935994 3.91021472 -0.01418173 C7.45311449 -0.02658666 10.99576865 -0.02057003 14.53866875 -0.01122308 C18.3744026 -0.00438951 22.21009644 -0.01493486 26.04582214 -0.02316284 C33.54386363 -0.03645561 41.04181468 -0.03364274 48.53985962 -0.02492492 C54.63548574 -0.01813267 60.73108664 -0.01723829 66.82671547 -0.02049637 C68.13110076 -0.02118592 68.13110076 -0.02118592 69.46183727 -0.0218894 C71.22869502 -0.02284863 72.99555276 -0.02382127 74.7624105 -0.02480717 C91.3028704 -0.03334761 107.8432803 -0.02354731 124.383732 -0.00740607 C138.56336688 0.00600299 152.74292809 0.00366156 166.92256165 -0.01016235 C183.41099106 -0.02622974 199.89937676 -0.03253122 216.38781291 -0.02332556 C218.1470288 -0.02236996 219.90624469 -0.02142685 221.66546059 -0.02049637 C222.53091336 -0.02003354 223.39636613 -0.01957072 224.28804475 -0.01909386 C230.37493938 -0.01650798 236.46180619 -0.02086614 242.54869652 -0.02793503 C249.96833516 -0.03636279 257.38787862 -0.0340428 264.8075064 -0.0180928 C268.59006158 -0.01022832 272.37245826 -0.0070873 276.15501213 -0.01704025 C280.26070497 -0.02767989 284.3660003 -0.01494486 288.47167969 0 C289.65933243 -0.00669217 290.84698517 -0.01338433 292.07062739 -0.02027929 C305.29719415 0.07301145 315.96897797 4.02022495 325.79536438 13.00595093 C335.54689268 23.32993737 337.88431434 35.88202519 337.74067688 49.54110718 C337.73643204 51.08682655 337.73643204 51.08682655 337.73210144 52.66377258 C337.72099301 55.92378836 337.69590601 59.18351954 337.67036438 62.44345093 C337.66032251 64.66675422 337.65119878 66.89006187 337.64302063 69.1133728 C337.62108435 74.53599436 337.58770103 79.9584523 337.54536438 85.38095093 C338.27013977 85.36524048 338.99491516 85.34953003 339.74165344 85.33334351 C343.09280787 85.2701695 346.44383635 85.23170206 349.79536438 85.19345093 C350.93489563 85.16831421 352.07442688 85.14317749 353.24848938 85.11727905 C367.15060267 84.99879513 378.44335382 87.92876033 388.83442688 97.48641968 C399.14165343 108.39200582 401.8909548 120.15086425 401.74067688 134.75985718 C401.73643204 136.33887062 401.73643204 136.33887062 401.73210144 137.94978333 C401.72099 141.28112609 401.69590236 144.6121907 401.67036438 147.94345093 C401.6603229 150.21493139 401.6511991 152.48641611 401.64302063 154.75790405 C401.62108035 160.29901308 401.58769388 165.83996212 401.54536438 171.38095093 C400.8962912 171.38903778 400.24721802 171.39712463 399.57847595 171.40545654 C392.73067412 171.49252165 385.88312862 171.59204893 379.03559875 171.69833374 C376.49104672 171.73626415 373.94644758 171.77117456 371.40180969 171.80282593 C338.77423941 172.21355852 308.64718596 174.10103575 283.54536438 197.38095093 C282.74614563 198.11184937 281.94692688 198.8427478 281.12348938 199.59579468 C265.76785727 214.25578573 254.72189506 235.78202941 253.36836243 257.17904663 C252.73159022 287.08197115 259.11496366 311.08079941 279.70161438 333.75595093 C300.63213914 355.57086405 327.51311843 361.97958359 356.69772339 362.72155762 C362.85496818 362.84592448 369.01236898 362.92935498 375.17036438 363.00595093 C377.73808456 363.0442267 380.30579322 363.0832836 382.87348938 363.12313843 C389.09734379 363.21806945 395.32127033 363.30340446 401.54536438 363.38095093 C401.62205756 369.99708546 401.67423141 376.61310339 401.7101593 383.22958374 C401.7251529 385.47572107 401.74555458 387.72182959 401.77168274 389.96786499 C401.80848369 393.21500807 401.82518554 396.46176077 401.83833313 399.70907593 C401.86155891 401.1910849 401.86155891 401.1910849 401.88525391 402.70303345 C401.8883607 415.86670522 398.42748604 426.89871848 389.43989563 436.67001343 C377.3523941 448.09430691 364.35973968 449.68529061 348.33428955 449.64837646 C346.79112275 449.65211702 345.24795783 449.65672015 343.7047959 449.66210711 C339.48040779 449.67430279 335.25609908 449.67408069 331.03169739 449.67171836 C326.46912241 449.67130931 321.90657258 449.68235781 317.3440094 449.6918335 C308.4103179 449.70842644 299.47665279 449.7139423 290.54294717 449.71505825 C283.27737196 449.71600969 276.01180544 449.72012475 268.74623299 449.7264595 C248.12887937 449.7440685 227.51154655 449.75329909 206.89418536 449.75179856 C205.22793865 449.75167869 205.22793865 449.75167869 203.5280304 449.7515564 C202.41583634 449.75147464 201.30364228 449.75139287 200.15774537 449.75130863 C182.14364812 449.75049619 164.12963458 449.76962436 146.11556154 449.79783313 C127.60107022 449.82659574 109.08661968 449.84037151 90.57210547 449.83864558 C80.18484401 449.83798277 69.79767028 449.84342707 59.410429 449.86500168 C50.56427907 449.88325811 41.7182566 449.88752439 32.87209594 449.87398283 C28.36374376 449.86747521 23.8556358 449.86725562 19.34730721 449.88468933 C15.20975164 449.90052377 11.0726318 449.89745193 6.9350862 449.88012107 C5.44853733 449.87707377 3.96195508 449.88059657 2.47544562 449.89184122 C-16.90582845 450.02858852 -35.18392278 445.16124761 -49.46586609 431.49765015 C-62.01192539 418.99430811 -68.7407433 403.8100182 -68.85586584 386.06579643 C-68.84917367 384.77531881 -68.84248151 383.48484119 -68.83558655 382.15525818 C-68.83904968 380.74363149 -68.84381862 379.33200751 -68.84976828 377.92038912 C-68.86221816 374.06899635 -68.85613554 370.21782843 -68.84680963 366.36643517 C-68.83999459 362.20206422 -68.85051253 358.03773071 -68.85874939 353.87336731 C-68.87206317 345.72600613 -68.8692194 337.57872804 -68.86051147 329.43136365 C-68.85372558 322.80700791 -68.85282212 316.1826754 -68.85608292 309.55831718 C-68.85654262 308.6140987 -68.85700231 307.66988022 -68.85747594 306.69704906 C-68.85843516 304.77864071 -68.8594078 302.86023236 -68.86039372 300.94182401 C-68.86894083 282.96825043 -68.85912437 264.99472282 -68.84299262 247.02115678 C-68.82959224 231.6141283 -68.83191655 216.20716764 -68.8457489 200.80014038 C-68.86182046 182.89071885 -68.86811463 164.98133758 -68.85891211 147.07190984 C-68.85795651 145.16040671 -68.85701339 143.24890358 -68.85608292 141.33740044 C-68.85562009 140.39700814 -68.85515726 139.45661583 -68.85468041 138.4877268 C-68.85209509 131.87530778 -68.85645168 125.26291439 -68.86352158 118.65049934 C-68.87195439 110.58638495 -68.86961915 102.52235811 -68.85367934 94.45825369 C-68.84582022 90.34737572 -68.84266453 86.23664349 -68.8526268 82.12576675 C-68.86162353 78.35616468 -68.85655978 74.58684223 -68.84069414 70.81726521 C-68.83580185 68.82145933 -68.84549816 66.82563376 -68.85586584 64.82984883 C-68.73976649 46.89636844 -62.86596311 31.70905213 -50.20854187 19.00204468 C-35.71614855 5.20857529 -19.88891011 -0.11270475 0 0 Z M-20.56791687 51.16610718 C-24.19473645 55.42367798 -25.19789663 59.363716 -25.89213562 64.81845093 C-24.97992698 72.24643557 -22.12233872 77.47523448 -16.33354187 82.18954468 C-12.33110186 84.72747441 -8.82222311 85.6309448 -4.10733318 85.62704659 C-3.04190908 85.63102868 -1.97648498 85.63501078 -0.8787753 85.63911355 C0.86781439 85.63037502 0.86781439 85.63037502 2.64968872 85.62145996 C3.89127721 85.62316881 5.1328657 85.62487766 6.41207808 85.62663829 C9.85554309 85.62936337 13.29878085 85.6231114 16.74221838 85.61308217 C20.45654824 85.60444668 24.17087106 85.6073679 27.88520813 85.60888672 C34.31961543 85.60993551 40.75398218 85.60365955 47.18837929 85.59241104 C56.49143585 85.57615818 65.79447279 85.57094825 75.09754201 85.56843506 C90.19108181 85.56405762 105.28459999 85.55074719 120.37812805 85.53182983 C135.04023633 85.5134723 149.70233873 85.49931517 164.36445618 85.49081421 C165.72007524 85.49002604 165.72007524 85.49002604 167.10308055 85.48922195 C171.63690093 85.48661187 176.17072135 85.48408446 180.7045418 85.48159814 C218.3181652 85.46086412 255.9317617 85.4250869 293.54536438 85.38095093 C293.54536438 71.52095093 293.54536438 57.66095093 293.54536438 43.38095093 C255.73512635 43.33572969 217.92489543 43.2999271 180.1146358 43.27882027 C175.64989489 43.27631888 171.18515404 43.27373023 166.72041321 43.27108765 C165.8315708 43.27056303 164.94272839 43.2700384 164.02695137 43.26949789 C149.63853507 43.26079737 135.25013477 43.24502933 120.86172796 43.22664534 C106.09581346 43.20793647 91.32990734 43.19683211 76.56398147 43.19277394 C67.45402501 43.19003093 58.34411375 43.18137002 49.2341712 43.16511799 C42.98553545 43.15453894 36.73692305 43.15135239 30.48827899 43.15394817 C26.88418379 43.15522803 23.28016756 43.15327813 19.67608643 43.14253998 C15.7643244 43.13097053 11.8526647 43.13498321 7.94088745 43.14044189 C6.80760043 43.13461621 5.67431341 43.12879053 4.50668436 43.12278831 C-5.70498105 43.16129678 -13.03633989 43.89741246 -20.56791687 51.16610718 Z " fill="#000000" transform="translate(68.45463562011719,20.619049072265625)"/>
<path d="M0 0 C0.94738037 -0.00671722 1.89476074 -0.01343445 2.87084961 -0.02035522 C5.98019756 -0.03924383 9.08932885 -0.04325398 12.19873047 -0.04541016 C14.3701079 -0.05184153 16.54148447 -0.05857015 18.71286011 -0.06558228 C23.25358084 -0.07753005 27.7942256 -0.08126538 32.33496094 -0.08007812 C38.15010337 -0.07987441 43.96475997 -0.10724188 49.77978706 -0.14162254 C54.25965614 -0.16386097 58.73940739 -0.16791669 63.21932602 -0.16685867 C65.3635209 -0.16921672 67.50771893 -0.17805164 69.65185928 -0.19352341 C72.64846218 -0.21313273 75.64400482 -0.20736625 78.640625 -0.1953125 C79.96397354 -0.21217102 79.96397354 -0.21217102 81.3140564 -0.22937012 C86.74899664 -0.17385442 89.96483101 0.55579949 94.19091797 4.29052734 C98.87689439 9.47877324 98.76346661 14.14483759 98.70849609 20.79052734 C98.71550537 21.83515137 98.72251465 22.87977539 98.72973633 23.95605469 C98.74730819 27.40115115 98.73569579 30.84542286 98.72216797 34.29052734 C98.7248631 36.68896644 98.72874569 39.08740448 98.73376465 41.48583984 C98.73965863 46.5093833 98.73109955 51.53264202 98.71240234 56.55615234 C98.68961334 62.99241806 98.70273689 69.42801657 98.7266922 75.86425781 C98.74115258 80.81596902 98.73654297 85.76752229 98.72618103 90.71923828 C98.72351443 93.09228596 98.72678111 95.46534802 98.73609924 97.83837891 C98.74626828 101.15614762 98.73075731 104.47283879 98.70849609 107.79052734 C98.71659302 108.76940918 98.72468994 109.74829102 98.73303223 110.75683594 C98.66270879 116.41988213 98.14276522 119.91509874 94.19091797 124.29052734 C89.1994007 128.68375473 85.13366437 128.86294196 78.79589844 128.79223633 C77.40435295 128.80034081 77.40435295 128.80034081 75.98469543 128.80860901 C72.92550484 128.82108873 69.86725727 128.80460225 66.80810547 128.78662109 C64.67066397 128.78677618 62.53322219 128.78826671 60.39578247 128.79103088 C55.91525847 128.79241482 51.43505456 128.77986368 46.95458984 128.75708008 C41.23866431 128.72879897 35.52327462 128.73140494 29.8073101 128.74417019 C25.39065052 128.75116198 20.97411247 128.74329657 16.55746841 128.73091316 C14.45174757 128.7264253 12.34601354 128.72603832 10.2402916 128.72997856 C-10.7417589 128.75084985 -28.10390596 125.41667842 -43.79760742 110.56982422 C-55.16017715 99.18969256 -61.95144836 83.72577191 -62.18969727 67.71362305 C-62.17130812 57.52683447 -62.1120874 48.69054503 -57.80908203 39.29052734 C-57.09751953 37.68564453 -57.09751953 37.68564453 -56.37158203 36.04833984 C-48.29018232 19.53586448 -34.98152757 8.6852874 -17.80908203 2.29052734 C-11.73964241 0.50644417 -6.30748294 -0.00650994 0 0 Z M-13.80908203 50.29052734 C-17.69196511 55.68342051 -19.08094513 60.61942521 -18.80908203 67.29052734 C-17.40068333 73.91692778 -14.18374684 78.58076868 -8.68408203 82.54052734 C-3.66726329 85.17247722 1.87808364 85.99464893 7.43310547 84.81396484 C13.68908761 82.66568418 18.26092154 79.32086747 21.39794922 73.34130859 C23.4833964 67.94791072 23.88859865 62.46783921 22.00341797 56.97802734 C19.278076 50.90405892 15.49534064 46.72823744 9.19091797 44.29052734 C0.3519615 42.17090809 -7.27777133 43.75921665 -13.80908203 50.29052734 Z " fill="#000000" transform="translate(413.80908203125,223.70947265625)"/>
</svg>
