<svg xmlns="http://www.w3.org/2000/svg" xmlns:xlink="http://www.w3.org/1999/xlink" viewBox="0 0 512 512" width="512" height="512" style="width: 100%; height: 100%; transform: translate3d(0,0,0); content-visibility: visible;" preserveAspectRatio="xMidYMid meet"><defs><clipPath id="__lottie_element_2"><rect width="512" height="512" x="0" y="0"></rect></clipPath><linearGradient id="__lottie_element_6" spreadMethod="pad" gradientUnits="userSpaceOnUse" x1="0.5720000267028809" y1="45.402000427246094" x2="0.5720000267028809" y2="-9.541999816894531"><stop offset="10%" stop-color="rgb(211,218,230)"></stop><stop offset="31%" stop-color="rgb(233,236,243)"></stop><stop offset="63%" stop-color="rgb(255,255,255)"></stop></linearGradient><linearGradient id="__lottie_element_7" spreadMethod="pad" gradientUnits="userSpaceOnUse" x1="0.5720000267028809" y1="46.402000427246094" x2="0.5720000267028809" y2="-46.534000396728516"><stop offset="0%" stop-color="rgb(148,160,175)"></stop><stop offset="30%" stop-color="rgb(161,178,199)"></stop><stop offset="90%" stop-color="rgb(175,196,223)"></stop></linearGradient><linearGradient id="__lottie_element_15" spreadMethod="pad" gradientUnits="userSpaceOnUse" x1="2.4189999103546143" y1="20.334999084472656" x2="-0.41999998688697815" y2="-20.726999282836914"><stop offset="0%" stop-color="rgb(79,174,247)"></stop><stop offset="27%" stop-color="rgb(130,213,236)"></stop><stop offset="53%" stop-color="rgb(181,252,225)"></stop><stop offset="73%" stop-color="rgb(218,253,240)"></stop><stop offset="93%" stop-color="rgb(255,255,255)"></stop></linearGradient><linearGradient id="__lottie_element_16" spreadMethod="pad" gradientUnits="userSpaceOnUse" x1="-17.551000595092773" y1="19.764999389648438" x2="-10.331000328063965" y2="-10.675999641418457"><stop offset="0%" stop-color="rgb(255,255,255)" stop-opacity="0"></stop><stop offset="58%" stop-color="rgb(255,255,255)" stop-opacity="0.5"></stop><stop offset="100%" stop-color="rgb(255,255,255)" stop-opacity="1"></stop></linearGradient><linearGradient id="__lottie_element_17" spreadMethod="pad" gradientUnits="userSpaceOnUse" x1="10.128000259399414" y1="39.4900016784668" x2="19.702999114990234" y2="5.2220001220703125"><stop offset="9%" stop-color="rgb(71,152,222)"></stop><stop offset="40%" stop-color="rgb(90,184,233)"></stop><stop offset="100%" stop-color="rgb(108,215,244)"></stop></linearGradient><linearGradient id="__lottie_element_22" spreadMethod="pad" gradientUnits="userSpaceOnUse" x1="142.44900512695312" y1="7.011000156402588" x2="20.88800048828125" y2="-17.77400016784668"><stop offset="18%" stop-color="rgb(255,125,100)"></stop><stop offset="48%" stop-color="rgb(255,185,122)"></stop><stop offset="89%" stop-color="rgb(255,244,144)"></stop></linearGradient><linearGradient id="__lottie_element_23" spreadMethod="pad" gradientUnits="userSpaceOnUse" x1="95.51200103759766" y1="22.027000427246094" x2="87.16699981689453" y2="-69.76899719238281"><stop offset="23%" stop-color="rgb(255,119,121)" stop-opacity="1"></stop><stop offset="79%" stop-color="rgb(255,134,148)" stop-opacity="0.550000011920929"></stop><stop offset="100%" stop-color="rgb(255,149,176)" stop-opacity="0.10000000149011612"></stop></linearGradient><linearGradient id="__lottie_element_24" spreadMethod="pad" gradientUnits="userSpaceOnUse" x1="41.9370002746582" y1="53.33599853515625" x2="-16.81999969482422" y2="-36.676998138427734"><stop offset="19%" stop-color="rgb(255,255,255)" stop-opacity="0.30000001192092896"></stop><stop offset="77%" stop-color="rgb(255,255,255)" stop-opacity="0.15000000596046448"></stop><stop offset="100%" stop-color="rgb(255,255,255)" stop-opacity="0"></stop></linearGradient><linearGradient id="__lottie_element_25" spreadMethod="pad" gradientUnits="userSpaceOnUse" x1="-95.1510009765625" y1="37.301998138427734" x2="81.62799835205078" y2="-5.97599983215332"><stop offset="0%" stop-color="rgb(255,255,255)" stop-opacity="0"></stop><stop offset="23%" stop-color="rgb(255,255,255)" stop-opacity="0.5"></stop><stop offset="81%" stop-color="rgb(255,255,255)" stop-opacity="1"></stop></linearGradient><linearGradient id="__lottie_element_26" spreadMethod="pad" gradientUnits="userSpaceOnUse" x1="96.84600067138672" y1="65.96099853515625" x2="96.84600067138672" y2="-67.91200256347656"><stop offset="29%" stop-color="rgb(196,95,102)"></stop><stop offset="62%" stop-color="rgb(186,86,91)"></stop><stop offset="81%" stop-color="rgb(177,78,79)"></stop></linearGradient><linearGradient id="__lottie_element_27" spreadMethod="pad" gradientUnits="userSpaceOnUse" x1="30.363000869750977" y1="16.024999618530273" x2="-137.62100219726562" y2="-67.98300170898438"><stop offset="18%" stop-color="rgb(240,75,76)"></stop><stop offset="55%" stop-color="rgb(248,130,84)"></stop><stop offset="78%" stop-color="rgb(255,185,93)"></stop></linearGradient><linearGradient id="__lottie_element_32" spreadMethod="pad" gradientUnits="userSpaceOnUse" x1="5.485000133514404" y1="7.78000020980835" x2="0.17399999499320984" y2="-18.73699951171875"><stop offset="0%" stop-color="rgb(190,112,255)"></stop><stop offset="46%" stop-color="rgb(200,148,255)"></stop><stop offset="63%" stop-color="rgb(210,185,255)"></stop><stop offset="78%" stop-color="rgb(233,220,255)"></stop><stop offset="93%" stop-color="rgb(255,255,255)"></stop></linearGradient><linearGradient id="__lottie_element_33" spreadMethod="pad" gradientUnits="userSpaceOnUse" x1="6.201000213623047" y1="13.925999641418457" x2="-0.6140000224113464" y2="-20.097000122070312"><stop offset="0%" stop-color="rgb(255,255,255)" stop-opacity="0"></stop><stop offset="58%" stop-color="rgb(255,255,255)" stop-opacity="0.5"></stop><stop offset="100%" stop-color="rgb(255,255,255)" stop-opacity="1"></stop></linearGradient><linearGradient id="__lottie_element_34" spreadMethod="pad" gradientUnits="userSpaceOnUse" x1="7.058000087738037" y1="15.62399959564209" x2="-0.46799999475479126" y2="-21.950000762939453"><stop offset="0%" stop-color="rgb(127,37,198)"></stop><stop offset="58%" stop-color="rgb(163,61,222)"></stop><stop offset="100%" stop-color="rgb(200,85,246)"></stop></linearGradient><radialGradient id="__lottie_element_38" spreadMethod="pad" gradientUnits="userSpaceOnUse" cx="2.7780001163482666" cy="5.355000019073486" r="85.66096691524892" fx="2.7780001163482666" fy="5.355000019073486"><stop offset="17%" stop-color="rgb(247,237,155)"></stop><stop offset="37%" stop-color="rgb(246,235,117)"></stop><stop offset="56%" stop-color="rgb(245,233,78)"></stop><stop offset="74%" stop-color="rgb(232,184,59)"></stop><stop offset="92%" stop-color="rgb(219,134,41)"></stop></radialGradient><linearGradient id="__lottie_element_39" spreadMethod="pad" gradientUnits="userSpaceOnUse" x1="-0.4189999997615814" y1="15.369000434875488" x2="-1.687999963760376" y2="-15.079999923706055"><stop offset="0%" stop-color="rgb(255,255,255)" stop-opacity="1"></stop><stop offset="50%" stop-color="rgb(255,255,255)" stop-opacity="0.5"></stop><stop offset="100%" stop-color="rgb(255,255,255)" stop-opacity="0"></stop></linearGradient><linearGradient id="__lottie_element_40" spreadMethod="pad" gradientUnits="userSpaceOnUse" x1="-0.1679999977350235" y1="24.354999542236328" x2="-0.8019999861717224" y2="-4.190999984741211"><stop offset="0%" stop-color="rgb(255,255,255)" stop-opacity="1"></stop><stop offset="50%" stop-color="rgb(255,255,255)" stop-opacity="0.5"></stop><stop offset="100%" stop-color="rgb(255,255,255)" stop-opacity="0"></stop></linearGradient><linearGradient id="__lottie_element_41" spreadMethod="pad" gradientUnits="userSpaceOnUse" x1="-10.38700008392334" y1="-21.60300064086914" x2="7.697999954223633" y2="23.283000946044922"><stop offset="0%" stop-color="rgb(255,255,200)" stop-opacity="0"></stop><stop offset="58%" stop-color="rgb(253,255,145)" stop-opacity="0.5"></stop><stop offset="100%" stop-color="rgb(252,255,90)" stop-opacity="1"></stop></linearGradient><linearGradient id="__lottie_element_42" spreadMethod="pad" gradientUnits="userSpaceOnUse" x1="12.168999671936035" y1="-15.145999908447266" x2="-5.238999843597412" y2="18.198999404907227"><stop offset="0%" stop-color="rgb(255,255,200)" stop-opacity="0"></stop><stop offset="58%" stop-color="rgb(253,255,145)" stop-opacity="0.5"></stop><stop offset="100%" stop-color="rgb(252,255,90)" stop-opacity="1"></stop></linearGradient><radialGradient id="__lottie_element_43" spreadMethod="pad" gradientUnits="userSpaceOnUse" cx="6.626999855041504" cy="11.244000434875488" r="96.80725912111302" fx="6.626999855041504" fy="11.244000434875488"><stop offset="41%" stop-color="rgb(229,151,25)"></stop><stop offset="62%" stop-color="rgb(202,118,30)"></stop><stop offset="77%" stop-color="rgb(175,85,35)"></stop></radialGradient><linearGradient id="__lottie_element_47" spreadMethod="pad" gradientUnits="userSpaceOnUse"><stop></stop><stop></stop><stop></stop></linearGradient><linearGradient id="__lottie_element_48" spreadMethod="pad" gradientUnits="userSpaceOnUse"><stop></stop><stop></stop><stop></stop></linearGradient><linearGradient id="__lottie_element_49" spreadMethod="pad" gradientUnits="userSpaceOnUse"><stop></stop><stop></stop><stop></stop></linearGradient><linearGradient id="__lottie_element_50" spreadMethod="pad" gradientUnits="userSpaceOnUse"><stop></stop><stop></stop><stop></stop></linearGradient><linearGradient id="__lottie_element_51" spreadMethod="pad" gradientUnits="userSpaceOnUse"><stop></stop><stop></stop><stop></stop></linearGradient><linearGradient id="__lottie_element_52" spreadMethod="pad" gradientUnits="userSpaceOnUse"><stop></stop><stop></stop><stop></stop></linearGradient><linearGradient id="__lottie_element_53" spreadMethod="pad" gradientUnits="userSpaceOnUse"><stop></stop><stop></stop><stop></stop></linearGradient><linearGradient id="__lottie_element_54" spreadMethod="pad" gradientUnits="userSpaceOnUse"><stop></stop><stop></stop><stop></stop></linearGradient><linearGradient id="__lottie_element_58" spreadMethod="pad" gradientUnits="userSpaceOnUse" x1="-23.856000900268555" y1="-43.7140007019043" x2="1.9490000009536743" y2="72.97899627685547"><stop offset="13%" stop-color="rgb(255,255,120)"></stop><stop offset="39%" stop-color="rgb(252,241,77)"></stop><stop offset="84%" stop-color="rgb(250,228,33)"></stop></linearGradient><linearGradient id="__lottie_element_59" spreadMethod="pad" gradientUnits="userSpaceOnUse" x1="2.367000102996826" y1="69.56600189208984" x2="-12.222000122070312" y2="-64.5459976196289"><stop offset="0%" stop-color="rgb(255,255,255)" stop-opacity="0"></stop><stop offset="26%" stop-color="rgb(255,255,255)" stop-opacity="0.5"></stop><stop offset="100%" stop-color="rgb(255,255,255)" stop-opacity="1"></stop></linearGradient><linearGradient id="__lottie_element_60" spreadMethod="pad" gradientUnits="userSpaceOnUse" x1="96.99600219726562" y1="61.07899856567383" x2="96.99600219726562" y2="-62.084999084472656"><stop offset="0%" stop-color="rgb(255,255,255)" stop-opacity="0"></stop><stop offset="58%" stop-color="rgb(255,255,255)" stop-opacity="0.5"></stop><stop offset="100%" stop-color="rgb(255,255,255)" stop-opacity="1"></stop></linearGradient><linearGradient id="__lottie_element_61" spreadMethod="pad" gradientUnits="userSpaceOnUse" x1="-29.531999588012695" y1="78.26200103759766" x2="-64.64299774169922" y2="-92.3010025024414"><stop offset="73%" stop-color="rgb(221,123,28)"></stop><stop offset="81%" stop-color="rgb(227,156,32)"></stop><stop offset="86%" stop-color="rgb(234,188,35)"></stop></linearGradient><linearGradient id="__lottie_element_62" spreadMethod="pad" gradientUnits="userSpaceOnUse" x1="99.55599975585938" y1="69.42400360107422" x2="93.79199981689453" y2="-41.7400016784668"><stop offset="10%" stop-color="rgb(110,219,122)"></stop><stop offset="42%" stop-color="rgb(144,237,157)"></stop><stop offset="82%" stop-color="rgb(177,255,192)"></stop></linearGradient><linearGradient id="__lottie_element_63" spreadMethod="pad" gradientUnits="userSpaceOnUse" x1="46.49100112915039" y1="-11.432000160217285" x2="81.55899810791016" y2="-55.266998291015625"><stop offset="6%" stop-color="rgb(0,157,106)" stop-opacity="1"></stop><stop offset="52%" stop-color="rgb(0,157,106)" stop-opacity="0.550000011920929"></stop><stop offset="100%" stop-color="rgb(0,157,106)" stop-opacity="0.10000000149011612"></stop></linearGradient><linearGradient id="__lottie_element_64" spreadMethod="pad" gradientUnits="userSpaceOnUse" x1="96.84600067138672" y1="65.96099853515625" x2="96.84600067138672" y2="-67.91200256347656"><stop offset="13%" stop-color="rgb(10,147,95)"></stop><stop offset="47%" stop-color="rgb(10,147,95)"></stop><stop offset="67%" stop-color="rgb(10,147,95)"></stop></linearGradient><linearGradient id="__lottie_element_65" spreadMethod="pad" gradientUnits="userSpaceOnUse" x1="60.35900115966797" y1="92.1780014038086" x2="-36.11800003051758" y2="-98.4209976196289"><stop offset="37%" stop-color="rgb(47,160,114)"></stop><stop offset="69%" stop-color="rgb(77,194,135)"></stop><stop offset="90%" stop-color="rgb(107,228,157)"></stop></linearGradient><linearGradient id="__lottie_element_71" spreadMethod="pad" gradientUnits="userSpaceOnUse" x1="2.4189999103546143" y1="20.334999084472656" x2="-0.41999998688697815" y2="-20.726999282836914"><stop offset="0%" stop-color="rgb(79,174,247)"></stop><stop offset="27%" stop-color="rgb(130,213,236)"></stop><stop offset="53%" stop-color="rgb(181,252,225)"></stop><stop offset="73%" stop-color="rgb(218,253,240)"></stop><stop offset="93%" stop-color="rgb(255,255,255)"></stop></linearGradient><linearGradient id="__lottie_element_72" spreadMethod="pad" gradientUnits="userSpaceOnUse" x1="-17.551000595092773" y1="19.764999389648438" x2="-10.331000328063965" y2="-10.675999641418457"><stop offset="0%" stop-color="rgb(255,255,255)" stop-opacity="0"></stop><stop offset="58%" stop-color="rgb(255,255,255)" stop-opacity="0.5"></stop><stop offset="100%" stop-color="rgb(255,255,255)" stop-opacity="1"></stop></linearGradient><linearGradient id="__lottie_element_73" spreadMethod="pad" gradientUnits="userSpaceOnUse" x1="-16.07200050354004" y1="21.972000122070312" x2="4.452000141143799" y2="-22.52199935913086"><stop offset="9%" stop-color="rgb(71,152,222)"></stop><stop offset="40%" stop-color="rgb(90,184,233)"></stop><stop offset="100%" stop-color="rgb(108,215,244)"></stop></linearGradient><linearGradient id="__lottie_element_78" spreadMethod="pad" gradientUnits="userSpaceOnUse" x1="54.12799835205078" y1="81.33200073242188" x2="151.4320068359375" y2="-80.84200286865234"><stop offset="18%" stop-color="rgb(255,125,100)"></stop><stop offset="48%" stop-color="rgb(255,185,122)"></stop><stop offset="89%" stop-color="rgb(255,244,144)"></stop></linearGradient><linearGradient id="__lottie_element_79" spreadMethod="pad" gradientUnits="userSpaceOnUse" x1="-8.73900032043457" y1="-0.4749999940395355" x2="-43.36199951171875" y2="-44.33000183105469"><stop offset="35%" stop-color="rgb(255,119,121)" stop-opacity="1"></stop><stop offset="82%" stop-color="rgb(255,134,148)" stop-opacity="0.550000011920929"></stop><stop offset="100%" stop-color="rgb(255,149,176)" stop-opacity="0.10000000149011612"></stop></linearGradient><linearGradient id="__lottie_element_80" spreadMethod="pad" gradientUnits="userSpaceOnUse" x1="97.5739974975586" y1="66.427001953125" x2="97.5739974975586" y2="-66.60700225830078"><stop offset="0%" stop-color="rgb(255,255,255)" stop-opacity="1"></stop><stop offset="42%" stop-color="rgb(255,255,255)" stop-opacity="0.5"></stop><stop offset="100%" stop-color="rgb(255,255,255)" stop-opacity="0"></stop></linearGradient><linearGradient id="__lottie_element_81" spreadMethod="pad" gradientUnits="userSpaceOnUse" x1="97.03700256347656" y1="64.1449966430664" x2="97.03700256347656" y2="-64.68000030517578"><stop offset="0%" stop-color="rgb(255,255,255)" stop-opacity="0"></stop><stop offset="26%" stop-color="rgb(255,255,255)" stop-opacity="0.5"></stop><stop offset="100%" stop-color="rgb(255,255,255)" stop-opacity="1"></stop></linearGradient><linearGradient id="__lottie_element_82" spreadMethod="pad" gradientUnits="userSpaceOnUse" x1="97.33000183105469" y1="100.85600280761719" x2="97.33000183105469" y2="-100.98300170898438"><stop offset="18%" stop-color="rgb(240,75,76)"></stop><stop offset="55%" stop-color="rgb(248,130,84)"></stop><stop offset="78%" stop-color="rgb(255,185,93)"></stop></linearGradient><linearGradient id="__lottie_element_83" spreadMethod="pad" gradientUnits="userSpaceOnUse" x1="76" y1="6" x2="133" y2="17"><stop offset="30%" stop-color="rgb(202,57,83)"></stop><stop offset="62%" stop-color="rgb(199,56,78)"></stop><stop offset="81%" stop-color="rgb(196,55,73)"></stop></linearGradient><linearGradient id="__lottie_element_88" spreadMethod="pad" gradientUnits="userSpaceOnUse" x1="-4.789999961853027" y1="13.894000053405762" x2="0.17399999499320984" y2="-18.73699951171875"><stop offset="0%" stop-color="rgb(190,112,255)"></stop><stop offset="46%" stop-color="rgb(200,148,255)"></stop><stop offset="63%" stop-color="rgb(210,185,255)"></stop><stop offset="78%" stop-color="rgb(233,220,255)"></stop><stop offset="93%" stop-color="rgb(255,255,255)"></stop></linearGradient><linearGradient id="__lottie_element_89" spreadMethod="pad" gradientUnits="userSpaceOnUse" x1="-9.178000450134277" y1="20.865999221801758" x2="-0.6140000224113464" y2="-20.097000122070312"><stop offset="0%" stop-color="rgb(255,255,255)" stop-opacity="0"></stop><stop offset="58%" stop-color="rgb(255,255,255)" stop-opacity="0.5"></stop><stop offset="100%" stop-color="rgb(255,255,255)" stop-opacity="1"></stop></linearGradient><linearGradient id="__lottie_element_90" spreadMethod="pad" gradientUnits="userSpaceOnUse" x1="-4.8480000495910645" y1="22.80900001525879" x2="-0.46799999475479126" y2="-21.950000762939453"><stop offset="0%" stop-color="rgb(127,37,198)"></stop><stop offset="58%" stop-color="rgb(163,61,222)"></stop><stop offset="100%" stop-color="rgb(200,85,246)"></stop></linearGradient><linearGradient id="__lottie_element_94" spreadMethod="pad" gradientUnits="userSpaceOnUse"><stop></stop><stop></stop><stop></stop></linearGradient><linearGradient id="__lottie_element_95" spreadMethod="pad" gradientUnits="userSpaceOnUse"><stop></stop><stop></stop><stop></stop></linearGradient><linearGradient id="__lottie_element_99" spreadMethod="pad" gradientUnits="userSpaceOnUse"><stop></stop><stop></stop><stop></stop></linearGradient><linearGradient id="__lottie_element_103" spreadMethod="pad" gradientUnits="userSpaceOnUse" x1="0" y1="0" x2="100" y2="0"><stop offset="6%" stop-color="rgb(206,122,13)"></stop><stop offset="52%" stop-color="rgb(212,121,18)"></stop><stop offset="100%" stop-color="rgb(219,120,23)"></stop></linearGradient><linearGradient id="__lottie_element_104" spreadMethod="pad" gradientUnits="userSpaceOnUse" x1="16.479999542236328" y1="-82.41400146484375" x2="-6.473999977111816" y2="83.47799682617188"><stop offset="10%" stop-color="rgb(110,219,122)"></stop><stop offset="42%" stop-color="rgb(144,237,157)"></stop><stop offset="82%" stop-color="rgb(177,255,192)"></stop></linearGradient><linearGradient id="__lottie_element_105" spreadMethod="pad" gradientUnits="userSpaceOnUse" x1="87.83000183105469" y1="-40.25600051879883" x2="118.04399871826172" y2="29.711999893188477"><stop offset="6%" stop-color="rgb(0,157,106)" stop-opacity="1"></stop><stop offset="52%" stop-color="rgb(0,157,106)" stop-opacity="0.550000011920929"></stop><stop offset="100%" stop-color="rgb(0,157,106)" stop-opacity="0.10000000149011612"></stop></linearGradient><linearGradient id="__lottie_element_106" spreadMethod="pad" gradientUnits="userSpaceOnUse" x1="-22.06999969482422" y1="46.571998596191406" x2="-0.1289999932050705" y2="-82.75700378417969"><stop offset="18%" stop-color="rgb(255,125,100)"></stop><stop offset="48%" stop-color="rgb(255,185,122)"></stop><stop offset="89%" stop-color="rgb(255,244,144)"></stop></linearGradient><linearGradient id="__lottie_element_107" spreadMethod="pad" gradientUnits="userSpaceOnUse" x1="-5.765999794006348" y1="1.0499999523162842" x2="-12.095000267028809" y2="-62.965999603271484"><stop offset="23%" stop-color="rgb(255,119,121)" stop-opacity="1"></stop><stop offset="79%" stop-color="rgb(255,134,148)" stop-opacity="0.550000011920929"></stop><stop offset="100%" stop-color="rgb(255,149,176)" stop-opacity="0.10000000149011612"></stop></linearGradient><linearGradient id="__lottie_element_108" spreadMethod="pad" gradientUnits="userSpaceOnUse" x1="83.572998046875" y1="-63.50899887084961" x2="113.73500061035156" y2="-38.16899871826172"><stop offset="23%" stop-color="rgb(255,119,121)" stop-opacity="1"></stop><stop offset="79%" stop-color="rgb(255,134,148)" stop-opacity="0.550000011920929"></stop><stop offset="100%" stop-color="rgb(255,149,176)" stop-opacity="0.10000000149011612"></stop></linearGradient><linearGradient id="__lottie_element_109" spreadMethod="pad" gradientUnits="userSpaceOnUse" x1="-76.0459976196289" y1="47.893001556396484" x2="33.28300094604492" y2="-76.58999633789062"><stop offset="0%" stop-color="rgb(255,255,255)" stop-opacity="0"></stop><stop offset="26%" stop-color="rgb(255,255,255)" stop-opacity="0.5"></stop><stop offset="100%" stop-color="rgb(255,255,255)" stop-opacity="1"></stop></linearGradient><linearGradient id="__lottie_element_110" spreadMethod="pad" gradientUnits="userSpaceOnUse" x1="13.390999794006348" y1="188.3780059814453" x2="-14.54699993133545" y2="-224.78599548339844"><stop offset="37%" stop-color="rgb(47,160,114)"></stop><stop offset="69%" stop-color="rgb(77,194,135)"></stop><stop offset="90%" stop-color="rgb(107,228,157)"></stop></linearGradient><linearGradient id="__lottie_element_111" spreadMethod="pad" gradientUnits="userSpaceOnUse" x1="-16.058000564575195" y1="103.69100189208984" x2="48.882999420166016" y2="-100.46399688720703"><stop offset="18%" stop-color="rgb(240,75,76)"></stop><stop offset="55%" stop-color="rgb(248,130,84)"></stop><stop offset="78%" stop-color="rgb(255,185,93)"></stop></linearGradient><linearGradient id="__lottie_element_116" spreadMethod="pad" gradientUnits="userSpaceOnUse" x1="8.039999961853027" y1="2.9760000705718994" x2="51.6150016784668" y2="27.604999542236328"><stop offset="16%" stop-color="rgb(250,228,33)"></stop><stop offset="61%" stop-color="rgb(252,241,77)"></stop><stop offset="87%" stop-color="rgb(255,255,120)"></stop></linearGradient><linearGradient id="__lottie_element_117" spreadMethod="pad" gradientUnits="userSpaceOnUse" x1="-2.9600000381469727" y1="-0.024000000208616257" x2="35.87799835205078" y2="1.3969999551773071"><stop offset="23%" stop-color="rgb(255,165,29)" stop-opacity="1"></stop><stop offset="79%" stop-color="rgb(255,171,29)" stop-opacity="0.550000011920929"></stop><stop offset="100%" stop-color="rgb(255,177,29)" stop-opacity="0.10000000149011612"></stop></linearGradient><linearGradient id="__lottie_element_118" spreadMethod="pad" gradientUnits="userSpaceOnUse" x1="245.4320068359375" y1="31.420000076293945" x2="87.16699981689453" y2="-69.76899719238281"><stop offset="23%" stop-color="rgb(255,165,29)" stop-opacity="1"></stop><stop offset="79%" stop-color="rgb(255,171,29)" stop-opacity="0.550000011920929"></stop><stop offset="100%" stop-color="rgb(255,177,29)" stop-opacity="0.10000000149011612"></stop></linearGradient><linearGradient id="__lottie_element_119" spreadMethod="pad" gradientUnits="userSpaceOnUse" x1="-60.904998779296875" y1="21.889999389648438" x2="227.16600036621094" y2="-110.04100036621094"><stop offset="46%" stop-color="rgb(221,123,28)"></stop><stop offset="71%" stop-color="rgb(227,156,32)"></stop><stop offset="86%" stop-color="rgb(234,188,35)"></stop></linearGradient><linearGradient id="__lottie_element_124" spreadMethod="pad" gradientUnits="userSpaceOnUse" x1="-0.3149999976158142" y1="20.398000717163086" x2="-0.31299999356269836" y2="-19.757999420166016"><stop offset="16%" stop-color="rgb(250,228,33)"></stop><stop offset="61%" stop-color="rgb(252,241,77)"></stop><stop offset="87%" stop-color="rgb(255,255,120)"></stop></linearGradient><linearGradient id="__lottie_element_125" spreadMethod="pad" gradientUnits="userSpaceOnUse" x1="-2.203000068664551" y1="27.13800048828125" x2="1.746999979019165" y2="-25.195999145507812"><stop offset="9%" stop-color="rgb(221,123,28)"></stop><stop offset="57%" stop-color="rgb(227,156,32)"></stop><stop offset="86%" stop-color="rgb(234,188,35)"></stop></linearGradient><linearGradient id="__lottie_element_129" spreadMethod="pad" gradientUnits="userSpaceOnUse" x1="0.5720000267028809" y1="45.402000427246094" x2="0.5720000267028809" y2="-9.541999816894531"><stop offset="10%" stop-color="rgb(211,218,230)"></stop><stop offset="31%" stop-color="rgb(233,236,243)"></stop><stop offset="63%" stop-color="rgb(255,255,255)"></stop></linearGradient><linearGradient id="__lottie_element_130" spreadMethod="pad" gradientUnits="userSpaceOnUse" x1="0.5720000267028809" y1="46.402000427246094" x2="0.5720000267028809" y2="-46.534000396728516"><stop offset="0%" stop-color="rgb(148,160,175)"></stop><stop offset="30%" stop-color="rgb(161,178,199)"></stop><stop offset="90%" stop-color="rgb(175,196,223)"></stop></linearGradient></defs><g clip-path="url(#__lottie_element_2)"><g style="display: block;" transform="matrix(1,0,0,1,0,0)" opacity="1"><g opacity="1" transform="matrix(1,0,0,1,382.62200927734375,55.61899948120117)"><path fill="url(#__lottie_element_129)" fill-opacity="1" d=" M-57.31700134277344,30.55900001525879 C-69.4530029296875,18.5049991607666 -62.95600128173828,0.23999999463558197 -53.31700134277344,-3.7829999923706055 C-41.025001525878906,-8.913000106811523 -31.49799919128418,5.849999904632568 -31.49799919128418,5.849999904632568 C-31.49799919128418,5.849999904632568 -40.9630012512207,-38.922000885009766 -11.96399974822998,-42.2859992980957 C17.14699935913086,-45.66299819946289 17.45199966430664,-1.0889999866485596 17.45199966430664,-1.0889999866485596 C17.45199966430664,-1.0889999866485596 26.39299964904785,-10.8149995803833 38.354000091552734,-6.814000129699707 C51.981998443603516,-2.255000114440918 51.19900131225586,15.241000175476074 51.19900131225586,15.241000175476074 C51.19900131225586,15.241000175476074 63.93299865722656,13.786999702453613 63.93299865722656,25.597999572753906 C63.93299865722656,41.65999984741211 -36.27899932861328,51.45600128173828 -57.31700134277344,30.55900001525879z"></path></g><g opacity="1" transform="matrix(1,0,0,1,382.62200927734375,55.61899948120117)"><path stroke="url(#__lottie_element_130)" stroke-linecap="round" stroke-linejoin="round" fill-opacity="0" stroke-opacity="1" stroke-width="8" d=" M-57.31700134277344,30.55900001525879 C-69.4530029296875,18.5049991607666 -62.95600128173828,0.23999999463558197 -53.31700134277344,-3.7829999923706055 C-41.025001525878906,-8.913000106811523 -31.49799919128418,5.849999904632568 -31.49799919128418,5.849999904632568 C-31.49799919128418,5.849999904632568 -40.9630012512207,-38.922000885009766 -11.96399974822998,-42.2859992980957 C17.14699935913086,-45.66299819946289 17.45199966430664,-1.0889999866485596 17.45199966430664,-1.0889999866485596 C17.45199966430664,-1.0889999866485596 26.39299964904785,-10.8149995803833 38.354000091552734,-6.814000129699707 C51.981998443603516,-2.255000114440918 51.19900131225586,15.241000175476074 51.19900131225586,15.241000175476074 C51.19900131225586,15.241000175476074 63.93299865722656,13.786999702453613 63.93299865722656,25.597999572753906 C63.93299865722656,41.65999984741211 -36.27899932861328,51.45600128173828 -57.31700134277344,30.55900001525879z"></path></g></g><g style="display: block;" transform="matrix(0.9399999976158142,0,0,0.9399999976158142,15.360000610351562,15.360000610351562)" opacity="1"><g opacity="1" transform="matrix(1,0,0,1,344.0769958496094,311.093994140625)"><path fill="url(#__lottie_element_116)" fill-opacity="1" d=" M-47.20100021362305,-12.508999824523926 C7.570000171661377,-70.73200225830078 61.854000091552734,-59.125999450683594 43.595001220703125,40.92399978637695 C42.83100128173828,45.111000061035156 36.69900131225586,44.11800003051758 35.505001068115234,40.435001373291016 C31.923999786376953,29.386999130249023 30.663000106811523,-5.860000133514404 15.125,1.9809999465942383 C-3.2880001068115234,11.272000312805176 -17.927000045776367,47.67100143432617 -17.927000045776367,47.67100143432617 C-17.927000045776367,47.67100143432617 -47.20100021362305,-12.508999824523926 -47.20100021362305,-12.508999824523926z"></path></g><g opacity="0.3" transform="matrix(1,0,0,1,344.0769958496094,311.093994140625)"><path fill="url(#__lottie_element_117)" fill-opacity="1" d=" M-47.20100021362305,-12.508999824523926 C7.570000171661377,-70.73200225830078 61.854000091552734,-59.125999450683594 43.595001220703125,40.92399978637695 C42.83100128173828,45.111000061035156 36.69900131225586,44.11800003051758 35.505001068115234,40.435001373291016 C31.923999786376953,29.386999130249023 30.663000106811523,-5.860000133514404 15.125,1.9809999465942383 C-3.2880001068115234,11.272000312805176 -17.927000045776367,47.67100143432617 -17.927000045776367,47.67100143432617 C-17.927000045776367,47.67100143432617 -47.20100021362305,-12.508999824523926 -47.20100021362305,-12.508999824523926z"></path></g><g opacity="0" transform="matrix(1,0,0,1,116.6050033569336,319.0429992675781)"><path fill="url(#__lottie_element_118)" fill-opacity="1" d=" M190.51499938964844,1.875 C199.33399963378906,13.890999794006348 205.552001953125,30.361000061035156 209.4759979248047,38.57600021362305 C217.7270050048828,12.050999641418457 243.0749969482422,-8.918000221252441 247.49899291992188,-9.682000160217285 C251.92300415039062,-10.446000099182129 264.4739990234375,27.858999252319336 264.4739990234375,27.858999252319336 C264.4739990234375,27.858999252319336 253.38999938964844,-23.75200080871582 237.30499267578125,-24.95400047302246 C221.22000122070312,-26.1560001373291 197.6269989013672,-9.404000282287598 190.51499938964844,1.875z"></path></g><g opacity="0" transform="matrix(1,0,0,1,0,0)"><path stroke-linecap="butt" stroke-linejoin="miter" fill-opacity="0" stroke-miterlimit="4" stroke="rgb(255,255,255)" stroke-opacity="0.25" stroke-width="8" d=" M376.7959899902344,308.7879943847656 C372.7619934082031,265.96099853515625 355.60699462890625,248.80599975585938 305.4729919433594,288.7720031738281"></path></g><g opacity="1" transform="matrix(1,0,0,1,344.0769958496094,311.093994140625)"><path stroke="url(#__lottie_element_119)" stroke-linecap="round" stroke-linejoin="round" fill-opacity="0" stroke-opacity="1" stroke-width="8" d=" M-47.20100021362305,-12.508999824523926 C7.570000171661377,-70.73200225830078 61.854000091552734,-59.125999450683594 43.595001220703125,40.92399978637695 C42.83100128173828,45.111000061035156 36.69900131225586,44.11800003051758 35.505001068115234,40.435001373291016 C31.923999786376953,29.386999130249023 30.663000106811523,-5.860000133514404 15.125,1.9809999465942383 C-3.2880001068115234,11.272000312805176 -17.927000045776367,47.67100143432617 -17.927000045776367,47.67100143432617 C-17.927000045776367,47.67100143432617 -47.20100021362305,-12.508999824523926 -47.20100021362305,-12.508999824523926z"></path></g><g opacity="1" transform="matrix(1,0,0,1,356.9110107421875,335.35699462890625)"><path stroke-linecap="round" stroke-linejoin="round" fill-opacity="0" stroke="rgb(221,140,11)" stroke-opacity="1" stroke-width="8" d=" M30.76099967956543,16.66200065612793 C29.996999740600586,20.849000930786133 23.864999771118164,19.854999542236328 22.67099952697754,16.172000885009766 C19.09000015258789,5.124000072479248 17.82900047302246,-30.121999740600586 2.2909998893737793,-22.2810001373291 C-16.121999740600586,-12.989999771118164 -30.76099967956543,23.408000946044922 -30.76099967956543,23.408000946044922"></path></g></g><g style="display: block;" transform="matrix(0.8057372570037842,-0.48413577675819397,0.48413577675819397,0.8057372570037842,-121.25885009765625,249.8616485595703)" opacity="1"><g opacity="1" transform="matrix(1,0,0,1,394.9129943847656,365.4809875488281)"><path stroke-linecap="round" stroke-linejoin="round" fill-opacity="0" stroke="rgb(163,183,211)" stroke-opacity="1" stroke-width="6" d=" M-5.859000205993652,7.211999893188477 C-5.859000205993652,7.211999893188477 1.1390000581741333,3.052000045776367 5.859000205993652,-7.211999893188477"></path></g><g opacity="1" transform="matrix(1,0,0,1,374.9939880371094,393.2950134277344)"><path fill="url(#__lottie_element_124)" fill-opacity="1" d=" M21.444000244140625,-11.192000389099121 C19.007999420166016,-21.180999755859375 -4.625,-29.20400047302246 -17.214000701904297,-11.631999969482422 C-29.847999572753906,6.004000186920166 -11.904999732971191,26.393999099731445 -1.003000020980835,21.141000747680664 C3.4539999961853027,18.993000030517578 -10.093999862670898,8.281000137329102 -1.7100000381469727,-3.0369999408721924 C5.940000057220459,-13.364999771118164 23.024999618530273,-4.706999778747559 21.444000244140625,-11.192000389099121z"></path></g><g opacity="1" transform="matrix(1,0,0,1,374.9939880371094,393.2950134277344)"><path stroke="url(#__lottie_element_125)" stroke-linecap="round" stroke-linejoin="round" fill-opacity="0" stroke-opacity="1" stroke-width="8" d=" M21.444000244140625,-11.192000389099121 C19.007999420166016,-21.180999755859375 -4.625,-29.20400047302246 -17.214000701904297,-11.631999969482422 C-29.847999572753906,6.004000186920166 -11.904999732971191,26.393999099731445 -1.003000020980835,21.141000747680664 C3.4539999961853027,18.993000030517578 -10.093999862670898,8.281000137329102 -1.7100000381469727,-3.0369999408721924 C5.940000057220459,-13.364999771118164 23.024999618530273,-4.706999778747559 21.444000244140625,-11.192000389099121z"></path></g></g><g style="display: block;" transform="matrix(0.9399999976158142,0,0,0.9399999976158142,15.360000610351562,15.360000610351562)" opacity="1"><g opacity="1" transform="matrix(1,0,0,1,0,0)"><path fill="url(#__lottie_element_103)" fill-opacity="1" d="M0 0"></path></g><g opacity="1" transform="matrix(1,0,0,1,261.8320007324219,200.18600463867188)"><path fill="url(#__lottie_element_104)" fill-opacity="1" d=" M-77.56700134277344,76.86799621582031 C-83.71700286865234,-15.571000099182129 -50.07600021362305,-80.7509994506836 -17.51300048828125,-109.70800018310547 C26.323999404907227,-148.69000244140625 61.89099884033203,-121.88899993896484 69.99299621582031,-105.88400268554688 C81.78299713134766,-82.59600067138672 79.15399932861328,-38.327999114990234 73.55999755859375,-37.04800033569336 C63.808998107910156,-34.81700134277344 55.722999572753906,-90.58699798583984 40.858001708984375,-88.947998046875 C25.993000030517578,-87.30899810791016 11.128000259399414,-34.31700134277344 34.31700134277344,62.926998138427734 C57.50600051879883,160.17100524902344 -73.40499877929688,139.43099975585938 -77.56700134277344,76.86799621582031z"></path></g><g opacity="0.4" transform="matrix(1,0,0,1,284.2869873046875,198.3260040283203)"><path fill="url(#__lottie_element_105)" fill-opacity="1" d=" M18.402000427246094,-87.08799743652344 C2.7929999828338623,-96.82499694824219 -15.371000289916992,-84.1969985961914 -18.16200065612793,-4.125 C-20.95199966430664,75.9469985961914 1.5470000505447388,89.91100311279297 1.5470000505447388,89.91100311279297 C1.5470000505447388,89.91100311279297 9.059000015258789,52.393001556396484 9.059000015258789,52.393001556396484 C9.059000015258789,52.393001556396484 -5.961999893188477,-9.475000381469727 0,-45.58000183105469 C5.961999893188477,-81.68499755859375 18.402000427246094,-87.08799743652344 18.402000427246094,-87.08799743652344z"></path></g><g opacity="1" transform="matrix(1,0,0,1,258.57000732421875,179.4980010986328)"><path fill="url(#__lottie_element_106)" fill-opacity="1" d=" M74.86199951171875,-28.040000915527344 C74.86199951171875,-28.040000915527344 72.03600311279297,-19.555999755859375 72.03600311279297,-19.555999755859375 C65.59100341796875,-29.062000274658203 59.26900100708008,-56.64799880981445 50.37799835205078,-65.51300048828125 C50.37799835205078,-65.51300048828125 50.37799835205078,-65.52400207519531 50.36600112915039,-65.53500366210938 C49.79100036621094,-66.24299621582031 34.87200164794922,-84.38999938964844 21.125999450683594,-60.849998474121094 C-1.8040000200271606,-21.613000869750977 10.597000122070312,109.05500030517578 10.597000122070312,109.05500030517578 C10.597000122070312,109.05500030517578 -74.86199951171875,64.88500213623047 -74.86199951171875,64.88500213623047 C-72.24500274658203,-10.28600025177002 -42.845001220703125,-63.60200119018555 -14.253000259399414,-89.01899719238281 C0.8009999990463257,-102.4020004272461 14.876999855041504,-108.03199768066406 27.20400047302246,-109.00900268554688 C27.20400047302246,-109.00900268554688 27.264999389648438,-109.00900268554688 27.264999389648438,-109.00900268554688 C63.43899917602539,-111.29000091552734 74.86199951171875,-28.040000915527344 74.86199951171875,-28.040000915527344z"></path></g><g opacity="0.4" transform="matrix(1,0,0,1,241.22900390625,197.02000427246094)"><path fill="url(#__lottie_element_107)" fill-opacity="1" d=" M55.28300094604492,-90.33799743652344 C50.244998931884766,-90.79900360107422 44.250999450683594,-88.27100372314453 38.46699905395508,-78.37200164794922 C15.536999702453613,-39.1349983215332 27.937999725341797,91.53299713134766 27.937999725341797,91.53299713134766 C27.937999725341797,91.53299713134766 -9.605999946594238,72.12799835205078 -9.605999946594238,72.12799835205078 C-9.605999946594238,72.12799835205078 -55.28300094604492,19.812000274658203 -55.28300094604492,19.812000274658203 C-52.617000579833984,-0.8740000128746033 -47.88399887084961,-19.57200050354004 -41.81800079345703,-36.0890007019043 C-41.042999267578125,3.1659998893737793 1.6749999523162842,-8.947999954223633 17.340999603271484,-48.185001373291016 C30.743999481201172,-81.73699951171875 42.51499938964844,-95.95600128173828 55.28300094604492,-90.33799743652344z"></path></g><g opacity="0.4" transform="matrix(1,0,0,1,241.22900390625,197.02000427246094)"><path fill="url(#__lottie_element_108)" fill-opacity="0" d=" M116.55500030517578,-68.47799682617188 C101.1969985961914,-70.63099670410156 58.43199920654297,-54.31700134277344 58.4739990234375,-29.972000122070312 C58.70800018310547,-50.448001861572266 92.29199981689453,-69.9219970703125 116.75800323486328,-68.72699737548828 C140.2259979248047,-67.58100128173828 151.83299255371094,-59.29100036621094 160.57200622558594,-51.52299880981445 C155.89599609375,-60.42900085449219 130.83099365234375,-66.47599792480469 116.55500030517578,-68.47799682617188z"></path></g><g opacity="0.3" transform="matrix(1,0,0,1,263.76300048828125,150.11700439453125)"><path stroke="url(#__lottie_element_109)" stroke-linecap="round" stroke-linejoin="round" fill-opacity="0" stroke-opacity="1" stroke-width="8" d=" M-71.2020034790039,73.05500030517578 C-71.2020034790039,73.05500030517578 -62.81999969482422,0.27399998903274536 -26.639999389648438,-40.67599868774414 C8.569000244140625,-80.52799987792969 42.90299987792969,-84.26000213623047 71.2020034790039,-48.1619987487793"></path></g><g opacity="1" transform="matrix(1,0,0,1,261.8320007324219,200.18600463867188)"><path stroke="url(#__lottie_element_110)" stroke-linecap="round" stroke-linejoin="round" fill-opacity="0" stroke-opacity="1" stroke-width="8" d=" M22.386999130249023,-19.8439998626709 C23.030000686645508,2.569999933242798 26.524999618530273,30.25 34.31700134277344,62.926998138427734 C57.50600051879883,160.17100524902344 -73.40499877929688,139.43099975585938 -77.56700134277344,76.86799621582031 C-77.56700134277344,76.86799621582031 -77.56700134277344,76.86799621582031 -77.56700134277344,76.86799621582031 C-83.71700286865234,-15.571000099182129 -50.07600021362305,-80.7509994506836 -17.51300048828125,-109.70800018310547 C26.323999404907227,-148.69000244140625 61.89099884033203,-121.88899993896484 69.99299621582031,-105.88400268554688 C81.78299713134766,-82.59600067138672 79.15399932861328,-38.327999114990234 73.55999755859375,-37.04800033569336 C63.808998107910156,-34.81700134277344 55.722999572753906,-90.58699798583984 40.858001708984375,-88.947998046875 C30.988000869750977,-87.86000061035156 21.118000030517578,-64.13200378417969 22.386999130249023,-19.8439998626709"></path></g><g opacity="1" transform="matrix(1,0,0,1,258.55499267578125,179.50399780273438)"><path stroke="url(#__lottie_element_111)" stroke-linecap="round" stroke-linejoin="round" fill-opacity="0" stroke-opacity="1" stroke-width="8" d=" M74.86199951171875,-28.040000915527344 C74.86199951171875,-28.040000915527344 72.03600311279297,-19.555999755859375 72.03600311279297,-19.555999755859375 C65.59100341796875,-29.062000274658203 59.26900100708008,-56.64799880981445 50.37799835205078,-65.51300048828125 C50.37799835205078,-65.51300048828125 50.37799835205078,-65.52400207519531 50.36600112915039,-65.53500366210938 C49.79100036621094,-66.24299621582031 34.87200164794922,-84.38999938964844 21.125999450683594,-60.849998474121094 C-1.8040000200271606,-21.613000869750977 10.597000122070312,109.05500030517578 10.597000122070312,109.05500030517578 C10.597000122070312,109.05500030517578 -74.86199951171875,64.88500213623047 -74.86199951171875,64.88500213623047 C-72.24500274658203,-10.28600025177002 -42.845001220703125,-63.60200119018555 -14.253000259399414,-89.01899719238281 C0.8009999990463257,-102.4020004272461 14.876999855041504,-108.03199768066406 27.20400047302246,-109.00900268554688 C27.20400047302246,-109.00900268554688 27.264999389648438,-109.00900268554688 27.264999389648438,-109.00900268554688 C63.43899917602539,-111.29000091552734 74.86199951171875,-28.040000915527344 74.86199951171875,-28.040000915527344z"></path></g></g><g style="display: block;" transform="matrix(0.9399999976158142,0,0,0.9399999976158142,15.360000610351562,15.360000610351562)" opacity="1"><g opacity="1" transform="matrix(1,0,0,1,373.989013671875,297.7380065917969)"><path fill="url(#__lottie_element_78)" fill-opacity="1" d=" M-105.31999969482422,-26.763999938964844 C-81.10399627685547,-58.715999603271484 -21.07699966430664,-114.625 45.97999954223633,-93.98400115966797 C92.98500061035156,-79.51499938964844 131.9980010986328,-37.15700149536133 109.97000122070312,34.763999938964844 C105.45600128173828,49.50199890136719 98.69300079345703,51.78799819946289 97.71900177001953,31.722000122070312 C94.7699966430664,-29.020999908447266 60.2859992980957,-46.94499969482422 38,-45.12099838256836 C-25.27199935913086,-39.94300079345703 -23.427000045776367,69.33899688720703 -54,83.89199829101562 C-103.29100036621094,107.3550033569336 -114.47599792480469,95.39700317382812 -114.47599792480469,95.39700317382812 C-114.47599792480469,95.39700317382812 -122.33200073242188,-4.316999912261963 -105.31999969482422,-26.763999938964844z"></path></g><g opacity="0.4" transform="matrix(1,0,0,1,364.8559875488281,314.5450134277344)"><path fill="url(#__lottie_element_79)" fill-opacity="1" d=" M106.78900146484375,13.770999908447266 C106.78900146484375,13.770999908447266 106.78900146484375,13.770999908447266 106.78900146484375,13.770999908447266 C103.47200012207031,-46.02399826049805 69.34500122070312,-62.62799835205078 47.13100051879883,-61.92599868774414 C-6.877999782562256,-60.220001220703125 -6.603000164031982,26.399999618530273 -33.75199890136719,63.98500061035156 C-41.270999908447266,74.38999938964844 -66.6969985961914,81.22100067138672 -72.87899780273438,84.7490005493164 C-72.87899780273438,84.7490005493164 -107.98899841308594,60.2859992980957 -107.98899841308594,60.2859992980957 C-111.9800033569336,29.71500015258789 -100.55699920654297,-9.51099967956543 -88.06700134277344,-25.992000579833984 C-85.80500030517578,31.416000366210938 -59.191001892089844,-8.805999755859375 -46.02199935913086,-23.961000442504883 C-12.838000297546387,-62.152000427246094 -0.38100001215934753,-77.73500061035156 38.83300018310547,-84.08300018310547 C83.9520034790039,-91.38600158691406 117.51100158691406,-37.33100128173828 106.78900146484375,13.770999908447266z"></path></g><g opacity="0.4" transform="matrix(1,0,0,1,371.5429992675781,314.64300537109375)"><path stroke="url(#__lottie_element_80)" stroke-linecap="round" stroke-linejoin="round" fill-opacity="0" stroke-opacity="1" stroke-width="8" d=" M-51.55400085449219,62.516998291015625 C-21.52199935913086,28.079999923706055 -18.98200035095215,-78.00499725341797 51.55400085449219,-60.60300064086914"></path></g><g opacity="0.3" transform="matrix(1,0,0,1,379.0799865722656,267.92498779296875)"><path stroke="url(#__lottie_element_81)" stroke-linecap="round" stroke-linejoin="round" fill-opacity="0" stroke-opacity="1" stroke-width="8" d=" M-105.69000244140625,9.989999771118164 C-105.69000244140625,9.989999771118164 -62.154998779296875,-51.23400115966797 -2.4189999103546143,-59.595001220703125 C41.86600112915039,-65.79299926757812 118.31900024414062,-37.76499938964844 103.90899658203125,60.4119987487793"></path></g><g opacity="1" transform="matrix(1,0,0,1,374.7869873046875,296.2139892578125)"><path stroke="url(#__lottie_element_82)" stroke-linecap="round" stroke-linejoin="round" fill-opacity="0" stroke-opacity="1" stroke-width="8" d=" M109.16899871826172,36.29199981689453 C104.66200256347656,51.025001525878906 97.89099884033203,53.310001373291016 96.9219970703125,33.249000549316406 C93.9729995727539,-27.493999481201172 59.41699981689453,-46.14799880981445 37.20100021362305,-43.595001220703125 C-29.327999114990234,-35.95000076293945 -24.225000381469727,78.7490005493164 -54.79800033569336,85.41699981689453 C-108.14299774169922,97.052001953125 -115.2770004272461,96.91899871826172 -115.2770004272461,96.91899871826172 C-115.2770004272461,96.91899871826172 -115.35099792480469,96.45500183105469 -115.48799896240234,95.59200286865234 C-109.24299621582031,91.67500305175781 -101.00700378417969,86.38600158691406 -101.00700378417969,86.38600158691406 C-90.51799774169922,37.19599914550781 -100.28399658203125,-13.529999732971191 -106.11799621582031,-25.239999771118164 C-81.89700317382812,-57.191001892089844 -21.878000259399414,-113.0999984741211 45.18299865722656,-92.45899963378906 C92.18299865722656,-77.98999786376953 131.1999969482422,-35.63399887084961 109.16899871826172,36.29199981689453z"></path></g><g opacity="1" transform="matrix(1,0,0,1,365.5039978027344,322.76300048828125)"><path stroke-linecap="round" stroke-linejoin="round" fill-opacity="0" stroke="rgb(234,110,61)" stroke-opacity="1" stroke-width="8" d=" M106.20500183105469,6.699999809265137 C103.25599670410156,-54.042999267578125 68.69999694824219,-72.6969985961914 46.48400115966797,-70.14399719238281 C-20.045000076293945,-62.499000549316406 -14.942000389099121,52.20000076293945 -45.51499938964844,58.86800003051758 C-98.86000061035156,70.50299835205078 -105.99400329589844,70.37000274658203 -105.99400329589844,70.37000274658203 C-105.99400329589844,70.37000274658203 -106.06800079345703,69.90599822998047 -106.20500183105469,69.04299926757812 C-99.95999908447266,65.1259994506836 -91.7239990234375,59.83700180053711 -91.7239990234375,59.83700180053711"></path></g><g opacity="0.1" transform="matrix(1,0,0,1,367.6510009765625,277.9309997558594)"><path stroke="url(#__lottie_element_83)" stroke-linecap="round" stroke-linejoin="round" fill-opacity="0" stroke-opacity="1" stroke-dasharray=" 3 20" stroke-dashoffset="20" stroke-width="6" d=" M-64.75599670410156,43.52399826049805 C-64.75599670410156,43.52399826049805 -0.46799999475479126,-69.60099792480469 64.75599670410156,-37.92900085449219"></path></g></g><g style="display: block;" transform="matrix(0.9399999976158142,0,0,0.9399999976158142,15.360000610351562,15.360000610351562)" opacity="1"><g opacity="1" transform="matrix(1,0,0,1,120.66799926757812,305.0589904785156)"><path fill="url(#__lottie_element_22)" fill-opacity="1" d=" M-96.80899810791016,57.340999603271484 C-100.10600280761719,57.33399963378906 -105.94400024414062,8.699999809265137 -91,-24.05699920654297 C-65.5780029296875,-79.77999877929688 24.288999557495117,-109.85099792480469 76.42900085449219,-30.798999786376953 C131.6300048828125,52.89400100708008 78.28399658203125,81.88400268554688 58.81700134277344,78.6449966430664 C39.349998474121094,75.40599822998047 10.791000366210938,8.956999778747559 -0.7960000038146973,-13.189000129699707 C-15.513999938964844,-41.31999969482422 -57.09199905395508,-27.062000274658203 -73.2249984741211,1.7740000486373901 C-94.04499816894531,38.98699951171875 -87.18099975585938,57.36199951171875 -96.80899810791016,57.340999603271484z"></path></g><g opacity="0.4" transform="matrix(1,0,0,1,116.6050033569336,319.0429992675781)"><path fill="url(#__lottie_element_23)" fill-opacity="1" d=" M95.13700103759766,49.57500076293945 C85.56400299072266,61.590999603271484 71.15699768066406,66.04499816894531 62.880001068115234,64.66500091552734 C43.40800094604492,61.422000885009766 14.848999977111816,-5.0289998054504395 3.265000104904175,-27.174999237060547 C-11.446999549865723,-55.303001403808594 -53.034000396728516,-41.04499816894531 -69.16699981689453,-12.211000442504883 C-89.98699951171875,25.0049991607666 -89.58699798583984,43.361000061035156 -89.58699798583984,43.361000061035156 C-89.58699798583984,43.361000061035156 -87.03800201416016,-32.56700134277344 -41.060001373291016,-55.61899948120117 C4.928999900817871,-78.6709976196289 33.15999984741211,-54.70199966430664 50.41999816894531,-28.458999633789062 C65.3949966430664,-5.701000213623047 87.41799926757812,38.29600143432617 95.13700103759766,49.57500076293945z"></path></g><g opacity="0.3" transform="matrix(1,0,0,1,130.66400146484375,314.572998046875)"><path stroke="url(#__lottie_element_24)" stroke-linecap="round" stroke-linejoin="round" fill-opacity="0" stroke-opacity="1" stroke-width="8" d=" M-39.21099853515625,-37.81100082397461 C-39.21099853515625,-37.81100082397461 -19.591999053955078,-58.46900177001953 -4.800000190734863,-28.43600082397461 C9.991999626159668,1.597000002861023 20.604000091552734,30.277999877929688 39.21099853515625,44.737998962402344"></path></g><g opacity="0.3" transform="matrix(1,0,0,1,115.00199890136719,290.5830078125)"><path stroke="url(#__lottie_element_25)" stroke-linecap="round" stroke-linejoin="round" fill-opacity="0" stroke-opacity="1" stroke-width="8" d=" M-94.51599884033203,56.959999084472656 C-94.51599884033203,56.959999084472656 -91.625,-6.142000198364258 -57.36399841308594,-34.152000427246094 C-23.101999282836914,-62.1619987487793 48.9370002746582,-78.8740005493164 94.51599884033203,5.067999839782715"></path></g><g opacity="0.1" transform="matrix(1,0,0,1,189.27099609375,290.1090087890625)"><path stroke="url(#__lottie_element_26)" stroke-linecap="round" stroke-linejoin="round" fill-opacity="0" stroke-opacity="1" stroke-dasharray=" 3 20 3 20" stroke-dashoffset="0" stroke-width="6" d=" M-118.43099975585938,-22.506999969482422 C-118.43099975585938,-22.506999969482422 -41.270999908447266,-74.10900115966797 7.431000232696533,71.43699645996094"></path></g><g opacity="1" transform="matrix(1,0,0,1,120.66799926757812,305.0589904785156)"><path stroke="url(#__lottie_element_27)" stroke-linecap="round" stroke-linejoin="round" fill-opacity="0" stroke-opacity="1" stroke-width="8" d=" M-96.80899810791016,57.340999603271484 C-100.10600280761719,57.33399963378906 -105.94400024414062,8.699999809265137 -91,-24.05699920654297 C-65.5780029296875,-79.77999877929688 24.288999557495117,-109.85099792480469 76.42900085449219,-30.798999786376953 C131.6300048828125,52.89400100708008 78.28399658203125,81.88400268554688 58.81700134277344,78.6449966430664 C39.349998474121094,75.40599822998047 10.791000366210938,8.956999778747559 -0.7960000038146973,-13.189000129699707 C-15.513999938964844,-41.31999969482422 -57.09199905395508,-27.062000274658203 -73.2249984741211,1.7740000486373901 C-94.04499816894531,38.98699951171875 -87.18099975585938,57.36199951171875 -96.80899810791016,57.340999603271484z"></path></g></g><g style="display: none;"><g><path stroke="url(#__lottie_element_99)" stroke-linecap="butt" stroke-linejoin="miter" fill-opacity="0" stroke-miterlimit="4"></path></g><g><path></path></g><g><path stroke-linecap="round" stroke-linejoin="round" fill-opacity="0"></path></g><g><path stroke-linecap="round" stroke-linejoin="round" fill-opacity="0"></path></g><g><path stroke-linecap="round" stroke-linejoin="round" fill-opacity="0"></path></g></g><g style="display: none;"><g><path fill="url(#__lottie_element_94)"></path></g><g><path stroke="url(#__lottie_element_95)" stroke-linecap="round" stroke-linejoin="round" fill-opacity="0"></path></g></g><g style="display: block;" transform="matrix(0.9399999976158142,0,0,0.9399999976158142,15.360000610351562,36.97999954223633)" opacity="1"><g opacity="1" transform="matrix(1,0,0,1,470.8479919433594,335.4939880371094)"><path stroke-linecap="round" stroke-linejoin="round" fill-opacity="0" stroke="rgb(163,183,211)" stroke-opacity="1" stroke-width="6" d=" M3.9519999027252197,-12.230999946594238 C3.9519999027252197,-12.230999946594238 4.870999813079834,3.319999933242798 -3.9800000190734863,12.230999946594238"></path></g><g opacity="1" transform="matrix(1,0,0,1,0,0)"><g opacity="1" transform="matrix(1,0,0,1,465.6759948730469,360.0299987792969)"><path fill="url(#__lottie_element_88)" fill-opacity="1" d=" M1.1929999589920044,-12.305999755859375 C1.1929999589920044,-12.305999755859375 -4.63700008392334,-26.148000717163086 -17.20400047302246,-23.062000274658203 C-32.12200164794922,-19.39900016784668 -27.052000045776367,6.130000114440918 -10.826000213623047,21.295000076293945 C-8.437000274658203,23.527000427246094 -4.942999839782715,24.121999740600586 -1.9299999475479126,22.85300064086914 C8.138999938964844,18.61400032043457 30.719999313354492,5.72599983215332 25.236000061035156,-8.07699966430664 C19.39299964904785,-22.78499984741211 1.1929999589920044,-12.305999755859375 1.1929999589920044,-12.305999755859375z"></path></g><g opacity="0.5" transform="matrix(1,0,0,1,464.87701416015625,362.822998046875)"><path stroke="url(#__lottie_element_89)" stroke-linecap="round" stroke-linejoin="round" fill-opacity="0" stroke-opacity="1" stroke-width="8" d=" M1.0499999523162842,-10.836000442504883 C1.0499999523162842,-10.836000442504883 -4.083000183105469,-23.02400016784668 -15.14900016784668,-20.30699920654297 C-28.28499984741211,-17.082000732421875 -23.820999145507812,5.3979997634887695 -9.532999992370605,18.75200080871582 C-7.429999828338623,20.718000411987305 -4.353000164031982,21.240999221801758 -1.7000000476837158,20.124000549316406 C7.166999816894531,16.391000747680664 27.049999237060547,5.043000221252441 22.22100067138672,-7.111999988555908 C17.076000213623047,-20.062999725341797 1.0499999523162842,-10.836000442504883 1.0499999523162842,-10.836000442504883z"></path></g><g opacity="1" transform="matrix(1,0,0,1,465.6759948730469,360.0299987792969)"><path stroke="url(#__lottie_element_90)" stroke-linecap="round" stroke-linejoin="round" fill-opacity="0" stroke-opacity="1" stroke-width="8" d=" M1.1929999589920044,-12.305999755859375 C1.1929999589920044,-12.305999755859375 -4.63700008392334,-26.148000717163086 -17.20400047302246,-23.062000274658203 C-32.12200164794922,-19.39900016784668 -27.052000045776367,6.130000114440918 -10.826000213623047,21.295000076293945 C-8.437000274658203,23.527000427246094 -4.942999839782715,24.121999740600586 -1.9299999475479126,22.85300064086914 C8.138999938964844,18.61400032043457 30.719999313354492,5.72599983215332 25.236000061035156,-8.07699966430664 C19.39299964904785,-22.78499984741211 1.1929999589920044,-12.305999755859375 1.1929999589920044,-12.305999755859375z"></path></g></g></g><g style="display: block;" transform="matrix(0.9399999976158142,0,0,0.9399999976158142,11.539844512939453,41.979862213134766)" opacity="1"><g opacity="1" transform="matrix(1,0,0,1,336.5450134277344,146.56500244140625)"><path stroke-linecap="round" stroke-linejoin="round" fill-opacity="0" stroke="rgb(163,183,211)" stroke-opacity="1" stroke-width="6" d=" M0.6959999799728394,-8.180000305175781 C0.6959999799728394,-8.180000305175781 2.859999895095825,1.1390000581741333 -1.2630000114440918,8.180000305175781"></path></g><g opacity="1" transform="matrix(1,0,0,1,0,0)"><g opacity="1" transform="matrix(1,0,0,1,329.5,178.4759979248047)"><path fill="url(#__lottie_element_71)" fill-opacity="1" d=" M-8.100000381469727,-15.807000160217285 C-8.100000381469727,-15.807000160217285 -0.6460000276565552,-24.641000747680664 5.650000095367432,-23.000999450683594 C11.946000099182129,-21.361000061035156 13.052000045776367,-10.284000396728516 13.052000045776367,-10.284000396728516 C13.052000045776367,-10.284000396728516 25.285999298095703,-7.313000202178955 25.069000244140625,-0.31299999356269836 C24.898000717163086,5.197999954223633 15.050000190734863,9.399999618530273 15.050000190734863,9.399999618530273 C15.050000190734863,9.399999618530273 15.5649995803833,21.28499984741211 9.659000396728516,22.9950008392334 C3.322999954223633,24.82900047302246 -5.139999866485596,13.951000213623047 -5.139999866485596,13.951000213623047 C-5.139999866485596,13.951000213623047 -15.72700023651123,18.948999404907227 -20.875,15.788999557495117 C-26.740999221801758,12.187999725341797 -21.458999633789062,0.753000020980835 -21.458999633789062,0.753000020980835 C-21.458999633789062,0.753000020980835 -27.231000900268555,-7.730999946594238 -24.184999465942383,-13.402000427246094 C-20.775999069213867,-19.749000549316406 -8.100000381469727,-15.807000160217285 -8.100000381469727,-15.807000160217285z"></path></g><g opacity="0.5" transform="matrix(1,0,0,1,328.39599609375,180.2449951171875)"><path stroke="url(#__lottie_element_72)" stroke-linecap="round" stroke-linejoin="round" fill-opacity="0" stroke-opacity="1" stroke-width="8" d=" M-6.309000015258789,-11.861000061035156 C-6.309000015258789,-11.861000061035156 -0.11699999868869781,-19.808000564575195 4.941999912261963,-18.489999771118164 C10.00100040435791,-17.172000885009766 10.687999725341797,-7.422999858856201 10.687999725341797,-7.422999858856201 C10.687999725341797,-7.422999858856201 20.29599952697754,-5.985000133514404 20.121999740600586,-0.36000001430511475 C19.985000610351562,4.067999839782715 12.494999885559082,7.545000076293945 12.494999885559082,7.545000076293945 C12.494999885559082,7.545000076293945 12.909000396728516,17.09600067138672 8.163000106811523,18.469999313354492 C3.072000026702881,19.944000244140625 -3.7279999256134033,11.20300006866455 -3.7279999256134033,11.20300006866455 C-3.7279999256134033,11.20300006866455 -12.237000465393066,15.218000411987305 -16.37299919128418,12.678999900817871 C-21.086999893188477,9.78499984741211 -16.840999603271484,0.597000002861023 -16.840999603271484,0.597000002861023 C-16.840999603271484,0.597000002861023 -21.90399932861328,-6.321000099182129 -19.45599937438965,-10.878000259399414 C-16.716999053955078,-15.977999687194824 -6.309000015258789,-11.861000061035156 -6.309000015258789,-11.861000061035156z"></path></g><g opacity="1" transform="matrix(1,0,0,1,329.5,178.4759979248047)"><path stroke="url(#__lottie_element_73)" stroke-linecap="round" stroke-linejoin="round" fill-opacity="0" stroke-opacity="1" stroke-width="8" d=" M-8.100000381469727,-15.807000160217285 C-8.100000381469727,-15.807000160217285 -0.6460000276565552,-24.641000747680664 5.650000095367432,-23.000999450683594 C11.946000099182129,-21.361000061035156 13.052000045776367,-10.284000396728516 13.052000045776367,-10.284000396728516 C13.052000045776367,-10.284000396728516 25.285999298095703,-7.313000202178955 25.069000244140625,-0.31299999356269836 C24.898000717163086,5.197999954223633 15.050000190734863,9.399999618530273 15.050000190734863,9.399999618530273 C15.050000190734863,9.399999618530273 15.5649995803833,21.28499984741211 9.659000396728516,22.9950008392334 C3.322999954223633,24.82900047302246 -5.139999866485596,13.951000213623047 -5.139999866485596,13.951000213623047 C-5.139999866485596,13.951000213623047 -15.72700023651123,18.948999404907227 -20.875,15.788999557495117 C-26.740999221801758,12.187999725341797 -21.458999633789062,0.753000020980835 -21.458999633789062,0.753000020980835 C-21.458999633789062,0.753000020980835 -27.231000900268555,-7.730999946594238 -24.184999465942383,-13.402000427246094 C-20.775999069213867,-19.749000549316406 -8.100000381469727,-15.807000160217285 -8.100000381469727,-15.807000160217285z"></path></g></g></g><g style="display: block;" transform="matrix(0.9399999976158142,0,0,0.9399999976158142,15.360000610351562,15.360000610351562)" opacity="1"><g opacity="1" transform="matrix(1,0,0,1,179.48500061035156,295.5159912109375)"><path fill="url(#__lottie_element_58)" fill-opacity="1" d=" M94.2959976196289,87.08399963378906 C104.78600311279297,37.9010009765625 95.01200103759766,-12.826000213623047 89.18499755859375,-24.541000366210938 C82.07499694824219,-38.83399963378906 7.874000072479248,-115.16300201416016 -51.26900100708008,-101.44000244140625 C-105.00599670410156,-88.97200012207031 -90.0469970703125,34.770999908447266 -79.31999969482422,41.891998291015625 C-70.16100311279297,47.97200012207031 -68.79100036621094,-41.99700164794922 -47.722999572753906,-51.262001037597656 C-23.540000915527344,-61.89799880981445 -15.723999977111816,41.297000885009766 -25.8439998626709,83.83499908447266 C-25.8439998626709,83.83499908447266 -26.83300018310547,100.56999969482422 30.974000930786133,102.80699920654297 C88.78099822998047,105.04399871826172 94.2959976196289,87.08399963378906 94.2959976196289,87.08399963378906z"></path></g><g opacity="0.4" transform="matrix(1,0,0,1,155.30599975585938,312.489013671875)"><path stroke="url(#__lottie_element_59)" stroke-linecap="round" stroke-linejoin="round" fill-opacity="0" stroke-opacity="1" stroke-width="8" d=" M-11.090999603271484,-62.4739990234375 C-11.090999603271484,-62.4739990234375 19.513999938964844,-52.89099884033203 8.826000213623047,62.4739990234375"></path></g><g opacity="0.5" transform="matrix(1,0,0,1,184.1219940185547,256.9909973144531)"><path stroke="url(#__lottie_element_60)" stroke-linecap="round" stroke-linejoin="round" fill-opacity="0" stroke-opacity="1" stroke-width="8" d=" M-92.66799926757812,-6.2129998207092285 C-89.6969985961914,-27.827999114990234 -76.93099975585938,-68.28700256347656 -26.07699966430664,-54.9379997253418 C24.777000427246094,-41.5890007019043 88.26899719238281,9.362000465393066 92.66799926757812,57.582000732421875"></path></g><g opacity="1" transform="matrix(1,0,0,1,184.08799743652344,295.4750061035156)"><path stroke="url(#__lottie_element_61)" stroke-linecap="round" stroke-linejoin="round" fill-opacity="0" stroke-opacity="1" stroke-width="8" d=" M89.69300079345703,87.125 C100.18299865722656,37.94200134277344 90.40899658203125,-12.78499984741211 84.58200073242188,-24.5 C77.47200012207031,-38.792999267578125 3.2709999084472656,-115.12200164794922 -55.87200164794922,-101.39900207519531 C-109.60900115966797,-88.93099975585938 -94.6500015258789,34.8120002746582 -83.9229965209961,41.93299865722656 C-74.76399993896484,48.01300048828125 -73.39399719238281,-41.95500183105469 -52.32600021362305,-51.220001220703125 C-28.14299964904785,-61.85599899291992 -20.32699966430664,41.3380012512207 -30.44700050354004,83.8759994506836 C-30.44700050354004,83.8759994506836 -31.43600082397461,100.61199951171875 26.371000289916992,102.8489990234375 C84.1780014038086,105.08599853515625 89.69300079345703,87.125 89.69300079345703,87.125z"></path></g><g opacity="1" transform="matrix(1,0,0,1,190.56100463867188,295.64599609375)"><path fill="url(#__lottie_element_62)" fill-opacity="1" d=" M83.21900177001953,86.9540023803711 C83.21900177001953,86.9540023803711 77.69999694824219,104.91200256347656 19.895999908447266,102.67900085449219 C15.093999862670898,102.48899841308594 10.692000389099121,102.20500183105469 6.669000148773193,101.82599639892578 C6.447999954223633,100.12000274658203 0.40400001406669617,90.08100128173828 0.3449999988079071,88.30000305175781 C-1.6130000352859497,29.773000717163086 -9.88599967956543,-5.081999778747559 -19.735000610351562,-25.520999908447266 C-34.60900115966797,-56.388999938964844 -53.07400131225586,-54.380001068115234 -58.801998138427734,-51.38800048828125 C-77.26300048828125,-43.26900100708008 -80.59100341796875,26.834999084472656 -87.30999755859375,39.94599914550781 C-91.38600158691406,-65.17400360107422 -72.48200225830078,-104.2959976196289 -40.48899841308594,-102.83200073242188 C-40.48899841308594,-102.83200073242188 -40.47800064086914,-102.84300231933594 -40.47800064086914,-102.84300231933594 C13.26099967956543,-98.22000122070312 71.84200286865234,-37.26599884033203 78.10800170898438,-24.67099952697754 C83.94200134277344,-12.961000442504883 93.70800018310547,37.763999938964844 83.21900177001953,86.9540023803711z"></path></g><g opacity="0.3" transform="matrix(1,0,0,1,190.52000427246094,310.50201416015625)"><path fill="url(#__lottie_element_63)" fill-opacity="1" d=" M80.46800231933594,87.5479965209961 C73.44400024414062,88.28500366210938 31.03700065612793,88.00499725341797 19.937000274658203,87.572998046875 C15.135000228881836,87.38400268554688 0.4449999928474426,74.97799682617188 0.3919999897480011,73.197998046875 C-4.526000022888184,-73.7300033569336 -49.2400016784668,-71.46600341796875 -58.7599983215332,-66.49500274658203 C-77.22100067138672,-58.375999450683594 -80.54900360107422,11.729000091552734 -87.26799774169922,24.84000015258789 C-87.63700103759766,15.331000328063965 -88.25800323486328,-14.998000144958496 -87.33100128173828,-24.75 C-85.35099792480469,-45.970001220703125 -77.5780029296875,-84.80500030517578 -43.59600067138672,-88.28299713134766 C-10.383000373840332,-91.68299865722656 17.77400016784668,-55.21200180053711 37.494998931884766,-15.10099983215332 C54.52299880981445,19.531999588012695 89.02899932861328,27.687999725341797 80.2979965209961,-34.19599914550781 C79.5979995727539,-39.15599822998047 97.6760025024414,23.545000076293945 80.46800231933594,87.5479965209961z"></path></g><g opacity="0.1" transform="matrix(1,0,0,1,189.27099609375,290.1090087890625)"><path stroke="url(#__lottie_element_64)" stroke-linecap="round" stroke-linejoin="round" fill-opacity="0" stroke-opacity="1" stroke-dasharray=" 3 20 3 20" stroke-dashoffset="0" stroke-width="6" d=" M-49.430999755859375,-63.00699996948242 C-49.430999755859375,-63.00699996948242 19.957000732421875,-83.13400268554688 49.430999755859375,63.9370002746582"></path></g><g opacity="1" transform="matrix(1,0,0,1,190.56100463867188,295.64599609375)"><path stroke="url(#__lottie_element_65)" stroke-linecap="round" stroke-linejoin="round" fill-opacity="0" stroke-opacity="1" stroke-width="8" d=" M83.21900177001953,86.9540023803711 C83.21900177001953,86.9540023803711 77.69999694824219,104.91200256347656 19.895999908447266,102.67900085449219 C15.093999862670898,102.48999786376953 10.692000389099121,102.20500183105469 6.669000148773193,101.82599639892578 C6.447999954223633,100.12000274658203 0.40400001406669617,90.08100128173828 0.3449999988079071,88.30000305175781 C-1.6130000352859497,29.773000717163086 -9.88599967956543,-5.081999778747559 -19.735000610351562,-25.520999908447266 C-34.60900115966797,-56.388999938964844 -53.07400131225586,-54.380001068115234 -58.801998138427734,-51.38800048828125 C-77.26300048828125,-43.26900100708008 -80.59100341796875,26.834999084472656 -87.30999755859375,39.94599914550781 C-91.38600158691406,-65.17400360107422 -72.48200225830078,-104.2959976196289 -40.48899841308594,-102.83200073242188 C-40.48899841308594,-102.83200073242188 -40.47800064086914,-102.84300231933594 -40.47800064086914,-102.84300231933594 C13.26099967956543,-98.22000122070312 71.84200286865234,-37.26599884033203 78.10800170898438,-24.67099952697754 C83.94200134277344,-12.961000442504883 93.70800018310547,37.763999938964844 83.21900177001953,86.9540023803711z"></path></g></g><g style="display: none;"><g><path fill="url(#__lottie_element_47)"></path></g><g><path fill="url(#__lottie_element_48)"></path></g><g><path stroke="url(#__lottie_element_49)" stroke-linecap="round" stroke-linejoin="round" fill-opacity="0"></path></g><g><path fill="url(#__lottie_element_50)"></path></g><g><path stroke="url(#__lottie_element_51)" stroke-linecap="round" stroke-linejoin="round" fill-opacity="0"></path></g><g><path fill="url(#__lottie_element_52)"></path></g><g><path stroke="url(#__lottie_element_53)" stroke-linecap="round" stroke-linejoin="round" fill-opacity="0"></path></g><g><path stroke="url(#__lottie_element_54)" stroke-linecap="round" stroke-linejoin="round" fill-opacity="0"></path></g></g><g style="display: block;" transform="matrix(0.9399999976158142,0,0,0.9399999976158142,15.360000610351562,15.360000610351562)" opacity="1"><g opacity="1" transform="matrix(1,0,0,1,245.55099487304688,410.69500732421875)"><path fill="rgb(204,114,23)" fill-opacity="1" d=" M92.19400024414062,6.376999855041504 C92.08300018310547,9.763999938964844 63.02399826049805,13.315999984741211 8.355999946594238,13.142999649047852 C-48.21900177001953,12.963000297546387 -92.96700286865234,11.35200023651123 -92.18599700927734,4.1020002365112305 C-91.40499877929688,-3.1480000019073486 -16.89900016784668,-13.387999534606934 4.7829999923706055,-13.144000053405762 C26.464000701904297,-12.899999618530273 92.54199981689453,-4.302000045776367 92.19400024414062,6.376999855041504z"></path><path stroke-linecap="round" stroke-linejoin="round" fill-opacity="0" stroke="rgb(153,71,31)" stroke-opacity="1" stroke-width="8" d=" M92.19400024414062,6.376999855041504 C92.08300018310547,9.763999938964844 63.02399826049805,13.315999984741211 8.355999946594238,13.142999649047852 C-48.21900177001953,12.963000297546387 -92.96700286865234,11.35200023651123 -92.18599700927734,4.1020002365112305 C-91.40499877929688,-3.1480000019073486 -16.89900016784668,-13.387999534606934 4.7829999923706055,-13.144000053405762 C26.464000701904297,-12.899999618530273 92.54199981689453,-4.302000045776367 92.19400024414062,6.376999855041504z"></path></g><g opacity="1" transform="matrix(1,0,0,1,245.33900451660156,377.7149963378906)"><path fill="url(#__lottie_element_38)" fill-opacity="1" d=" M106.85900115966797,-7.043000221252441 C106.85900115966797,-7.043000221252441 98.91000366210938,4.039999961853027 92.40599822998047,39.356998443603516 C92.40599822998047,39.356998443603516 62.00600051879883,28.892000198364258 3.0739998817443848,29.392000198364258 C-55.858001708984375,29.892000198364258 -91.9739990234375,37.082000732421875 -91.9739990234375,37.082000732421875 C-91.9739990234375,37.082000732421875 -93.13200378417969,9.838000297546387 -106.85900115966797,-16.02400016784668 C-106.85900115966797,-16.02400016784668 -106.8489990234375,-16.02199935913086 -106.8489990234375,-16.02199935913086 C-106.8489990234375,-16.02199935913086 -106.83399963378906,-16.01799964904785 -106.83399963378906,-16.01799964904785 C-106.83399963378906,-16.01799964904785 -106.80000305175781,-16.01099967956543 -106.77300262451172,-16.0049991607666 C-106.70899963378906,-15.989999771118164 -106.61000061035156,-15.96500015258789 -106.47799682617188,-15.928999900817871 C-106.20500183105469,-15.854000091552734 -105.79100036621094,-15.729000091552734 -105.25,-15.534000396728516 C-104.03600311279297,-15.095000267028809 -102.18800354003906,-14.300000190734863 -99.88300323486328,-12.918000221252441 C-95.31900024414062,-10.180999755859375 -88.96800231933594,-5.140999794006348 -82.21900177001953,4 C-82.21900177001953,4 -80.13300323486328,-8.635000228881836 -81.28600311279297,-25.618999481201172 C-81.28600311279297,-25.618999481201172 -60.35200119018555,-20.572999954223633 -47.316001892089844,2.9170000553131104 C-47.316001892089844,2.9170000553131104 -36.91699981689453,-11.836999893188477 -30.993999481201172,-32.87099838256836 C-30.993999481201172,-32.87099838256836 -14.347000122070312,-21.19300079345703 0.2160000056028366,1.3270000219345093 C0.2160000056028366,1.3270000219345093 12.17300033569336,-13.649999618530273 25.885000228881836,-37.20199966430664 C25.885000228881836,-37.20199966430664 40.888999938964844,-23.054000854492188 51.08000183105469,1.9930000305175781 C51.08000183105469,1.9930000305175781 63.970001220703125,-15.267000198364258 77.79299926757812,-20.222999572753906 C77.79299926757812,-20.222999572753906 79.7300033569336,-5.035999774932861 82.2239990234375,9.15999984741211 C82.2239990234375,9.15999984741211 94.125,-3.811000108718872 106.85900115966797,-7.043000221252441z"></path></g><g opacity="0.4" transform="matrix(1,0,0,1,227.53599548339844,386.70098876953125)"><path fill="url(#__lottie_element_39)" fill-opacity="1" d=" M7.230999946594238,-21.76799964904785 C7.230999946594238,-21.76799964904785 -18.018999099731445,21.76799964904785 -18.018999099731445,21.76799964904785 C-18.018999099731445,21.76799964904785 -0.6140000224113464,21.76799964904785 -0.6140000224113464,21.76799964904785 C-0.6140000224113464,21.76799964904785 18.018999099731445,-7.6579999923706055 18.018999099731445,-7.6579999923706055 C18.018999099731445,-7.6579999923706055 7.230999946594238,-21.76799964904785 7.230999946594238,-21.76799964904785z"></path></g><g opacity="0.4" transform="matrix(1,0,0,1,269.2850036621094,377.7149963378906)"><path fill="url(#__lottie_element_40)" fill-opacity="1" d=" M9.579999923706055,-28.84000015258789 C9.579999923706055,-28.84000015258789 -23.871999740600586,28.84000015258789 -23.871999740600586,28.84000015258789 C-23.871999740600586,28.84000015258789 -0.8130000233650208,28.84000015258789 -0.8130000233650208,28.84000015258789 C-0.8130000233650208,28.84000015258789 23.871999740600586,-10.145999908447266 23.871999740600586,-10.145999908447266 C23.871999740600586,-10.145999908447266 9.579999923706055,-28.84000015258789 9.579999923706055,-28.84000015258789z"></path></g><g opacity="0.8" transform="matrix(1,0,0,1,153.85299682617188,389.7229919433594)"><path stroke="url(#__lottie_element_41)" stroke-linecap="round" stroke-linejoin="round" fill-opacity="0" stroke-opacity="1" stroke-width="8" d=" M-6.695000171661377,-23.844999313354492 C-6.695000171661377,-23.844999313354492 6.627999782562256,-5.879000186920166 6.695000171661377,23.844999313354492"></path></g><g opacity="0.8" transform="matrix(1,0,0,1,336.9259948730469,394.8599853515625)"><path stroke="url(#__lottie_element_42)" stroke-linecap="round" stroke-linejoin="round" fill-opacity="0" stroke-opacity="1" stroke-width="8" d=" M-6.1479997634887695,18.70800018310547 C-6.1479997634887695,18.70800018310547 -3.9230000972747803,0 6.1479997634887695,-18.70800018310547"></path></g><g opacity="1" transform="matrix(1,0,0,1,245.33900451660156,378.7919921875)"><path stroke="url(#__lottie_element_43)" stroke-linecap="round" stroke-linejoin="round" fill-opacity="0" stroke-opacity="1" stroke-width="8" d=" M106.85900115966797,-8.119999885559082 C106.85900115966797,-8.119999885559082 98.91000366210938,2.9619998931884766 92.40599822998047,38.27899932861328 C92.40599822998047,38.27899932861328 62.00600051879883,27.815000534057617 3.0739998817443848,28.315000534057617 C-55.858001708984375,28.815000534057617 -91.9739990234375,36.005001068115234 -91.9739990234375,36.005001068115234 C-91.9739990234375,36.005001068115234 -93.13200378417969,8.76099967956543 -106.85900115966797,-17.10099983215332 C-106.85900115966797,-17.10099983215332 -106.8489990234375,-17.099000930786133 -106.8489990234375,-17.099000930786133 C-106.8489990234375,-17.099000930786133 -106.83399963378906,-17.09600067138672 -106.83399963378906,-17.09600067138672 C-106.83399963378906,-17.09600067138672 -106.80000305175781,-17.08799934387207 -106.77300262451172,-17.082000732421875 C-106.70899963378906,-17.066999435424805 -106.61000061035156,-17.04199981689453 -106.47799682617188,-17.006000518798828 C-106.20500183105469,-16.930999755859375 -105.79100036621094,-16.805999755859375 -105.25,-16.611000061035156 C-104.03600311279297,-16.172000885009766 -102.18800354003906,-15.378000259399414 -99.88300323486328,-13.996000289916992 C-95.31900024414062,-11.258999824523926 -88.96800231933594,-6.2179999351501465 -82.21900177001953,2.9230000972747803 C-82.21900177001953,2.9230000972747803 -80.13300323486328,-9.711999893188477 -81.28600311279297,-26.695999145507812 C-81.28600311279297,-26.695999145507812 -60.35200119018555,-21.649999618530273 -47.316001892089844,1.840000033378601 C-47.316001892089844,1.840000033378601 -36.91699981689453,-12.913999557495117 -30.993999481201172,-33.948001861572266 C-30.993999481201172,-33.948001861572266 -14.347000122070312,-22.270000457763672 0.2160000056028366,0.25 C0.2160000056028366,0.25 12.17300033569336,-14.72700023651123 25.885000228881836,-38.27899932861328 C25.885000228881836,-38.27899932861328 40.888999938964844,-24.131999969482422 51.08000183105469,0.9150000214576721 C51.08000183105469,0.9150000214576721 63.970001220703125,-16.344999313354492 77.79299926757812,-21.301000595092773 C77.79299926757812,-21.301000595092773 79.7300033569336,-6.113999843597412 82.2239990234375,8.081999778747559 C82.2239990234375,8.081999778747559 94.125,-4.888000011444092 106.85900115966797,-8.119999885559082z"></path></g><g opacity="1" transform="matrix(1,0,0,1,245.55499267578125,412.08099365234375)"><path stroke-linecap="round" stroke-linejoin="round" fill-opacity="0" stroke="rgb(175,85,35)" stroke-opacity="1" stroke-width="8" d=" M92.19000244140625,4.991000175476074 C92.19000244140625,4.991000175476074 61.79100036621094,-5.4730000495910645 2.8589999675750732,-4.9730000495910645 C-56.073001861572266,-4.4730000495910645 -92.19000244140625,2.7160000801086426 -92.19000244140625,2.7160000801086426"></path></g></g><g style="display: block;" transform="matrix(0.9399999976158142,0,0,0.9399999976158142,15.540481567382812,30.400001525878906)" opacity="1"><g opacity="1" transform="matrix(1,0,0,1,29.791000366210938,357.41900634765625)"><path stroke-linecap="round" stroke-linejoin="round" fill-opacity="0" stroke="rgb(163,183,211)" stroke-opacity="1" stroke-width="6" d=" M0.2549999952316284,11.305000305175781 C0.2549999952316284,11.305000305175781 -2.1740000247955322,-0.6639999747276306 -2.678999900817871,-9.975000381469727"></path></g><g opacity="1" transform="matrix(1,0,0,1,0,0)"><g opacity="1" transform="matrix(1,0,0,1,30.34600067138672,379.31500244140625)"><path fill="url(#__lottie_element_32)" fill-opacity="1" d=" M-0.5860000252723694,-9 C-0.5860000252723694,-9 -7.98799991607666,-16.023000717163086 -14.965999603271484,-10.677000045776367 C-23.25,-4.329999923706055 -13.135000228881836,10.17199993133545 1.0959999561309814,15.184000015258789 C3.190999984741211,15.92199993133545 5.5269999504089355,15.33899974822998 7.056000232696533,13.727999687194824 C12.166000366210938,8.345000267028809 22.70199966430664,-5.829999923706055 15.526000022888184,-12.923999786376953 C7.88100004196167,-20.48200035095215 -0.5860000252723694,-9 -0.5860000252723694,-9z"></path></g><g opacity="0.5" transform="matrix(1,0,0,1,30.85300064086914,381.14898681640625)"><path stroke="url(#__lottie_element_33)" stroke-linecap="round" stroke-linejoin="round" fill-opacity="0" stroke-opacity="1" stroke-width="8" d=" M-0.515999972820282,-7.925000190734863 C-0.515999972820282,-7.925000190734863 -7.0329999923706055,-14.109999656677246 -13.178000450134277,-9.402000427246094 C-20.472000122070312,-3.812999963760376 -11.565999984741211,8.956999778747559 0.9649999737739563,13.371000289916992 C2.809999942779541,14.020999908447266 4.867000102996826,13.506999969482422 6.2129998207092285,12.08899974822998 C10.711999893188477,7.348999977111816 19.990999221801758,-5.133999824523926 13.67199993133545,-11.380999565124512 C6.940000057220459,-18.03700065612793 -0.515999972820282,-7.925000190734863 -0.515999972820282,-7.925000190734863z"></path></g><g opacity="1" transform="matrix(1,0,0,1,30.34600067138672,379.31500244140625)"><path stroke="url(#__lottie_element_34)" stroke-linecap="round" stroke-linejoin="round" fill-opacity="0" stroke-opacity="1" stroke-width="8" d=" M-0.5860000252723694,-9 C-0.5860000252723694,-9 -7.98799991607666,-16.023000717163086 -14.965999603271484,-10.677000045776367 C-23.25,-4.329999923706055 -13.135000228881836,10.17199993133545 1.0959999561309814,15.184000015258789 C3.190999984741211,15.92199993133545 5.5269999504089355,15.33899974822998 7.056000232696533,13.727999687194824 C12.166000366210938,8.345000267028809 22.70199966430664,-5.829999923706055 15.526000022888184,-12.923999786376953 C7.88100004196167,-20.48200035095215 -0.5860000252723694,-9 -0.5860000252723694,-9z"></path></g></g></g><g style="display: block;" transform="matrix(0.9399999976158142,0,0,0.9399999976158142,12.540000915527344,30.400001525878906)" opacity="1"><g opacity="1" transform="matrix(1,0,0,1,105.14299774169922,333.3550109863281)"><path stroke-linecap="round" stroke-linejoin="round" fill-opacity="0" stroke="rgb(163,183,211)" stroke-opacity="1" stroke-width="6" d=" M1.2000000476837158,11.699999809265137 C1.2000000476837158,11.699999809265137 -1.6799999475479126,0 -1.128999948501587,-11.699999809265137"></path></g><g opacity="1" transform="matrix(1,0,0,1,0,0)"><g opacity="1" transform="matrix(1,0,0,1,107.56300354003906,368.1919860839844)"><path fill="url(#__lottie_element_15)" fill-opacity="1" d=" M-11.697999954223633,-10.850000381469727 C-11.697999954223633,-10.850000381469727 -8.625,-21.993000030517578 -2.2200000286102295,-23.13800048828125 C4.184999942779541,-24.283000946044922 9.824000358581543,-14.685999870300293 9.824000358581543,-14.685999870300293 C9.824000358581543,-14.685999870300293 22.17799949645996,-17.107999801635742 24.910999298095703,-10.659000396728516 C27.062000274658203,-5.581999778747559 19.875999450683594,2.3550000190734863 19.875999450683594,2.3550000190734863 C19.875999450683594,2.3550000190734863 25.319000244140625,12.934000015258789 20.670000076293945,16.958999633789062 C15.682999610900879,21.277000427246094 3.444000005722046,14.937999725341797 3.444000005722046,14.937999725341797 C3.444000005722046,14.937999725341797 -4.079999923706055,23.908000946044922 -10.07800006866455,23.191999435424805 C-16.913000106811523,22.375999450683594 -16.900999069213867,9.779999732971191 -16.900999069213867,9.779999732971191 C-16.900999069213867,9.779999732971191 -25.69300079345703,4.489999771118164 -25.299999237060547,-1.934999942779541 C-24.860000610351562,-9.12600040435791 -11.697999954223633,-10.850000381469727 -11.697999954223633,-10.850000381469727z"></path></g><g opacity="0.5" transform="matrix(1,0,0,1,107.80000305175781,370.5469970703125)"><path stroke="url(#__lottie_element_16)" stroke-linecap="round" stroke-linejoin="round" fill-opacity="0" stroke-opacity="1" stroke-width="8" d=" M-8.583999633789062,-7.663000106811523 C-8.583999633789062,-7.663000106811523 -6.34499979019165,-17.218000411987305 -1.3320000171661377,-18.11400032043457 C3.680999994277954,-19.010000228881836 8.26200008392334,-10.666000366210938 8.26200008392334,-10.666000366210938 C8.26200008392334,-10.666000366210938 17.349000930786133,-13.310999870300293 19.488000869750977,-8.262999534606934 C21.172000885009766,-4.289000034332275 15.963000297546387,1.840000033378601 15.963000297546387,1.840000033378601 C15.963000297546387,1.840000033378601 20.222999572753906,10.121000289916992 16.583999633789062,13.270999908447266 C12.680999755859375,16.650999069213867 3.1010000705718994,11.689000129699707 3.1010000705718994,11.689000129699707 C3.1010000705718994,11.689000129699707 -2.7880001068115234,18.709999084472656 -7.482999801635742,18.149999618530273 C-12.833000183105469,17.51099967956543 -12.822999954223633,7.6519999504089355 -12.822999954223633,7.6519999504089355 C-12.822999954223633,7.6519999504089355 -20.121999740600586,3.5950000286102295 -19.81399917602539,-1.434000015258789 C-19.469999313354492,-7.061999797821045 -8.583999633789062,-7.663000106811523 -8.583999633789062,-7.663000106811523z"></path></g><g opacity="1" transform="matrix(1,0,0,1,107.56300354003906,368.1919860839844)"><path stroke="url(#__lottie_element_17)" stroke-linecap="round" stroke-linejoin="round" fill-opacity="0" stroke-opacity="1" stroke-width="8" d=" M-11.697999954223633,-10.850000381469727 C-11.697999954223633,-10.850000381469727 -8.625,-21.993000030517578 -2.2200000286102295,-23.13800048828125 C4.184999942779541,-24.283000946044922 9.824000358581543,-14.685999870300293 9.824000358581543,-14.685999870300293 C9.824000358581543,-14.685999870300293 22.17799949645996,-17.107999801635742 24.910999298095703,-10.659000396728516 C27.062000274658203,-5.581999778747559 19.875999450683594,2.3550000190734863 19.875999450683594,2.3550000190734863 C19.875999450683594,2.3550000190734863 25.319000244140625,12.934000015258789 20.670000076293945,16.958999633789062 C15.682999610900879,21.277000427246094 3.444000005722046,14.937999725341797 3.444000005722046,14.937999725341797 C3.444000005722046,14.937999725341797 -4.079999923706055,23.908000946044922 -10.07800006866455,23.191999435424805 C-16.913000106811523,22.375999450683594 -16.900999069213867,9.779999732971191 -16.900999069213867,9.779999732971191 C-16.900999069213867,9.779999732971191 -25.69300079345703,4.489999771118164 -25.299999237060547,-1.934999942779541 C-24.860000610351562,-9.12600040435791 -11.697999954223633,-10.850000381469727 -11.697999954223633,-10.850000381469727z"></path></g></g></g><g style="display: block;" transform="matrix(1,0,0,1,0,0)" opacity="1"><g opacity="1" transform="matrix(1,0,0,1,88.9209976196289,189.0229949951172)"><path fill="url(#__lottie_element_6)" fill-opacity="1" d=" M57.88800048828125,26.700000762939453 C69.15299987792969,13.829000473022461 61.39799880981445,-3.937999963760376 51.50199890136719,-7.2789998054504395 C38.88199996948242,-11.538999557495117 30.408000946044922,3.8519999980926514 30.408000946044922,3.8519999980926514 C30.408000946044922,3.8519999980926514 36.72700119018555,-41.470001220703125 7.564000129699707,-42.803001403808594 C-21.711000442504883,-44.14099884033203 -18.9060001373291,0.34599998593330383 -18.9060001373291,0.34599998593330383 C-18.9060001373291,0.34599998593330383 -28.503999710083008,-8.734000205993652 -40.15700149536133,-3.9079999923706055 C-53.433998107910156,1.590000033378601 -51.43199920654297,18.989999771118164 -51.43199920654297,18.989999771118164 C-51.43199920654297,18.989999771118164 -64.23699951171875,18.42799949645996 -63.41299819946289,30.209999084472656 C-62.29199981689453,46.231998443603516 38.35900115966797,49.013999938964844 57.88800048828125,26.700000762939453z"></path></g><g opacity="1" transform="matrix(1,0,0,1,88.9209976196289,189.0229949951172)"><path stroke="url(#__lottie_element_7)" stroke-linecap="round" stroke-linejoin="round" fill-opacity="0" stroke-opacity="1" stroke-width="8" d=" M57.88800048828125,26.700000762939453 C69.15299987792969,13.829000473022461 61.39799880981445,-3.937999963760376 51.50199890136719,-7.2789998054504395 C38.88199996948242,-11.538999557495117 30.408000946044922,3.8519999980926514 30.408000946044922,3.8519999980926514 C30.408000946044922,3.8519999980926514 36.72700119018555,-41.470001220703125 7.564000129699707,-42.803001403808594 C-21.711000442504883,-44.14099884033203 -18.9060001373291,0.34599998593330383 -18.9060001373291,0.34599998593330383 C-18.9060001373291,0.34599998593330383 -28.503999710083008,-8.734000205993652 -40.15700149536133,-3.9079999923706055 C-53.433998107910156,1.590000033378601 -51.43199920654297,18.989999771118164 -51.43199920654297,18.989999771118164 C-51.43199920654297,18.989999771118164 -64.23699951171875,18.42799949645996 -63.41299819946289,30.209999084472656 C-62.29199981689453,46.231998443603516 38.35900115966797,49.013999938964844 57.88800048828125,26.700000762939453z"></path></g></g></g></svg>