<svg xmlns="http://www.w3.org/2000/svg" xmlns:xlink="http://www.w3.org/1999/xlink" viewBox="0 0 512 512" width="512" height="512" style="width: 100%; height: 100%; transform: translate3d(0,0,0); content-visibility: visible;" preserveAspectRatio="xMidYMid meet"><defs><clipPath id="__lottie_element_2"><rect width="512" height="512" x="0" y="0"></rect></clipPath><linearGradient id="__lottie_element_8" spreadMethod="pad" gradientUnits="userSpaceOnUse"><stop></stop><stop></stop><stop></stop></linearGradient><linearGradient id="__lottie_element_9" spreadMethod="pad" gradientUnits="userSpaceOnUse"><stop></stop><stop></stop><stop></stop></linearGradient><radialGradient id="__lottie_element_10" spreadMethod="pad" gradientUnits="userSpaceOnUse"><stop></stop><stop></stop><stop></stop><stop></stop><stop></stop><stop></stop><stop></stop></radialGradient><linearGradient id="__lottie_element_11" spreadMethod="pad" gradientUnits="userSpaceOnUse"><stop></stop><stop></stop><stop></stop></linearGradient><linearGradient id="__lottie_element_12" spreadMethod="pad" gradientUnits="userSpaceOnUse"><stop></stop><stop></stop><stop></stop></linearGradient><radialGradient id="__lottie_element_13" spreadMethod="pad" gradientUnits="userSpaceOnUse"><stop></stop><stop></stop><stop></stop></radialGradient><mask id="__lottie_element_15"><path stroke="url(#__lottie_element_14)" stroke-linecap="round" stroke-linejoin="round"></path></mask><radialGradient id="__lottie_element_14" spreadMethod="pad" gradientUnits="userSpaceOnUse"><stop stop-color="rgb(255,255,255)"></stop><stop stop-color="rgb(255,255,255)"></stop><stop stop-color="rgb(255,255,255)"></stop><stop stop-color="rgb(255,255,255)"></stop><stop stop-color="rgb(255,255,255)"></stop></radialGradient><linearGradient id="__lottie_element_16" spreadMethod="pad" gradientUnits="userSpaceOnUse"><stop></stop><stop></stop><stop></stop></linearGradient><linearGradient id="__lottie_element_20" spreadMethod="pad" gradientUnits="userSpaceOnUse" x1="-56" y1="-126" x2="-40" y2="-3"><stop offset="0%" stop-color="rgb(248,64,52)"></stop><stop offset="50%" stop-color="rgb(198,39,127)"></stop><stop offset="100%" stop-color="rgb(148,14,202)"></stop></linearGradient><linearGradient id="__lottie_element_21" spreadMethod="pad" gradientUnits="userSpaceOnUse" x1="-55" y1="-134" x2="75" y2="115"><stop offset="0%" stop-color="rgb(172,228,66)"></stop><stop offset="50%" stop-color="rgb(142,201,57)"></stop><stop offset="100%" stop-color="rgb(112,175,47)"></stop></linearGradient><radialGradient id="__lottie_element_22" spreadMethod="pad" gradientUnits="userSpaceOnUse" cx="244" cy="-121" r="334.0928014788705" fx="243.11932264866613" fy="-117.28769274735407"><stop offset="0%" stop-color="rgb(255,255,255)" stop-opacity="0.800000011920929"></stop><stop offset="36%" stop-color="rgb(255,255,255)" stop-opacity="0.75"></stop><stop offset="72%" stop-color="rgb(255,255,255)" stop-opacity="0.699999988079071"></stop><stop offset="78%" stop-color="rgb(255,255,255)" stop-opacity="0.35499998927116394"></stop><stop offset="85%" stop-color="rgb(255,255,255)" stop-opacity="0.009999999776482582"></stop><stop offset="92%" stop-color="rgb(255,255,255)" stop-opacity="0.004999999888241291"></stop><stop offset="100%" stop-color="rgb(255,255,255)" stop-opacity="0"></stop></radialGradient><linearGradient id="__lottie_element_23" spreadMethod="pad" gradientUnits="userSpaceOnUse" x1="-113" y1="213" x2="4" y2="94"><stop offset="0%" stop-color="rgb(252,252,252)" stop-opacity="1"></stop><stop offset="50%" stop-color="rgb(252,252,252)" stop-opacity="0.5"></stop><stop offset="100%" stop-color="rgb(252,252,252)" stop-opacity="0"></stop></linearGradient><linearGradient id="__lottie_element_24" spreadMethod="pad" gradientUnits="userSpaceOnUse" x1="-186" y1="-7" x2="-65" y2="-21"><stop offset="0%" stop-color="rgb(252,252,252)" stop-opacity="1"></stop><stop offset="50%" stop-color="rgb(252,252,252)" stop-opacity="0.5"></stop><stop offset="100%" stop-color="rgb(252,252,252)" stop-opacity="0"></stop></linearGradient><linearGradient id="__lottie_element_25" spreadMethod="pad" gradientUnits="userSpaceOnUse" x1="-169.7969970703125" y1="40.0629997253418" x2="-96.85800170898438" y2="28.66900062561035"><stop offset="0%" stop-color="rgb(0,0,0)"></stop><stop offset="50%" stop-color="rgb(0,0,0)"></stop><stop offset="100%" stop-color="rgb(0,0,0)"></stop></linearGradient><mask id="__lottie_element_27"><path fill="url(#__lottie_element_26)" d=" M115.76100158691406,94.34100341796875 C83.52799987792969,65.83699798583984 47.729000091552734,38.29100036621094 22.91699981689453,3.825000047683716 C-0.29899999499320984,-28.424999237060547 -13.493000030517578,-170.76499938964844 -15.187999725341797,-191.8489990234375 C-52.82500076293945,-198.36000061035156 -90.29299926757812,-190.8990020751953 -123.53099822998047,-172.75999450683594 C-113.99199676513672,-138.90899658203125 -79.43699645996094,-14.730999946594238 -93.37200164794922,17.65399932861328 C-105.83200073242188,46.61199951171875 -84.9990005493164,85.83899688720703 -53.65299987792969,91.10099792480469 C-13.515999794006348,97.83899688720703 9.348999977111816,145.52699279785156 32.39500045776367,174.1009979248047 C51.10200119018555,197.2949981689453 100.38400268554688,207.75399780273438 123.20700073242188,186.47799682617188 C146.56199645996094,164.70700073242188 138.04600524902344,114.0479965209961 115.76100158691406,94.34100341796875z"></path></mask><linearGradient id="__lottie_element_26" spreadMethod="pad" gradientUnits="userSpaceOnUse" x1="-169.7969970703125" y1="40.0629997253418" x2="-96.85800170898438" y2="28.66900062561035"><stop stop-color="rgb(255,255,255)" offset="0%" stop-opacity="0.30000001192092896"></stop><stop stop-color="rgb(255,255,255)" offset="17%" stop-opacity="0.30000001192092896"></stop><stop stop-color="rgb(255,255,255)" offset="34%" stop-opacity="0.30000001192092896"></stop><stop stop-color="rgb(255,255,255)" offset="51%" stop-opacity="0.15000000596046448"></stop><stop stop-color="rgb(255,255,255)" offset="68%" stop-opacity="0"></stop><stop stop-color="rgb(255,255,255)" offset="84%" stop-opacity="0"></stop><stop stop-color="rgb(255,255,255)" offset="100%" stop-opacity="0"></stop></linearGradient><radialGradient id="__lottie_element_28" spreadMethod="pad" gradientUnits="userSpaceOnUse" cx="46" cy="-27" r="214.0864311440592" fx="46" fy="-27"><stop offset="0%" stop-color="rgb(255,255,255)"></stop><stop offset="50%" stop-color="rgb(255,255,255)"></stop><stop offset="100%" stop-color="rgb(255,255,255)"></stop></radialGradient><mask id="__lottie_element_30"><path stroke="url(#__lottie_element_29)" stroke-linecap="round" stroke-linejoin="round" stroke-width="8" d=" M-124.5009994506836,-163.9340057373047 C-92.49700164794922,-160.39599609375 -53.49100112915039,-162.28500366210938 -26.450000762939453,-179.2570037841797 C-24.013999938964844,-153.8679962158203 -20.61199951171875,-127.44599914550781 -16.08300018310547,-98.73300170898438 C-11.053000450134277,-66.87200164794922 -8.241999626159668,-24.7549991607666 10.92300033569336,1.8669999837875366 C31.114999771118164,29.91699981689453 56.57400131225586,55.95100021362305 85.01699829101562,76.25499725341797 C134.86399841308594,111.83799743652344 124.94000244140625,165.26100158691406 110.73100280761719,178.5070037841797"></path></mask><radialGradient id="__lottie_element_29" spreadMethod="pad" gradientUnits="userSpaceOnUse" cx="46" cy="-27" r="214.0864311440592" fx="46" fy="-27"><stop stop-color="rgb(255,255,255)" offset="0%" stop-opacity="0.5"></stop><stop stop-color="rgb(255,255,255)" offset="26%" stop-opacity="0.4000000059604645"></stop><stop stop-color="rgb(255,255,255)" offset="52%" stop-opacity="0.30000001192092896"></stop><stop stop-color="rgb(255,255,255)" offset="76%" stop-opacity="0.15000000596046448"></stop><stop stop-color="rgb(255,255,255)" offset="100%" stop-opacity="0"></stop></radialGradient><linearGradient id="__lottie_element_31" spreadMethod="pad" gradientUnits="userSpaceOnUse" x1="-117" y1="-175" x2="-43" y2="-185"><stop offset="0%" stop-color="rgb(248,95,85)"></stop><stop offset="50%" stop-color="rgb(228,53,42)"></stop><stop offset="100%" stop-color="rgb(209,12,0)"></stop></linearGradient><linearGradient id="__lottie_element_35" spreadMethod="pad" gradientUnits="userSpaceOnUse" x1="-56" y1="-126" x2="-40" y2="-3"><stop offset="0%" stop-color="rgb(248,64,52)"></stop><stop offset="50%" stop-color="rgb(198,39,127)"></stop><stop offset="100%" stop-color="rgb(148,14,202)"></stop></linearGradient><linearGradient id="__lottie_element_36" spreadMethod="pad" gradientUnits="userSpaceOnUse" x1="-55" y1="-134" x2="75" y2="115"><stop offset="0%" stop-color="rgb(172,228,66)"></stop><stop offset="50%" stop-color="rgb(142,201,57)"></stop><stop offset="100%" stop-color="rgb(112,175,47)"></stop></linearGradient><radialGradient id="__lottie_element_37" spreadMethod="pad" gradientUnits="userSpaceOnUse" cx="244" cy="-121" r="334.0928014788705" fx="243.11932264866613" fy="-117.28769274735407"><stop offset="0%" stop-color="rgb(255,255,255)" stop-opacity="0.800000011920929"></stop><stop offset="36%" stop-color="rgb(255,255,255)" stop-opacity="0.75"></stop><stop offset="72%" stop-color="rgb(255,255,255)" stop-opacity="0.699999988079071"></stop><stop offset="78%" stop-color="rgb(255,255,255)" stop-opacity="0.35499998927116394"></stop><stop offset="85%" stop-color="rgb(255,255,255)" stop-opacity="0.009999999776482582"></stop><stop offset="92%" stop-color="rgb(255,255,255)" stop-opacity="0.004999999888241291"></stop><stop offset="100%" stop-color="rgb(255,255,255)" stop-opacity="0"></stop></radialGradient><linearGradient id="__lottie_element_38" spreadMethod="pad" gradientUnits="userSpaceOnUse" x1="-113" y1="213" x2="4" y2="94"><stop offset="0%" stop-color="rgb(252,252,252)" stop-opacity="1"></stop><stop offset="50%" stop-color="rgb(252,252,252)" stop-opacity="0.5"></stop><stop offset="100%" stop-color="rgb(252,252,252)" stop-opacity="0"></stop></linearGradient><linearGradient id="__lottie_element_39" spreadMethod="pad" gradientUnits="userSpaceOnUse" x1="-186" y1="-7" x2="-65" y2="-21"><stop offset="0%" stop-color="rgb(252,252,252)" stop-opacity="1"></stop><stop offset="50%" stop-color="rgb(252,252,252)" stop-opacity="0.5"></stop><stop offset="100%" stop-color="rgb(252,252,252)" stop-opacity="0"></stop></linearGradient><linearGradient id="__lottie_element_40" spreadMethod="pad" gradientUnits="userSpaceOnUse" x1="-169.7969970703125" y1="40.0629997253418" x2="-96.85800170898438" y2="28.66900062561035"><stop offset="0%" stop-color="rgb(0,0,0)"></stop><stop offset="50%" stop-color="rgb(0,0,0)"></stop><stop offset="100%" stop-color="rgb(0,0,0)"></stop></linearGradient><mask id="__lottie_element_42"><path fill="url(#__lottie_element_41)" d=" M115.76100158691406,94.34100341796875 C83.52799987792969,65.83699798583984 47.729000091552734,38.29100036621094 22.91699981689453,3.825000047683716 C-0.29899999499320984,-28.424999237060547 -13.493000030517578,-170.76499938964844 -15.187999725341797,-191.8489990234375 C-52.82500076293945,-198.36000061035156 -90.29299926757812,-190.8990020751953 -123.53099822998047,-172.75999450683594 C-113.99199676513672,-138.90899658203125 -79.43699645996094,-14.730999946594238 -93.37200164794922,17.65399932861328 C-105.83200073242188,46.61199951171875 -84.9990005493164,85.83899688720703 -53.65299987792969,91.10099792480469 C-13.515999794006348,97.83899688720703 9.348999977111816,145.52699279785156 32.39500045776367,174.1009979248047 C51.10200119018555,197.2949981689453 100.38400268554688,207.75399780273438 123.20700073242188,186.47799682617188 C146.56199645996094,164.70700073242188 138.04600524902344,114.0479965209961 115.76100158691406,94.34100341796875z"></path></mask><linearGradient id="__lottie_element_41" spreadMethod="pad" gradientUnits="userSpaceOnUse" x1="-169.7969970703125" y1="40.0629997253418" x2="-96.85800170898438" y2="28.66900062561035"><stop stop-color="rgb(255,255,255)" offset="0%" stop-opacity="0.30000001192092896"></stop><stop stop-color="rgb(255,255,255)" offset="17%" stop-opacity="0.30000001192092896"></stop><stop stop-color="rgb(255,255,255)" offset="34%" stop-opacity="0.30000001192092896"></stop><stop stop-color="rgb(255,255,255)" offset="51%" stop-opacity="0.15000000596046448"></stop><stop stop-color="rgb(255,255,255)" offset="68%" stop-opacity="0"></stop><stop stop-color="rgb(255,255,255)" offset="84%" stop-opacity="0"></stop><stop stop-color="rgb(255,255,255)" offset="100%" stop-opacity="0"></stop></linearGradient><radialGradient id="__lottie_element_43" spreadMethod="pad" gradientUnits="userSpaceOnUse" cx="46" cy="-27" r="214.0864311440592" fx="46" fy="-27"><stop offset="0%" stop-color="rgb(255,255,255)"></stop><stop offset="50%" stop-color="rgb(255,255,255)"></stop><stop offset="100%" stop-color="rgb(255,255,255)"></stop></radialGradient><mask id="__lottie_element_45"><path stroke="url(#__lottie_element_44)" stroke-linecap="round" stroke-linejoin="round" stroke-width="8" d=" M-124.5009994506836,-163.9340057373047 C-92.49700164794922,-160.39599609375 -53.49100112915039,-162.28500366210938 -26.450000762939453,-179.2570037841797 C-24.013999938964844,-153.8679962158203 -20.61199951171875,-127.44599914550781 -16.08300018310547,-98.73300170898438 C-11.053000450134277,-66.87200164794922 -8.241999626159668,-24.7549991607666 10.92300033569336,1.8669999837875366 C31.114999771118164,29.91699981689453 56.57400131225586,55.95100021362305 85.01699829101562,76.25499725341797 C134.86399841308594,111.83799743652344 124.94000244140625,165.26100158691406 110.73100280761719,178.5070037841797"></path></mask><radialGradient id="__lottie_element_44" spreadMethod="pad" gradientUnits="userSpaceOnUse" cx="46" cy="-27" r="214.0864311440592" fx="46" fy="-27"><stop stop-color="rgb(255,255,255)" offset="0%" stop-opacity="0.5"></stop><stop stop-color="rgb(255,255,255)" offset="26%" stop-opacity="0.4000000059604645"></stop><stop stop-color="rgb(255,255,255)" offset="52%" stop-opacity="0.30000001192092896"></stop><stop stop-color="rgb(255,255,255)" offset="76%" stop-opacity="0.15000000596046448"></stop><stop stop-color="rgb(255,255,255)" offset="100%" stop-opacity="0"></stop></radialGradient><linearGradient id="__lottie_element_46" spreadMethod="pad" gradientUnits="userSpaceOnUse" x1="-117" y1="-175" x2="-43" y2="-185"><stop offset="0%" stop-color="rgb(248,95,85)"></stop><stop offset="50%" stop-color="rgb(228,53,42)"></stop><stop offset="100%" stop-color="rgb(209,12,0)"></stop></linearGradient></defs><g clip-path="url(#__lottie_element_2)"><g style="display: block;" transform="matrix(1,0,0,1,326.0679931640625,226.66200256347656)" opacity="1"><g opacity="1" transform="matrix(1,0,0,1,0,0)"><path stroke-linecap="round" stroke-linejoin="round" fill-opacity="0" stroke="rgb(69,107,29)" stroke-opacity="1" stroke-width="16" d=" M115.76100158691406,94.34100341796875 C83.52799987792969,65.83699798583984 47.729000091552734,38.29100036621094 22.91699981689453,3.825000047683716 C4.3480000495910645,-21.969999313354492 -7.809999942779541,-118.19100189208984 -12.800000190734863,-166.4669952392578 C-14.048999786376953,-178.5489959716797 -14.848999977111816,-187.62899780273438 -15.187999725341797,-191.8489990234375 C-52.82500076293945,-198.36000061035156 -90.29299926757812,-190.8990020751953 -123.53099822998047,-172.75999450683594 C-113.99199676513672,-138.90899658203125 -79.43699645996094,-14.730999946594238 -93.37200164794922,17.65399932861328 C-105.83200073242188,46.61199951171875 -84.9990005493164,85.83899688720703 -53.65299987792969,91.10099792480469 C-13.515999794006348,97.83899688720703 9.348999977111816,145.52699279785156 32.39500045776367,174.1009979248047 C51.10200119018555,197.2949981689453 100.38400268554688,207.75399780273438 123.20700073242188,186.47799682617188 C146.56199645996094,164.70700073242188 138.04600524902344,114.0479965209961 115.76100158691406,94.34100341796875z"></path></g><g opacity="1" transform="matrix(1,0,0,1,0,0)"><path stroke-linecap="butt" stroke-linejoin="round" fill-opacity="0" stroke="rgb(183,11,0)" stroke-opacity="1" stroke-width="16" d=" M-10.534000396728516,-147.968994140625 C-11.508000373840332,-157.67599487304688 -14.895000457763672,-188.20199584960938 -15.187999725341797,-191.8489990234375 C-52.82500076293945,-198.36000061035156 -90.29299926757812,-190.8990020751953 -123.53099822998047,-172.75999450683594 C-121.08999633789062,-164.09800720214844 -117.01000213623047,-149.52000427246094 -112.5250015258789,-132.0800018310547"></path></g><g opacity="1" transform="matrix(1,0,0,1,0,0)"><path stroke-linecap="butt" stroke-linejoin="round" fill-opacity="0" stroke="rgb(112,11,153)" stroke-opacity="1" stroke-width="16" d=" M-93.37200164794922,17.65399932861328 C-105.83200073242188,46.61199951171875 -84.9990005493164,85.83899688720703 -53.65299987792969,91.10099792480469"></path></g><g opacity="1" transform="matrix(1,0,0,1,0,0)"><path stroke-linecap="butt" stroke-linejoin="round" fill-opacity="0" stroke="rgb(112,11,153)" stroke-opacity="1" stroke-width="16" d=" M32.39500045776367,174.1009979248047 C51.10200119018555,197.2949981689453 100.38400268554688,207.75399780273438 123.20700073242188,186.47799682617188 C146.56199645996094,164.70700073242188 138.04600524902344,114.0479965209961 115.76100158691406,94.34100341796875"></path></g><g opacity="1" transform="matrix(1,0,0,1,0,0)"><path fill="url(#__lottie_element_35)" fill-opacity="1" d=" M115.76100158691406,94.34100341796875 C83.52799987792969,65.83699798583984 47.729000091552734,38.29100036621094 22.91699981689453,3.825000047683716 C-0.29899999499320984,-28.424999237060547 -13.493000030517578,-170.76499938964844 -15.187999725341797,-191.8489990234375 C-52.82500076293945,-198.36000061035156 -90.29299926757812,-190.8990020751953 -123.53099822998047,-172.75999450683594 C-113.99199676513672,-138.90899658203125 -79.43699645996094,-14.730999946594238 -93.37200164794922,17.65399932861328 C-105.83200073242188,46.61199951171875 -84.9990005493164,85.83899688720703 -53.65299987792969,91.10099792480469 C-13.515999794006348,97.83899688720703 9.348999977111816,145.52699279785156 32.39500045776367,174.1009979248047 C51.10200119018555,197.2949981689453 100.38400268554688,207.75399780273438 123.20700073242188,186.47799682617188 C146.56199645996094,164.70700073242188 138.04600524902344,114.0479965209961 115.76100158691406,94.34100341796875z"></path></g><g opacity="1" transform="matrix(1,0,0,1,0,0)"><path fill="url(#__lottie_element_36)" fill-opacity="1" d=" M-10.555999755859375,-149.83900451660156 C-37.27799987792969,-130.8699951171875 -80.66600036621094,-126.92400360107422 -112.24400329589844,-131.98800659179688 C-104.78900146484375,-102.31900024414062 -82.08000183105469,-10.748000144958496 -93.15899658203125,16.77400016784668 C-40.104000091552734,25.48200035095215 -30.799999237060547,56.39400100708008 -53.564998626708984,91.22100067138672 C-17.566999435424805,97.03600311279297 10.479999542236328,146.63999938964844 32.41999816894531,174.03399658203125 C32.41999816894531,174.03399658203125 32.42100143432617,174.03399658203125 32.42100143432617,174.03399658203125 C55.459999084472656,140.17100524902344 73.61799621582031,106.19999694824219 115.9739990234375,93.46199798583984 C82.31099700927734,64.09600067138672 47.86600112915039,37.04199981689453 23.1299991607666,2.946000099182129 C5.433000087738037,-21.44700050354004 -6.974999904632568,-119.66500091552734 -10.555999755859375,-149.83900451660156z"></path></g><g opacity="1" transform="matrix(1,0,0,1,0,0)"><path fill="url(#__lottie_element_37)" fill-opacity="1" d=" M115.76100158691406,94.34100341796875 C83.52799987792969,65.83699798583984 47.729000091552734,38.29100036621094 22.91699981689453,3.825000047683716 C-0.29899999499320984,-28.424999237060547 -13.493000030517578,-170.76499938964844 -15.187999725341797,-191.8489990234375 C-52.82500076293945,-198.36000061035156 -90.29299926757812,-190.8990020751953 -123.53099822998047,-172.75999450683594 C-113.99199676513672,-138.90899658203125 -79.43699645996094,-14.730999946594238 -93.37200164794922,17.65399932861328 C-105.83200073242188,46.61199951171875 -84.9990005493164,85.83899688720703 -53.65299987792969,91.10099792480469 C-13.515999794006348,97.83899688720703 9.348999977111816,145.52699279785156 32.39500045776367,174.1009979248047 C51.10200119018555,197.2949981689453 100.38400268554688,207.75399780273438 123.20700073242188,186.47799682617188 C146.56199645996094,164.70700073242188 138.04600524902344,114.0479965209961 115.76100158691406,94.34100341796875z"></path><path fill="url(#__lottie_element_38)" fill-opacity="1" d=" M115.76100158691406,94.34100341796875 C83.52799987792969,65.83699798583984 47.729000091552734,38.29100036621094 22.91699981689453,3.825000047683716 C-0.29899999499320984,-28.424999237060547 -13.493000030517578,-170.76499938964844 -15.187999725341797,-191.8489990234375 C-52.82500076293945,-198.36000061035156 -90.29299926757812,-190.8990020751953 -123.53099822998047,-172.75999450683594 C-113.99199676513672,-138.90899658203125 -79.43699645996094,-14.730999946594238 -93.37200164794922,17.65399932861328 C-105.83200073242188,46.61199951171875 -84.9990005493164,85.83899688720703 -53.65299987792969,91.10099792480469 C-13.515999794006348,97.83899688720703 9.348999977111816,145.52699279785156 32.39500045776367,174.1009979248047 C51.10200119018555,197.2949981689453 100.38400268554688,207.75399780273438 123.20700073242188,186.47799682617188 C146.56199645996094,164.70700073242188 138.04600524902344,114.0479965209961 115.76100158691406,94.34100341796875z"></path><path fill="url(#__lottie_element_39)" fill-opacity="1" d=" M115.76100158691406,94.34100341796875 C83.52799987792969,65.83699798583984 47.729000091552734,38.29100036621094 22.91699981689453,3.825000047683716 C-0.29899999499320984,-28.424999237060547 -13.493000030517578,-170.76499938964844 -15.187999725341797,-191.8489990234375 C-52.82500076293945,-198.36000061035156 -90.29299926757812,-190.8990020751953 -123.53099822998047,-172.75999450683594 C-113.99199676513672,-138.90899658203125 -79.43699645996094,-14.730999946594238 -93.37200164794922,17.65399932861328 C-105.83200073242188,46.61199951171875 -84.9990005493164,85.83899688720703 -53.65299987792969,91.10099792480469 C-13.515999794006348,97.83899688720703 9.348999977111816,145.52699279785156 32.39500045776367,174.1009979248047 C51.10200119018555,197.2949981689453 100.38400268554688,207.75399780273438 123.20700073242188,186.47799682617188 C146.56199645996094,164.70700073242188 138.04600524902344,114.0479965209961 115.76100158691406,94.34100341796875z"></path><path fill="url(#__lottie_element_40)" mask="url(#__lottie_element_42)" fill-opacity="1" d="M0 0 M115.76100158691406,94.34100341796875 C83.52799987792969,65.83699798583984 47.729000091552734,38.29100036621094 22.91699981689453,3.825000047683716 C-0.29899999499320984,-28.424999237060547 -13.493000030517578,-170.76499938964844 -15.187999725341797,-191.8489990234375 C-52.82500076293945,-198.36000061035156 -90.29299926757812,-190.8990020751953 -123.53099822998047,-172.75999450683594 C-113.99199676513672,-138.90899658203125 -79.43699645996094,-14.730999946594238 -93.37200164794922,17.65399932861328 C-105.83200073242188,46.61199951171875 -84.9990005493164,85.83899688720703 -53.65299987792969,91.10099792480469 C-13.515999794006348,97.83899688720703 9.348999977111816,145.52699279785156 32.39500045776367,174.1009979248047 C51.10200119018555,197.2949981689453 100.38400268554688,207.75399780273438 123.20700073242188,186.47799682617188 C146.56199645996094,164.70700073242188 138.04600524902344,114.0479965209961 115.76100158691406,94.34100341796875z"></path></g><g opacity="0.4" transform="matrix(1,0,0,1,-162,-277.75)"><g opacity="1" transform="matrix(1,0,0,1,91.18800354003906,226.16099548339844)"><path stroke-linecap="butt" stroke-linejoin="round" fill-opacity="0" stroke="rgb(255,255,255)" stroke-opacity="1" stroke-width="5" d=" M-0.9929999709129333,-78.7020034790039 C9.26099967956543,-27.291000366210938 29.496999740600586,32.292999267578125 15.439000129699707,84.69000244140625"></path></g><g opacity="1" transform="matrix(1,0,0,1,70.4990005493164,219.1649932861328)"><path stroke-linecap="butt" stroke-linejoin="round" fill-opacity="0" stroke="rgb(255,255,255)" stroke-opacity="1" stroke-width="5" d=" M-1.6059999465942383,-70.4540023803711 C7.868000030517578,-21.87700080871582 28.006999969482422,29.992000579833984 15.692999839782715,79.82099914550781"></path></g><g opacity="1" transform="matrix(1,0,0,1,179.91200256347656,262.01800537109375)"><path stroke-linecap="butt" stroke-linejoin="round" fill-opacity="0" stroke="rgb(255,255,255)" stroke-opacity="1" stroke-width="5" d=" M-51.28200149536133,-122.62200164794922 C-42.78799819946289,-74.87300109863281 -38.8650016784668,-20.195999145507812 -17.875,24.069000244140625 C0.6859999895095825,63.21099853515625 37.09000015258789,93.61900329589844 69.98300170898438,120.80899810791016"></path></g><g opacity="1" transform="matrix(1,0,0,1,159.75900268554688,270.79901123046875)"><path stroke-linecap="butt" stroke-linejoin="round" fill-opacity="0" stroke="rgb(255,255,255)" stroke-opacity="1" stroke-width="5" d=" M-49.266998291015625,-126.5 C-41.141998291015625,-76.90399932861328 -35.99300003051758,-26.76300048828125 -18.31399917602539,20.429000854492188 C-2.0510001182556152,63.84299850463867 37.52299880981445,96.53800201416016 71.93900299072266,125.81300354003906"></path></g></g><g opacity="1" transform="matrix(1,0,0,1,-160,-278.5)"><g opacity="1" transform="matrix(1,0,0,1,91.18800354003906,226.16099548339844)"><path stroke-linecap="round" stroke-linejoin="round" fill-opacity="0" stroke="rgb(69,107,29)" stroke-opacity="1" stroke-width="3" d=" M-0.9929999709129333,-78.7020034790039 C9.26099967956543,-27.291000366210938 29.496999740600586,32.292999267578125 15.439000129699707,84.69000244140625"></path></g><g opacity="1" transform="matrix(1,0,0,1,70.4990005493164,219.1649932861328)"><path stroke-linecap="round" stroke-linejoin="round" fill-opacity="0" stroke="rgb(69,107,29)" stroke-opacity="1" stroke-width="3" d=" M-1.6059999465942383,-70.4540023803711 C7.868000030517578,-21.87700080871582 28.006999969482422,29.992000579833984 15.692999839782715,79.82099914550781"></path></g><g opacity="1" transform="matrix(1,0,0,1,179.91200256347656,262.01800537109375)"><path stroke-linecap="round" stroke-linejoin="round" fill-opacity="0" stroke="rgb(69,107,29)" stroke-opacity="1" stroke-width="3" d=" M-51.28200149536133,-122.62200164794922 C-42.78799819946289,-74.87300109863281 -38.8650016784668,-20.195999145507812 -17.875,24.069000244140625 C0.6859999895095825,63.21099853515625 37.09000015258789,93.61900329589844 69.98300170898438,120.80899810791016"></path></g><g opacity="1" transform="matrix(1,0,0,1,159.75900268554688,270.79901123046875)"><path stroke-linecap="round" stroke-linejoin="round" fill-opacity="0" stroke="rgb(69,107,29)" stroke-opacity="1" stroke-width="3" d=" M-49.266998291015625,-126.5 C-41.141998291015625,-76.90399932861328 -35.99300003051758,-26.76300048828125 -18.31399917602539,20.429000854492188 C-2.0510001182556152,63.84299850463867 37.52299880981445,96.53800201416016 71.93900299072266,125.81300354003906"></path></g></g><g opacity="1" transform="matrix(1,0,0,1,9.5,4.5)"><path stroke="url(#__lottie_element_43)" mask="url(#__lottie_element_45)" stroke-linecap="round" stroke-linejoin="round" fill-opacity="0" stroke-opacity="1" stroke-width="8" d="M0 0 M-124.5009994506836,-163.9340057373047 C-92.49700164794922,-160.39599609375 -53.49100112915039,-162.28500366210938 -26.450000762939453,-179.2570037841797 C-24.013999938964844,-153.8679962158203 -20.61199951171875,-127.44599914550781 -16.08300018310547,-98.73300170898438 C-11.053000450134277,-66.87200164794922 -8.241999626159668,-24.7549991607666 10.92300033569336,1.8669999837875366 C31.114999771118164,29.91699981689453 56.57400131225586,55.95100021362305 85.01699829101562,76.25499725341797 C134.86399841308594,111.83799743652344 124.94000244140625,165.26100158691406 110.73100280761719,178.5070037841797"></path></g><g opacity="1" transform="matrix(1,0,0,1,-159.75,-277.5)"><g opacity="1" transform="matrix(1,0,0,1,107,197)"><g opacity="1" transform="matrix(1,0,0,1,0,0)"><path fill="rgb(0,48,16)" fill-opacity="1" d=" M4.150000095367432,6.214000225067139 C20.47599983215332,-5.077000141143799 31.166000366210938,1.0479999780654907 33.25299835205078,10.890999794006348 C35.34000015258789,20.733999252319336 28.82200050354004,34.292999267578125 10.732000350952148,37.867000579833984 C-25.07200050354004,44.941001892089844 -32.125999450683594,-0.7110000252723694 4.150000095367432,6.214000225067139z"></path></g><g opacity="1" transform="matrix(1,0,0,1,0,0)"><path fill="rgb(0,48,16)" fill-opacity="1" d=" M-14.965999603271484,0.3630000054836273 C-28.645000457763672,16.6299991607666 -46.41400146484375,-9.892999649047852 -33.62900161743164,-24.091999053955078 C-19.993999481201172,-40.40599822998047 -2.0220000743865967,-13.902000427246094 -14.965999603271484,0.3630000054836273"></path></g><g opacity="1" transform="matrix(1,0,0,1,0,0)"><path fill="rgb(0,48,16)" fill-opacity="1" d=" M31.0939998626709,-35.31100082397461 C43.31999969482422,-26.19499969482422 39.09000015258789,2.5820000171661377 20.797000885009766,-6.323999881744385 C1.6619999408721924,-15.640000343322754 13.269000053405762,-49.14699935913086 31.0939998626709,-35.31100082397461z"></path></g></g></g><g opacity="1" transform="matrix(1,0,0,1,-159.75,-277.5)"><g opacity="1" transform="matrix(1,0,0,1,0,0)"><g opacity="1" transform="matrix(1,0,0,1,191.25,286.1369934082031)"><path stroke-linecap="round" stroke-linejoin="round" fill-opacity="0" stroke="rgb(0,89,31)" stroke-opacity="1" stroke-width="12" d=" M-8.005000114440918,7.328000068664551 C-2.6679999828338623,2.443000078201294 2.6679999828338623,-2.443000078201294 8.005000114440918,-7.328000068664551"></path></g></g><g opacity="1" transform="matrix(1,0,0,1,0,0)"><g opacity="1" transform="matrix(1,0,0,1,58.8129997253418,220.93699645996094)"><path stroke-linecap="round" stroke-linejoin="round" fill-opacity="0" stroke="rgb(0,89,31)" stroke-opacity="1" stroke-width="12" d=" M10.333000183105469,0.3529999852180481 C3.444999933242798,0.11800000071525574 -3.444999933242798,-0.11800000071525574 -10.333000183105469,-0.3529999852180481"></path></g><g opacity="1" transform="matrix(1,0,0,1,150.22300720214844,404.4830017089844)"><path stroke-linecap="round" stroke-linejoin="round" fill-opacity="0" stroke="rgb(0,89,31)" stroke-opacity="1" stroke-width="12" d=" M10.817999839782715,-6.63100004196167 C3.6059999465942383,-2.2100000381469727 -3.6059999465942383,2.2100000381469727 -10.817999839782715,6.63100004196167"></path></g><g opacity="1" transform="matrix(1,0,0,1,152.802001953125,148.93299865722656)"><path stroke-linecap="round" stroke-linejoin="round" fill-opacity="0" stroke="rgb(0,89,31)" stroke-opacity="1" stroke-width="12" d=" M-8.277000427246094,6.735000133514404 C-2.759000062942505,2.244999885559082 2.759000062942505,-2.244999885559082 8.277000427246094,-6.735000133514404"></path></g></g></g><g opacity="1" transform="matrix(1,0,0,1,0,0)"><path stroke-linecap="round" stroke-linejoin="round" fill-opacity="0" stroke="rgb(183,11,0)" stroke-opacity="1" stroke-width="16" d=" M-15.187999725341797,-191.8489990234375 C-52.82500076293945,-198.36000061035156 -90.29299926757812,-190.8990020751953 -123.53099822998047,-172.75999450683594 C-123.53099822998047,-172.75999450683594 -123.53099822998047,-172.75999450683594 -123.53099822998047,-172.75999450683594 C-90.48100280761719,-167.65699768066406 -41.54399871826172,-167.77200317382812 -15.187999725341797,-191.8489990234375 C-15.187999725341797,-191.8489990234375 -15.187999725341797,-191.8489990234375 -15.187999725341797,-191.8489990234375z"></path><path fill="url(#__lottie_element_46)" fill-opacity="1" d=" M-15.187999725341797,-191.8489990234375 C-52.82500076293945,-198.36000061035156 -90.29299926757812,-190.8990020751953 -123.53099822998047,-172.75999450683594 C-123.53099822998047,-172.75999450683594 -123.53099822998047,-172.75999450683594 -123.53099822998047,-172.75999450683594 C-90.48100280761719,-167.65699768066406 -41.54399871826172,-167.77200317382812 -15.187999725341797,-191.8489990234375 C-15.187999725341797,-191.8489990234375 -15.187999725341797,-191.8489990234375 -15.187999725341797,-191.8489990234375z"></path></g><g opacity="1" transform="matrix(1,0,0,1,-159.5,-277.5)"><g opacity="1" transform="matrix(1,0,0,1,97.93599700927734,136.37399291992188)"><path stroke-linecap="round" stroke-linejoin="round" fill-opacity="0" stroke="rgb(183,11,0)" stroke-opacity="1" stroke-width="8" d=" M-55.55500030517578,9.262999534606934 C-23.976999282836914,14.32699966430664 28.659000396728516,9.005999565124512 55.38199996948242,-9.963000297546387"></path></g><g opacity="1" transform="matrix(1,0,0,1,212.01400756835938,413.7539978027344)"><path stroke-linecap="round" stroke-linejoin="round" fill-opacity="0" stroke="rgb(112,11,153)" stroke-opacity="1" stroke-width="3" d=" M-19.905000686645508,37.46699905395508 C3.134000062942505,3.6029999256134033 21.104999542236328,-29.554000854492188 63.46099853515625,-42.29199981689453"></path></g><g opacity="1" transform="matrix(1,0,0,1,69.16799926757812,328.02899169921875)"><path stroke-linecap="round" stroke-linejoin="round" fill-opacity="0" stroke="rgb(112,11,153)" stroke-opacity="1" stroke-width="3" d=" M-2.8269999027252197,-33.255001068115234 C16.823999404907227,-31.256000518798828 33.935001373291016,-21.841999053955078 42.542999267578125,-8.454000473022461 C51.1510009765625,4.934000015258789 51.255001068115234,22.297000885009766 36.891998291015625,40.19200134277344"></path></g></g></g><g style="display: block;" transform="matrix(1,0,0,1,166.63600158691406,275.6619873046875)" opacity="1"><g opacity="1" transform="matrix(1,0,0,1,0,0)"><path stroke-linecap="round" stroke-linejoin="round" fill-opacity="0" stroke="rgb(69,107,29)" stroke-opacity="1" stroke-width="16" d=" M115.76100158691406,94.34100341796875 C83.52799987792969,65.83699798583984 47.729000091552734,38.29100036621094 22.91699981689453,3.825000047683716 C4.3480000495910645,-21.969999313354492 -7.809999942779541,-118.19100189208984 -12.800000190734863,-166.4669952392578 C-14.048999786376953,-178.5489959716797 -14.848999977111816,-187.62899780273438 -15.187999725341797,-191.8489990234375 C-52.82500076293945,-198.36000061035156 -90.29299926757812,-190.8990020751953 -123.53099822998047,-172.75999450683594 C-113.99199676513672,-138.90899658203125 -79.43699645996094,-14.730999946594238 -93.37200164794922,17.65399932861328 C-105.83200073242188,46.61199951171875 -84.9990005493164,85.83899688720703 -53.65299987792969,91.10099792480469 C-13.515999794006348,97.83899688720703 9.348999977111816,145.52699279785156 32.39500045776367,174.1009979248047 C51.10200119018555,197.2949981689453 100.38400268554688,207.75399780273438 123.20700073242188,186.47799682617188 C146.56199645996094,164.70700073242188 138.04600524902344,114.0479965209961 115.76100158691406,94.34100341796875z"></path></g><g opacity="1" transform="matrix(1,0,0,1,0,0)"><path stroke-linecap="butt" stroke-linejoin="round" fill-opacity="0" stroke="rgb(183,11,0)" stroke-opacity="1" stroke-width="16" d=" M-10.534000396728516,-147.968994140625 C-11.508000373840332,-157.67599487304688 -14.895000457763672,-188.20199584960938 -15.187999725341797,-191.8489990234375 C-52.82500076293945,-198.36000061035156 -90.29299926757812,-190.8990020751953 -123.53099822998047,-172.75999450683594 C-121.08999633789062,-164.09800720214844 -117.01000213623047,-149.52000427246094 -112.5250015258789,-132.0800018310547"></path></g><g opacity="1" transform="matrix(1,0,0,1,0,0)"><path stroke-linecap="butt" stroke-linejoin="round" fill-opacity="0" stroke="rgb(112,11,153)" stroke-opacity="1" stroke-width="16" d=" M-93.37200164794922,17.65399932861328 C-105.83200073242188,46.61199951171875 -84.9990005493164,85.83899688720703 -53.65299987792969,91.10099792480469"></path></g><g opacity="1" transform="matrix(1,0,0,1,0,0)"><path stroke-linecap="butt" stroke-linejoin="round" fill-opacity="0" stroke="rgb(112,11,153)" stroke-opacity="1" stroke-width="16" d=" M32.39500045776367,174.1009979248047 C51.10200119018555,197.2949981689453 100.38400268554688,207.75399780273438 123.20700073242188,186.47799682617188 C146.56199645996094,164.70700073242188 138.04600524902344,114.0479965209961 115.76100158691406,94.34100341796875"></path></g><g opacity="1" transform="matrix(1,0,0,1,0,0)"><path fill="url(#__lottie_element_20)" fill-opacity="1" d=" M115.76100158691406,94.34100341796875 C83.52799987792969,65.83699798583984 47.729000091552734,38.29100036621094 22.91699981689453,3.825000047683716 C-0.29899999499320984,-28.424999237060547 -13.493000030517578,-170.76499938964844 -15.187999725341797,-191.8489990234375 C-52.82500076293945,-198.36000061035156 -90.29299926757812,-190.8990020751953 -123.53099822998047,-172.75999450683594 C-113.99199676513672,-138.90899658203125 -79.43699645996094,-14.730999946594238 -93.37200164794922,17.65399932861328 C-105.83200073242188,46.61199951171875 -84.9990005493164,85.83899688720703 -53.65299987792969,91.10099792480469 C-13.515999794006348,97.83899688720703 9.348999977111816,145.52699279785156 32.39500045776367,174.1009979248047 C51.10200119018555,197.2949981689453 100.38400268554688,207.75399780273438 123.20700073242188,186.47799682617188 C146.56199645996094,164.70700073242188 138.04600524902344,114.0479965209961 115.76100158691406,94.34100341796875z"></path></g><g opacity="1" transform="matrix(1,0,0,1,0,0)"><path fill="url(#__lottie_element_21)" fill-opacity="1" d=" M-10.555999755859375,-149.83900451660156 C-37.27799987792969,-130.8699951171875 -80.66600036621094,-126.92400360107422 -112.24400329589844,-131.98800659179688 C-104.78900146484375,-102.31900024414062 -82.08000183105469,-10.748000144958496 -93.15899658203125,16.77400016784668 C-40.104000091552734,25.48200035095215 -30.799999237060547,56.39400100708008 -53.564998626708984,91.22100067138672 C-17.566999435424805,97.03600311279297 10.479999542236328,146.63999938964844 32.41999816894531,174.03399658203125 C32.41999816894531,174.03399658203125 32.42100143432617,174.03399658203125 32.42100143432617,174.03399658203125 C55.459999084472656,140.17100524902344 73.61799621582031,106.19999694824219 115.9739990234375,93.46199798583984 C82.31099700927734,64.09600067138672 47.86600112915039,37.04199981689453 23.1299991607666,2.946000099182129 C5.433000087738037,-21.44700050354004 -6.974999904632568,-119.66500091552734 -10.555999755859375,-149.83900451660156z"></path></g><g opacity="1" transform="matrix(1,0,0,1,0,0)"><path fill="url(#__lottie_element_22)" fill-opacity="1" d=" M115.76100158691406,94.34100341796875 C83.52799987792969,65.83699798583984 47.729000091552734,38.29100036621094 22.91699981689453,3.825000047683716 C-0.29899999499320984,-28.424999237060547 -13.493000030517578,-170.76499938964844 -15.187999725341797,-191.8489990234375 C-52.82500076293945,-198.36000061035156 -90.29299926757812,-190.8990020751953 -123.53099822998047,-172.75999450683594 C-113.99199676513672,-138.90899658203125 -79.43699645996094,-14.730999946594238 -93.37200164794922,17.65399932861328 C-105.83200073242188,46.61199951171875 -84.9990005493164,85.83899688720703 -53.65299987792969,91.10099792480469 C-13.515999794006348,97.83899688720703 9.348999977111816,145.52699279785156 32.39500045776367,174.1009979248047 C51.10200119018555,197.2949981689453 100.38400268554688,207.75399780273438 123.20700073242188,186.47799682617188 C146.56199645996094,164.70700073242188 138.04600524902344,114.0479965209961 115.76100158691406,94.34100341796875z"></path><path fill="url(#__lottie_element_23)" fill-opacity="1" d=" M115.76100158691406,94.34100341796875 C83.52799987792969,65.83699798583984 47.729000091552734,38.29100036621094 22.91699981689453,3.825000047683716 C-0.29899999499320984,-28.424999237060547 -13.493000030517578,-170.76499938964844 -15.187999725341797,-191.8489990234375 C-52.82500076293945,-198.36000061035156 -90.29299926757812,-190.8990020751953 -123.53099822998047,-172.75999450683594 C-113.99199676513672,-138.90899658203125 -79.43699645996094,-14.730999946594238 -93.37200164794922,17.65399932861328 C-105.83200073242188,46.61199951171875 -84.9990005493164,85.83899688720703 -53.65299987792969,91.10099792480469 C-13.515999794006348,97.83899688720703 9.348999977111816,145.52699279785156 32.39500045776367,174.1009979248047 C51.10200119018555,197.2949981689453 100.38400268554688,207.75399780273438 123.20700073242188,186.47799682617188 C146.56199645996094,164.70700073242188 138.04600524902344,114.0479965209961 115.76100158691406,94.34100341796875z"></path><path fill="url(#__lottie_element_24)" fill-opacity="1" d=" M115.76100158691406,94.34100341796875 C83.52799987792969,65.83699798583984 47.729000091552734,38.29100036621094 22.91699981689453,3.825000047683716 C-0.29899999499320984,-28.424999237060547 -13.493000030517578,-170.76499938964844 -15.187999725341797,-191.8489990234375 C-52.82500076293945,-198.36000061035156 -90.29299926757812,-190.8990020751953 -123.53099822998047,-172.75999450683594 C-113.99199676513672,-138.90899658203125 -79.43699645996094,-14.730999946594238 -93.37200164794922,17.65399932861328 C-105.83200073242188,46.61199951171875 -84.9990005493164,85.83899688720703 -53.65299987792969,91.10099792480469 C-13.515999794006348,97.83899688720703 9.348999977111816,145.52699279785156 32.39500045776367,174.1009979248047 C51.10200119018555,197.2949981689453 100.38400268554688,207.75399780273438 123.20700073242188,186.47799682617188 C146.56199645996094,164.70700073242188 138.04600524902344,114.0479965209961 115.76100158691406,94.34100341796875z"></path><path fill="url(#__lottie_element_25)" mask="url(#__lottie_element_27)" fill-opacity="1" d="M0 0 M115.76100158691406,94.34100341796875 C83.52799987792969,65.83699798583984 47.729000091552734,38.29100036621094 22.91699981689453,3.825000047683716 C-0.29899999499320984,-28.424999237060547 -13.493000030517578,-170.76499938964844 -15.187999725341797,-191.8489990234375 C-52.82500076293945,-198.36000061035156 -90.29299926757812,-190.8990020751953 -123.53099822998047,-172.75999450683594 C-113.99199676513672,-138.90899658203125 -79.43699645996094,-14.730999946594238 -93.37200164794922,17.65399932861328 C-105.83200073242188,46.61199951171875 -84.9990005493164,85.83899688720703 -53.65299987792969,91.10099792480469 C-13.515999794006348,97.83899688720703 9.348999977111816,145.52699279785156 32.39500045776367,174.1009979248047 C51.10200119018555,197.2949981689453 100.38400268554688,207.75399780273438 123.20700073242188,186.47799682617188 C146.56199645996094,164.70700073242188 138.04600524902344,114.0479965209961 115.76100158691406,94.34100341796875z"></path></g><g opacity="0.4" transform="matrix(1,0,0,1,-162,-277.75)"><g opacity="1" transform="matrix(1,0,0,1,91.18800354003906,226.16099548339844)"><path stroke-linecap="butt" stroke-linejoin="round" fill-opacity="0" stroke="rgb(255,255,255)" stroke-opacity="1" stroke-width="5" d=" M-0.9929999709129333,-78.7020034790039 C9.26099967956543,-27.291000366210938 29.496999740600586,32.292999267578125 15.439000129699707,84.69000244140625"></path></g><g opacity="1" transform="matrix(1,0,0,1,70.4990005493164,219.1649932861328)"><path stroke-linecap="butt" stroke-linejoin="round" fill-opacity="0" stroke="rgb(255,255,255)" stroke-opacity="1" stroke-width="5" d=" M-1.6059999465942383,-70.4540023803711 C7.868000030517578,-21.87700080871582 28.006999969482422,29.992000579833984 15.692999839782715,79.82099914550781"></path></g><g opacity="1" transform="matrix(1,0,0,1,179.91200256347656,262.01800537109375)"><path stroke-linecap="butt" stroke-linejoin="round" fill-opacity="0" stroke="rgb(255,255,255)" stroke-opacity="1" stroke-width="5" d=" M-51.28200149536133,-122.62200164794922 C-42.78799819946289,-74.87300109863281 -38.8650016784668,-20.195999145507812 -17.875,24.069000244140625 C0.6859999895095825,63.21099853515625 37.09000015258789,93.61900329589844 69.98300170898438,120.80899810791016"></path></g><g opacity="1" transform="matrix(1,0,0,1,159.75900268554688,270.79901123046875)"><path stroke-linecap="butt" stroke-linejoin="round" fill-opacity="0" stroke="rgb(255,255,255)" stroke-opacity="1" stroke-width="5" d=" M-49.266998291015625,-126.5 C-41.141998291015625,-76.90399932861328 -35.99300003051758,-26.76300048828125 -18.31399917602539,20.429000854492188 C-2.0510001182556152,63.84299850463867 37.52299880981445,96.53800201416016 71.93900299072266,125.81300354003906"></path></g></g><g opacity="1" transform="matrix(1,0,0,1,-160,-278.5)"><g opacity="1" transform="matrix(1,0,0,1,91.18800354003906,226.16099548339844)"><path stroke-linecap="round" stroke-linejoin="round" fill-opacity="0" stroke="rgb(69,107,29)" stroke-opacity="1" stroke-width="3" d=" M-0.9929999709129333,-78.7020034790039 C9.26099967956543,-27.291000366210938 29.496999740600586,32.292999267578125 15.439000129699707,84.69000244140625"></path></g><g opacity="1" transform="matrix(1,0,0,1,70.4990005493164,219.1649932861328)"><path stroke-linecap="round" stroke-linejoin="round" fill-opacity="0" stroke="rgb(69,107,29)" stroke-opacity="1" stroke-width="3" d=" M-1.6059999465942383,-70.4540023803711 C7.868000030517578,-21.87700080871582 28.006999969482422,29.992000579833984 15.692999839782715,79.82099914550781"></path></g><g opacity="1" transform="matrix(1,0,0,1,179.91200256347656,262.01800537109375)"><path stroke-linecap="round" stroke-linejoin="round" fill-opacity="0" stroke="rgb(69,107,29)" stroke-opacity="1" stroke-width="3" d=" M-51.28200149536133,-122.62200164794922 C-42.78799819946289,-74.87300109863281 -38.8650016784668,-20.195999145507812 -17.875,24.069000244140625 C0.6859999895095825,63.21099853515625 37.09000015258789,93.61900329589844 69.98300170898438,120.80899810791016"></path></g><g opacity="1" transform="matrix(1,0,0,1,159.75900268554688,270.79901123046875)"><path stroke-linecap="round" stroke-linejoin="round" fill-opacity="0" stroke="rgb(69,107,29)" stroke-opacity="1" stroke-width="3" d=" M-49.266998291015625,-126.5 C-41.141998291015625,-76.90399932861328 -35.99300003051758,-26.76300048828125 -18.31399917602539,20.429000854492188 C-2.0510001182556152,63.84299850463867 37.52299880981445,96.53800201416016 71.93900299072266,125.81300354003906"></path></g></g><g opacity="1" transform="matrix(1,0,0,1,9.5,4.5)"><path stroke="url(#__lottie_element_28)" mask="url(#__lottie_element_30)" stroke-linecap="round" stroke-linejoin="round" fill-opacity="0" stroke-opacity="1" stroke-width="8" d="M0 0 M-124.5009994506836,-163.9340057373047 C-92.49700164794922,-160.39599609375 -53.49100112915039,-162.28500366210938 -26.450000762939453,-179.2570037841797 C-24.013999938964844,-153.8679962158203 -20.61199951171875,-127.44599914550781 -16.08300018310547,-98.73300170898438 C-11.053000450134277,-66.87200164794922 -8.241999626159668,-24.7549991607666 10.92300033569336,1.8669999837875366 C31.114999771118164,29.91699981689453 56.57400131225586,55.95100021362305 85.01699829101562,76.25499725341797 C134.86399841308594,111.83799743652344 124.94000244140625,165.26100158691406 110.73100280761719,178.5070037841797"></path></g><g opacity="1" transform="matrix(1,0,0,1,-159.75,-277.5)"><g opacity="1" transform="matrix(1,0,0,1,107,197)"><g opacity="1" transform="matrix(1,0,0,1,0,0)"><path fill="rgb(0,48,17)" fill-opacity="1" d=" M4.150000095367432,6.214000225067139 C20.47599983215332,-5.077000141143799 31.166000366210938,1.0479999780654907 33.25299835205078,10.890999794006348 C35.34000015258789,20.733999252319336 28.82200050354004,34.292999267578125 10.732000350952148,37.867000579833984 C-25.07200050354004,44.941001892089844 -32.125999450683594,-0.7110000252723694 4.150000095367432,6.214000225067139z"></path></g><g opacity="1" transform="matrix(1,0,0,1,0,0)"><path fill="rgb(0,48,17)" fill-opacity="1" d=" M-14.965999603271484,0.3630000054836273 C-28.645000457763672,16.6299991607666 -46.41400146484375,-9.892999649047852 -33.62900161743164,-24.091999053955078 C-19.993999481201172,-40.40599822998047 -2.0220000743865967,-13.902000427246094 -14.965999603271484,0.3630000054836273"></path></g><g opacity="1" transform="matrix(1,0,0,1,0,0)"><path fill="rgb(0,48,17)" fill-opacity="1" d=" M31.0939998626709,-35.31100082397461 C43.31999969482422,-26.19499969482422 39.09000015258789,2.5820000171661377 20.797000885009766,-6.323999881744385 C1.6619999408721924,-15.640000343322754 13.269000053405762,-49.14699935913086 31.0939998626709,-35.31100082397461z"></path></g></g></g><g opacity="1" transform="matrix(1,0,0,1,-159.75,-277.5)"><g opacity="1" transform="matrix(1,0,0,1,0,0)"><g opacity="1" transform="matrix(1,0,0,1,49.095001220703125,166.9600067138672)"><path stroke-linecap="round" stroke-linejoin="round" fill-opacity="0" stroke="rgb(0,89,31)" stroke-opacity="1" stroke-width="12" d=" M7.984000205993652,1.4220000505447388 C2.6610000133514404,0.4740000069141388 -2.6610000133514404,-0.4740000069141388 -7.984000205993652,-1.4220000505447388"></path></g><g opacity="1" transform="matrix(1,0,0,1,64.45899963378906,268.8710021972656)"><path stroke-linecap="round" stroke-linejoin="round" fill-opacity="0" stroke="rgb(0,89,31)" stroke-opacity="1" stroke-width="12" d=" M8.664999961853027,-1.0140000581741333 C2.888000011444092,-0.33799999952316284 -2.888000011444092,0.33799999952316284 -8.664999961853027,1.0140000581741333"></path></g><g opacity="1" transform="matrix(1,0,0,1,191.25,286.1369934082031)"><path stroke-linecap="round" stroke-linejoin="round" fill-opacity="0" stroke="rgb(0,89,31)" stroke-opacity="1" stroke-width="12" d=" M-8.005000114440918,7.328000068664551 C-2.6679999828338623,2.443000078201294 2.6679999828338623,-2.443000078201294 8.005000114440918,-7.328000068664551"></path></g></g><g opacity="1" transform="matrix(1,0,0,1,0,0)"><g opacity="1" transform="matrix(1,0,0,1,58.8129997253418,220.93699645996094)"><path stroke-linecap="round" stroke-linejoin="round" fill-opacity="0" stroke="rgb(0,89,31)" stroke-opacity="1" stroke-width="12" d=" M10.333000183105469,0.3529999852180481 C3.444999933242798,0.11800000071525574 -3.444999933242798,-0.11800000071525574 -10.333000183105469,-0.3529999852180481"></path></g><g opacity="1" transform="matrix(1,0,0,1,152.802001953125,148.93299865722656)"><path stroke-linecap="round" stroke-linejoin="round" fill-opacity="0" stroke="rgb(0,89,31)" stroke-opacity="1" stroke-width="12" d=" M-8.277000427246094,6.735000133514404 C-2.759000062942505,2.244999885559082 2.759000062942505,-2.244999885559082 8.277000427246094,-6.735000133514404"></path></g></g></g><g opacity="1" transform="matrix(1,0,0,1,0,0)"><path stroke-linecap="round" stroke-linejoin="round" fill-opacity="0" stroke="rgb(183,10,0)" stroke-opacity="1" stroke-width="16" d=" M-15.187999725341797,-191.8489990234375 C-52.82500076293945,-198.36000061035156 -90.29299926757812,-190.8990020751953 -123.53099822998047,-172.75999450683594 C-123.53099822998047,-172.75999450683594 -123.53099822998047,-172.75999450683594 -123.53099822998047,-172.75999450683594 C-90.48100280761719,-167.65699768066406 -41.54399871826172,-167.77200317382812 -15.187999725341797,-191.8489990234375 C-15.187999725341797,-191.8489990234375 -15.187999725341797,-191.8489990234375 -15.187999725341797,-191.8489990234375z"></path><path fill="url(#__lottie_element_31)" fill-opacity="1" d=" M-15.187999725341797,-191.8489990234375 C-52.82500076293945,-198.36000061035156 -90.29299926757812,-190.8990020751953 -123.53099822998047,-172.75999450683594 C-123.53099822998047,-172.75999450683594 -123.53099822998047,-172.75999450683594 -123.53099822998047,-172.75999450683594 C-90.48100280761719,-167.65699768066406 -41.54399871826172,-167.77200317382812 -15.187999725341797,-191.8489990234375 C-15.187999725341797,-191.8489990234375 -15.187999725341797,-191.8489990234375 -15.187999725341797,-191.8489990234375z"></path></g><g opacity="1" transform="matrix(1,0,0,1,-159.5,-277.5)"><g opacity="1" transform="matrix(1,0,0,1,97.93599700927734,136.37399291992188)"><path stroke-linecap="round" stroke-linejoin="round" fill-opacity="0" stroke="rgb(183,11,0)" stroke-opacity="1" stroke-width="8" d=" M-55.55500030517578,9.262999534606934 C-23.976999282836914,14.32699966430664 28.659000396728516,9.005999565124512 55.38199996948242,-9.963000297546387"></path></g><g opacity="1" transform="matrix(1,0,0,1,212.01400756835938,413.7539978027344)"><path stroke-linecap="round" stroke-linejoin="round" fill-opacity="0" stroke="rgb(112,11,153)" stroke-opacity="1" stroke-width="3" d=" M-19.905000686645508,37.46699905395508 C3.134000062942505,3.6029999256134033 21.104999542236328,-29.554000854492188 63.46099853515625,-42.29199981689453"></path></g><g opacity="1" transform="matrix(1,0,0,1,69.16799926757812,328.02899169921875)"><path stroke-linecap="round" stroke-linejoin="round" fill-opacity="0" stroke="rgb(112,11,153)" stroke-opacity="1" stroke-width="3" d=" M-2.8269999027252197,-33.255001068115234 C16.823999404907227,-31.256000518798828 33.935001373291016,-21.841999053955078 42.542999267578125,-8.454000473022461 C51.1510009765625,4.934000015258789 51.255001068115234,22.297000885009766 36.891998291015625,40.19200134277344"></path></g></g></g><g style="display: none;"><g><path stroke-linecap="round" stroke-linejoin="round" fill-opacity="0"></path></g><g><path stroke-linecap="butt" stroke-linejoin="round" fill-opacity="0"></path></g><g><path stroke-linecap="butt" stroke-linejoin="round" fill-opacity="0"></path></g><g><path stroke-linecap="butt" stroke-linejoin="round" fill-opacity="0"></path></g><g><path fill="url(#__lottie_element_8)"></path></g><g><path fill="url(#__lottie_element_9)"></path></g><g><path fill="url(#__lottie_element_10)"></path><path fill="url(#__lottie_element_11)"></path><path fill="url(#__lottie_element_12)"></path></g><g><g><path stroke-linecap="butt" stroke-linejoin="round" fill-opacity="0"></path></g><g><path stroke-linecap="butt" stroke-linejoin="round" fill-opacity="0"></path></g><g><path stroke-linecap="butt" stroke-linejoin="round" fill-opacity="0"></path></g><g><path stroke-linecap="butt" stroke-linejoin="round" fill-opacity="0"></path></g></g><g><g><path stroke-linecap="round" stroke-linejoin="round" fill-opacity="0"></path></g><g><path stroke-linecap="round" stroke-linejoin="round" fill-opacity="0"></path></g><g><path stroke-linecap="round" stroke-linejoin="round" fill-opacity="0"></path></g><g><path stroke-linecap="round" stroke-linejoin="round" fill-opacity="0"></path></g></g><g><path stroke="url(#__lottie_element_13)" mask="url(#__lottie_element_15)" stroke-linecap="round" stroke-linejoin="round" fill-opacity="0"></path></g><g><g><g><path></path></g><g><path></path></g><g><path></path></g></g></g><g><g><g><path stroke-linecap="round" stroke-linejoin="round" fill-opacity="0"></path></g></g><g><g><path stroke-linecap="round" stroke-linejoin="round" fill-opacity="0"></path></g><g><path stroke-linecap="round" stroke-linejoin="round" fill-opacity="0"></path></g><g><path stroke-linecap="round" stroke-linejoin="round" fill-opacity="0"></path></g></g></g><g><path stroke-linecap="round" stroke-linejoin="round" fill-opacity="0"></path><path fill="url(#__lottie_element_16)"></path></g><g><g><path stroke-linecap="round" stroke-linejoin="round" fill-opacity="0"></path></g><g><path stroke-linecap="round" stroke-linejoin="round" fill-opacity="0"></path></g><g><path stroke-linecap="round" stroke-linejoin="round" fill-opacity="0"></path></g></g></g></g></svg>