<svg xmlns="http://www.w3.org/2000/svg" xmlns:xlink="http://www.w3.org/1999/xlink" viewBox="0 0 512 512" width="512" height="512" style="width: 100%; height: 100%; transform: translate3d(0,0,0); content-visibility: visible;" preserveAspectRatio="xMidYMid meet"><defs><clipPath id="__lottie_element_2"><rect width="512" height="512" x="0" y="0"></rect></clipPath><radialGradient id="__lottie_element_9" spreadMethod="pad" gradientUnits="userSpaceOnUse"><stop></stop><stop></stop><stop></stop><stop></stop><stop></stop><stop></stop><stop></stop></radialGradient><radialGradient id="__lottie_element_13" spreadMethod="pad" gradientUnits="userSpaceOnUse"><stop></stop><stop></stop><stop></stop><stop></stop><stop></stop><stop></stop><stop></stop></radialGradient><radialGradient id="__lottie_element_17" spreadMethod="pad" gradientUnits="userSpaceOnUse"><stop></stop><stop></stop><stop></stop><stop></stop><stop></stop><stop></stop><stop></stop></radialGradient><radialGradient id="__lottie_element_24" spreadMethod="pad" gradientUnits="userSpaceOnUse"><stop></stop><stop></stop><stop></stop><stop></stop><stop></stop><stop></stop><stop></stop></radialGradient><radialGradient id="__lottie_element_28" spreadMethod="pad" gradientUnits="userSpaceOnUse"><stop></stop><stop></stop><stop></stop><stop></stop><stop></stop><stop></stop><stop></stop></radialGradient><radialGradient id="__lottie_element_32" spreadMethod="pad" gradientUnits="userSpaceOnUse"><stop></stop><stop></stop><stop></stop><stop></stop><stop></stop><stop></stop><stop></stop></radialGradient><radialGradient id="__lottie_element_36" spreadMethod="pad" gradientUnits="userSpaceOnUse"><stop></stop><stop></stop><stop></stop><stop></stop><stop></stop><stop></stop><stop></stop></radialGradient><radialGradient id="__lottie_element_43" spreadMethod="pad" gradientUnits="userSpaceOnUse"><stop></stop><stop></stop><stop></stop><stop></stop><stop></stop><stop></stop><stop></stop></radialGradient><radialGradient id="__lottie_element_47" spreadMethod="pad" gradientUnits="userSpaceOnUse"><stop></stop><stop></stop><stop></stop><stop></stop><stop></stop><stop></stop><stop></stop></radialGradient><radialGradient id="__lottie_element_51" spreadMethod="pad" gradientUnits="userSpaceOnUse"><stop></stop><stop></stop><stop></stop><stop></stop><stop></stop><stop></stop><stop></stop></radialGradient><linearGradient id="__lottie_element_56" spreadMethod="pad" gradientUnits="userSpaceOnUse"><stop></stop><stop></stop><stop></stop><stop></stop><stop></stop></linearGradient><linearGradient id="__lottie_element_60" spreadMethod="pad" gradientUnits="userSpaceOnUse"><stop></stop><stop></stop><stop></stop><stop></stop><stop></stop></linearGradient><linearGradient id="__lottie_element_66" spreadMethod="pad" gradientUnits="userSpaceOnUse" x1="15.741999626159668" y1="99.68099975585938" x2="29.4689998626709" y2="-69.18399810791016"><stop offset="0%" stop-color="rgb(196,131,83)"></stop><stop offset="40%" stop-color="rgb(163,96,58)"></stop><stop offset="100%" stop-color="rgb(131,61,34)"></stop></linearGradient><linearGradient id="__lottie_element_67" spreadMethod="pad" gradientUnits="userSpaceOnUse" x1="41.46799850463867" y1="-92.21800231933594" x2="-21.827999114990234" y2="32.11399841308594"><stop offset="13%" stop-color="rgb(216,123,71)"></stop><stop offset="34%" stop-color="rgb(236,170,109)"></stop><stop offset="71%" stop-color="rgb(255,216,148)"></stop></linearGradient><linearGradient id="__lottie_element_68" spreadMethod="pad" gradientUnits="userSpaceOnUse" x1="-36.80500030517578" y1="10.979000091552734" x2="2.5820000171661377" y2="-66.42400360107422"><stop offset="2%" stop-color="rgb(255,248,199)" stop-opacity="1"></stop><stop offset="37%" stop-color="rgb(255,249,196)" stop-opacity="0.6000000238418579"></stop><stop offset="80%" stop-color="rgb(255,251,192)" stop-opacity="0.20000000298023224"></stop></linearGradient><linearGradient id="__lottie_element_69" spreadMethod="pad" gradientUnits="userSpaceOnUse" x1="-30.097000122070312" y1="55.96500015258789" x2="26.3799991607666" y2="-61.7760009765625"><stop offset="13%" stop-color="rgb(207,143,91)"></stop><stop offset="47%" stop-color="rgb(190,120,74)"></stop><stop offset="81%" stop-color="rgb(173,97,58)"></stop></linearGradient><linearGradient id="__lottie_element_72" spreadMethod="pad" gradientUnits="userSpaceOnUse"><stop></stop><stop></stop><stop></stop></linearGradient><linearGradient id="__lottie_element_73" spreadMethod="pad" gradientUnits="userSpaceOnUse"><stop></stop><stop></stop><stop></stop></linearGradient><linearGradient id="__lottie_element_77" spreadMethod="pad" gradientUnits="userSpaceOnUse" x1="267.6610107421875" y1="-64.50199890136719" x2="101.0989990234375" y2="83.13400268554688"><stop offset="0%" stop-color="rgb(176,0,90)"></stop><stop offset="42%" stop-color="rgb(162,0,45)"></stop><stop offset="84%" stop-color="rgb(148,0,0)"></stop><stop offset="86%" stop-color="rgb(132,71,7)"></stop><stop offset="87%" stop-color="rgb(115,142,14)"></stop><stop offset="91%" stop-color="rgb(115,142,14)"></stop><stop offset="95%" stop-color="rgb(115,142,14)"></stop><stop offset="98%" stop-color="rgb(100,131,7)"></stop><stop offset="100%" stop-color="rgb(84,120,0)"></stop></linearGradient><linearGradient id="__lottie_element_78" spreadMethod="pad" gradientUnits="userSpaceOnUse" x1="54.72200012207031" y1="117.18000030517578" x2="183.5989990234375" y2="-149.0399932861328"><stop offset="0%" stop-color="rgb(22,47,0)"></stop><stop offset="12%" stop-color="rgb(67,88,0)"></stop><stop offset="23%" stop-color="rgb(111,129,0)"></stop><stop offset="25%" stop-color="rgb(91,65,0)"></stop><stop offset="28%" stop-color="rgb(71,0,0)"></stop><stop offset="64%" stop-color="rgb(108,0,37)"></stop><stop offset="100%" stop-color="rgb(145,0,74)"></stop></linearGradient><radialGradient id="__lottie_element_79" spreadMethod="pad" gradientUnits="userSpaceOnUse" cx="-62.965999603271484" cy="-261.614990234375" r="400.39846550287723" fx="-62.965999603271484" fy="-261.614990234375"><stop offset="0%" stop-color="rgb(255,140,199)"></stop><stop offset="42%" stop-color="rgb(241,79,108)"></stop><stop offset="84%" stop-color="rgb(227,18,18)"></stop><stop offset="86%" stop-color="rgb(235,136,108)"></stop><stop offset="87%" stop-color="rgb(243,255,199)"></stop><stop offset="91%" stop-color="rgb(238,255,135)"></stop><stop offset="95%" stop-color="rgb(234,255,71)"></stop><stop offset="98%" stop-color="rgb(198,227,74)"></stop><stop offset="100%" stop-color="rgb(163,199,78)"></stop></radialGradient><linearGradient id="__lottie_element_80" spreadMethod="pad" gradientUnits="userSpaceOnUse" x1="64.22899627685547" y1="169.39199829101562" x2="-1" y2="-199.92599487304688"><stop offset="0%" stop-color="rgb(62,94,37)"></stop><stop offset="4%" stop-color="rgb(62,94,37)"></stop><stop offset="7%" stop-color="rgb(62,94,37)"></stop><stop offset="17%" stop-color="rgb(122,150,25)"></stop><stop offset="26%" stop-color="rgb(183,207,13)"></stop><stop offset="29%" stop-color="rgb(167,104,6)"></stop><stop offset="32%" stop-color="rgb(150,0,0)"></stop><stop offset="66%" stop-color="rgb(187,16,65)"></stop><stop offset="100%" stop-color="rgb(224,32,130)"></stop></linearGradient><linearGradient id="__lottie_element_81" spreadMethod="pad" gradientUnits="userSpaceOnUse" x1="-134" y1="163" x2="133.62100219726562" y2="163"><stop offset="0%" stop-color="rgb(112,197,145)"></stop><stop offset="35%" stop-color="rgb(96,170,72)"></stop><stop offset="70%" stop-color="rgb(80,143,0)"></stop><stop offset="85%" stop-color="rgb(128,167,0)"></stop><stop offset="100%" stop-color="rgb(175,191,0)"></stop></linearGradient><linearGradient id="__lottie_element_82" spreadMethod="pad" gradientUnits="userSpaceOnUse" x1="-1.8899999856948853" y1="-121.46099853515625" x2="-1.3070000410079956" y2="-156.51100158691406"><stop offset="0%" stop-color="rgb(92,49,49)"></stop><stop offset="50%" stop-color="rgb(118,81,88)"></stop><stop offset="100%" stop-color="rgb(143,113,128)"></stop></linearGradient><linearGradient id="__lottie_element_83" spreadMethod="pad" gradientUnits="userSpaceOnUse" x1="-33.117000579833984" y1="-41.86600112915039" x2="-26.875999450683594" y2="-77.04100036621094"><stop offset="0%" stop-color="rgb(92,49,49)"></stop><stop offset="50%" stop-color="rgb(118,81,88)"></stop><stop offset="100%" stop-color="rgb(143,113,128)"></stop></linearGradient><linearGradient id="__lottie_element_84" spreadMethod="pad" gradientUnits="userSpaceOnUse" x1="29.15399932861328" y1="-36.42599868774414" x2="25.368000030517578" y2="-72.96499633789062"><stop offset="0%" stop-color="rgb(92,49,49)"></stop><stop offset="50%" stop-color="rgb(118,81,88)"></stop><stop offset="100%" stop-color="rgb(143,113,128)"></stop></linearGradient><linearGradient id="__lottie_element_85" spreadMethod="pad" gradientUnits="userSpaceOnUse" x1="71.69100189208984" y1="31.302000045776367" x2="61.55400085449219" y2="-2.5220000743865967"><stop offset="0%" stop-color="rgb(92,49,49)"></stop><stop offset="50%" stop-color="rgb(118,81,88)"></stop><stop offset="100%" stop-color="rgb(143,113,128)"></stop></linearGradient><linearGradient id="__lottie_element_86" spreadMethod="pad" gradientUnits="userSpaceOnUse" x1="-1.1829999685287476" y1="49.00600051879883" x2="-0.7630000114440918" y2="1.7899999618530273"><stop offset="0%" stop-color="rgb(92,49,49)"></stop><stop offset="50%" stop-color="rgb(118,81,88)"></stop><stop offset="100%" stop-color="rgb(143,113,128)"></stop></linearGradient><linearGradient id="__lottie_element_87" spreadMethod="pad" gradientUnits="userSpaceOnUse" x1="-71.6050033569336" y1="39.902000427246094" x2="-65.24700164794922" y2="2.674999952316284"><stop offset="0%" stop-color="rgb(92,49,49)"></stop><stop offset="50%" stop-color="rgb(118,81,88)"></stop><stop offset="100%" stop-color="rgb(143,113,128)"></stop></linearGradient><linearGradient id="__lottie_element_91" spreadMethod="pad" gradientUnits="userSpaceOnUse"><stop></stop><stop></stop><stop></stop></linearGradient><linearGradient id="__lottie_element_92" spreadMethod="pad" gradientUnits="userSpaceOnUse"><stop></stop><stop></stop><stop></stop></linearGradient><linearGradient id="__lottie_element_93" spreadMethod="pad" gradientUnits="userSpaceOnUse"><stop></stop><stop></stop><stop></stop></linearGradient><linearGradient id="__lottie_element_94" spreadMethod="pad" gradientUnits="userSpaceOnUse"><stop></stop><stop></stop><stop></stop></linearGradient></defs><g clip-path="url(#__lottie_element_2)"><g style="display: none;"><g><path></path></g><g><path></path></g><g><path></path></g><g><path></path></g><g><path></path></g><g><path></path></g><g><path></path></g><g><path></path></g></g><g style="display: none;"><g><path></path><path stroke="url(#__lottie_element_91)" stroke-linecap="round" stroke-linejoin="round" fill-opacity="0"></path></g><g><path fill="url(#__lottie_element_92)"></path></g><g><g><path></path></g><g><path></path></g><g><path></path></g><g><path></path></g><g><path stroke="url(#__lottie_element_93)" stroke-linecap="round" stroke-linejoin="round" fill-opacity="0"></path></g></g><g><path stroke="url(#__lottie_element_94)" stroke-linecap="round" stroke-linejoin="round" fill-opacity="0"></path></g></g><g style="display: block;" transform="matrix(0.8241252899169922,0.5664055943489075,-0.5664055943489075,0.8241252899169922,298.6806640625,198.25314331054688)" opacity="1"><g opacity="1" transform="matrix(1,0,0,1,0,0)"><path fill="url(#__lottie_element_77)" fill-opacity="1" d=" M69.90399932861328,-140.41099548339844 C111.29199981689453,-24.011999130249023 136.36599731445312,23.065000534057617 140.093994140625,80.16899871826172 C150.10400390625,111.90899658203125 149.7989959716797,139.33099365234375 145.05299377441406,139.63499450683594 C72.55000305175781,144.27999877929688 -11.031000137329102,-194.46600341796875 28.395000457763672,-188.29600524902344 C28.395000457763672,-188.29600524902344 59.444000244140625,-169.8280029296875 69.90399932861328,-140.41099548339844z"></path><path stroke="url(#__lottie_element_78)" stroke-linecap="round" stroke-linejoin="round" fill-opacity="0" stroke-opacity="1" stroke-width="8" d=" M69.90399932861328,-140.41099548339844 C111.29199981689453,-24.011999130249023 136.36599731445312,23.065000534057617 140.093994140625,80.16899871826172 C150.10400390625,111.90899658203125 149.7989959716797,139.33099365234375 145.05299377441406,139.63499450683594 C72.55000305175781,144.27999877929688 -11.031000137329102,-194.46600341796875 28.395000457763672,-188.29600524902344 C28.395000457763672,-188.29600524902344 59.444000244140625,-169.8280029296875 69.90399932861328,-140.41099548339844z"></path></g><g opacity="1" transform="matrix(1,0,0,1,0,0)"><g opacity="1" transform="matrix(1,0,0,1,0,0)"><path fill="url(#__lottie_element_79)" fill-opacity="1" d=" M-145.14999389648438,139.19500732421875 C-143.9949951171875,128.41600036621094 -137.22000122070312,111.69000244140625 -126.3030014038086,93.62699890136719 C-111.12799835205078,13.475000381469727 -29.760000228881836,-137.32200622558594 -15.675000190734863,-167.16900634765625 C-1.590000033378601,-197.01600646972656 31.283000946044922,-199.5709991455078 41.69499969482422,-171.3800048828125 C51.09400177001953,-145.93099975585938 90.76799774169922,-23.861000061035156 113.79299926757812,52.14500045776367 C122.56900024414062,72.28600311279297 127.74299621582031,85.11100006103516 125.55899810791016,101.09100341796875 C125.55899810791016,101.09100341796875 70.17500305175781,161.91600036621094 12.072999954223633,172.22799682617188"></path><path stroke="url(#__lottie_element_80)" stroke-linecap="round" stroke-linejoin="round" fill-opacity="0" stroke-opacity="1" stroke-width="8" d=" M-145.14999389648438,139.19500732421875 C-143.9949951171875,128.41600036621094 -137.22000122070312,111.69000244140625 -126.3030014038086,93.62699890136719 C-111.12799835205078,13.475000381469727 -29.760000228881836,-137.32200622558594 -15.675000190734863,-167.16900634765625 C-1.590000033378601,-197.01600646972656 31.283000946044922,-199.5709991455078 41.69499969482422,-171.3800048828125 C51.09400177001953,-145.93099975585938 90.76799774169922,-23.861000061035156 113.79299926757812,52.14500045776367 C122.56900024414062,72.28600311279297 127.74299621582031,85.11100006103516 125.55899810791016,101.09100341796875 C125.55899810791016,101.09100341796875 70.17500305175781,161.91600036621094 12.072999954223633,172.22799682617188"></path></g><g opacity="1" transform="matrix(1,0,0,1,0,0)"><path fill="url(#__lottie_element_81)" fill-opacity="1" d=" M-145.14999389648438,139.19500732421875 C-145.1479949951172,139.197998046875 -109.49400329589844,177.4550018310547 -87.00299835205078,187.74899291992188 C-34.46900177001953,211.79400634765625 89.88500213623047,175.17799377441406 143.7550048828125,138.8459930419922 C132.93899536132812,124.01000213623047 125.55699920654297,101.09400177001953 125.55899810791016,101.09100341796875 C56.784000396728516,146.31399536132812 -52.98400115966797,172.5970001220703 -145.14999389648438,139.19500732421875z"></path><path stroke-linecap="round" stroke-linejoin="round" fill-opacity="0" stroke="rgb(56,119,0)" stroke-opacity="1" stroke-width="8" d=" M-145.14999389648438,139.19500732421875 C-145.1479949951172,139.197998046875 -109.49400329589844,177.4550018310547 -87.00299835205078,187.74899291992188 C-34.46900177001953,211.79400634765625 89.88500213623047,175.17799377441406 143.7550048828125,138.8459930419922 C132.93899536132812,124.01000213623047 125.55699920654297,101.09400177001953 125.55899810791016,101.09100341796875 C56.784000396728516,146.31399536132812 -52.98400115966797,172.5970001220703 -145.14999389648438,139.19500732421875z"></path></g><g opacity="0.66" transform="matrix(1,0,0,1,0,0)"><path fill="rgb(56,119,0)" fill-opacity="1" d=" M-107.96399688720703,149.78399658203125 C-92.25399780273438,171.85800170898438 -64.20999908447266,194.66799926757812 -64.20999908447266,194.66799926757812 C-49.09400177001953,197.2449951171875 -24.875999450683594,194.2310028076172 -24.875999450683594,194.2310028076172 C-46.2760009765625,166.13499450683594 -48.823001861572266,154.4239959716797 -48.823001861572266,154.4239959716797 C-73.7969970703125,156.19400024414062 -107.96399688720703,149.78399658203125 -107.96399688720703,149.78399658203125z"></path></g><g opacity="0.66" transform="matrix(1,0,0,1,0,0)"><path fill="rgb(56,119,0)" fill-opacity="1" d=" M82.56300354003906,124.78099822998047 C92.59600067138672,144.75900268554688 108.61299896240234,157.51100158691406 108.61299896240234,157.51100158691406 C91.62799835205078,170.5749969482422 44.145999908447266,181.51199340820312 44.145999908447266,181.51199340820312 C31.961999893188477,167.3209991455078 22.913000106811523,147.21099853515625 22.913000106811523,147.21099853515625 C58.060001373291016,136.29299926757812 82.56300354003906,124.78099822998047 82.56300354003906,124.78099822998047z"></path></g><g opacity="1" transform="matrix(1,0,0,1,0,0)"><g opacity="1" transform="matrix(1,0,0,1,0,0)"><path fill="url(#__lottie_element_82)" fill-opacity="1" d=" M7.665999889373779,-119.197998046875 C-5.703999996185303,-120.45999908447266 -1.812000036239624,-163.3780059814453 11.71500015258789,-162.1009979248047 C25.084999084472656,-160.83900451660156 21.19300079345703,-117.9209976196289 7.665999889373779,-119.197998046875z"></path><path stroke-linecap="round" stroke-linejoin="round" fill-opacity="0" stroke="rgb(255,164,164)" stroke-opacity="1" stroke-width="6" d=" M7.665999889373779,-119.197998046875 C-5.703999996185303,-120.45999908447266 -1.812000036239624,-163.3780059814453 11.71500015258789,-162.1009979248047 C25.084999084472656,-160.83900451660156 21.19300079345703,-117.9209976196289 7.665999889373779,-119.197998046875z"></path></g><g opacity="1" transform="matrix(1,0,0,1,0,0)"><path fill="url(#__lottie_element_83)" fill-opacity="1" d=" M-34.176998138427734,-32.691001892089844 C-47.38600158691406,-35.3390007019043 -39.042999267578125,-77.75700378417969 -25.679000854492188,-75.0780029296875 C-12.470000267028809,-72.43000030517578 -20.812999725341797,-30.011999130249023 -34.176998138427734,-32.691001892089844z"></path><path stroke-linecap="round" stroke-linejoin="round" fill-opacity="0" stroke="rgb(255,164,164)" stroke-opacity="1" stroke-width="6" d=" M-34.176998138427734,-32.691001892089844 C-47.38600158691406,-35.3390007019043 -39.042999267578125,-77.75700378417969 -25.679000854492188,-75.0780029296875 C-12.470000267028809,-72.43000030517578 -20.812999725341797,-30.011999130249023 -34.176998138427734,-32.691001892089844z"></path></g><g opacity="1" transform="matrix(1,0,0,1,0,0)"><path fill="url(#__lottie_element_84)" fill-opacity="1" d=" M29.30699920654297,-46.92900085449219 C15.734999656677246,-46.53099822998047 14.300000190734863,-90.0780029296875 28.0310001373291,-90.4800033569336 C41.60300064086914,-90.87799835205078 43.03799819946289,-47.33100128173828 29.30699920654297,-46.92900085449219z"></path><path stroke-linecap="round" stroke-linejoin="round" fill-opacity="0" stroke="rgb(255,164,164)" stroke-opacity="1" stroke-width="6" d=" M29.30699920654297,-46.92900085449219 C15.734999656677246,-46.53099822998047 14.300000190734863,-90.0780029296875 28.0310001373291,-90.4800033569336 C41.60300064086914,-90.87799835205078 43.03799819946289,-47.33100128173828 29.30699920654297,-46.92900085449219z"></path></g><g opacity="1" transform="matrix(1,0,0,1,0,0)"><path fill="url(#__lottie_element_85)" fill-opacity="1" d=" M67.45600128173828,28.27400016784668 C54.2400016784668,30.361000061035156 47.38600158691406,-12.02400016784668 60.757999420166016,-14.13599967956543 C73.9739990234375,-16.222999572753906 80.8280029296875,26.16200065612793 67.45600128173828,28.27400016784668z"></path><path stroke-linecap="round" stroke-linejoin="round" fill-opacity="0" stroke="rgb(255,164,164)" stroke-opacity="1" stroke-width="6" d=" M67.45600128173828,28.27400016784668 C54.2400016784668,30.361000061035156 47.38600158691406,-12.02400016784668 60.757999420166016,-14.13599967956543 C73.9739990234375,-16.222999572753906 80.8280029296875,26.16200065612793 67.45600128173828,28.27400016784668z"></path></g><g opacity="1" transform="matrix(1,0,0,1,0,0)"><path fill="url(#__lottie_element_86)" fill-opacity="1" d=" M-3.00600004196167,52.02000045776367 C-17.701000213623047,51.26499938964844 -15.45199966430664,4.099999904632568 -0.5839999914169312,4.863999843597412 C14.111000061035156,5.61899995803833 11.862000465393066,52.784000396728516 -3.00600004196167,52.02000045776367z"></path><path stroke-linecap="round" stroke-linejoin="round" fill-opacity="0" stroke="rgb(255,164,164)" stroke-opacity="1" stroke-width="6" d=" M-3.00600004196167,52.02000045776367 C-17.701000213623047,51.26499938964844 -15.45199966430664,4.099999904632568 -0.5839999914169312,4.863999843597412 C14.111000061035156,5.61899995803833 11.862000465393066,52.784000396728516 -3.00600004196167,52.02000045776367z"></path></g><g opacity="1" transform="matrix(1,0,0,1,0,0)"><path fill="url(#__lottie_element_87)" fill-opacity="1" d=" M-77.03800201416016,58.34000015258789 C-92.24299621582031,53.79600143432617 -77.83899688720703,4.951000213623047 -62.45500183105469,9.548999786376953 C-47.25,14.093000411987305 -61.65399932861328,62.9379997253418 -77.03800201416016,58.34000015258789z"></path><path stroke-linecap="round" stroke-linejoin="round" fill-opacity="0" stroke="rgb(255,164,164)" stroke-opacity="1" stroke-width="6" d=" M-77.03800201416016,58.34000015258789 C-92.24299621582031,53.79600143432617 -77.83899688720703,4.951000213623047 -62.45500183105469,9.548999786376953 C-47.25,14.093000411987305 -61.65399932861328,62.9379997253418 -77.03800201416016,58.34000015258789z"></path></g></g></g></g><g style="display: block;" transform="matrix(0.8548212647438049,0.6097380518913269,-0.6097380518913269,0.8548212647438049,173.75869750976562,-94.42718505859375)" opacity="1"><g opacity="1" transform="matrix(1,0,0,1,265.5369873046875,410.6260070800781)"><path fill="rgb(207,130,83)" fill-opacity="1" d=" M-18.51099967956543,-90.03099822998047 C-18.51099967956543,-90.03099822998047 -24.947999954223633,80.06400299072266 -24.947999954223633,80.06400299072266 C-21.667999267578125,93.93099975585938 -7.489999771118164,97.77799987792969 1.4769999980926514,96.25900268554688 C13.300000190734863,94.25700378417969 25.14699935913086,84.34100341796875 24.945999145507812,66.74099731445312 C24.64299964904785,40.20199966430664 24.648000717163086,-55.91299819946289 24.56999969482422,-86.30699920654297 C24.566999435424805,-87.63400268554688 15.993000030517578,-96.9020004272461 14.27400016784668,-96.55999755859375 C14.27400016784668,-96.55999755859375 -18.51099967956543,-90.03099822998047 -18.51099967956543,-90.03099822998047z"></path><path stroke="url(#__lottie_element_66)" stroke-linecap="round" stroke-linejoin="round" fill-opacity="0" stroke-opacity="1" stroke-width="8" d=" M-18.51099967956543,-90.03099822998047 C-18.51099967956543,-90.03099822998047 -24.947999954223633,80.06400299072266 -24.947999954223633,80.06400299072266 C-21.667999267578125,93.93099975585938 -7.489999771118164,97.77799987792969 1.4769999980926514,96.25900268554688 C13.300000190734863,94.25700378417969 25.14699935913086,84.34100341796875 24.945999145507812,66.74099731445312 C24.64299964904785,40.20199966430664 24.648000717163086,-55.91299819946289 24.56999969482422,-86.30699920654297 C24.566999435424805,-87.63400268554688 15.993000030517578,-96.9020004272461 14.27400016784668,-96.55999755859375 C14.27400016784668,-96.55999755859375 -18.51099967956543,-90.03099822998047 -18.51099967956543,-90.03099822998047z"></path></g><g opacity="1" transform="matrix(1,0,0,1,261.5979919433594,408.5199890136719)"><path fill="url(#__lottie_element_67)" fill-opacity="1" d=" M-21.72800064086914,-90.9749984741211 C-21.72800064086914,-90.9749984741211 -21.364999771118164,52.84700012207031 -21.31599998474121,78.12200164794922 C-21.259000778198242,107.78099822998047 21.788999557495117,97.52799987792969 21.72800064086914,65.7969970703125 C21.66699981689453,34.066001892089844 21.33099937438965,-95.74500274658203 21.33099937438965,-95.74500274658203 C21.33099937438965,-95.74500274658203 -21.72800064086914,-90.9749984741211 -21.72800064086914,-90.9749984741211z"></path></g><g opacity="1" transform="matrix(1,0,0,1,0,0)"><g opacity="0.15" transform="matrix(1,0,0,1,271.91900634765625,426.6029968261719)"><path fill="rgb(209,121,56)" fill-opacity="1" d=" M3.303999900817871,68.80500030517578 C11.401000022888184,44.59400177001953 -12.75,12.041000366210938 -11.255000114440918,-11.732000350952148 C-9.760000228881836,-35.505001068115234 11.15999984741211,-55.09700012207031 11.125,-68.80500030517578 C11.125,-68.80500030517578 11.321999549865723,-44.457000732421875 11.321999549865723,-44.457000732421875 C11.321999549865723,-44.457000732421875 -2.252000093460083,-27.141000747680664 -3.7149999141693115,-12.333000183105469 C-5.177999973297119,2.4739999771118164 9.204000473022461,29.187000274658203 8.947999954223633,55.19499969482422 C8.947999954223633,55.19499969482422 3.303999900817871,68.80500030517578 3.303999900817871,68.80500030517578z"></path></g><g opacity="0.15" transform="matrix(1,0,0,1,277.2170104980469,419.7489929199219)"><path fill="rgb(209,121,56)" fill-opacity="1" d=" M2.874000072479248,14.831000328063965 C-2.1440000534057617,7.244999885559082 -6.750999927520752,-6.679999828338623 2.2260000705718994,-14.831000328063965 C2.2260000705718994,-14.831000328063965 2.874000072479248,14.831000328063965 2.874000072479248,14.831000328063965z"></path></g><g opacity="0.15" transform="matrix(1,0,0,1,259.98199462890625,478.8590087890625)"><path fill="rgb(209,121,56)" fill-opacity="1" d=" M-12.595000267028809,23.048999786376953 C-8.57800006866455,12.53499984741211 -5.289999961853027,-1.7209999561309814 -5.5269999504089355,-12.36299991607666 C-5.763999938964844,-23.0049991607666 -1.0729999542236328,-30.159000396728516 7.190999984741211,-18.409000396728516 C15.454999923706055,-6.658999919891357 11.781000137329102,19.691999435424805 11.781000137329102,19.691999435424805 C11.781000137329102,19.691999435424805 3.86899995803833,21.047000885009766 3.86899995803833,21.047000885009766 C3.86899995803833,21.047000885009766 12.395000457763672,0.3449999988079071 1.6979999542236328,-13.690999984741211 C-4.078000068664551,-21.270000457763672 0.10999999940395355,8.093999862670898 -8.196000099182129,21.990999221801758 C-11.107999801635742,26.863000869750977 -12.595000267028809,23.048999786376953 -12.595000267028809,23.048999786376953z"></path></g><g opacity="0.15" transform="matrix(1,0,0,1,256.5559997558594,399.9739990234375)"><path fill="rgb(209,121,56)" fill-opacity="1" d=" M-16.302000045776367,73.8499984741211 C-15.182000160217285,38.474998474121094 4.24399995803833,45.707000732421875 -0.3659999966621399,30.913000106811523 C-7.367000102996826,8.449000358581543 -7.926000118255615,-0.42800000309944153 9.281000137329102,-21.302000045776367 C26.488000869750977,-42.17599868774414 12.642000198364258,-74.1240005493164 12.642000198364258,-74.1240005493164 C12.642000198364258,-74.1240005493164 1.0260000228881836,-74.2699966430664 1.0260000228881836,-74.2699966430664 C1.0260000228881836,-74.2699966430664 19.243000030517578,-48.0620002746582 5.561999797821045,-31.93600082397461 C-9.12600040435791,-14.62399959564209 -13.602999687194824,4.572999954223633 -6.938000202178955,24.503999710083008 C-0.27300000190734863,44.435001373291016 -19.13800048828125,41.805999755859375 -17.844999313354492,59.92499923706055 C-16.552000045776367,78.04399871826172 -16.302000045776367,73.8499984741211 -16.302000045776367,73.8499984741211z"></path></g><g opacity="0.15" transform="matrix(1,0,0,1,259.2950134277344,492.29400634765625)"><path fill="rgb(209,121,56)" fill-opacity="1" d=" M-4.1579999923706055,10.081000328063965 C2.5439999103546143,-4.701000213623047 0.5099999904632568,-9.770000457763672 2.062000036239624,-10.395999908447266 C5.991000175476074,-11.980999946594238 3.4730000495910645,7.2870001792907715 1.9390000104904175,9.836999893188477 C1.152999997138977,11.144000053405762 -4.1579999923706055,10.081000328063965 -4.1579999923706055,10.081000328063965z"></path></g><g opacity="0.15" transform="matrix(1,0,0,1,244.18800354003906,475.87200927734375)"><path fill="rgb(209,121,56)" fill-opacity="1" d=" M-4.0929999351501465,-16.968000411987305 C0.6589999794960022,-15.227999687194824 9.276000022888184,-8.166999816894531 -0.09200000017881393,16.968000411987305 C-0.09200000017881393,16.968000411987305 -4.0929999351501465,-16.968000411987305 -4.0929999351501465,-16.968000411987305z"></path></g><g opacity="0.15" transform="matrix(1,0,0,1,248.16900634765625,354.7510070800781)"><path fill="rgb(209,121,56)" fill-opacity="1" d=" M-5.500999927520752,18.04199981689453 C4.705999851226807,10.315999984741211 12.378999710083008,-7.554999828338623 5.751999855041504,-15.645000457763672 C-0.875,-23.735000610351562 -8.227999687194824,-8.758000373840332 -8.227999687194824,-8.758000373840332 C-8.227999687194824,-8.758000373840332 0.17499999701976776,-15.184000015258789 2.6489999294281006,-7.901000022888184 C5.123000144958496,-0.6179999709129333 -6.638000011444092,11.769000053405762 -6.638000011444092,11.769000053405762 C-6.638000011444092,11.769000053405762 -5.500999927520752,18.04199981689453 -5.500999927520752,18.04199981689453z"></path></g></g><g opacity="1" transform="matrix(1,0,0,1,265.28900146484375,408.8760070800781)"><path stroke="url(#__lottie_element_68)" stroke-linecap="butt" stroke-linejoin="miter" fill-opacity="0" stroke-miterlimit="10" stroke-opacity="1" stroke-width="8" d=" M-18.0310001373291,-91.99199676513672 C-18.0310001373291,-91.99199676513672 -17.672000885009766,48.930999755859375 -17.624000549316406,74.20600128173828 C-17.566999435424805,103.86499786376953 17.746999740600586,94.10700225830078 17.68600082397461,62.375999450683594"></path></g><g opacity="1" transform="matrix(1,0,0,1,261.6029968261719,408.7879943847656)"><path stroke="url(#__lottie_element_69)" stroke-linecap="round" stroke-linejoin="round" fill-opacity="0" stroke-opacity="1" stroke-width="8" d=" M-17.62700080871582,-91.697998046875 C-19.96299934387207,-91.43900299072266 -21.729000091552734,-89.46700286865234 -21.722999572753906,-87.11699676513672 C-21.663000106811523,-63.417999267578125 -21.364999771118164,55.130001068115234 -21.320999145507812,77.85399627685547 C-21.263999938964844,107.51300048828125 21.784000396728516,97.26000213623047 21.722999572753906,65.52899932861328 C21.66900062561035,37.56999969482422 21.402000427246094,-66.53900146484375 21.339000701904297,-90.89399719238281 C21.332000732421875,-93.63200378417969 18.950000762939453,-95.7509994506836 16.229000091552734,-95.4489974975586 C16.229000091552734,-95.4489974975586 -17.62700080871582,-91.697998046875 -17.62700080871582,-91.697998046875z"></path></g><g opacity="1" transform="matrix(1,0,0,1,253.09800720214844,329.5899963378906)"><path stroke-linecap="round" stroke-linejoin="round" fill-opacity="0" stroke="rgb(40,85,0)" stroke-opacity="1" stroke-width="8" d=" M-21.033000946044922,-11.312999725341797 C-21.033000946044922,-11.312999725341797 32.12200164794922,-20.33099937438965 47.505001068115234,-15.930999755859375"></path></g></g><g style="display: none;"><g><path fill="url(#__lottie_element_72)"></path><path stroke="url(#__lottie_element_73)" stroke-linecap="round" stroke-linejoin="round" fill-opacity="0"></path></g></g><g style="display: none;"><g><path stroke="url(#__lottie_element_60)" stroke-linecap="round" stroke-linejoin="round" fill-opacity="0"></path></g></g><g style="display: none;"><g><path stroke="url(#__lottie_element_56)" stroke-linecap="round" stroke-linejoin="round" fill-opacity="0"></path></g></g><g style="display: none;"><g><path fill="url(#__lottie_element_51)"></path><path stroke-linecap="round" stroke-linejoin="round" fill-opacity="0"></path></g><g><path></path></g></g><g style="display: none;"><g><path fill="url(#__lottie_element_47)"></path><path stroke-linecap="round" stroke-linejoin="round" fill-opacity="0"></path></g><g><path></path></g></g><g style="display: none;"><g><path fill="url(#__lottie_element_43)"></path><path stroke-linecap="round" stroke-linejoin="round" fill-opacity="0"></path></g><g><path></path></g></g><g style="display: none;"><g><path></path></g><g><path></path></g><g><path></path></g><g><path></path></g><g><path></path></g><g><path></path></g><g><path></path></g><g><path></path></g></g><g style="display: none;"><g><path fill="url(#__lottie_element_36)"></path><path stroke-linecap="round" stroke-linejoin="round" fill-opacity="0"></path></g><g><path></path></g></g><g style="display: none;"><g><path fill="url(#__lottie_element_32)"></path><path stroke-linecap="round" stroke-linejoin="round" fill-opacity="0"></path></g><g><path></path></g></g><g style="display: none;"><g><path fill="url(#__lottie_element_28)"></path><path stroke-linecap="round" stroke-linejoin="round" fill-opacity="0"></path></g><g><path></path></g></g><g style="display: none;"><g><path fill="url(#__lottie_element_24)"></path><path stroke-linecap="round" stroke-linejoin="round" fill-opacity="0"></path></g><g><path></path></g></g><g style="display: none;"><g><path></path></g><g><path></path></g><g><path></path></g><g><path></path></g><g><path></path></g><g><path></path></g><g><path></path></g><g><path></path></g></g><g style="display: none;"><g><path fill="url(#__lottie_element_17)"></path><path stroke-linecap="round" stroke-linejoin="round" fill-opacity="0"></path></g><g><path></path></g></g><g style="display: none;"><g><path fill="url(#__lottie_element_13)"></path><path stroke-linecap="round" stroke-linejoin="round" fill-opacity="0"></path></g><g><path></path></g></g><g style="display: none;"><g><path fill="url(#__lottie_element_9)"></path><path stroke-linecap="round" stroke-linejoin="round" fill-opacity="0"></path></g><g><path></path></g></g><g style="display: none;"><g><path></path></g><g><path></path></g><g><path></path></g><g><path></path></g><g><path></path></g><g><path></path></g><g><path></path></g><g><path></path></g></g></g></svg>