<svg xmlns="http://www.w3.org/2000/svg" xmlns:xlink="http://www.w3.org/1999/xlink" viewBox="0 0 512 512" width="512" height="512" style="width: 100%; height: 100%; transform: translate3d(0,0,0); content-visibility: visible;" preserveAspectRatio="xMidYMid meet"><defs><clipPath id="__lottie_element_2"><rect width="512" height="512" x="0" y="0"></rect></clipPath><linearGradient id="__lottie_element_11" spreadMethod="pad" gradientUnits="userSpaceOnUse" x1="-72.08499908447266" y1="-92.06800079345703" x2="91.03700256347656" y2="82.0260009765625"><stop offset="3%" stop-color="rgb(154,62,0)"></stop><stop offset="27%" stop-color="rgb(172,42,12)"></stop><stop offset="70%" stop-color="rgb(191,22,24)"></stop></linearGradient><linearGradient id="__lottie_element_12" spreadMethod="pad" gradientUnits="userSpaceOnUse" x1="-56.06399917602539" y1="-53.67100143432617" x2="43.66400146484375" y2="50.1510009765625"><stop offset="3%" stop-color="rgb(154,62,0)"></stop><stop offset="27%" stop-color="rgb(205,90,12)"></stop><stop offset="70%" stop-color="rgb(255,117,24)"></stop></linearGradient><linearGradient id="__lottie_element_16" spreadMethod="pad" gradientUnits="userSpaceOnUse" x1="-24.594999313354492" y1="46.90700149536133" x2="60.57600021362305" y2="-65.26899719238281"><stop offset="10%" stop-color="rgb(76,103,0)"></stop><stop offset="31%" stop-color="rgb(108,151,5)"></stop><stop offset="68%" stop-color="rgb(139,199,9)"></stop></linearGradient><radialGradient id="__lottie_element_17" spreadMethod="pad" gradientUnits="userSpaceOnUse" cx="-0.7860000133514404" cy="-0.08900000154972076" r="50.50199818611145" fx="-0.7860000133514404" fy="-0.08900000154972076"><stop offset="30%" stop-color="rgb(255,255,255)"></stop><stop offset="91%" stop-color="rgb(215,212,210)"></stop><stop offset="100%" stop-color="rgb(176,170,166)"></stop></radialGradient><radialGradient id="__lottie_element_18" spreadMethod="pad" gradientUnits="userSpaceOnUse" cx="0.01600000075995922" cy="0.6320000290870667" r="22.65000036545098" fx="0.01600000075995922" fy="0.6320000290870667"><stop offset="5%" stop-color="rgb(10,36,51)"></stop><stop offset="59%" stop-color="rgb(6,19,27)"></stop><stop offset="100%" stop-color="rgb(2,2,2)"></stop></radialGradient><radialGradient id="__lottie_element_19" spreadMethod="pad" gradientUnits="userSpaceOnUse" cx="0.6269999742507935" cy="0.3019999861717224" r="9.262143256659401" fx="0.6269999742507935" fy="0.3019999861717224"><stop offset="0%" stop-color="rgb(255,255,255)" stop-opacity="1"></stop><stop offset="57%" stop-color="rgb(255,255,255)" stop-opacity="0.5"></stop><stop offset="100%" stop-color="rgb(255,255,255)" stop-opacity="0"></stop></radialGradient><radialGradient id="__lottie_element_20" spreadMethod="pad" gradientUnits="userSpaceOnUse" cx="0.8270000219345093" cy="0.34200000762939453" r="12.593000054359436" fx="0.8270000219345093" fy="0.34200000762939453"><stop offset="0%" stop-color="rgb(255,255,255)" stop-opacity="1"></stop><stop offset="57%" stop-color="rgb(255,255,255)" stop-opacity="0.5"></stop><stop offset="100%" stop-color="rgb(255,255,255)" stop-opacity="0"></stop></radialGradient><radialGradient id="__lottie_element_21" spreadMethod="pad" gradientUnits="userSpaceOnUse" cx="0.061000000685453415" cy="0.828000009059906" r="5.34000002220273" fx="0.061000000685453415" fy="0.828000009059906"><stop offset="0%" stop-color="rgb(255,255,255)" stop-opacity="1"></stop><stop offset="57%" stop-color="rgb(255,255,255)" stop-opacity="0.5"></stop><stop offset="100%" stop-color="rgb(255,255,255)" stop-opacity="0"></stop></radialGradient><linearGradient id="__lottie_element_22" spreadMethod="pad" gradientUnits="userSpaceOnUse" x1="58.64400100708008" y1="-0.6179999709129333" x2="-58.926998138427734" y2="-0.6179999709129333"><stop offset="10%" stop-color="rgb(76,103,0)"></stop><stop offset="31%" stop-color="rgb(108,151,5)"></stop><stop offset="68%" stop-color="rgb(139,199,9)"></stop></linearGradient><linearGradient id="__lottie_element_23" spreadMethod="pad" gradientUnits="userSpaceOnUse" x1="-57.48699951171875" y1="0.4659999907016754" x2="58.73699951171875" y2="0.4659999907016754"><stop offset="10%" stop-color="rgb(76,103,0)"></stop><stop offset="49%" stop-color="rgb(131,179,5)"></stop><stop offset="54%" stop-color="rgb(186,255,9)"></stop><stop offset="60%" stop-color="rgb(162,227,9)"></stop><stop offset="100%" stop-color="rgb(139,199,9)"></stop></linearGradient><linearGradient id="__lottie_element_27" spreadMethod="pad" gradientUnits="userSpaceOnUse" x1="-24.594999313354492" y1="46.90700149536133" x2="60.57600021362305" y2="-65.26899719238281"><stop offset="10%" stop-color="rgb(76,103,0)"></stop><stop offset="31%" stop-color="rgb(108,151,5)"></stop><stop offset="68%" stop-color="rgb(139,199,9)"></stop></linearGradient><radialGradient id="__lottie_element_28" spreadMethod="pad" gradientUnits="userSpaceOnUse" cx="-0.7860000133514404" cy="-0.08900000154972076" r="50.50199818611145" fx="-0.7860000133514404" fy="-0.08900000154972076"><stop offset="30%" stop-color="rgb(255,255,255)"></stop><stop offset="91%" stop-color="rgb(215,212,210)"></stop><stop offset="100%" stop-color="rgb(176,170,166)"></stop></radialGradient><radialGradient id="__lottie_element_29" spreadMethod="pad" gradientUnits="userSpaceOnUse" cx="0.01600000075995922" cy="0.6320000290870667" r="22.65000036545098" fx="0.01600000075995922" fy="0.6320000290870667"><stop offset="5%" stop-color="rgb(10,36,51)"></stop><stop offset="59%" stop-color="rgb(6,19,27)"></stop><stop offset="100%" stop-color="rgb(2,2,2)"></stop></radialGradient><radialGradient id="__lottie_element_30" spreadMethod="pad" gradientUnits="userSpaceOnUse" cx="0.44200000166893005" cy="0.02500000037252903" r="9.443000227212906" fx="0.4441586086680227" fy="0.02476016246357864"><stop offset="0%" stop-color="rgb(255,255,255)" stop-opacity="1"></stop><stop offset="57%" stop-color="rgb(255,255,255)" stop-opacity="0.5"></stop><stop offset="100%" stop-color="rgb(255,255,255)" stop-opacity="0"></stop></radialGradient><radialGradient id="__lottie_element_31" spreadMethod="pad" gradientUnits="userSpaceOnUse" cx="0.8270000219345093" cy="0.34200000762939453" r="12.593000054359436" fx="0.8270000219345093" fy="0.34200000762939453"><stop offset="0%" stop-color="rgb(255,255,255)" stop-opacity="1"></stop><stop offset="57%" stop-color="rgb(255,255,255)" stop-opacity="0.5"></stop><stop offset="100%" stop-color="rgb(255,255,255)" stop-opacity="0"></stop></radialGradient><radialGradient id="__lottie_element_32" spreadMethod="pad" gradientUnits="userSpaceOnUse" cx="0.061000000685453415" cy="0.828000009059906" r="5.34000002220273" fx="0.061000000685453415" fy="0.828000009059906"><stop offset="0%" stop-color="rgb(255,255,255)" stop-opacity="1"></stop><stop offset="57%" stop-color="rgb(255,255,255)" stop-opacity="0.5"></stop><stop offset="100%" stop-color="rgb(255,255,255)" stop-opacity="0"></stop></radialGradient><linearGradient id="__lottie_element_33" spreadMethod="pad" gradientUnits="userSpaceOnUse" x1="58.64400100708008" y1="-0.6179999709129333" x2="-58.926998138427734" y2="-0.6179999709129333"><stop offset="10%" stop-color="rgb(76,103,0)"></stop><stop offset="31%" stop-color="rgb(108,151,5)"></stop><stop offset="68%" stop-color="rgb(139,199,9)"></stop></linearGradient><linearGradient id="__lottie_element_34" spreadMethod="pad" gradientUnits="userSpaceOnUse" x1="-57.48699951171875" y1="0.4659999907016754" x2="58.73699951171875" y2="0.4659999907016754"><stop offset="10%" stop-color="rgb(76,103,0)"></stop><stop offset="49%" stop-color="rgb(131,179,5)"></stop><stop offset="54%" stop-color="rgb(186,255,9)"></stop><stop offset="60%" stop-color="rgb(162,227,9)"></stop><stop offset="100%" stop-color="rgb(139,199,9)"></stop></linearGradient><linearGradient id="__lottie_element_40" spreadMethod="pad" gradientUnits="userSpaceOnUse" x1="-0.7099999785423279" y1="251.4409942626953" x2="-0.7099999785423279" y2="-183.4029998779297"><stop offset="10%" stop-color="rgb(76,103,0)"></stop><stop offset="31%" stop-color="rgb(108,151,5)"></stop><stop offset="68%" stop-color="rgb(139,199,9)"></stop><stop offset="88%" stop-color="rgb(108,151,5)"></stop><stop offset="100%" stop-color="rgb(76,103,0)"></stop></linearGradient><radialGradient id="__lottie_element_41" spreadMethod="pad" gradientUnits="userSpaceOnUse" cx="-0.7099999785423279" cy="3.440999984741211" r="214.79000180959702" fx="-0.7099999785423279" fy="3.440999984741211"><stop offset="13%" stop-color="rgb(43,79,9)" stop-opacity="1"></stop><stop offset="43%" stop-color="rgb(43,79,9)" stop-opacity="0.5"></stop><stop offset="97%" stop-color="rgb(43,79,9)" stop-opacity="0"></stop></radialGradient><radialGradient id="__lottie_element_42" spreadMethod="pad" gradientUnits="userSpaceOnUse" cx="-0.5289999842643738" cy="-0.765999972820282" r="216.51599949598312" fx="-0.5289999842643738" fy="-0.765999972820282"><stop offset="70%" stop-color="rgb(187,255,20)" stop-opacity="0"></stop><stop offset="85%" stop-color="rgb(187,255,20)" stop-opacity="0.5"></stop><stop offset="99%" stop-color="rgb(187,255,20)" stop-opacity="1"></stop></radialGradient><linearGradient id="__lottie_element_43" spreadMethod="pad" gradientUnits="userSpaceOnUse" x1="-12.189000129699707" y1="4.289999961853027" x2="9.843000411987305" y2="-6.692999839782715"><stop offset="26%" stop-color="rgb(101,138,0)" stop-opacity="0"></stop><stop offset="63%" stop-color="rgb(72,108,5)" stop-opacity="0.5"></stop><stop offset="100%" stop-color="rgb(43,79,9)" stop-opacity="1"></stop></linearGradient><linearGradient id="__lottie_element_44" spreadMethod="pad" gradientUnits="userSpaceOnUse" x1="-8.916000366210938" y1="-8.38700008392334" x2="5.866000175476074" y2="4.960999965667725"><stop offset="0%" stop-color="rgb(43,79,9)" stop-opacity="1"></stop><stop offset="34%" stop-color="rgb(72,108,5)" stop-opacity="0.5"></stop><stop offset="69%" stop-color="rgb(101,138,0)" stop-opacity="0"></stop></linearGradient><linearGradient id="__lottie_element_45" spreadMethod="pad" gradientUnits="userSpaceOnUse" x1="14.885000228881836" y1="-1.9930000305175781" x2="-11.847999572753906" y2="0.5490000247955322"><stop offset="0%" stop-color="rgb(101,138,0)" stop-opacity="0"></stop><stop offset="50%" stop-color="rgb(72,108,5)" stop-opacity="0.5"></stop><stop offset="100%" stop-color="rgb(43,79,9)" stop-opacity="1"></stop></linearGradient><linearGradient id="__lottie_element_46" spreadMethod="pad" gradientUnits="userSpaceOnUse" x1="10.788999557495117" y1="-1.1119999885559082" x2="-8.869000434875488" y2="0.7580000162124634"><stop offset="17%" stop-color="rgb(194,248,41)" stop-opacity="0"></stop><stop offset="60%" stop-color="rgb(194,248,41)" stop-opacity="0.5"></stop><stop offset="94%" stop-color="rgb(194,248,41)" stop-opacity="1"></stop></linearGradient><linearGradient id="__lottie_element_47" spreadMethod="pad" gradientUnits="userSpaceOnUse" x1="-2.828000068664551" y1="-8.993000030517578" x2="8.253000259399414" y2="13.064000129699707"><stop offset="0%" stop-color="rgb(101,138,0)" stop-opacity="0"></stop><stop offset="46%" stop-color="rgb(72,108,5)" stop-opacity="0.5"></stop><stop offset="92%" stop-color="rgb(43,79,9)" stop-opacity="1"></stop></linearGradient><linearGradient id="__lottie_element_48" spreadMethod="pad" gradientUnits="userSpaceOnUse" x1="-2.627000093460083" y1="-6.809000015258789" x2="6.26200008392334" y2="10.885000228881836"><stop offset="5%" stop-color="rgb(194,248,41)" stop-opacity="0"></stop><stop offset="55%" stop-color="rgb(194,248,41)" stop-opacity="0.5"></stop><stop offset="92%" stop-color="rgb(194,248,41)" stop-opacity="1"></stop></linearGradient><linearGradient id="__lottie_element_49" spreadMethod="pad" gradientUnits="userSpaceOnUse" x1="-11.413999557495117" y1="4.383999824523926" x2="6.353000164031982" y2="-4.4730000495910645"><stop offset="20%" stop-color="rgb(194,248,41)" stop-opacity="0"></stop><stop offset="46%" stop-color="rgb(194,248,41)" stop-opacity="0.5"></stop><stop offset="93%" stop-color="rgb(194,248,41)" stop-opacity="1"></stop></linearGradient><linearGradient id="__lottie_element_50" spreadMethod="pad" gradientUnits="userSpaceOnUse" x1="15.847000122070312" y1="10.753999710083008" x2="-13.774999618530273" y2="-7.357999801635742"><stop offset="31%" stop-color="rgb(194,248,41)" stop-opacity="0"></stop><stop offset="63%" stop-color="rgb(194,248,41)" stop-opacity="0.5"></stop><stop offset="92%" stop-color="rgb(194,248,41)" stop-opacity="1"></stop></linearGradient><linearGradient id="__lottie_element_53" spreadMethod="pad" gradientUnits="userSpaceOnUse" x1="-27.941999435424805" y1="-82.1780014038086" x2="32.48899841308594" y2="78.53299713134766"><stop offset="0%" stop-color="rgb(76,103,0)"></stop><stop offset="25%" stop-color="rgb(108,151,5)"></stop><stop offset="58%" stop-color="rgb(139,199,9)"></stop></linearGradient><linearGradient id="__lottie_element_54" spreadMethod="pad" gradientUnits="userSpaceOnUse" x1="5.369999885559082" y1="45.72100067138672" x2="-5.316999912261963" y2="-47.00699996948242"><stop offset="0%" stop-color="rgb(187,255,20)" stop-opacity="0"></stop><stop offset="39%" stop-color="rgb(187,255,20)" stop-opacity="0.5"></stop><stop offset="78%" stop-color="rgb(187,255,20)" stop-opacity="1"></stop></linearGradient><linearGradient id="__lottie_element_58" spreadMethod="pad" gradientUnits="userSpaceOnUse" x1="-27.941999435424805" y1="-82.1780014038086" x2="32.48899841308594" y2="78.53299713134766"><stop offset="0%" stop-color="rgb(76,103,0)"></stop><stop offset="25%" stop-color="rgb(108,151,5)"></stop><stop offset="58%" stop-color="rgb(139,199,9)"></stop></linearGradient><linearGradient id="__lottie_element_59" spreadMethod="pad" gradientUnits="userSpaceOnUse" x1="5.369999885559082" y1="45.72100067138672" x2="-5.316999912261963" y2="-47.00699996948242"><stop offset="0%" stop-color="rgb(187,255,20)" stop-opacity="0"></stop><stop offset="39%" stop-color="rgb(187,255,20)" stop-opacity="0.5"></stop><stop offset="78%" stop-color="rgb(187,255,20)" stop-opacity="1"></stop></linearGradient><linearGradient id="__lottie_element_63" spreadMethod="pad" gradientUnits="userSpaceOnUse" x1="5.089000225067139" y1="45.14400100708008" x2="-7.7769999504089355" y2="-53.29100036621094"><stop offset="0%" stop-color="rgb(187,255,20)" stop-opacity="0"></stop><stop offset="39%" stop-color="rgb(187,255,20)" stop-opacity="0.5"></stop><stop offset="78%" stop-color="rgb(187,255,20)" stop-opacity="1"></stop></linearGradient><linearGradient id="__lottie_element_67" spreadMethod="pad" gradientUnits="userSpaceOnUse" x1="5.089000225067139" y1="45.14400100708008" x2="-7.7769999504089355" y2="-53.29100036621094"><stop offset="0%" stop-color="rgb(187,255,20)" stop-opacity="0"></stop><stop offset="39%" stop-color="rgb(187,255,20)" stop-opacity="0.5"></stop><stop offset="78%" stop-color="rgb(187,255,20)" stop-opacity="1"></stop></linearGradient></defs><g clip-path="url(#__lottie_element_2)"><g style="display: block;" transform="matrix(1.0000131130218506,0,0,0.9999939203262329,251.9488983154297,237.19639587402344)" opacity="1"><g opacity="1" transform="matrix(1,0,0,1,0,0)"><path fill="url(#__lottie_element_40)" fill-opacity="1" d=" M85.4,32.46 C49.54,38.76 36.33,73.99 36.33,73.99 C9.27,59.52 -12.12,84.68 -12.12,84.68 C-16.52,77.76 -24.08,79.03 -24.08,79.03 C-37.92,48.19 -68.11,65.82 -68.11,65.82 C-68.74,42.53 -91.39,34.36 -91.39,34.36 C-83.84,9.82 -107.74,-0.25 -107.74,-0.25 C-97.05,-9.05 -101.46,-18.5 -101.46,-18.5 C-69.38,-21.01 -78.81,-49.32 -78.81,-49.32 C-49.24,-49.96 -48.61,-71.35 -48.61,-71.35 C-20.29,-55.62 -1.42,-79.52 -1.42,-79.52 C11.16,-61.28 39.48,-70.08 39.48,-70.08 C47.65,-54.35 67.79,-63.79 67.79,-63.79 C62.75,-52.47 82.26,-44.92 82.26,-44.92 C60.87,-15.35 91.06,-5.28 91.06,-5.28 C83.52,7.93 94.21,16.74 94.21,16.74 C84.14,22.4 85.4,32.46 85.4,32.46z M209.97,-15.35 C209.97,-15.35 223.82,-42.4 196.13,-67.57 C196.13,-67.57 203.68,-92.73 181.66,-109.72 C181.66,-109.72 190.47,-112.87 186.7,-119.16 C182.93,-125.45 166.56,-121.68 166.56,-121.68 C166.56,-121.68 161.53,-129.23 152.09,-129.85 C152.09,-129.85 136.99,-148.73 126.3,-148.1 C126.3,-148.1 116.86,-172.01 94.84,-175.78 C94.84,-175.78 88.55,-186.48 74.71,-180.19 C74.71,-180.19 7.73,-200.59 -20.35,-190.8 C-20.35,-190.8 -49.86,-207.24 -91.39,-176.73 C-91.39,-176.73 -120.65,-174.84 -127.26,-158.8 C-127.26,-158.8 -136.69,-162.57 -141.41,-157.85 C-145.82,-153.44 -139.53,-146.53 -139.53,-146.53 C-139.53,-146.53 -171.61,-142.76 -167.84,-110.66 C-167.84,-110.66 -179.16,-119.16 -181.99,-113.5 C-184.82,-107.84 -178.22,-101.23 -178.22,-101.23 C-178.22,-101.23 -192.56,-104.82 -195.2,-95.57 C-197.09,-88.96 -190.49,-87.07 -190.49,-87.07 C-190.49,-87.07 -211.38,-80.77 -201.95,-55.29 C-201.95,-55.29 -219.35,-47.32 -210.76,-27.6 C-210.76,-27.6 -228.16,-2.44 -206.53,25.55 C-206.53,25.55 -218.48,28.07 -216.6,34.36 C-214.71,40.65 -207.79,38.13 -207.79,38.13 C-207.79,38.13 -227.32,73.97 -193.97,88.45 C-193.97,88.45 -187.03,113.63 -159.97,116.78 C-159.97,116.78 -171.92,135.65 -165.63,141.32 C-159.34,146.98 -156.19,138.79 -156.19,138.79 C-156.19,138.79 -157.17,154.49 -148.65,157.05 C-142.35,158.93 -141.09,150.12 -141.09,150.12 C-141.09,150.12 -139.84,160.82 -122.22,161.45 C-122.22,161.45 -102.72,189.13 -75.04,171.51 C-75.04,171.51 -65.59,187.87 -43.58,177.8 C-43.58,177.8 -37.34,193.77 -24.7,196.68 C-16.52,198.56 -14.01,192.28 -14.01,192.28 C-14.01,192.28 -1.43,199.82 16.19,191.64 C16.19,191.64 53.95,213.67 77.22,179.7 C77.22,179.7 119.37,188.5 130.07,145.72 C130.07,145.72 134.48,150.75 138.88,148.24 C143.29,145.72 145.8,136.28 145.8,136.28 C145.8,136.28 159.82,138.81 164.85,133.77 C169.88,128.74 175.55,117.1 175.55,117.1 C175.55,117.1 193.48,110.5 190.96,88.47 C190.96,88.47 218.64,79.67 203.05,36.87 C203.05,36.87 217.52,29.95 208.09,9.82 C208.09,9.82 212.97,12.29 215.64,8.56 C221.93,-0.25 209.97,-15.35 209.97,-15.35z"></path><g opacity="1" transform="matrix(1,0,0,1,-6.767000198364258,2.5840001106262207)"></g><g opacity="1" transform="matrix(1,0,0,1,0.04500000178813934,0.07999999821186066)"></g></g><g opacity="1" transform="matrix(1,0,0,1,0,0)"><path fill="url(#__lottie_element_41)" fill-opacity="1" d=" M83.52,31.84 C47.65,38.13 34.44,73.36 34.44,73.36 C7.38,58.89 -12.12,84.69 -12.12,84.69 C-16.52,77.77 -24.07,79.03 -24.07,79.03 C-37.92,48.19 -68.11,65.82 -68.11,65.82 C-68.74,42.53 -91.39,34.36 -91.39,34.36 C-89.5,12.33 -107.75,-0.25 -107.75,-0.25 C-97.05,-9.05 -103.35,-19.13 -103.35,-19.13 C-71.26,-21.64 -80.7,-49.95 -80.7,-49.95 C-51.13,-50.58 -48.4,-70.92 -48.4,-70.92 C-20.08,-55.19 -3.31,-80.15 -3.31,-80.15 C9.27,-61.9 35.49,-70.5 35.49,-70.5 C43.66,-54.77 65.9,-64.42 65.9,-64.42 C60.87,-53.1 80.37,-40.83 80.37,-40.83 C58.98,-11.26 89.18,-5.91 89.18,-5.91 C81.63,7.3 92.33,20.83 92.33,20.83 C82.26,26.49 83.52,31.84 83.52,31.84z M132.28,6.67 C132.28,6.67 84.45,-58.12 110.87,-101.53 C110.87,-101.53 68.1,-78.26 41.68,-110.35 C41.68,-110.35 -7.4,-89.59 -31.94,-114.13 C-31.94,-114.13 -46.5,-92.95 -97.04,-118.83 C-96.61,-117.9 -74.66,-71.5 -99.89,-56.56 C-99.89,-56.56 -98.07,-25.91 -127.25,-23.53 C-127.25,-23.53 -117.82,5.73 -137.63,23.66 C-137.63,23.66 -75.35,46.31 -90.44,98.22 C-90.44,98.22 -38.1,77.79 -30.05,114.26 C-30.05,114.26 -19.94,107.57 -15.09,126.01 C-15.09,126.01 -3.62,85 35.07,103.88 C35.07,103.88 48.28,87.84 66.21,94.45 C66.21,94.45 86.98,47.26 137.94,52.92 C137.94,52.92 123.78,25.55 132.28,6.67z"></path><g opacity="1" transform="matrix(1,0,0,1,-7.710000038146973,2.2699999809265137)"></g><g opacity="1" transform="matrix(1,0,0,1,0.15399999916553497,3.5880000591278076)"></g></g><g opacity="0.65" transform="matrix(1,0,0,1,-0.1809999942779541,-0.7929999828338623)"><path fill="url(#__lottie_element_42)" fill-opacity="1" d=" M-129.51400756835938,-138.27999877929688 C-130.64999389648438,-136.41299438476562 -132.71600341796875,-135.32699584960938 -134.89700317382812,-135.47999572753906 C-138.41900634765625,-135.7270050048828 -144.2550048828125,-134.73300170898438 -150.45599365234375,-127.72899627685547 C-157.22799682617188,-120.08000183105469 -157.9429931640625,-109.77999877929688 -157.70599365234375,-103.96900177001953 C-157.61399841308594,-101.7229995727539 -159.2100067138672,-99.7760009765625 -161.42300415039062,-99.38099670410156 C-163.84100341796875,-98.9489974975586 -166.66400146484375,-97.71499633789062 -167.9669952392578,-94.45700073242188 C-167.9669952392578,-94.45700073242188 -179.29200744628906,-93.1989974975586 -178.03399658203125,-85.0199966430664 C-178.03399658203125,-85.0199966430664 -199.25,-77.98300170898438 -191.0709991455078,-49.04199981689453 C-191.0709991455078,-49.04199981689453 -204.07400512695312,-42.33100128173828 -198.33200073242188,-28.29599952697754 C-197.22000122070312,-25.577999114990234 -197.71299743652344,-22.5049991607666 -199.87899780273438,-20.520999908447266 C-206.08599853515625,-14.833999633789062 -210.2449951171875,-7.267000198364258 -204.072998046875,13.454000473022461 C-204.072998046875,13.454000473022461 -195.3280029296875,32.42300033569336 -195.3280029296875,32.42300033569336 C-195.3280029296875,32.42300033569336 -209.0030059814453,53.000999450683594 -201.9759979248047,65.88400268554688 C-194.42599487304688,79.72599792480469 -184.36000061035156,82.66100311279297 -184.36000061035156,82.66100311279297 C-184.36000061035156,82.66100311279297 -183.42799377441406,96.38099670410156 -168.83999633789062,103.21399688720703 C-168.83999633789062,103.21399688720703 -155.08099365234375,111.60399627685547 -144.6999969482422,110.66000366210938 C-144.6999969482422,110.66000366210938 -159.78799438476562,127.47799682617188 -156.01300048828125,131.2530059814453 C-154.5850067138672,132.6820068359375 -152.70599365234375,132.87100219726562 -150.9219970703125,132.55499267578125 C-148.8509979248047,132.18800354003906 -147.0989990234375,133.99899291992188 -147.572998046875,136.04800415039062 C-148.1719970703125,138.63600158691406 -148.08299255371094,141.218994140625 -145.6320037841797,141.79100036621094 C-143.8090057373047,142.21600341796875 -142.03399658203125,141.7030029296875 -140.54100036621094,140.91299438476562 C-138.468994140625,139.81700134277344 -135.9029998779297,140.58399963378906 -134.83999633789062,142.67300415039062 C-132.875,146.53199768066406 -130.406005859375,152.18699645996094 -120.4010009765625,151.7239990234375 C-119.12699890136719,151.6649932861328 -117.91899871826172,152.31300354003906 -117.24500274658203,153.39599609375 C-114.86699676513672,157.2169952392578 -108.08300018310547,165.64999389648438 -94.35600280761719,166.01400756835938 C-78.62000274658203,166.4320068359375 -69.01399993896484,158.78900146484375 -69.01399993896484,158.78900146484375 C-59.57699966430664,175.7760009765625 -32.698001861572266,163.4969940185547 -32.698001861572266,163.4969940185547 C-32.698001861572266,163.4969940185547 -33.327999114990234,179.2259979248047 -25.777999877929688,183.6300048828125 C-18.22800064086914,188.03399658203125 -14.45300006866455,179.8560028076172 -14.45300006866455,179.8560028076172 C-14.45300006866455,179.8560028076172 0.6470000147819519,189.9219970703125 15.746999740600586,180.48500061035156 C15.746999740600586,180.48500061035156 33.99300003051758,189.9219970703125 47.83399963378906,187.40499877929688 C61.67499923706055,184.88800048828125 74.88800048828125,166.64300537109375 74.88800048828125,166.64300537109375 C74.88800048828125,166.64300537109375 88.0999984741211,171.677001953125 103.19999694824219,165.38499450683594 C118.30000305175781,159.09300231933594 124.59100341796875,131.41000366210938 124.59100341796875,131.41000366210938 C124.59100341796875,131.41000366210938 136.5449981689453,141.4770050048828 140.94900512695312,122.60199737548828 C140.94900512695312,122.60199737548828 163.14500427246094,136.13999938964844 161.88699340820312,105.31099700927734 C161.88699340820312,105.31099700927734 177.61500549316406,105.31199645996094 180.1320037841797,87.06600189208984 C180.1320037841797,87.06600189208984 188.1020050048828,82.66100311279297 193.9739990234375,71.5459976196289 C201.50100708007812,57.29800033569336 190.0240020751953,31.374000549316406 190.0240020751953,31.374000549316406 C190.0240020751953,31.374000549316406 204.76499938964844,23.858999252319336 196.94400024414062,3.062000036239624 C196.94400024414062,3.062000036239624 204.49400329589844,4.321000099182129 203.23599243164062,-2.5999999046325684 C201.97799682617188,-9.520999908447266 198.2030029296875,-13.295999526977539 198.2030029296875,-13.295999526977539 C198.2030029296875,-13.295999526977539 208.73300170898438,-37.867000579833984 187.48399353027344,-58.237998962402344 C185.9510040283203,-59.70800018310547 185.16099548339844,-61.78499984741211 185.2469940185547,-63.90700149536133 C185.60400390625,-72.6729965209961 184.57899475097656,-95.80400085449219 164.85699462890625,-103.8949966430664 C164.85699462890625,-103.8949966430664 161.08299255371094,-121.51100158691406 137.8040008544922,-124.02799987792969 C137.8040008544922,-124.02799987792969 132.4340057373047,-134.2310028076172 121.197998046875,-136.77699279785156 C119.39800262451172,-137.18499755859375 117.89700317382812,-138.4040069580078 117.12300109863281,-140.0800018310547 C114.95600128173828,-144.7740020751953 109.65299987792969,-154.14100646972656 100.05400085449219,-159.26100158691406 C87.12699890136719,-166.15499877929688 78.03700256347656,-166.5570068359375 73.59100341796875,-166.12600708007812 C71.53600311279297,-165.927001953125 69.50700378417969,-166.62399291992188 67.95899963378906,-167.98899841308594 C62.70600128173828,-172.6219940185547 45.94599914550781,-181.49099731445312 28.329999923706055,-183.79800415039062 C6.211999893188477,-186.69400024414062 -14.503999710083008,-181.2790069580078 -18.594999313354492,-178.96400451660156 C-20.10700035095215,-178.10899353027344 -21.89299964904785,-177.88999938964844 -23.541000366210938,-178.43699645996094 C-33.80500030517578,-181.8459930419922 -60.90599822998047,-190.89599609375 -93.09700012207031,-155.48599243164062 C-93.09700012207031,-155.48599243164062 -94.71800231933594,-174.35800170898438 -94.71800231933594,-174.35800170898438 C-94.71800231933594,-174.35800170898438 -66.72899627685547,-204.47999572753906 -20.17099952697754,-190.00900268554688 C-20.17099952697754,-190.00900268554688 29.643999099731445,-203.55499267578125 74.88800048828125,-179.3939971923828 C74.88800048828125,-179.3939971923828 88.0999984741211,-184.427001953125 95.02100372314453,-174.99000549316406 C95.02100372314453,-174.99000549316406 120.81700134277344,-169.95700073242188 126.47899627685547,-147.3070068359375 C126.47899627685547,-147.3070068359375 147.24099731445312,-142.2729949951172 149.1280059814453,-129.06100463867188 C149.1280059814453,-129.06100463867188 163.5989990234375,-130.94900512695312 166.7449951171875,-120.88200378417969 C166.7449951171875,-120.88200378417969 183.10299682617188,-125.28600311279297 186.8780059814453,-118.36499786376953 C190.6529998779297,-111.44400024414062 181.84500122070312,-108.9280014038086 181.84500122070312,-108.9280014038086 C181.84500122070312,-108.9280014038086 201.34800720214844,-98.86100006103516 196.31500244140625,-66.77400207519531 C196.31500244140625,-66.77400207519531 222.74000549316406,-47.27000045776367 210.15699768066406,-14.553999900817871 C210.15699768066406,-14.553999900817871 226.51499938964844,13.128999710083008 208.2689971923828,10.612000465393066 C208.2689971923828,10.612000465393066 214.56100463867188,27.599000930786133 203.23599243164062,37.66600036621094 C203.23599243164062,37.66600036621094 219.77000427246094,76.37000274658203 190.51400756835938,91.15499877929688 C190.51400756835938,91.15499877929688 194.91799926757812,107.1989974975586 178.2449951171875,114.43399810791016 C178.2449951171875,114.43399810791016 172.58299255371094,140.85899353027344 145.98300170898438,137.072998046875 C145.98300170898438,137.072998046875 142.20799255371094,154.68899536132812 130.25399780273438,146.50999450683594 C130.25399780273438,146.50999450683594 123.33200073242188,185.51800537109375 77.4020004272461,180.48899841308594 C77.4020004272461,180.48899841308594 59.159000396728516,208.7969970703125 16.375999450683594,192.43899536132812 C16.375999450683594,192.43899536132812 0.017000000923871994,198.7310028076172 -13.824000358581543,193.0679931640625 C-13.824000358581543,193.0679931640625 -22.274999618530273,211.0189971923828 -43.845001220703125,177.50599670410156 C-43.845001220703125,177.50599670410156 -63.98099899291992,187.1020050048828 -74.85199737548828,172.30599975585938 C-74.85399627685547,172.3040008544922 -100.01799774169922,186.14700317382812 -122.03900146484375,162.23899841308594 C-122.03900146484375,162.23899841308594 -137.76699829101562,163.4969940185547 -140.91299438476562,150.91400146484375 C-140.91299438476562,150.91400146484375 -149.58599853515625,170.01499938964844 -156.01300048828125,139.58900451660156 C-156.01300048828125,139.58900451660156 -176.7760009765625,152.80099487304688 -159.78599548339844,117.5719985961914 C-159.78599548339844,117.5719985961914 -191.2740020751953,112.52200317382812 -193.79100036621094,89.24299621582031 C-193.79100036621094,89.24299621582031 -225.6739959716797,77.62799835205078 -207.60400390625,38.92399978637695 C-207.60400390625,38.92399978637695 -226.0800018310547,36.507999420166016 -206.14599609375,26.70599937438965 C-206.14599609375,26.70599937438965 -227.56100463867188,3.388000011444092 -209.94500732421875,-28.909000396728516 C-209.94500732421875,-28.909000396728516 -219.5919952392578,-44.847999572753906 -201.76600646972656,-54.494998931884766 C-201.76600646972656,-54.494998931884766 -214.97799682617188,-78.40299987792969 -190.302001953125,-86.27799987792969 C-190.302001953125,-86.27799987792969 -204.45899963378906,-98.86100006103516 -178.03399658203125,-100.43399810791016 C-178.03399658203125,-100.43399810791016 -187.4709930419922,-118.36599731445312 -167.6529998779297,-109.87200164794922 C-167.6529998779297,-109.87200164794922 -166.0800018310547,-144.16099548339844 -139.34100341796875,-145.73399353027344 C-139.34100341796875,-145.73399353027344 -147.2050018310547,-160.5189971923828 -127.0719985961914,-158.0019989013672 C-127.0719985961914,-158.0019989013672 -108.59500122070312,-174.73800659179688 -91.20899963378906,-175.93299865722656 C-91.20899963378906,-175.93299865722656 -93.09700012207031,-155.48599243164062 -93.09700012207031,-155.48599243164062 C-93.09700012207031,-155.48599243164062 -118.10299682617188,-157.03199768066406 -129.51400756835938,-138.27999877929688z"></path></g><g opacity="1" transform="matrix(1,0,0,1,-6.769000053405762,2.5840001106262207)"><path stroke-linecap="round" stroke-linejoin="round" fill-opacity="0" stroke="rgb(43,79,9)" stroke-opacity="1" stroke-width="6.637" d=" M-41.8390007019043,-73.9260025024414 C-41.8390007019043,-73.9260025024414 -42.46900177001953,-52.53499984741211 -72.03900146484375,-51.90599822998047 C-72.03900146484375,-51.90599822998047 -62.60100173950195,-23.5939998626709 -94.68800354003906,-21.07699966430664 C-94.68800354003906,-21.07699966430664 -90.28399658203125,-11.638999938964844 -100.9800033569336,-2.8310000896453857 C-100.9800033569336,-2.8310000896453857 -82.73500061035156,9.75100040435791 -84.62200164794922,31.77199935913086 C-84.62200164794922,31.77199935913086 -61.97200012207031,39.95100021362305 -61.34299850463867,63.22999954223633 C-61.34299850463867,63.22999954223633 -31.14299964904785,45.61399841308594 -17.302000045776367,76.44300079345703 C-17.302000045776367,76.44300079345703 -9.751999855041504,75.18399810791016 -5.3480000495910645,82.1050033569336 C-5.3480000495910645,82.1050033569336 16.042999267578125,56.9379997253418 43.09700012207031,71.40899658203125 C43.09700012207031,71.40899658203125 56.310001373291016,36.176998138427734 92.1719970703125,29.885000228881836 C92.1719970703125,29.885000228881836 90.91300201416016,19.81800079345703 100.9800033569336,14.156000137329102 C100.9800033569336,14.156000137329102 90.28399658203125,5.3480000495910645 97.83399963378906,-7.863999843597412 C97.83399963378906,-7.863999843597412 67.63500213623047,-17.930999755859375 89.0260009765625,-47.500999450683594 C89.0260009765625,-47.500999450683594 69.52200317382812,-55.05099868774414 74.55500030517578,-66.3759994506836 C74.55500030517578,-66.3759994506836 54.422000885009766,-56.93899917602539 46.24300003051758,-72.66799926757812 C46.24300003051758,-72.66799926757812 17.930999755859375,-63.85900115966797 5.3480000495910645,-82.1050033569336 C5.3480000495910645,-82.1050033569336 -13.527000427246094,-58.196998596191406 -41.8390007019043,-73.9260025024414z"></path></g><g opacity="1" transform="matrix(1,0,0,1,0,0.08100000023841858)"><path stroke-linecap="round" stroke-linejoin="round" fill-opacity="0" stroke="rgb(105,143,0)" stroke-opacity="1" stroke-width="5.689" d=" M-91.39099884033203,-176.8070068359375 C-91.39099884033203,-176.8070068359375 -120.64700317382812,-174.9199981689453 -127.25299835205078,-158.87600708007812 C-127.25299835205078,-158.87600708007812 -136.69000244140625,-162.6510009765625 -141.40899658203125,-157.9320068359375 C-145.82400512695312,-153.51699829101562 -139.52099609375,-146.60800170898438 -139.52099609375,-146.60800170898438 C-139.52099609375,-146.60800170898438 -171.60899353027344,-142.83299255371094 -167.83399963378906,-110.74600219726562 C-167.83399963378906,-110.74600219726562 -179.15899658203125,-119.23899841308594 -181.99000549316406,-113.5770034790039 C-184.8209991455078,-107.91500091552734 -178.21499633789062,-101.30799865722656 -178.21499633789062,-101.30799865722656 C-178.21499633789062,-101.30799865722656 -192.55799865722656,-104.9000015258789 -195.20199584960938,-95.64600372314453 C-197.08900451660156,-89.04000091552734 -190.48300170898438,-87.1520004272461 -190.48300170898438,-87.1520004272461 C-190.48300170898438,-87.1520004272461 -213.9010009765625,-81.16400146484375 -201.94700622558594,-55.36899948120117 C-201.94700622558594,-55.36899948120117 -218.9340057373047,-47.819000244140625 -210.7550048828125,-27.68600082397461 C-210.7550048828125,-27.68600082397461 -228.3719940185547,-0.003000000026077032 -206.52699279785156,25.466999053955078 C-206.52699279785156,25.466999053955078 -218.47999572753906,27.982999801635742 -216.59300231933594,34.275001525878906 C-214.70599365234375,40.56700134277344 -207.78500366210938,38.04999923706055 -207.78500366210938,38.04999923706055 C-207.78500366210938,38.04999923706055 -227.31700134277344,73.89800262451172 -193.9720001220703,88.36900329589844 C-193.9720001220703,88.36900329589844 -187.0229949951172,113.54900360107422 -159.968994140625,116.69499969482422 C-159.968994140625,116.69499969482422 -172.4029998779297,136.1529998779297 -165.63099670410156,141.23199462890625 C-161.2270050048828,144.53500366210938 -156.19400024414062,138.71499633789062 -156.19400024414062,138.71499633789062 C-156.19400024414062,138.71499633789062 -157.16600036621094,154.4040069580078 -148.6439971923828,156.96099853515625 C-142.3520050048828,158.8489990234375 -141.093994140625,150.0399932861328 -141.093994140625,150.0399932861328 C-141.093994140625,150.0399932861328 -139.83599853515625,160.73599243164062 -122.22000122070312,161.36500549316406 C-122.22000122070312,161.36500549316406 -102.71600341796875,189.04800415039062 -75.03299713134766,171.4320068359375 C-75.03299713134766,171.4320068359375 -65.59600067138672,187.7899932861328 -43.57500076293945,177.72300720214844 C-43.57500076293945,177.72300720214844 -37.3380012512207,193.68099975585938 -24.700000762939453,196.59800720214844 C-16.520999908447266,198.48500061035156 -14.003999710083008,192.19400024414062 -14.003999710083008,192.19400024414062 C-14.003999710083008,192.19400024414062 -1.4210000038146973,199.74400329589844 16.19499969482422,191.56500244140625 C16.19499969482422,191.56500244140625 53.94499969482422,213.58599853515625 77.2239990234375,179.61099243164062 C77.2239990234375,179.61099243164062 119.37699890136719,188.41900634765625 130.072998046875,145.63600158691406 C130.072998046875,145.63600158691406 134.4770050048828,150.6699981689453 138.88099670410156,148.1529998779297 C143.28500366210938,145.63600158691406 145.802001953125,136.19900512695312 145.802001953125,136.19900512695312 C145.802001953125,136.19900512695312 154.6439971923828,138.31300354003906 161.07699584960938,135.26600646972656 C173.031005859375,129.60400390625 173.34500122070312,116.70600128173828 173.34500122070312,116.70600128173828 C173.34500122070312,116.70600128173828 192.53500366210938,110.72899627685547 190.33299255371094,90.28099822998047 C190.33299255371094,90.28099822998047 218.95899963378906,77.38400268554688 203.05499267578125,36.79199981689453 C203.05499267578125,36.79199981689453 217.52499389648438,29.871000289916992 208.08799743652344,9.73799991607666 C208.08799743652344,9.73799991607666 212.9759979248047,12.206999778747559 215.63800048828125,8.479999542236328 C221.92999267578125,-0.328000009059906 209.9759979248047,-15.428000450134277 209.9759979248047,-15.428000450134277 C209.9759979248047,-15.428000450134277 223.81700134277344,-42.481998443603516 196.13400268554688,-67.64800262451172 C196.13400268554688,-67.64800262451172 203.68499755859375,-92.81500244140625 181.66400146484375,-109.802001953125 C181.66400146484375,-109.802001953125 190.4720001220703,-112.9469985961914 186.69700622558594,-119.23899841308594 C182.9219970703125,-125.53099822998047 166.56399536132812,-121.75599670410156 166.56399536132812,-121.75599670410156 C166.56399536132812,-121.75599670410156 161.52999877929688,-129.30599975585938 152.09300231933594,-129.93499755859375 C152.09300231933594,-129.93499755859375 136.99400329589844,-148.80999755859375 126.2979965209961,-148.18099975585938 C126.2979965209961,-148.18099975585938 116.86100006103516,-172.08799743652344 94.83999633789062,-175.86300659179688 C94.83999633789062,-175.86300659179688 88.5479965209961,-186.55999755859375 74.70700073242188,-180.26800537109375 C74.70700073242188,-180.26800537109375 5.196000099182129,-200.6490020751953 -20.351999282836914,-190.88299560546875 C-20.351999282836914,-190.88299560546875 -49.867000579833984,-207.3209991455078 -91.39099884033203,-176.8070068359375z"></path></g><g opacity="1" transform="matrix(1,0,0,1,-13.093000411987305,112.1050033569336)"><path stroke-linecap="round" stroke-linejoin="round" fill-opacity="0" stroke="rgb(43,79,9)" stroke-opacity="1" stroke-width="6.637" d=" M-193.4340057373047,-86.55799865722656 C-193.4340057373047,-86.55799865722656 -205.38699340820312,-84.04100036621094 -203.5,-77.7490005493164 C-201.61300659179688,-71.45700073242188 -194.69200134277344,-73.9739990234375 -194.69200134277344,-73.9739990234375 C-194.69200134277344,-73.9739990234375 -214.2239990234375,-38.12699890136719 -180.87899780273438,-23.6560001373291 C-180.87899780273438,-23.6560001373291 -173.92999267578125,1.5240000486373901 -146.87600708007812,4.670000076293945 C-146.87600708007812,4.670000076293945 -159.31100463867188,24.128000259399414 -152.53900146484375,29.207000732421875 C-148.13499450683594,32.5099983215332 -143.1009979248047,26.69099998474121 -143.1009979248047,26.69099998474121 C-143.1009979248047,26.69099998474121 -144.072998046875,42.37900161743164 -135.55099487304688,44.93600082397461 C-129.25900268554688,46.823001861572266 -128.00100708007812,38.01599884033203 -128.00100708007812,38.01599884033203 C-128.00100708007812,38.01599884033203 -126.74299621582031,48.71200180053711 -109.12699890136719,49.340999603271484 C-109.12699890136719,49.340999603271484 -89.62300109863281,77.02300262451172 -61.939998626708984,59.40700149536133 C-61.939998626708984,59.40700149536133 -52.50299835205078,75.76599884033203 -30.48200035095215,65.6989974975586 C-30.48200035095215,65.6989974975586 -24.2450008392334,81.65599822998047 -11.607000350952148,84.572998046875 C-3.427999973297119,86.45999908447266 -0.9110000133514404,80.16899871826172 -0.9110000133514404,80.16899871826172 C-0.9110000133514404,80.16899871826172 11.67199993133545,87.71900177001953 29.288000106811523,79.54000091552734 C29.288000106811523,79.54000091552734 67.03700256347656,101.56099700927734 90.31600189208984,67.58599853515625 C90.31600189208984,67.58599853515625 132.47000122070312,76.3949966430664 143.16600036621094,33.61199951171875 C143.16600036621094,33.61199951171875 147.57000732421875,38.64500045776367 151.9739990234375,36.12799835205078 C156.3780059814453,33.611000061035156 158.89500427246094,24.173999786376953 158.89500427246094,24.173999786376953 C158.89500427246094,24.173999786376953 168.50799560546875,26.386999130249023 174.1699981689453,23.240999221801758 C185.3560028076172,17.025999069213867 186.43800354003906,4.681000232696533 186.43800354003906,4.681000232696533 C186.43800354003906,4.681000232696533 206.2570037841797,-1.9259999990463257 203.42599487304688,-21.743999481201172"></path></g><g opacity="1" transform="matrix(1,0,0,1,166.59500122070312,-62.38399887084961)"><path fill="url(#__lottie_element_43)" fill-opacity="1" d=" M0.4740000069141388,16.476999282836914 C0.4740000069141388,16.476999282836914 15.440999984741211,14.708000183105469 15.557000160217285,5.691999912261963 C15.67300033569336,-3.3239998817443848 3.9600000381469727,-4.039999961853027 3.9600000381469727,-4.039999961853027 C3.9600000381469727,-4.039999961853027 4.500999927520752,-15.178000450134277 -4.034999847412109,-16.375999450683594 C-12.571000099182129,-17.573999404907227 -15.557999610900879,-7.6519999504089355 -15.557999610900879,-7.6519999504089355"></path></g><g opacity="1" transform="matrix(1,0,0,1,-169.79400634765625,-66.1719970703125)"><path fill="url(#__lottie_element_44)" fill-opacity="1" d=" M11.555000305175781,-3.5980000495910645 C10.192000389099121,-6.585999965667725 -1.4170000553131104,-16.343000411987305 -8.57800006866455,-7.686999797821045 C-17.211999893188477,2.747999906539917 -4.645999908447266,9.300000190734863 -1.343000054359436,11.187000274658203 C-1.343000054359436,11.187000274658203 11.555000305175781,-3.5980000495910645 11.555000305175781,-3.5980000495910645z"></path></g><g opacity="1" transform="matrix(1,0,0,1,0,0)"><g opacity="1" transform="matrix(1,0,0,1,-144.59500122070312,65.43399810791016)"><path fill="url(#__lottie_element_45)" fill-opacity="1" d=" M9.166999816894531,-14.354999542236328 C9.166999816894531,-14.354999542236328 -9.49899959564209,-20.295000076293945 -12.892999649047852,-11.8100004196167 C-16.28700065612793,-3.325000047683716 -1.847000002861023,0.5370000004768372 -1.847000002861023,0.5370000004768372 C-1.847000002861023,0.5370000004768372 -7.802000045776367,11.100000381469727 -0.16599999368190765,15.342000007629395 C7.46999979019165,19.583999633789062 13.40999984741211,9.402999877929688 13.40999984741211,9.402999877929688"></path></g><g opacity="1" transform="matrix(1,0,0,1,-140.49899291992188,65.5530014038086)"><path fill="url(#__lottie_element_46)" fill-opacity="1" d=" M6.744999885559082,-10.644000053405762 C6.744999885559082,-10.644000053405762 -7.0970001220703125,-15.048999786376953 -9.61400032043457,-8.756999969482422 C-12.130999565124512,-2.4649999141693115 3.3380000591278076,2.936000108718872 3.3380000591278076,2.936000108718872 C3.3380000591278076,2.936000108718872 -5.8379998207092285,8.229999542236328 -0.17599999904632568,11.37600040435791 C5.486000061035156,14.522000312805176 9.890000343322754,6.9720001220703125 9.890000343322754,6.9720001220703125"></path></g></g><g opacity="1" transform="matrix(1,0,0,1,0,0)"><g opacity="1" transform="matrix(1,0,0,1,113.11799621582031,103.43399810791016)"><path fill="url(#__lottie_element_47)" fill-opacity="1" d=" M-11.668000221252441,-3.427999973297119 C-11.668000221252441,-3.427999973297119 -9.256999969482422,13.767999649047852 3.6410000324249268,10.307999610900879 C18.040000915527344,6.445000171661377 8.673999786376953,-10.767999649047852 8.673999786376953,-10.767999649047852"></path></g><g opacity="1" transform="matrix(1,0,0,1,112.91799926757812,102.25)"><path fill="url(#__lottie_element_48)" fill-opacity="1" d=" M-7.482999801635742,-3.921999931335449 C-7.482999801635742,-3.921999931335449 -5.59499979019165,10.548999786376953 3.2130000591278076,8.031999588012695 C12.020999908447266,5.514999866485596 4.4710001945495605,-8.326000213623047 4.4710001945495605,-8.326000213623047"></path></g></g><g opacity="1" transform="matrix(1,0,0,1,167.11300659179688,-61.90399932861328)"><path fill="url(#__lottie_element_49)" fill-opacity="1" d=" M-2.319999933242798,10.795999526977539 C-2.319999933242798,10.795999526977539 11.84000015258789,11.425000190734863 11.927000045776367,4.64900016784668 C12.013999938964844,-2.127000093460083 0.18000000715255737,0.4090000092983246 0.18000000715255737,0.4090000092983246 C0.18000000715255737,0.4090000092983246 2.2980000972747803,-9.845999717712402 -4.117000102996826,-10.746000289916992 C-10.531999588012695,-11.645999908447266 -11.927000045776367,-3.0179998874664307 -11.927000045776367,-3.0179998874664307 C-11.927000045776367,-3.0179998874664307 -2.319999933242798,10.795999526977539 -2.319999933242798,10.795999526977539z"></path></g><g opacity="1" transform="matrix(1,0,0,1,-166.41900634765625,-64.16500091552734)"><path fill="url(#__lottie_element_50)" fill-opacity="1" d=" M10.248000144958496,1.628999948501587 C10.248000144958496,1.628999948501587 -2.51200008392334,-13.175999641418457 -8.661999702453613,-6.38700008392334 C-14.812000274658203,0.4020000100135803 -1.090999960899353,8.168000221252441 -1.090999960899353,8.168000221252441"></path></g></g><g style="display: block;" transform="matrix(-1.0000131130218506,0,0,0.9999939203262329,53.835296630859375,257.5912780761719)" opacity="1"><g opacity="1" transform="matrix(1,0,0,1,0,0)"><path fill="rgb(139,199,9)" fill-opacity="1" d=" M-4.718999862670898,-69.28900146484375 C18.33799934387207,-51.090999603271484 31.83799934387207,-27.591999053955078 37.417999267578125,13.315999984741211 C42.02399826049805,47.082000732421875 23.070999145507812,64.66600036621094 9.611000061035156,68.7969970703125 C-2.6480000019073486,72.55899810791016 -17.163000106811523,64.91600036621094 -20.761999130249023,49.62200164794922 C-28.312000274658203,17.53499984741211 -13.211999893188477,-4.171999931335449 -34.917999267578125,-39.09000015258789"></path><path stroke-linecap="round" stroke-linejoin="round" fill-opacity="0" stroke="rgb(43,79,9)" stroke-opacity="1" stroke-width="6.637" d=" M-4.718999862670898,-69.28900146484375 C18.33799934387207,-51.090999603271484 31.83799934387207,-27.591999053955078 37.417999267578125,13.315999984741211 C42.02399826049805,47.082000732421875 23.070999145507812,64.66600036621094 9.611000061035156,68.7969970703125 C-2.6480000019073486,72.55899810791016 -17.163000106811523,64.91600036621094 -20.761999130249023,49.62200164794922 C-28.312000274658203,17.53499984741211 -13.211999893188477,-4.171999931335449 -34.917999267578125,-39.09000015258789"></path></g><g opacity="0.65" transform="matrix(1,0,0,1,11.201000213623047,-5.0970001220703125)"><path fill="url(#__lottie_element_67)" fill-opacity="1" d=" M-8.199000358581543,30.913000106811523 C7.579999923706055,46.69200134277344 14.451000213623047,30.913000106811523 13.821999549865723,11.409000396728516 C13.192999839782715,-8.095000267028809 3.1419999599456787,-32.01900100708008 -6.295000076293945,-34.5359992980957 C-15.732000350952148,-37.053001403808594 -13.861000061035156,-26.969999313354492 -13.861000061035156,-11.869999885559082 C-13.861000061035156,3.2300000190734863 -13.861000061035156,25.250999450683594 -8.199000358581543,30.913000106811523z"></path></g></g><g style="display: block;" transform="matrix(1.0000131130218506,0,0,0.9999939203262329,456.16455078125,257.5912780761719)" opacity="1"><g opacity="1" transform="matrix(1,0,0,1,0,0)"><path fill="rgb(139,199,9)" fill-opacity="1" d=" M-4.718999862670898,-69.28900146484375 C18.33799934387207,-51.090999603271484 31.83799934387207,-27.591999053955078 37.417999267578125,13.315999984741211 C42.02399826049805,47.082000732421875 23.070999145507812,64.66600036621094 9.611000061035156,68.7969970703125 C-2.6480000019073486,72.55899810791016 -17.163000106811523,64.91600036621094 -20.761999130249023,49.62200164794922 C-28.312000274658203,17.53499984741211 -13.211999893188477,-4.171999931335449 -34.917999267578125,-39.09000015258789"></path><path stroke-linecap="round" stroke-linejoin="round" fill-opacity="0" stroke="rgb(43,79,9)" stroke-opacity="1" stroke-width="6.637" d=" M-4.718999862670898,-69.28900146484375 C18.33799934387207,-51.090999603271484 31.83799934387207,-27.591999053955078 37.417999267578125,13.315999984741211 C42.02399826049805,47.082000732421875 23.070999145507812,64.66600036621094 9.611000061035156,68.7969970703125 C-2.6480000019073486,72.55899810791016 -17.163000106811523,64.91600036621094 -20.761999130249023,49.62200164794922 C-28.312000274658203,17.53499984741211 -13.211999893188477,-4.171999931335449 -34.917999267578125,-39.09000015258789"></path></g><g opacity="0.65" transform="matrix(1,0,0,1,11.201000213623047,-5.0970001220703125)"><path fill="url(#__lottie_element_63)" fill-opacity="1" d=" M-8.199000358581543,30.913000106811523 C7.579999923706055,46.69200134277344 14.451000213623047,30.913000106811523 13.821999549865723,11.409000396728516 C13.192999839782715,-8.095000267028809 3.1419999599456787,-32.01900100708008 -6.295000076293945,-34.5359992980957 C-15.732000350952148,-37.053001403808594 -13.861000061035156,-26.969999313354492 -13.861000061035156,-11.869999885559082 C-13.861000061035156,3.2300000190734863 -13.861000061035156,25.250999450683594 -8.199000358581543,30.913000106811523z"></path></g></g><g style="display: block;" transform="matrix(-1.0000131130218506,0,0,0.9999939203262329,137.47537231445312,431.815185546875)" opacity="1"><g opacity="1" transform="matrix(1,0,0,1,0,0)"><path fill="url(#__lottie_element_58)" fill-opacity="1" d=" M21.836999893188477,-61.632999420166016 C31.476999282836914,-39.81700134277344 35.47700119018555,-16.81599998474121 33.1619987487793,9.14799976348877 C29.94700050354004,45.20500183105469 14.64900016784668,60.56700134277344 0.39899998903274536,61.5890007019043 C-10.984999656677246,62.404998779296875 -21.700000762939453,54.069000244140625 -25.05299949645996,39.819000244140625 C-32.60300064086914,7.73199987411499 -21.573999404907227,-12.557999610900879 -33.84299850463867,-42.757999420166016"></path><path stroke-linecap="round" stroke-linejoin="round" fill-opacity="0" stroke="rgb(43,79,9)" stroke-opacity="1" stroke-width="6.637" d=" M21.836999893188477,-61.632999420166016 C31.476999282836914,-39.81700134277344 35.47700119018555,-16.81599998474121 33.1619987487793,9.14799976348877 C29.94700050354004,45.20500183105469 14.64900016784668,60.56700134277344 0.39899998903274536,61.5890007019043 C-10.984999656677246,62.404998779296875 -21.700000762939453,54.069000244140625 -25.05299949645996,39.819000244140625 C-32.60300064086914,7.73199987411499 -21.573999404907227,-12.557999610900879 -33.84299850463867,-42.757999420166016"></path></g><g opacity="0.65" transform="matrix(1,0,0,1,6.909999847412109,-14.89900016784668)"><path fill="url(#__lottie_element_59)" fill-opacity="1" d=" M-8.199000358581543,30.913000106811523 C7.579999923706055,46.69200134277344 14.451000213623047,30.913000106811523 13.821999549865723,11.409000396728516 C13.192999839782715,-8.095000267028809 5.642000198364258,-34.51900100708008 -3.7950000762939453,-37.0359992980957 C-13.232000350952148,-39.553001403808594 -13.861000061035156,-26.969999313354492 -13.861000061035156,-11.869999885559082 C-13.861000061035156,3.2300000190734863 -13.861000061035156,25.250999450683594 -8.199000358581543,30.913000106811523z"></path></g></g><g style="display: block;" transform="matrix(1.0000131130218506,0,0,0.9999939203262329,354.52325439453125,431.815185546875)" opacity="1"><g opacity="1" transform="matrix(1,0,0,1,0,0)"><path fill="url(#__lottie_element_53)" fill-opacity="1" d=" M21.836999893188477,-61.632999420166016 C31.476999282836914,-39.81700134277344 35.47700119018555,-16.81599998474121 33.1619987487793,9.14799976348877 C29.94700050354004,45.20500183105469 14.64900016784668,60.56700134277344 0.39899998903274536,61.5890007019043 C-10.984999656677246,62.404998779296875 -21.700000762939453,54.069000244140625 -25.05299949645996,39.819000244140625 C-32.60300064086914,7.73199987411499 -21.573999404907227,-12.557999610900879 -33.84299850463867,-42.757999420166016"></path><path stroke-linecap="round" stroke-linejoin="round" fill-opacity="0" stroke="rgb(43,79,9)" stroke-opacity="1" stroke-width="6.637" d=" M21.836999893188477,-61.632999420166016 C31.476999282836914,-39.81700134277344 35.47700119018555,-16.81599998474121 33.1619987487793,9.14799976348877 C29.94700050354004,45.20500183105469 14.64900016784668,60.56700134277344 0.39899998903274536,61.5890007019043 C-10.984999656677246,62.404998779296875 -21.700000762939453,54.069000244140625 -25.05299949645996,39.819000244140625 C-32.60300064086914,7.73199987411499 -21.573999404907227,-12.557999610900879 -33.84299850463867,-42.757999420166016"></path></g><g opacity="0.65" transform="matrix(1,0,0,1,6.909999847412109,-14.89900016784668)"><path fill="url(#__lottie_element_54)" fill-opacity="1" d=" M-8.199000358581543,30.913000106811523 C7.579999923706055,46.69200134277344 14.451000213623047,30.913000106811523 13.821999549865723,11.409000396728516 C13.192999839782715,-8.095000267028809 5.642000198364258,-34.51900100708008 -3.7950000762939453,-37.0359992980957 C-13.232000350952148,-39.553001403808594 -13.861000061035156,-26.969999313354492 -13.861000061035156,-11.869999885559082 C-13.861000061035156,3.2300000190734863 -13.861000061035156,25.250999450683594 -8.199000358581543,30.913000106811523z"></path></g></g><g style="display: block;" transform="matrix(-0.9999948143959045,0,0,1.0000108480453491,180.55047607421875,77.99089050292969)" opacity="1"><g opacity="1" transform="matrix(1,0,0,1,0,0)"><g opacity="1" transform="matrix(1,0,0,1,0,-17.1200008392334)"><path fill="url(#__lottie_element_27)" fill-opacity="1" d=" M71.86799621582031,45.64099884033203 C70.92400360107422,-19.476999282836914 62.430999755859375,-44.95800018310547 -8.020000457763672,-45.62300109863281 C-47.04199981689453,-45.992000579833984 -71.86799621582031,-40.86899948120117 -71.86799621582031,-4.063000202178955"></path><path stroke-linecap="round" stroke-linejoin="round" fill-opacity="0" stroke="rgb(43,79,9)" stroke-opacity="1" stroke-width="6.838" d=" M71.86799621582031,45.64099884033203 C70.92400360107422,-19.476999282836914 62.430999755859375,-44.95800018310547 -8.020000457763672,-45.62300109863281 C-47.04199981689453,-45.992000579833984 -71.86799621582031,-40.86899948120117 -71.86799621582031,-4.063000202178955"></path></g><g opacity="1" transform="matrix(1,0,0,1,-6.934000015258789,-39.900001525878906)"><path stroke-linecap="round" stroke-linejoin="round" fill-opacity="0" stroke="rgb(43,79,9)" stroke-opacity="1" stroke-width="6.637" d=" M44.82699966430664,6.133999824523926 C44.82699966430664,6.133999824523926 31.6299991607666,-7.078000068664551 0.47200000286102295,-7.078000068664551 C-33.50299835205078,-7.078000068664551 -44.82699966430664,7.078000068664551 -44.82699966430664,7.078000068664551"></path></g></g><g opacity="1" transform="matrix(1,0,0,1,-3.5239999294281006,13.734999656677246)"><path fill="url(#__lottie_element_28)" fill-opacity="1" d=" M-55.472999572753906,-1.5729999542236328 C-55.472999572753906,29.959999084472656 -34.47100067138672,44.98500061035156 -2.937999963760376,44.98500061035156 C28.594999313354492,44.98500061035156 55.472999572753906,29.062000274658203 55.472999572753906,-2.4709999561309814 C55.472999572753906,-34.00400161743164 30.273000717163086,-44.98500061035156 -1.2599999904632568,-44.98500061035156 C-32.792999267578125,-44.98500061035156 -55.472999572753906,-33.10599899291992 -55.472999572753906,-1.5729999542236328z"></path><path stroke-linecap="butt" stroke-linejoin="miter" fill-opacity="0" stroke-miterlimit="10" stroke="rgb(6,13,15)" stroke-opacity="1" stroke-width="7.585" d=" M-55.472999572753906,-1.5729999542236328 C-55.472999572753906,29.959999084472656 -34.47100067138672,44.98500061035156 -2.937999963760376,44.98500061035156 C28.594999313354492,44.98500061035156 55.472999572753906,29.062000274658203 55.472999572753906,-2.4709999561309814 C55.472999572753906,-34.00400161743164 30.273000717163086,-44.98500061035156 -1.2599999904632568,-44.98500061035156 C-32.792999267578125,-44.98500061035156 -55.472999572753906,-33.10599899291992 -55.472999572753906,-1.5729999542236328z"></path></g><g opacity="1" transform="matrix(-1,0,0,1,-6.781000137329102,0)"><g opacity="1" transform="matrix(-1,0,0,-1,-3.2939999103546143,12.279000282287598)"><path fill="url(#__lottie_element_29)" fill-opacity="1" d=" M0,-22.649499893188477 C12.500259399414062,-22.649499893188477 22.649499893188477,-12.500259399414062 22.649499893188477,0 C22.649499893188477,12.500259399414062 12.500259399414062,22.649499893188477 0,22.649499893188477 C-12.500259399414062,22.649499893188477 -22.649499893188477,12.500259399414062 -22.649499893188477,0 C-22.649499893188477,-12.500259399414062 -12.500259399414062,-22.649499893188477 0,-22.649499893188477z"></path><path stroke-linecap="butt" stroke-linejoin="round" fill-opacity="0" stroke="rgb(0,0,0)" stroke-opacity="1" stroke-width="6.838" d=" M0,-22.649499893188477 C12.500259399414062,-22.649499893188477 22.649499893188477,-12.500259399414062 22.649499893188477,0 C22.649499893188477,12.500259399414062 12.500259399414062,22.649499893188477 0,22.649499893188477 C-12.500259399414062,22.649499893188477 -22.649499893188477,12.500259399414062 -22.649499893188477,0 C-22.649499893188477,-12.500259399414062 -12.500259399414062,-22.649499893188477 0,-22.649499893188477z"></path></g><g opacity="1" transform="matrix(-1,0,0,-1,10.131999969482422,3.672999858856201)"><path fill="url(#__lottie_element_30)" fill-opacity="1" d=" M0,-9.123000144958496 C5.382128715515137,-9.123000144958496 9.751999855041504,-5.0349836349487305 9.751999855041504,0 C9.751999855041504,5.0349836349487305 5.382128715515137,9.123000144958496 0,9.123000144958496 C-5.382128715515137,9.123000144958496 -9.751999855041504,5.0349836349487305 -9.751999855041504,0 C-9.751999855041504,-5.0349836349487305 -5.382128715515137,-9.123000144958496 0,-9.123000144958496z"></path></g><g opacity="1" transform="matrix(-1,0,0,-1,-11.483000755310059,12.988000869750977)"><path fill="url(#__lottie_element_31)" fill-opacity="1" d=" M0,-12.166500091552734 C7.177735328674316,-12.166500091552734 13.005499839782715,-6.714691162109375 13.005499839782715,0 C13.005499839782715,6.714691162109375 7.177735328674316,12.166500091552734 0,12.166500091552734 C-7.177735328674316,12.166500091552734 -13.005499839782715,6.714691162109375 -13.005499839782715,0 C-13.005499839782715,-6.714691162109375 -7.177735328674316,-12.166500091552734 0,-12.166500091552734z"></path></g><g opacity="1" transform="matrix(-1,0,0,-1,9.75100040435791,22.475000381469727)"><path fill="url(#__lottie_element_32)" fill-opacity="1" d=" M0,-5.1595001220703125 C3.044004440307617,-5.1595001220703125 5.515500068664551,-2.8475282192230225 5.515500068664551,0 C5.515500068664551,2.8475282192230225 3.044004440307617,5.1595001220703125 0,5.1595001220703125 C-3.044004440307617,5.1595001220703125 -5.515500068664551,2.8475282192230225 -5.515500068664551,0 C-5.515500068664551,-2.8475282192230225 -3.044004440307617,-5.1595001220703125 0,-5.1595001220703125z"></path></g></g><g opacity="1" transform="matrix(1,0,0,1,0,0)"><g opacity="1" transform="matrix(1,0,0,1,-3.9549999237060547,40.26499938964844)"><path fill="url(#__lottie_element_33)" fill-opacity="1" d=" M-1.1929999589920044,22.43400001525879 C36.47600173950195,24.017000198364258 61.66699981689453,-4.822999954223633 58.520999908447266,-15.519000053405762 C55.375,-26.21500015258789 42.290000915527344,-22.95199966430664 36.500999450683594,-16.777000427246094 C27.06399917602539,-6.710000038146973 17.16900062561035,-1.0479999780654907 -1.2489999532699585,-1.0479999780654907 C-31.448999404907227,-1.0479999780654907 -42.14400100708008,-27.472999572753906 -54.72700119018555,-20.552000045776367 C-67.30999755859375,-13.630999565124512 -50.95199966430664,20.343000411987305 -1.1929999589920044,22.43400001525879z"></path><path stroke-linecap="butt" stroke-linejoin="round" fill-opacity="0" stroke="rgb(43,79,9)" stroke-opacity="1" stroke-width="6.637" d=" M-1.1929999589920044,22.43400001525879 C36.47600173950195,24.017000198364258 61.66699981689453,-4.822999954223633 58.520999908447266,-15.519000053405762 C55.375,-26.21500015258789 42.290000915527344,-22.95199966430664 36.500999450683594,-16.777000427246094 C27.06399917602539,-6.710000038146973 17.16900062561035,-1.0479999780654907 -1.2489999532699585,-1.0479999780654907 C-31.448999404907227,-1.0479999780654907 -42.14400100708008,-27.472999572753906 -54.72700119018555,-20.552000045776367 C-67.30999755859375,-13.630999565124512 -50.95199966430664,20.343000411987305 -1.1929999589920044,22.43400001525879z"></path></g><g opacity="1" transform="matrix(1,0,0,1,-3.437999963760376,-11.491000175476074)"><path fill="url(#__lottie_element_34)" fill-opacity="1" d=" M-33.349998474121094,-15.92300033569336 C-51.83700180053711,-8.425999641418457 -60.486000061035156,7.295000076293945 -57.54999923706055,15.684000015258789 C-53.867000579833984,26.207000732421875 -43.02399826049805,22.26799964904785 -37.23500061035156,16.093000411987305 C-27.79800033569336,6.026000022888184 -17.90399932861328,0.36399999260902405 0.5139999985694885,0.36399999260902405 C30.714000701904297,0.36399999260902405 41.40999984741211,26.788999557495117 53.99300003051758,19.868000030517578 C63.43000030517578,14.677000045776367 56.933998107910156,-6.572999954223633 31.584999084472656,-16.492000579833984 C16.270999908447266,-22.483999252319336 -8.895000457763672,-25.84000015258789 -33.349998474121094,-15.92300033569336z"></path><path stroke-linecap="round" stroke-linejoin="round" fill-opacity="0" stroke="rgb(43,79,9)" stroke-opacity="1" stroke-width="6.637" d=" M-33.349998474121094,-15.92300033569336 C-51.83700180053711,-8.425999641418457 -60.486000061035156,7.295000076293945 -57.54999923706055,15.684000015258789 C-53.867000579833984,26.207000732421875 -43.02399826049805,22.26799964904785 -37.23500061035156,16.093000411987305 C-27.79800033569336,6.026000022888184 -17.90399932861328,0.36399999260902405 0.5139999985694885,0.36399999260902405 C30.714000701904297,0.36399999260902405 41.40999984741211,26.788999557495117 53.99300003051758,19.868000030517578 C63.43000030517578,14.677000045776367 56.933998107910156,-6.572999954223633 31.584999084472656,-16.492000579833984 C16.270999908447266,-22.483999252319336 -8.895000457763672,-25.84000015258789 -33.349998474121094,-15.92300033569336z"></path></g></g></g><g style="display: block;" transform="matrix(0.9999948143959045,0,0,1.0000108480453491,324.28662109375,77.99089050292969)" opacity="1"><g opacity="1" transform="matrix(1,0,0,1,0,0)"><g opacity="1" transform="matrix(1,0,0,1,0,-17.1200008392334)"><path fill="url(#__lottie_element_16)" fill-opacity="1" d=" M71.86799621582031,45.64099884033203 C70.92400360107422,-19.476999282836914 62.430999755859375,-44.95800018310547 -8.020000457763672,-45.62300109863281 C-47.04199981689453,-45.992000579833984 -71.86799621582031,-40.86899948120117 -71.86799621582031,-4.063000202178955"></path><path stroke-linecap="round" stroke-linejoin="round" fill-opacity="0" stroke="rgb(43,79,9)" stroke-opacity="1" stroke-width="6.838" d=" M71.86799621582031,45.64099884033203 C70.92400360107422,-19.476999282836914 62.430999755859375,-44.95800018310547 -8.020000457763672,-45.62300109863281 C-47.04199981689453,-45.992000579833984 -71.86799621582031,-40.86899948120117 -71.86799621582031,-4.063000202178955"></path></g><g opacity="1" transform="matrix(1,0,0,1,-6.934000015258789,-39.900001525878906)"><path stroke-linecap="round" stroke-linejoin="round" fill-opacity="0" stroke="rgb(43,79,9)" stroke-opacity="1" stroke-width="6.637" d=" M44.82699966430664,6.133999824523926 C44.82699966430664,6.133999824523926 31.6299991607666,-7.078000068664551 0.47200000286102295,-7.078000068664551 C-33.50299835205078,-7.078000068664551 -44.82699966430664,7.078000068664551 -44.82699966430664,7.078000068664551"></path></g></g><g opacity="1" transform="matrix(1,0,0,1,-3.5239999294281006,13.734999656677246)"><path fill="url(#__lottie_element_17)" fill-opacity="1" d=" M-55.472999572753906,-1.5729999542236328 C-55.472999572753906,29.959999084472656 -34.47100067138672,44.98500061035156 -2.937999963760376,44.98500061035156 C28.594999313354492,44.98500061035156 55.472999572753906,29.062000274658203 55.472999572753906,-2.4709999561309814 C55.472999572753906,-34.00400161743164 30.273000717163086,-44.98500061035156 -1.2599999904632568,-44.98500061035156 C-32.792999267578125,-44.98500061035156 -55.472999572753906,-33.10599899291992 -55.472999572753906,-1.5729999542236328z"></path><path stroke-linecap="butt" stroke-linejoin="miter" fill-opacity="0" stroke-miterlimit="10" stroke="rgb(6,13,15)" stroke-opacity="1" stroke-width="7.585" d=" M-55.472999572753906,-1.5729999542236328 C-55.472999572753906,29.959999084472656 -34.47100067138672,44.98500061035156 -2.937999963760376,44.98500061035156 C28.594999313354492,44.98500061035156 55.472999572753906,29.062000274658203 55.472999572753906,-2.4709999561309814 C55.472999572753906,-34.00400161743164 30.273000717163086,-44.98500061035156 -1.2599999904632568,-44.98500061035156 C-32.792999267578125,-44.98500061035156 -55.472999572753906,-33.10599899291992 -55.472999572753906,-1.5729999542236328z"></path></g><g opacity="1" transform="matrix(1,0,0,1,0,0)"><g opacity="1" transform="matrix(-1,0,0,-1,-3.2939999103546143,12.279000282287598)"><path fill="url(#__lottie_element_18)" fill-opacity="1" d=" M0,-22.649499893188477 C12.500259399414062,-22.649499893188477 22.649499893188477,-12.500259399414062 22.649499893188477,0 C22.649499893188477,12.500259399414062 12.500259399414062,22.649499893188477 0,22.649499893188477 C-12.500259399414062,22.649499893188477 -22.649499893188477,12.500259399414062 -22.649499893188477,0 C-22.649499893188477,-12.500259399414062 -12.500259399414062,-22.649499893188477 0,-22.649499893188477z"></path><path stroke-linecap="butt" stroke-linejoin="round" fill-opacity="0" stroke="rgb(0,0,0)" stroke-opacity="1" stroke-width="6.838" d=" M0,-22.649499893188477 C12.500259399414062,-22.649499893188477 22.649499893188477,-12.500259399414062 22.649499893188477,0 C22.649499893188477,12.500259399414062 12.500259399414062,22.649499893188477 0,22.649499893188477 C-12.500259399414062,22.649499893188477 -22.649499893188477,12.500259399414062 -22.649499893188477,0 C-22.649499893188477,-12.500259399414062 -12.500259399414062,-22.649499893188477 0,-22.649499893188477z"></path></g><g opacity="1" transform="matrix(-1,0,0,-1,10.131999015808105,3.671999931335449)"><path fill="url(#__lottie_element_19)" fill-opacity="1" d=" M0,-9.123000144958496 C5.382128715515137,-9.123000144958496 9.751999855041504,-5.0349836349487305 9.751999855041504,0 C9.751999855041504,5.0349836349487305 5.382128715515137,9.123000144958496 0,9.123000144958496 C-5.382128715515137,9.123000144958496 -9.751999855041504,5.0349836349487305 -9.751999855041504,0 C-9.751999855041504,-5.0349836349487305 -5.382128715515137,-9.123000144958496 0,-9.123000144958496z"></path></g><g opacity="1" transform="matrix(-1,0,0,-1,-11.483000755310059,12.98799991607666)"><path fill="url(#__lottie_element_20)" fill-opacity="1" d=" M0,-12.166500091552734 C7.177735328674316,-12.166500091552734 13.005499839782715,-6.714691162109375 13.005499839782715,0 C13.005499839782715,6.714691162109375 7.177735328674316,12.166500091552734 0,12.166500091552734 C-7.177735328674316,12.166500091552734 -13.005499839782715,6.714691162109375 -13.005499839782715,0 C-13.005499839782715,-6.714691162109375 -7.177735328674316,-12.166500091552734 0,-12.166500091552734z"></path></g><g opacity="1" transform="matrix(-1,0,0,-1,9.750999450683594,22.475000381469727)"><path fill="url(#__lottie_element_21)" fill-opacity="1" d=" M0,-5.1595001220703125 C3.044004440307617,-5.1595001220703125 5.515500068664551,-2.8475282192230225 5.515500068664551,0 C5.515500068664551,2.8475282192230225 3.044004440307617,5.1595001220703125 0,5.1595001220703125 C-3.044004440307617,5.1595001220703125 -5.515500068664551,2.8475282192230225 -5.515500068664551,0 C-5.515500068664551,-2.8475282192230225 -3.044004440307617,-5.1595001220703125 0,-5.1595001220703125z"></path></g></g><g opacity="1" transform="matrix(1,0,0,1,0,0)"><g opacity="1" transform="matrix(1,0,0,1,-3.9549999237060547,40.26499938964844)"><path fill="url(#__lottie_element_22)" fill-opacity="1" d=" M-1.1929999589920044,22.43400001525879 C36.47600173950195,24.017000198364258 61.66699981689453,-4.822999954223633 58.520999908447266,-15.519000053405762 C55.375,-26.21500015258789 42.290000915527344,-22.95199966430664 36.500999450683594,-16.777000427246094 C27.06399917602539,-6.710000038146973 17.16900062561035,-1.0479999780654907 -1.2489999532699585,-1.0479999780654907 C-31.448999404907227,-1.0479999780654907 -42.14400100708008,-27.472999572753906 -54.72700119018555,-20.552000045776367 C-67.30999755859375,-13.630999565124512 -50.95199966430664,20.343000411987305 -1.1929999589920044,22.43400001525879z"></path><path stroke-linecap="butt" stroke-linejoin="round" fill-opacity="0" stroke="rgb(43,79,9)" stroke-opacity="1" stroke-width="6.637" d=" M-1.1929999589920044,22.43400001525879 C36.47600173950195,24.017000198364258 61.66699981689453,-4.822999954223633 58.520999908447266,-15.519000053405762 C55.375,-26.21500015258789 42.290000915527344,-22.95199966430664 36.500999450683594,-16.777000427246094 C27.06399917602539,-6.710000038146973 17.16900062561035,-1.0479999780654907 -1.2489999532699585,-1.0479999780654907 C-31.448999404907227,-1.0479999780654907 -42.14400100708008,-27.472999572753906 -54.72700119018555,-20.552000045776367 C-67.30999755859375,-13.630999565124512 -50.95199966430664,20.343000411987305 -1.1929999589920044,22.43400001525879z"></path></g><g opacity="1" transform="matrix(1,0,0,1,-3.437999963760376,-11.491000175476074)"><path fill="url(#__lottie_element_23)" fill-opacity="1" d=" M-33.349998474121094,-15.92300033569336 C-51.83700180053711,-8.425999641418457 -60.486000061035156,7.295000076293945 -57.54999923706055,15.684000015258789 C-53.867000579833984,26.207000732421875 -43.02399826049805,22.26799964904785 -37.23500061035156,16.093000411987305 C-27.79800033569336,6.026000022888184 -17.90399932861328,0.36399999260902405 0.5139999985694885,0.36399999260902405 C30.714000701904297,0.36399999260902405 41.40999984741211,26.788999557495117 53.99300003051758,19.868000030517578 C63.43000030517578,14.677000045776367 56.933998107910156,-6.572999954223633 31.584999084472656,-16.492000579833984 C16.270999908447266,-22.483999252319336 -8.895000457763672,-25.84000015258789 -33.349998474121094,-15.92300033569336z"></path><path stroke-linecap="round" stroke-linejoin="round" fill-opacity="0" stroke="rgb(43,79,9)" stroke-opacity="1" stroke-width="6.637" d=" M-33.349998474121094,-15.92300033569336 C-51.83700180053711,-8.425999641418457 -60.486000061035156,7.295000076293945 -57.54999923706055,15.684000015258789 C-53.867000579833984,26.207000732421875 -43.02399826049805,22.26799964904785 -37.23500061035156,16.093000411987305 C-27.79800033569336,6.026000022888184 -17.90399932861328,0.36399999260902405 0.5139999985694885,0.36399999260902405 C30.714000701904297,0.36399999260902405 41.40999984741211,26.788999557495117 53.99300003051758,19.868000030517578 C63.43000030517578,14.677000045776367 56.933998107910156,-6.572999954223633 31.584999084472656,-16.492000579833984 C16.270999908447266,-22.483999252319336 -8.895000457763672,-25.84000015258789 -33.349998474121094,-15.92300033569336z"></path></g></g></g><g style="display: block;" transform="matrix(0.9999948143959045,0,0,1.0000108480453491,251.0634765625,152.188720703125)" opacity="1"><g opacity="1" transform="matrix(1,0,0,1,0,0)"><path fill="url(#__lottie_element_11)" fill-opacity="1" d=" M-5.267000198364258,29.07699966430664 C-92.99099731445312,26.304000854492188 -121.88800048828125,-11.734999656677246 -110.11000061035156,-24.4950008392334 C-95.01000213623047,-40.85300064086914 -65.25900268554688,-9.810999870300293 -4.335000038146973,-9.604999542236328 C57.66600036621094,-9.395000457763672 92.63400268554688,-35.94499969482422 109.25599670410156,-20.301000595092773 C123.51699829101562,-6.879000186920166 93.67900085449219,32.20399856567383 -5.267000198364258,29.07699966430664z"></path><path stroke-linecap="round" stroke-linejoin="round" fill-opacity="0" stroke="rgb(94,2,2)" stroke-opacity="1" stroke-width="6.838" d=" M-5.267000198364258,29.07699966430664 C-92.99099731445312,26.304000854492188 -121.88800048828125,-11.734999656677246 -110.11000061035156,-24.4950008392334 C-95.01000213623047,-40.85300064086914 -65.25900268554688,-9.810999870300293 -4.335000038146973,-9.604999542236328 C57.66600036621094,-9.395000457763672 92.63400268554688,-35.94499969482422 109.25599670410156,-20.301000595092773 C123.51699829101562,-6.879000186920166 93.67900085449219,32.20399856567383 -5.267000198364258,29.07699966430664z"></path></g><g opacity="1" transform="matrix(1,0,0,1,-2.809000015258789,3.492000102996826)"><path fill="url(#__lottie_element_12)" fill-opacity="1" d=" M-4.163000106811523,18.236000061035156 C-77.83699798583984,16.711000442504883 -93.88400268554688,-5.854000091552734 -81.3270034790039,-15.484999656677246 C-68.7699966430664,-25.115999221801758 -47.74100112915039,-7.060999870300293 -3.7839999198913574,-7.448999881744385 C42.01900100708008,-7.853000164031982 62.98899841308594,-21.503000259399414 79.51599884033203,-13.739999771118164 C96.04299926757812,-5.9770002365112305 78.93599700927734,19.95599937438965 -4.163000106811523,18.236000061035156z"></path></g><g opacity="1" transform="matrix(1,0,0,1,0.41200000047683716,-2.7929999828338623)"><path stroke-linecap="round" stroke-linejoin="round" fill-opacity="0" stroke="rgb(94,2,2)" stroke-opacity="1" stroke-width="6.838" d=" M-89.55000305175781,-8.279999732971191 C-89.55000305175781,-8.279999732971191 -59.987998962402344,8.279999732971191 -0.9480000138282776,8.279999732971191 C58.09199905395508,8.279999732971191 89.55000305175781,-6.183000087738037 89.55000305175781,-6.183000087738037"></path></g></g><g style="display: block;" transform="matrix(1,0,0,1,256,256)" opacity="1"></g></g></svg>