<?xml version="1.0" encoding="UTF-8"?>
<svg version="1.1" xmlns="http://www.w3.org/2000/svg" width="512" height="512">
<path d="M0 0 C0.84043854 0.00182281 1.68087708 0.00364563 2.54678345 0.00552368 C14.71117435 0.04997581 26.43854626 0.45915634 38.3125 3.3125 C39.06337891 3.47878906 39.81425781 3.64507812 40.58789062 3.81640625 C65.87850657 9.45510675 89.8123691 20.46798226 110.3125 36.3125 C111.20582031 36.9828125 112.09914063 37.653125 113.01953125 38.34375 C150.93063329 67.89963165 174.88539584 111.88662176 180.85400391 159.40161133 C181.43125291 164.76266053 181.43848088 170.08564301 181.41015625 175.47265625 C181.40803383 177.01837563 181.40803383 177.01837563 181.40586853 178.59532166 C181.40031447 181.85524519 181.3877707 185.11509757 181.375 188.375 C181.36997906 190.59830629 181.36541719 192.82161367 181.36132812 195.04492188 C181.35036013 200.4674718 181.3336684 205.88998081 181.3125 211.3125 C182.09463867 211.34843262 182.87677734 211.38436523 183.68261719 211.42138672 C195.13655432 212.12735487 205.02468728 216.10629874 213.4453125 224.18359375 C229.42451557 242.4025596 232.79355046 262.09625153 232.7109375 285.50390625 C232.71296323 287.54166264 232.7158788 289.57941831 232.71963501 291.61717224 C232.72403386 295.86749236 232.71770574 300.1176221 232.70361328 304.36791992 C232.68651205 309.78656683 232.69638428 315.20476812 232.71433067 320.62339878 C232.72522538 324.82471511 232.72169638 329.0259276 232.7139473 333.22724724 C232.71196155 335.22412101 232.71434668 337.22100455 232.72138596 339.2178669 C232.76635666 355.55371636 232.20919329 370.27882825 220.0546875 382.6015625 C212.20170209 389.34351461 203.72339462 392.82443573 193.5625 394.375 C188.15997782 395.52488284 186.13510642 397.06635071 183.125 401.6875 C181.85229904 403.89475752 180.58154501 406.1031385 179.3125 408.3125 C159.93776399 436.76966864 131.1161897 454.69598275 97.55664062 461.23852539 C90.10204881 462.53834964 82.86256519 462.72432174 75.3125 462.3125 C75.16554688 463.03953125 75.01859375 463.7665625 74.8671875 464.515625 C71.2190935 480.86914981 63.04202023 493.56747741 48.875 502.8203125 C44.48934293 505.37415549 40.04091822 507.47367069 35.3125 509.3125 C34.14074219 509.79396484 34.14074219 509.79396484 32.9453125 510.28515625 C17.90273229 515.45153763 -0.70975451 513.54387007 -14.8515625 506.8046875 C-31.22073942 497.89488234 -42.5925103 483.97810047 -48.5625 466.375 C-52.63213161 449.56035443 -50.02769014 431.66492437 -41.30859375 416.8359375 C-34.32813419 405.96996913 -26.10286587 398.80170204 -14.625 392.9375 C-13.97668213 392.60355225 -13.32836426 392.26960449 -12.66040039 391.92553711 C1.51828075 385.00967143 20.42035109 384.94432627 35.2109375 389.9921875 C51.93018523 397.10944913 65.31221934 409.41438662 72.3125 426.3125 C73.43794743 429.61652439 74.42889891 432.9361381 75.3125 436.3125 C103.3157037 435.85205868 127.36968918 424.81589295 147.3125 405.3125 C149.7283895 402.7104398 152.05650073 400.05406203 154.3125 397.3125 C153.29929687 397.27511719 152.28609375 397.23773438 151.2421875 397.19921875 C149.89059061 397.13351612 148.53902971 397.06707029 147.1875 397 C146.52234375 396.97744141 145.8571875 396.95488281 145.171875 396.93164062 C140.54321085 396.68205579 137.19539409 395.86170438 133.3125 393.3125 C130.30039617 389.32121764 129.93613445 386.35390917 129.93154907 381.41163635 C129.9268691 380.72964438 129.92218913 380.04765241 129.91736734 379.34499401 C129.90542943 377.06646638 129.91486947 374.78854155 129.92431641 372.51000977 C129.92025012 370.87370453 129.91490791 369.23740203 129.90838623 367.60110474 C129.89471253 363.1609884 129.90001178 358.72108126 129.90952349 354.28096128 C129.91712108 349.63260921 129.91007408 344.98427501 129.90536499 340.33592224 C129.89990719 332.52884711 129.90709913 324.72185712 129.92138672 316.91479492 C129.93770757 307.89260516 129.93242894 298.87061885 129.9159075 289.84843403 C129.90228652 282.09966593 129.90037614 274.35095902 129.90822351 266.60218281 C129.91289739 261.97534568 129.91353281 257.34860411 129.90361404 252.72177315 C129.89493797 248.37065883 129.90097798 244.01980633 129.91829681 239.66872025 C129.92225848 238.07319638 129.92113308 236.47765042 129.91450882 234.88213539 C129.90629013 232.70124345 129.91661785 230.52118629 129.93154907 228.34034729 C129.93268015 227.12085671 129.93381123 225.90136614 129.93497658 224.6449213 C130.43682219 220.21510079 131.97691714 216.92632928 134.8125 213.5 C138.54283495 210.54681816 143.00852721 211.19900511 147.5 211.25 C148.24958984 211.25451172 148.99917969 211.25902344 149.77148438 211.26367188 C151.61852383 211.27543646 153.46552213 211.29337135 155.3125 211.3125 C155.30481157 180.13805347 155.30481157 180.13805347 151.3125 149.3125 C151.18004883 148.631875 151.04759766 147.95125 150.91113281 147.25 C145.97171452 122.37351075 133.7803043 99.4352699 117.3125 80.3125 C116.85875 79.78043945 116.405 79.24837891 115.9375 78.70019531 C109.6884369 71.43477181 102.97521749 65.09780069 95.3125 59.3125 C94.78285645 58.90789551 94.25321289 58.50329102 93.70751953 58.08642578 C60.98244314 33.23447726 19.25319029 22.64926223 -21.51831055 28.13256836 C-25.27230595 28.73379887 -28.98022355 29.47155495 -32.6875 30.3125 C-33.43112793 30.47878906 -34.17475586 30.64507813 -34.94091797 30.81640625 C-46.82640627 33.57275741 -57.74450024 37.96598028 -68.6875 43.3125 C-69.85152344 43.8796875 -71.01554688 44.446875 -72.21484375 45.03125 C-85.59765386 51.90920332 -96.90619204 60.91678961 -107.6875 71.3125 C-108.45449219 72.01632813 -109.22148437 72.72015625 -110.01171875 73.4453125 C-141.98202283 103.63629983 -152.80428956 146.77715866 -154.06900024 189.1784668 C-154.13107489 191.36893327 -154.19062589 193.55945883 -154.25 195.75 C-154.29335984 197.27149181 -154.33697846 198.79297626 -154.38085938 200.31445312 C-154.48604022 203.9803893 -154.58777519 207.64641085 -154.6875 211.3125 C-152.96853516 211.20808594 -152.96853516 211.20808594 -151.21484375 211.1015625 C-137.41050433 210.50910158 -137.41050433 210.50910158 -133.25 213.9375 C-128.92662517 218.39045827 -128.43705316 224.24684897 -128.42680359 230.1817627 C-128.42106527 231.18153098 -128.42106527 231.18153098 -128.41521102 232.2014966 C-128.40494146 234.42152206 -128.40886151 236.64128596 -128.4128418 238.86132812 C-128.40849203 240.45837136 -128.40330799 242.0554125 -128.39735413 243.65245056 C-128.38398293 247.98089607 -128.38338325 252.30925416 -128.38591743 256.63771629 C-128.38698818 260.25361154 -128.3821012 263.86948918 -128.377312 267.48538065 C-128.36622381 276.01582059 -128.36577587 284.5462165 -128.37182617 293.07666016 C-128.37786938 301.8733529 -128.36554459 310.66988583 -128.3442561 319.4665513 C-128.32663936 327.02425102 -128.32063877 334.58189986 -128.32389385 342.13961935 C-128.32570637 346.65131573 -128.32307341 351.16289804 -128.30917931 355.67457581 C-128.29660401 359.91652788 -128.29854217 364.15823066 -128.31159019 368.40017891 C-128.31395599 369.95539497 -128.31122114 371.51062856 -128.30296707 373.06582451 C-128.29249798 375.19191747 -128.3006005 377.31717412 -128.3132782 379.4432373 C-128.31311046 380.63193169 -128.31294271 381.82062607 -128.31276989 383.04534149 C-128.87732456 387.96752291 -130.56399343 391.22049893 -134.09912109 394.65649414 C-139.4091008 397.10700389 -144.32029633 396.86476043 -150.1015625 396.80859375 C-151.91060562 396.8107766 -151.91060562 396.8107766 -153.75619507 396.81300354 C-156.30640071 396.81134568 -158.85661647 396.7997972 -161.40673828 396.77905273 C-165.27811073 396.7502558 -169.14809908 396.75841687 -173.01953125 396.77148438 C-175.5052149 396.76524146 -177.99089426 396.75684621 -180.4765625 396.74609375 C-181.62073639 396.74902939 -182.76491028 396.75196503 -183.9437561 396.75498962 C-199.98279622 396.57019183 -212.79073515 391.74223399 -224.46484375 380.66015625 C-234.49235193 370.06871088 -237.82957617 357.47701609 -237.84863281 343.20874023 C-237.85359772 342.31191025 -237.85856262 341.41508026 -237.86367798 340.49107361 C-237.87823896 337.53440572 -237.88509285 334.57779155 -237.890625 331.62109375 C-237.89345238 330.60576128 -237.89627975 329.59042881 -237.89919281 328.54432869 C-237.91416407 323.16716376 -237.92340549 317.7900255 -237.92773438 312.4128418 C-237.93320397 306.88764232 -237.95720603 301.36269114 -237.98570633 295.83756924 C-238.0044353 291.56416641 -238.00954383 287.29082205 -238.01107025 283.01738167 C-238.01407614 280.982246 -238.02203393 278.94711085 -238.03525543 276.91201591 C-238.1536202 257.2860227 -236.21822391 240.48557193 -222.13647461 225.48046875 C-213.47628699 216.79567422 -202.5820009 211.58111102 -190.25170898 211.20874023 C-189.11548096 211.22106689 -187.97925293 211.23339355 -186.80859375 211.24609375 C-185.65673584 211.25568115 -184.50487793 211.26526855 -183.31811523 211.27514648 C-182.45001221 211.28747314 -181.58190918 211.2997998 -180.6875 211.3125 C-180.70321045 210.16587891 -180.7189209 209.01925781 -180.73510742 207.83789062 C-181.08293415 179.96455518 -181.20901341 153.15584071 -172.6875 126.3125 C-172.44547852 125.54663574 -172.20345703 124.78077148 -171.95410156 123.99169922 C-157.30293181 78.82197316 -124.59654367 41.21180612 -82.64453125 19.21459961 C-56.65721125 6.09140159 -29.03311459 -0.13060089 0 0 Z M-202.0546875 242.640625 C-210.02487881 250.80149074 -211.9991272 260.88278794 -211.9621582 271.88647461 C-211.96726913 272.69102585 -211.97238007 273.49557709 -211.97764587 274.32450867 C-211.99141962 276.95469839 -211.99059456 279.5846225 -211.98828125 282.21484375 C-211.99217457 284.06132604 -211.99651053 285.90780745 -212.00126648 287.75428772 C-212.00870219 291.61315828 -212.00845646 295.47193729 -212.00317383 299.33081055 C-211.99737924 304.25427839 -212.0143229 309.17737003 -212.0375185 314.10077572 C-212.05231145 317.91083433 -212.05312006 321.72080345 -212.05000877 325.5308857 C-212.05051907 327.3452078 -212.05570161 329.15953531 -212.06582069 330.97382927 C-212.32478638 348.71296906 -212.32478638 348.71296906 -203.65234375 363.62109375 C-190.53622391 374.91190864 -171.56476789 370.3125 -155.6875 370.3125 C-155.6875 326.4225 -155.6875 282.5325 -155.6875 237.3125 C-178.86071488 235.23390714 -178.86071488 235.23390714 -202.0546875 242.640625 Z M156.3125 237.3125 C156.3125 281.2025 156.3125 325.0925 156.3125 370.3125 C179.26673103 371.78142924 179.26673103 371.78142924 200.375 364.6875 C207.8426354 357.17045667 206.75157935 346.19861013 206.72138596 336.3870163 C206.71793797 335.51164467 206.71448997 334.63627304 206.7109375 333.734375 C206.71296234 331.91749963 206.71587717 330.10062505 206.71963501 328.28375244 C206.72404358 324.48449937 206.71767779 320.68545872 206.70361328 316.88623047 C206.68657131 312.05046929 206.69634026 307.21520959 206.71433067 302.37946701 C206.72525025 298.628462 206.72168417 294.87757282 206.7139473 291.12656403 C206.71196524 289.34543039 206.71433328 287.56428576 206.72138596 285.78316498 C206.76825594 270.61486935 206.17237175 256.00073374 195.390625 244.2109375 C184.27848027 233.7448477 171.9718858 237.3125 156.3125 237.3125 Z M-15 425.625 C-21.44447781 433.22486228 -24.09246837 441.37737213 -23.9609375 451.2421875 C-22.9512004 462.5800927 -17.47601095 471.02971487 -9.3125 478.625 C-0.56959477 485.72984398 9.3624768 487.18056526 20.3125 486.3125 C30.80031961 484.03074632 38.99527413 478.03239134 45.09765625 469.29296875 C50.73891722 460.09644363 51.42886235 450.77472338 49.25 440.375 C46.48218057 430.17435094 39.91027094 422.16032837 30.84765625 416.875 C14.270969 408.5034162 -2.4722801 412.40514088 -15 425.625 Z " fill="#000000" transform="translate(258.6875,-0.3125)"/>
</svg>
