<svg xmlns="http://www.w3.org/2000/svg" xmlns:xlink="http://www.w3.org/1999/xlink" viewBox="0 0 512 512" width="512" height="512" style="width: 100%; height: 100%; transform: translate3d(0,0,0); content-visibility: visible;" preserveAspectRatio="xMidYMid meet"><defs><clipPath id="__lottie_element_2"><rect width="512" height="512" x="0" y="0"></rect></clipPath><radialGradient id="__lottie_element_6" spreadMethod="pad" gradientUnits="userSpaceOnUse" cx="0.004000000189989805" cy="1.2200000286102295" r="120.63800152252325" fx="0.004000000189989805" fy="1.2200000286102295"><stop offset="1%" stop-color="rgb(255,255,255)" stop-opacity="0"></stop><stop offset="27%" stop-color="rgb(253,247,144)" stop-opacity="0.5"></stop><stop offset="54%" stop-color="rgb(252,238,33)" stop-opacity="1"></stop><stop offset="76%" stop-color="rgb(253,247,144)" stop-opacity="0.5"></stop><stop offset="98%" stop-color="rgb(255,255,255)" stop-opacity="0"></stop></radialGradient><linearGradient id="__lottie_element_13" spreadMethod="pad" gradientUnits="userSpaceOnUse" x1="-97.50800323486328" y1="17.714000701904297" x2="68.572998046875" y2="-148.36399841308594"><stop offset="39%" stop-color="rgb(255,255,255)" stop-opacity="0"></stop><stop offset="69%" stop-color="rgb(255,255,255)" stop-opacity="0.5"></stop><stop offset="100%" stop-color="rgb(255,255,255)" stop-opacity="1"></stop></linearGradient><radialGradient id="__lottie_element_17" spreadMethod="pad" gradientUnits="userSpaceOnUse" cx="-27.5049991607666" cy="-52.28900146484375" r="136.9354709219049" fx="-27.5049991607666" fy="-52.28900146484375"><stop offset="81%" stop-color="rgb(255,255,255)" stop-opacity="0"></stop><stop offset="90%" stop-color="rgb(255,255,255)" stop-opacity="0.5"></stop><stop offset="100%" stop-color="rgb(255,255,255)" stop-opacity="1"></stop></radialGradient><radialGradient id="__lottie_element_43" spreadMethod="pad" gradientUnits="userSpaceOnUse" cx="-29.214000701904297" cy="-87.13700103759766" r="143.9322914911462" fx="-29.214000701904297" fy="-87.13700103759766"><stop offset="22%" stop-color="rgb(208,231,255)"></stop><stop offset="72%" stop-color="rgb(161,228,235)"></stop><stop offset="100%" stop-color="rgb(115,224,215)"></stop></radialGradient><radialGradient id="__lottie_element_50" spreadMethod="pad" gradientUnits="userSpaceOnUse" cx="19.554000854492188" cy="-59.36899948120117" r="143.21669869490182" fx="19.554000854492188" fy="-59.36899948120117"><stop offset="0%" stop-color="rgb(72,190,251)"></stop><stop offset="52%" stop-color="rgb(65,174,244)"></stop><stop offset="100%" stop-color="rgb(57,158,236)"></stop></radialGradient><radialGradient id="__lottie_element_57" spreadMethod="pad" gradientUnits="userSpaceOnUse" cx="9.894000053405762" cy="-23.06800079345703" r="127.27992531085891" fx="9.894000053405762" fy="-23.06800079345703"><stop offset="0%" stop-color="rgb(192,228,253)"></stop><stop offset="52%" stop-color="rgb(154,226,234)"></stop><stop offset="100%" stop-color="rgb(115,224,215)"></stop></radialGradient><radialGradient id="__lottie_element_61" spreadMethod="pad" gradientUnits="userSpaceOnUse" cx="-33.229000091552734" cy="-4.688000202178955" r="143.63106526743258" fx="-33.229000091552734" fy="-4.688000202178955"><stop offset="0%" stop-color="rgb(69,184,248)"></stop><stop offset="61%" stop-color="rgb(63,171,242)"></stop><stop offset="100%" stop-color="rgb(57,158,236)"></stop></radialGradient><radialGradient id="__lottie_element_65" spreadMethod="pad" gradientUnits="userSpaceOnUse" cx="-51.176998138427734" cy="-26.586999893188477" r="141.60732163582284" fx="-51.176998138427734" fy="-26.586999893188477"><stop offset="41%" stop-color="rgb(181,227,248)"></stop><stop offset="75%" stop-color="rgb(148,225,232)"></stop><stop offset="100%" stop-color="rgb(115,224,215)"></stop></radialGradient><radialGradient id="__lottie_element_72" spreadMethod="pad" gradientUnits="userSpaceOnUse" cx="-27.5049991607666" cy="-52.28900146484375" r="151.73804563801195" fx="-27.5049991607666" fy="-52.28900146484375"><stop offset="0%" stop-color="rgb(69,184,248)"></stop><stop offset="58%" stop-color="rgb(63,171,242)"></stop><stop offset="100%" stop-color="rgb(57,158,236)"></stop></radialGradient><linearGradient id="__lottie_element_76" spreadMethod="pad" gradientUnits="userSpaceOnUse" x1="-39.584999084472656" y1="20.923999786376953" x2="-21.584999084472656" y2="38.92399978637695"><stop offset="0%" stop-color="rgb(208,152,15)"></stop><stop offset="24%" stop-color="rgb(232,193,77)"></stop><stop offset="54%" stop-color="rgb(255,235,139)"></stop><stop offset="77%" stop-color="rgb(232,193,77)"></stop><stop offset="100%" stop-color="rgb(208,152,15)"></stop></linearGradient></defs><g clip-path="url(#__lottie_element_2)"><g style="display: block;" transform="matrix(1,0,0,1,0,0)" opacity="1"><g opacity="1" transform="matrix(1,0,0,1,418.5840148925781,281.3500061035156)"><path fill="rgb(134,194,231)" fill-opacity="1" d=" M-74.22699737548828,31.506000518798828 C-72.23999786376953,20.663999557495117 -47.13399887084961,21.87299919128418 -27.083999633789062,0.02199999988079071 C-7.033999919891357,-21.82900047302246 -9.869999885559082,-32.68299865722656 17.298999786376953,-48.64699935913086 C45.54999923706055,-65.24700164794922 72.1050033569336,-48.242000579833984 72.1050033569336,-48.242000579833984 C72.1050033569336,-48.242000579833984 66.50700378417969,-30.902000427246094 53.95899963378906,-20.766000747680664 C41.96799850463867,-11.079999923706055 34.4119987487793,-11.5649995803833 34.4119987487793,-11.5649995803833 C34.4119987487793,-11.5649995803833 46.762001037597656,-13.36299991607666 61.26499938964844,-1.218999981880188 C75.24500274658203,10.486000061035156 74.20999908447266,24.141000747680664 74.20999908447266,24.141000747680664 C74.20999908447266,24.141000747680664 64.197998046875,37.19499969482422 41.50899887084961,29.631000518798828 C29.429000854492188,25.604000091552734 12.670000076293945,12.263999938964844 12.670000076293945,12.263999938964844 C12.670000076293945,12.263999938964844 43.27399826049805,34.6150016784668 36.709999084472656,41.42499923706055 C32.22800064086914,46.07500076293945 23.586000442504883,49.020999908447266 1.3240000009536743,40.79100036621094 C-14.387999534606934,34.981998443603516 -13.484999656677246,32.95899963378906 -13.484999656677246,32.95899963378906 C-13.484999656677246,32.95899963378906 -2.878000020980835,40.935001373291016 -5.928999900817871,52.1150016784668 C-7.949999809265137,59.52000045776367 -23.11400032043457,54.875999450683594 -31.84600067138672,48.73400115966797 C-40.577999114990234,42.59199905395508 -43.62300109863281,37.88800048828125 -43.62300109863281,37.88800048828125 C-43.62300109863281,37.88800048828125 -49.095001220703125,48.152000427246094 -60.57699966430664,46.30500030517578 C-72.05899810791016,44.45800018310547 -74.22699737548828,31.506000518798828 -74.22699737548828,31.506000518798828z"></path></g><g opacity="1" transform="matrix(1,0,0,1,418.5840148925781,281.3500061035156)"><path stroke-linecap="round" stroke-linejoin="round" fill-opacity="0" stroke="rgb(96,134,224)" stroke-opacity="1" stroke-width="8" d=" M-74.22699737548828,31.506000518798828 C-72.23999786376953,20.663999557495117 -47.13399887084961,21.87299919128418 -27.083999633789062,0.02199999988079071 C-7.033999919891357,-21.82900047302246 -9.869999885559082,-32.68299865722656 17.298999786376953,-48.64699935913086 C45.54999923706055,-65.24700164794922 72.1050033569336,-48.242000579833984 72.1050033569336,-48.242000579833984 C72.1050033569336,-48.242000579833984 66.50700378417969,-30.902000427246094 53.95899963378906,-20.766000747680664 C41.96799850463867,-11.079999923706055 34.4119987487793,-11.5649995803833 34.4119987487793,-11.5649995803833 C34.4119987487793,-11.5649995803833 46.762001037597656,-13.36299991607666 61.26499938964844,-1.218999981880188 C75.24500274658203,10.486000061035156 74.20999908447266,24.141000747680664 74.20999908447266,24.141000747680664 C74.20999908447266,24.141000747680664 64.197998046875,37.19499969482422 41.50899887084961,29.631000518798828 C29.429000854492188,25.604000091552734 12.670000076293945,12.263999938964844 12.670000076293945,12.263999938964844 C12.670000076293945,12.263999938964844 43.27399826049805,34.6150016784668 36.709999084472656,41.42499923706055 C32.22800064086914,46.07500076293945 23.586000442504883,49.020999908447266 1.3240000009536743,40.79100036621094 C-14.387999534606934,34.981998443603516 -13.484999656677246,32.95899963378906 -13.484999656677246,32.95899963378906 C-13.484999656677246,32.95899963378906 -2.878000020980835,40.935001373291016 -5.928999900817871,52.1150016784668 C-7.949999809265137,59.52000045776367 -23.11400032043457,54.875999450683594 -31.84600067138672,48.73400115966797 C-40.577999114990234,42.59199905395508 -43.62300109863281,37.88800048828125 -43.62300109863281,37.88800048828125 C-43.62300109863281,37.88800048828125 -49.095001220703125,48.152000427246094 -60.57699966430664,46.30500030517578 C-72.05899810791016,44.45800018310547 -74.22699737548828,31.506000518798828 -74.22699737548828,31.506000518798828z"></path></g></g><g style="display: block;" transform="matrix(0,-1,1,0,6.94500732421875,490.7550048828125)" opacity="1"><g opacity="1" transform="matrix(1,0,0,1,152.6840057373047,340.0710144042969)"><path fill="url(#__lottie_element_76)" fill-opacity="1" d=" M-102.9209976196289,107.52400207519531 C-102.9209976196289,107.52400207519531 -107.52400207519531,102.9209976196289 -107.52400207519531,102.9209976196289 C-112.60399627685547,97.84100341796875 -112.60399627685547,89.60399627685547 -107.52400207519531,84.52400207519531 C-107.52400207519531,84.52400207519531 83.57099914550781,-106.57099914550781 83.57099914550781,-106.57099914550781 C89.9219970703125,-112.9219970703125 100.22000122070312,-112.9219970703125 106.57099914550781,-106.57099914550781 C106.57099914550781,-106.57099914550781 106.57099914550781,-106.57099914550781 106.57099914550781,-106.57099914550781 C112.9219970703125,-100.22000122070312 112.9219970703125,-89.9219970703125 106.57099914550781,-83.57099914550781 C106.57099914550781,-83.57099914550781 -84.52400207519531,107.52400207519531 -84.52400207519531,107.52400207519531 C-89.60399627685547,112.60399627685547 -97.84100341796875,112.60399627685547 -102.9209976196289,107.52400207519531z"></path></g><g opacity="0.4" transform="matrix(1,0,0,1,184.05799865722656,308.4110107421875)"><path fill="rgb(123,81,0)" fill-opacity="1" d=" M-17.045000076293945,-5.669000148773193 C-17.045000076293945,-5.669000148773193 -9.821999549865723,10.107999801635742 5.954999923706055,17.33099937438965 C5.954999923706055,17.33099937438965 17.045000076293945,6.241000175476074 17.045000076293945,6.241000175476074 C17.045000076293945,6.241000175476074 -5.382999897003174,-17.33099937438965 -5.382999897003174,-17.33099937438965 C-5.382999897003174,-17.33099937438965 -17.045000076293945,-5.669000148773193 -17.045000076293945,-5.669000148773193z"></path></g><g opacity="1" transform="matrix(1,0,0,1,152.6840057373047,340.0710144042969)"><path stroke-linecap="round" stroke-linejoin="round" fill-opacity="0" stroke="rgb(199,128,1)" stroke-opacity="1" stroke-width="8" d=" M-102.9209976196289,107.52400207519531 C-102.9209976196289,107.52400207519531 -107.52400207519531,102.9209976196289 -107.52400207519531,102.9209976196289 C-112.60399627685547,97.84100341796875 -112.60399627685547,89.60399627685547 -107.52400207519531,84.52400207519531 C-107.52400207519531,84.52400207519531 83.57099914550781,-106.57099914550781 83.57099914550781,-106.57099914550781 C89.9219970703125,-112.9219970703125 100.22000122070312,-112.9219970703125 106.57099914550781,-106.57099914550781 C106.57099914550781,-106.57099914550781 106.57099914550781,-106.57099914550781 106.57099914550781,-106.57099914550781 C112.9219970703125,-100.22000122070312 112.9219970703125,-89.9219970703125 106.57099914550781,-83.57099914550781 C106.57099914550781,-83.57099914550781 -84.52400207519531,107.52400207519531 -84.52400207519531,107.52400207519531 C-89.60399627685547,112.60399627685547 -97.84100341796875,112.60399627685547 -102.9209976196289,107.52400207519531z"></path></g><g opacity="1" transform="matrix(1,0,0,1,150.302001953125,338.1659851074219)"><path stroke-linecap="round" stroke-linejoin="round" fill-opacity="0" stroke="rgb(172,98,1)" stroke-opacity="1" stroke-width="8" d=" M-100.53900146484375,109.42900085449219 C-100.53900146484375,109.42900085449219 -105.14199829101562,104.82599639892578 -105.14199829101562,104.82599639892578 C-110.22200012207031,99.74600219726562 -110.22200012207031,91.50900268554688 -105.14199829101562,86.42900085449219 C-105.14199829101562,86.42900085449219 85.9530029296875,-104.66500091552734 85.9530029296875,-104.66500091552734 C92.30400085449219,-111.01599884033203 102.60099792480469,-111.01599884033203 108.9520034790039,-104.66500091552734 C108.9520034790039,-104.66500091552734 108.9520034790039,-104.66500091552734 108.9520034790039,-104.66500091552734"></path></g></g><g style="display: block;" transform="matrix(0,-1,1,0,204.5,196.4029998779297)" opacity="1"><g opacity="1" transform="matrix(1,0,0,1,0,0)"><path fill="url(#__lottie_element_72)" fill-opacity="1" d=" M108.60099792480469,105.97200012207031 C50.07400131225586,165.9499969482422 -45.99399948120117,167.1280059814453 -105.97200012207031,108.60099792480469 C-165.9499969482422,50.07400131225586 -167.1280059814453,-45.99399948120117 -108.60099792480469,-105.97200012207031 C-50.07400131225586,-165.9499969482422 45.99399948120117,-167.1280059814453 105.97200012207031,-108.60099792480469 C165.9499969482422,-50.07400131225586 167.1280059814453,45.99399948120117 108.60099792480469,105.97200012207031z"></path></g></g><g style="display: block;" transform="matrix(0,-1,1,0,197.09300231933594,157.65899658203125)" opacity="1"><g opacity="1" transform="matrix(1,0,0,1,0,0)"><path fill="rgb(255,255,255)" fill-opacity="1" d=" M104.1989974975586,-10.340999603271484 C100.87000274658203,56.332000732421875 52.65999984741211,93.90699768066406 -3.1389999389648438,98.15599822998047 C-48.65999984741211,101.62200164794922 -101.34100341796875,79.90599822998047 -104.47799682617188,17.69700050354004 C-107.48899841308594,-42.020999908447266 -52.10300064086914,-47.150001525878906 -35.0369987487793,-18.732999801635742 C-20.840999603271484,4.906000137329102 -40.07500076293945,5.377999782562256 -40.07500076293945,5.377999782562256 C-38.066001892089844,2.0309998989105225 -37.340999603271484,-18.5939998626709 -56.10900115966797,-19.371000289916992 C-73.00700378417969,-20.070999145507812 -94.84100341796875,-4.0929999351501465 -91.94400024414062,27.97800064086914 C-89.65399932861328,53.33100128173828 -45.840999603271484,110.90699768066406 28.658000946044922,75.29000091552734 C78.22599792480469,51.59299850463867 110.15899658203125,-32.59400177001953 77.94100189208984,-83.72599792480469 C88.15899658203125,-72.59400177001953 82.15899658203125,-82.59400177001953 93.41100311279297,-68.82099914550781 C101.15899658203125,-50.09400177001953 105.66000366210938,-39.59299850463867 104.1989974975586,-10.340999603271484z"></path></g></g><g style="display: block;" transform="matrix(0,-1,1,0,166.58599853515625,209.83799743652344)" opacity="1"><g opacity="1" transform="matrix(1,0,0,1,0,0)"><path fill="url(#__lottie_element_65)" fill-opacity="1" d=" M50.29499816894531,102.4749984741211 C17.40999984741211,113.01300048828125 -23.472999572753906,97.06300354003906 -31.68899917602539,62.3390007019043 C-39.24300003051758,30.413999557495117 -11.899999618530273,16.83099937438965 -0.30000001192092896,22.915000915527344 C11.303999900817871,29.000999450683594 9.675999641418457,40.01900100708008 9.675999641418457,40.01900100708008 C2.680000066757202,73.3759994506836 60.625,75.7509994506836 77.0009994506836,48.35900115966797 C93.37899780273438,20.96299934387207 69.35199737548828,-49.5359992980957 14.222000122070312,-72.23999786376953 C-40.90800094604492,-94.94400024414062 -84.51799774169922,-63.3650016784668 -84.51799774169922,-63.3650016784668 C-84.51799774169922,-63.3650016784668 -89.01899719238281,-75.38500213623047 -89.01899719238281,-75.38500213623047 C-57.1609992980957,-114.58599853515625 5.757999897003174,-114.75800323486328 5.771999835968018,-114.75599670410156 C51.02199935913086,-112.80599975585938 109.70999908447266,-85.0999984741211 118.88500213623047,-12.940999984741211 C128.11599731445312,59.654998779296875 85.78199768066406,91.10299682617188 50.29499816894531,102.4749984741211z"></path></g></g><g style="display: block;" transform="matrix(0,-1,1,0,172.79299926757812,229.01499938964844)" opacity="1"><g opacity="1" transform="matrix(1,0,0,1,0,0)"><path fill="url(#__lottie_element_61)" fill-opacity="1" d=" M81.81700134277344,74.08699798583984 C60.04399871826172,89.45899963378906 24.23200035095215,88.2249984741211 6.138999938964844,67.29100036621094 C-8.387999534606934,50.48400115966797 -1.2319999933242798,31.312999725341797 10.152000427246094,28.062999725341797 C21.17300033569336,24.916000366210938 27.417999267578125,29.64299964904785 27.417999267578125,29.64299964904785 C38.356998443603516,53.39500045776367 72.84700012207031,40.25199890136719 74.29000091552734,6.367000102996826 C75.73300170898438,-27.51799964904785 22.014999389648438,-71.86599731445312 -36.78300094604492,-45.59199905395508 C-95.58599853515625,-19.31599998474121 -114.82099914550781,35.37300109863281 -114.82099914550781,35.37300109863281 C-114.82099914550781,35.37300109863281 -122.6240005493164,37.138999938964844 -122.6240005493164,20.70599937438965 C-122.6240005493164,-8.10200023651123 -95.625,-56.03099822998047 -95.61100006103516,-56.04499816894531 C-68.5780029296875,-88.60700225830078 -46.979000091552734,-101.48200225830078 -10.831999778747559,-102.81099700927734 C25.315000534057617,-104.13999938964844 85.78199768066406,-85.16600036621094 108.48400115966797,-33.80699920654297 C131.1820068359375,17.542999267578125 106.90499877929688,56.375 81.81700134277344,74.08699798583984z"></path></g></g><g style="display: block;" transform="matrix(0,-1,1,0,227.28298950195312,236.51100158691406)" opacity="1"><g opacity="1" transform="matrix(1,0,0,1,0,0)"><path fill="url(#__lottie_element_57)" fill-opacity="1" d=" M-12.734999656677246,117.5790023803711 C-100.24299621582031,90.66300201416016 -113.87000274658203,-2.364000082015991 -113.87000274658203,-2.3919999599456787 C-116.18199920654297,-24.48900032043457 -116.04000091552734,-54.36800003051758 -82.67900085449219,-93.5979995727539 C-49.31800079345703,-132.8280029296875 24.9950008392334,-148.4340057373047 73.91400146484375,-109.83300018310547 C120.625,-72.9749984741211 113.1050033569336,-13.088000297546387 85.39099884033203,8.152000427246094 C53.01100158691406,32.96799850463867 17.767000198364258,8.810999870300293 17.356000900268555,-8.053000450134277 C16.948999404907227,-24.756999969482422 35.41400146484375,-23.847000122070312 35.41400146484375,-23.847000122070312 C57.722999572753906,5.7170000076293945 81.21700286865234,-38.48500061035156 65.00599670410156,-65.68699645996094 C48.79899978637695,-92.88200378417969 -15.767999649047852,-116.57499694824219 -54.62900161743164,-51.48099899291992 C-93.49199676513672,13.614999771118164 -14.239999771118164,88.69599914550781 -14.239999771118164,88.69599914550781 C-14.239999771118164,88.69599914550781 -12.734999656677246,117.5790023803711 -12.734999656677246,117.5790023803711z"></path></g></g><g style="display: block;" transform="matrix(0,-1,1,0,180.08200073242188,236.510009765625)" opacity="0.5"><g opacity="1" transform="matrix(1,0,0,1,0,0)"><path fill="rgb(255,255,255)" fill-opacity="1" d=" M75.13999938964844,48.10200119018555 C46.7599983215332,65.91799926757812 30.01099967956543,53.917999267578125 26.604999542236328,40.64799880981445 C22.45199966430664,24.46500015258789 34.16299819946289,24.104000091552734 34.16299819946289,24.104000091552734 C34.16999816894531,24.111000061035156 34.16999816894531,24.111000061035156 34.176998138427734,24.118000030517578 C26.915000915527344,25.33300018310547 38.52299880981445,39.215999603271484 44.87200164794922,41.96699905395508 C52.26100158691406,45.167999267578125 89.26000213623047,34.667999267578125 77.5469970703125,-5.830999851226807 C66.375,-44.45899963378906 5.760000228881836,-52.082000732421875 -33.70899963378906,-30.823999404907227 C-99.91300201416016,4.833000183105469 -51.119998931884766,143.5590057373047 -51.119998931884766,143.5590057373047 C-60.48899841308594,135.91799926757812 -79.48999786376953,120.41799926757812 -90.43000030517578,107.35199737548828 C-103.98999786376953,62.417999267578125 -96.53500366210938,6.964000225067139 -64.6780014038086,-29.075000762939453 C-32.994998931884766,-64.91699981689453 25.57900047302246,-68.36499786376953 52.66299819946289,-53.13199996948242 C104.76000213623047,-23.832000732421875 104.71600341796875,29.535999298095703 75.13999938964844,48.10200119018555z"></path></g></g><g style="display: block;" transform="matrix(0,-1,1,0,245.78199768066406,214.67300415039062)" opacity="1"><g opacity="1" transform="matrix(1,0,0,1,0,0)"><path fill="url(#__lottie_element_50)" fill-opacity="1" d=" M68.28199768066406,98.9229965209961 C0.6729999780654907,125.21800231933594 -58.25199890136719,89.1240005493164 -58.25899887084961,89.11699676513672 C-145.53500366210938,26.799999237060547 -110.22899627685547,-88.81500244140625 -44.69200134277344,-114.6719970703125 C5.388999938964844,-134.43099975585938 49.52899932861328,-108.42500305175781 62.29199981689453,-75.43900299072266 C75.05500030517578,-42.46699905395508 45.375,-7.675000190734863 22.179000854492188,-17.323999404907227 C3.8420000076293945,-24.951000213623047 8.15999984741211,-39.25699996948242 14.074999809265137,-41.84700012207031 C14.074999809265137,-41.84700012207031 42.55799865722656,-36.04899978637695 31.434999465942383,-62.24700164794922 C20.30500030517578,-88.4520034790039 -3.433000087738037,-84.45700073242188 -28.25200080871582,-78.3479995727539 C-53.071998596191406,-72.23899841308594 -78.73999786376953,-28.792999267578125 -29.934999465942383,30.929000854492188 C5.321000099182129,74.0770034790039 37.742000579833984,100.93800354003906 68.28199768066406,98.9229965209961z"></path></g></g><g style="display: block;" transform="matrix(0,-1,1,0,251.8509979248047,203.75900268554688)" opacity="0.99"><g opacity="1" transform="matrix(1,0,0,1,0,0)"><path fill="rgb(255,255,255)" fill-opacity="1" d=" M82.36799621582031,79.85399627685547 C66.5009994506836,90.33300018310547 50.55400085449219,97.41400146484375 31.263999938964844,101.33100128173828 C17.128999710083008,100.36199951171875 -37.3129997253418,93.42400360107422 -74.07499694824219,46.28099822998047 C-116.84100341796875,-8.562000274658203 -100.50700378417969,-77.78199768066406 -56.750999450683594,-102.48799896240234 C-12.994999885559082,-127.19400024414062 27.117000579833984,-102.2490005493164 37.979000091552734,-83.70700073242188 C54.83599853515625,-54.930999755859375 37.41899871826172,-31.13599967956543 24.16900062561035,-32.10900115966797 C8.522000312805176,-33.257999420166016 5.183000087738037,-48.40800094604492 5.183000087738037,-48.40800094604492 C6.124000072479248,-48.23099899291992 33.45800018310547,-43.06399917602539 22.520999908447266,-68.81500244140625 C11.390999794006348,-95.02100372314453 -12.347000122070312,-91.0250015258789 -37.16600036621094,-84.91600036621094 C-61.986000061035156,-78.80699920654297 -87.6510009765625,-35.3650016784668 -38.8489990234375,24.360000610351562 C-3.5929999351501465,67.50800323486328 51.827999114990234,81.86900329589844 82.36799621582031,79.85399627685547z"></path></g></g><g style="display: block;" transform="matrix(0,-1,1,0,222.93299865722656,165.55299377441406)" opacity="1"><g opacity="1" transform="matrix(1,0,0,1,0,0)"><path fill="url(#__lottie_element_43)" fill-opacity="1" d=" M73.81600189208984,87.98799896240234 C-9.446999549865723,170.5679931640625 -110.74299621582031,91.36900329589844 -127.2249984741211,23.24799919128418 C-142.6269989013672,-40.409000396728516 -84.072998046875,-85.3949966430664 -41.59700012207031,-75.50399780273438 C0.8389999866485596,-65.62200164794922 8.854999542236328,-25.7450008392334 -5.563000202178955,-12.699000358581543 C-19.974000930786133,0.3400000035762787 -34.04499816894531,-18.496999740600586 -34.04499816894531,-18.496999740600586 C-22.94700050354004,-23.183000564575195 -19.173999786376953,-37.99800109863281 -38.560001373291016,-48.382999420166016 C-58.777000427246094,-59.2130012512207 -102.9749984741211,-31.4689998626709 -83.8550033569336,18.56599998474121 C-64.72799682617188,68.60800170898438 27.55299949645996,91.06700134277344 81.82099914550781,19.594999313354492 C122.95700073242188,-34.582000732421875 103.09600067138672,-84.677001953125 90.75599670410156,-106.14199829101562 C86.7020034790039,-113.19499969482422 83.45899963378906,-117.15699768066406 83.45899963378906,-117.15699768066406 C110.5530014038086,-86.43299865722656 121.5530014038086,-54.43299865722656 120.88999938964844,-18.43400001525879 C119.65499877929688,48.66600036621094 73.81600189208984,87.98799896240234 73.81600189208984,87.98799896240234z"></path></g></g><g style="display: block;" transform="matrix(0,-1,1,0,202.13499450683594,155.9600067138672)" opacity="0.5"><g opacity="1" transform="matrix(1,0,0,1,0,0)"><path fill="rgb(183,222,255)" fill-opacity="1" d=" M24.94099998474121,89.16200256347656 C-21.8700008392334,111.55500030517578 -74.927001953125,90.05400085449219 -98.36100006103516,51.487998962402344 C-121.79499816894531,12.92199993133545 -97.71199798583984,-21.413999557495117 -79.81700134277344,-31.049999237060547 C-47.25400161743164,-48.584999084472656 -23.56399917602539,-24.56599998474121 -27.70800018310547,-8.821999549865723 C-31.54599952697754,5.761000156402588 -44.02299880981445,1.4910000562667847 -44.617000579833984,1.3070000410079956 C-33.07699966430664,1.9429999589920044 -27.28700065612793,-16.464000701904297 -46.65299987792969,-26.834999084472656 C-66.86900329589844,-37.6609992980957 -113.072998046875,-11.668999671936035 -93.9489974975586,38.36399841308594 C-74.8219985961914,88.40599822998047 15.958999633789062,113.86399841308594 70.72799682617188,42.641998291015625 C125.81900024414062,-29 79.36499786376953,-92.85900115966797 79.36499786376953,-92.85900115966797 C85.24099731445312,-86.69999694824219 89.60099792480469,-77.03900146484375 94.38099670410156,-69.96800231933594 C126.95899963378906,0.8650000095367432 75.20899963378906,65.11499786376953 24.94099998474121,89.16200256347656z"></path></g></g><g style="display: block;" transform="matrix(0,-1,1,0,204.5,196.4029998779297)" opacity="1"><g opacity="1" transform="matrix(1,0,0,1,0,0)"><path stroke-linecap="round" stroke-linejoin="round" fill-opacity="0" stroke="rgb(0,158,181)" stroke-opacity="1" stroke-width="8" d=" M108.60099792480469,105.97200012207031 C50.07400131225586,165.9499969482422 -45.99399948120117,167.1280059814453 -105.97200012207031,108.60099792480469 C-165.9499969482422,50.07400131225586 -167.1280059814453,-45.99399948120117 -108.60099792480469,-105.97200012207031 C-50.07400131225586,-165.9499969482422 45.99399948120117,-167.1280059814453 105.97200012207031,-108.60099792480469 C165.9499969482422,-50.07400131225586 167.1280059814453,45.99399948120117 108.60099792480469,105.97200012207031z"></path></g></g><g style="display: block;" transform="matrix(0,-1,1,0,204.5,196.4029998779297)" opacity="1"><g opacity="1" transform="matrix(1,0,0,1,0,0)"><path stroke-linecap="round" stroke-linejoin="round" fill-opacity="0" stroke="rgb(0,89,157)" stroke-opacity="1" stroke-width="8" d=" M53.694000244140625,141.95799255371094 C11.862000465393066,157.74899291992188 -35.604000091552734,154.43899536132812 -75.15599822998047,131.86000061035156"></path></g></g><g style="display: block;" transform="matrix(0,-1,1,0,204.5,196.4029998779297)" opacity="1"><g opacity="1" transform="matrix(1,0,0,1,0,0)"><path stroke-linecap="round" stroke-linejoin="round" fill-opacity="0" stroke="rgb(0,89,157)" stroke-opacity="1" stroke-width="8" d=" M-141.41400146484375,-55.119998931884766 C-134.23300170898438,-73.56900024414062 -123.30000305175781,-90.90899658203125 -108.60099792480469,-105.97200012207031 C-100.40399932861328,-114.37200164794922 -91.47200012207031,-121.61799621582031 -82.00499725341797,-127.70899963378906"></path></g></g><g style="display: block;" transform="matrix(0,-1,1,0,204.5,196.4029998779297)" opacity="1"><g opacity="1" transform="matrix(1,0,0,1,0,0)"><path stroke-linecap="round" stroke-linejoin="round" fill-opacity="0" stroke="rgb(1,158,181)" stroke-opacity="1" stroke-width="8" d=" M-90.697998046875,-121.67500305175781 C-53.79800033569336,-149.25100708007812 -7.111999988555908,-157.89500427246094 35.941001892089844,-147.44400024414062"></path></g></g><g style="display: block;" transform="matrix(0,-1,1,0,204.5,196.4029998779297)" opacity="1"><g opacity="1" transform="matrix(1,0,0,1,0,0)"><path stroke-linecap="round" stroke-linejoin="round" fill-opacity="0" stroke="rgb(0,89,157)" stroke-opacity="1" stroke-width="8" d=" M6.053999900817871,-151.6179962158203 C42.22999954223633,-150.18499755859375 78.0199966430664,-135.8769989013672 105.97200012207031,-108.60099792480469 C135.54400634765625,-79.74500274658203 150.82200622558594,-41.76300048828125 151.69700622558594,-3.4800000190734863"></path></g></g><g style="display: block;" transform="matrix(0,-1,1,0,204.5,196.4029998779297)" opacity="1"><g opacity="1" transform="matrix(1,0,0,1,0,0)"><path stroke-linecap="round" stroke-linejoin="round" fill-opacity="0" stroke="rgb(0,157,181)" stroke-opacity="1" stroke-width="8" d=" M120.05799865722656,-92.8219985961914 C165.71499633789062,-33.91999816894531 162.1269989013672,51.11899948120117 108.60099792480469,105.97200012207031 C108.60099792480469,105.97200012207031 108.60099792480469,105.97200012207031 108.60099792480469,105.97200012207031 C91.94000244140625,123.0459976196289 72.23600006103516,135.3560028076172 51.1879997253418,142.87899780273438"></path></g></g><g style="display: block;" transform="matrix(0,-1,1,0,204.5,196.4029998779297)" opacity="0.5"><g opacity="1" transform="matrix(1,0,0,1,0,0)"><path fill="url(#__lottie_element_17)" fill-opacity="1" d=" M0,136.9340057373047 C-75.62699890136719,136.9340057373047 -136.9340057373047,75.62699890136719 -136.9340057373047,0 C-136.9340057373047,-75.62699890136719 -75.62699890136719,-136.9340057373047 0,-136.9340057373047 C75.62699890136719,-136.9340057373047 136.9340057373047,-75.62699890136719 136.9340057373047,0 C136.9340057373047,75.62699890136719 75.62699890136719,136.9340057373047 0,136.9340057373047z"></path></g></g><g style="display: block;" transform="matrix(0,-1,1,0,204.5,196.4029998779297)" opacity="0.8"><g opacity="1" transform="matrix(1,0,0,1,0,0)"><path fill="url(#__lottie_element_13)" fill-opacity="1" d=" M0,136.9340057373047 C-75.62699890136719,136.9340057373047 -136.9340057373047,75.62699890136719 -136.9340057373047,0 C-136.9340057373047,-75.62699890136719 -75.62699890136719,-136.9340057373047 0,-136.9340057373047 C75.62699890136719,-136.9340057373047 136.9340057373047,-75.62699890136719 136.9340057373047,0 C136.9340057373047,75.62699890136719 75.62699890136719,136.9340057373047 0,136.9340057373047z"></path></g></g><g style="display: block;" transform="matrix(1,0,0,1,-3,6)" opacity="1"><g opacity="1" transform="matrix(1,0,0,1,418.31201171875,215.79400634765625)"><path fill="rgb(255,255,255)" fill-opacity="1" d=" M-76.43000030517578,88.61799621582031 C-81.7239990234375,75.677001953125 -54.07699966430664,59.79399871826172 -47.60599899291992,22.735000610351562 C-41.1349983215332,-14.324000358581543 -51.59199905395508,-23.97800064086914 -33.48899841308594,-59.61800003051758 C-14.664999961853027,-96.677001953125 25.334999084472656,-96.6760025024414 25.334999084472656,-96.6760025024414 C25.334999084472656,-96.6760025024414 31.216999053955078,-74.3239974975586 24.746000289916992,-54.9119987487793 C18.562999725341797,-36.36199951171875 10.15999984741211,-31.711999893188477 10.15999984741211,-31.711999893188477 C10.15999984741211,-31.711999893188477 22.121999740600586,-42.08000183105469 45.92300033569336,-39.02899932861328 C68.86399841308594,-36.0880012512207 77.0989990234375,-20.79400062561035 77.0989990234375,-20.79400062561035 C77.0989990234375,-20.79400062561035 75.33499908447266,0 45.92300033569336,7.440999984741211 C30.263999938964844,11.402999877929688 3.234999895095825,8.618000030517578 3.234999895095825,8.618000030517578 C3.234999895095825,8.618000030517578 51.21699905395508,11.559000015258789 48.86399841308594,23.323999404907227 C47.25699996948242,31.357999801635742 40.04100036621094,40.415000915527344 10.628999710083008,46.85300064086914 C-10.128999710083008,51.39699935913086 -10.54800033569336,48.61800003051758 -10.54800033569336,48.61800003051758 C-10.54800033569336,48.61800003051758 6.239999771118164,49.88199996948242 10.628999710083008,63.9119987487793 C13.53600025177002,73.20500183105469 -5.8420000076293945,78.61699676513672 -19.371000289916992,78.02899932861328 C-32.900001525878906,77.44100189208984 -39.37099838256836,74.5 -39.37099838256836,74.5 C-39.37099838256836,74.5 -38.19499969482422,89.20600128173828 -51.7239990234375,95.08799743652344 C-65.25299835205078,100.97000122070312 -76.43000030517578,88.61799621582031 -76.43000030517578,88.61799621582031z"></path></g><g opacity="1" transform="matrix(1,0,0,1,404.23699951171875,269.0039978027344)"><path fill="rgb(181,226,255)" fill-opacity="1" d=" M33.064998626708984,-42.944000244140625 C8.317999839782715,-45.78200149536133 -8.069999694824219,-36.16699981689453 -8.12600040435791,-35.78099822998047 C6.802000045776367,-34.86399841308594 13.217000007629395,-31.562000274658203 12.541000366210938,-23.114999771118164 C11.652000427246094,-12.003999710083008 -15.902999877929688,-11.781000137329102 -16.79199981689453,-11.559000015258789 C-17.680999755859375,-11.336999893188477 -3.4100000858306885,2.8480000495910645 -10.569999694824219,4.663000106811523 C-42.125999450683594,12.663000106811523 -46.55500030517578,2.693000078201294 -46.55500030517578,2.693000078201294 C-55.87099838256836,17.850000381469727 -65.7030029296875,27.22100067138672 -62.354000091552734,35.40800094604492 C-62.354000091552734,35.40800094604492 -51.176998138427734,47.76100158691406 -37.64799880981445,41.87900161743164 C-24.118999481201172,35.99700164794922 -25.295000076293945,21.291000366210938 -25.295000076293945,21.291000366210938 C-25.295000076293945,21.291000366210938 -18.823999404907227,24.23200035095215 -5.295000076293945,24.81999969482422 C8.234000205993652,25.408000946044922 27.61199951171875,19.9950008392334 24.704999923706055,10.70199966430664 C21.763999938964844,1.2990000247955322 13.258000373840332,-2.365999937057495 7.964000225067139,-3.763000011444092 C10.998000144958496,-3.8499999046325684 16.10099983215332,-4.473999977111816 24.704999923706055,-6.35699987411499 C54.117000579833984,-12.795000076293945 61.33300018310547,-21.851999282836914 62.939998626708984,-29.88599967956543 C64.38600158691406,-37.117000579833984 46.8650016784668,-41.36199951171875 33.064998626708984,-42.944000244140625z"></path></g><g opacity="1" transform="matrix(1,0,0,1,418.31201171875,215.79400634765625)"><path stroke-linecap="round" stroke-linejoin="round" fill-opacity="0" stroke="rgb(126,181,251)" stroke-opacity="1" stroke-width="8" d=" M-76.43000030517578,88.61799621582031 C-81.7239990234375,75.677001953125 -54.07699966430664,59.79399871826172 -47.60599899291992,22.735000610351562 C-41.1349983215332,-14.324000358581543 -51.59199905395508,-23.97800064086914 -33.48899841308594,-59.61800003051758 C-14.664999961853027,-96.677001953125 25.334999084472656,-96.6760025024414 25.334999084472656,-96.6760025024414 C25.334999084472656,-96.6760025024414 31.216999053955078,-74.3239974975586 24.746000289916992,-54.9119987487793 C18.562999725341797,-36.36199951171875 10.15999984741211,-31.711999893188477 10.15999984741211,-31.711999893188477 C10.15999984741211,-31.711999893188477 22.121999740600586,-42.08000183105469 45.92300033569336,-39.02899932861328 C68.86399841308594,-36.0880012512207 77.0989990234375,-20.79400062561035 77.0989990234375,-20.79400062561035 C77.0989990234375,-20.79400062561035 75.33499908447266,0 45.92300033569336,7.440999984741211 C30.263999938964844,11.402999877929688 3.234999895095825,8.618000030517578 3.234999895095825,8.618000030517578 C3.234999895095825,8.618000030517578 51.21699905395508,11.559000015258789 48.86399841308594,23.323999404907227 C47.25699996948242,31.357999801635742 40.04100036621094,40.415000915527344 10.628999710083008,46.85300064086914 C-10.128999710083008,51.39699935913086 -10.54800033569336,48.61800003051758 -10.54800033569336,48.61800003051758 C-10.54800033569336,48.61800003051758 6.239999771118164,49.88199996948242 10.628999710083008,63.9119987487793 C13.53600025177002,73.20500183105469 -5.8420000076293945,78.61699676513672 -19.371000289916992,78.02899932861328 C-32.900001525878906,77.44100189208984 -39.37099838256836,74.5 -39.37099838256836,74.5 C-39.37099838256836,74.5 -38.19499969482422,89.20600128173828 -51.7239990234375,95.08799743652344 C-65.25299835205078,100.97000122070312 -76.43000030517578,88.61799621582031 -76.43000030517578,88.61799621582031z"></path></g></g><g style="display: block;" transform="matrix(1,0,0,1,0,0)" opacity="1"><g opacity="0.53" transform="matrix(0.8870702385902405,0.5983364582061768,-0.346699595451355,0.5140032768249512,304.9289855957031,91.87000274658203)"><path fill="url(#__lottie_element_6)" fill-opacity="1" d=" M120.29299926757812,0.43700000643730164 C120.22799682617188,66.09700012207031 66.31800079345703,119.12899780273438 -0.11800000071525574,118.88800048828125 C-66.55400085449219,118.64700317382812 -120.35800170898438,65.2229995727539 -120.29299926757812,-0.43700000643730164 C-120.22799682617188,-66.09700012207031 -66.31800079345703,-119.12899780273438 0.11800000071525574,-118.88800048828125 C66.55400085449219,-118.64700317382812 120.35800170898438,-65.2229995727539 120.29299926757812,0.43700000643730164z"></path></g><g opacity="1" transform="matrix(1,0,0,1,314.4840087890625,80.12000274658203)"><path stroke-linecap="round" stroke-linejoin="round" fill-opacity="0" stroke="rgb(255,219,56)" stroke-opacity="1" stroke-width="20" d=" M62.957000732421875,51.19599914550781 C49.12200164794922,68.20899963378906 9.720000267028809,59.07899856567383 -25.049999237060547,30.804000854492188 C-59.81999969482422,2.5290000438690186 -76.79199981689453,-34.18299865722656 -62.957000732421875,-51.19599914550781 C-49.12200164794922,-68.20899963378906 -9.720000267028809,-59.07899856567383 25.049999237060547,-30.804000854492188 C59.81999969482422,-2.5290000438690186 76.79199981689453,34.18299865722656 62.957000732421875,51.19599914550781z"></path></g><g opacity="1" transform="matrix(1,0,0,1,314.4840087890625,80.12000274658203)"><path stroke-linecap="round" stroke-linejoin="round" fill-opacity="0" stroke="rgb(255,253,144)" stroke-opacity="1" stroke-width="14" d=" M62.957000732421875,51.19599914550781 C49.12200164794922,68.20899963378906 9.720000267028809,59.07899856567383 -25.049999237060547,30.804000854492188 C-59.81999969482422,2.5290000438690186 -76.79199981689453,-34.18299865722656 -62.957000732421875,-51.19599914550781 C-49.12200164794922,-68.20899963378906 -9.720000267028809,-59.07899856567383 25.049999237060547,-30.804000854492188 C59.81999969482422,-2.5290000438690186 76.79199981689453,34.18299865722656 62.957000732421875,51.19599914550781z"></path></g><g opacity="1" transform="matrix(1,0,0,1,314.4840087890625,80.12000274658203)"><path stroke-linecap="round" stroke-linejoin="round" fill-opacity="0" stroke="rgb(255,255,255)" stroke-opacity="1" stroke-width="5" d=" M62.957000732421875,51.19599914550781 C49.12200164794922,68.20899963378906 9.720000267028809,59.07899856567383 -25.049999237060547,30.804000854492188 C-59.81999969482422,2.5290000438690186 -76.79199981689453,-34.18299865722656 -62.957000732421875,-51.19599914550781 C-49.12200164794922,-68.20899963378906 -9.720000267028809,-59.07899856567383 25.049999237060547,-30.804000854492188 C59.81999969482422,-2.5290000438690186 76.79199981689453,34.18299865722656 62.957000732421875,51.19599914550781z"></path></g></g></g></svg>