<?xml version="1.0" encoding="UTF-8"?>
<svg version="1.1" xmlns="http://www.w3.org/2000/svg" width="520" height="520">
<path d="M0 0 C8.49289395 7.692737 12.81040448 18.71609937 17.8125 28.8125 C18.5784693 30.35130865 19.34458401 31.89004494 20.11083984 33.42871094 C24.68779784 42.63539459 29.17776244 51.87973425 33.57788086 61.17236328 C38.02793716 70.53957637 42.66416533 79.8126976 47.33227539 89.07275391 C47.96377283 90.32581188 48.59520317 91.57890368 49.2265625 92.83203125 C49.53087692 93.43587646 49.83519135 94.03972168 50.14872742 94.66186523 C51.88205768 98.11208653 53.57025579 101.57906125 55.2109375 105.07421875 C55.56583252 105.8206665 55.92072754 106.56711426 56.28637695 107.33618164 C57.16250267 109.18987455 58.02166275 111.05156223 58.87890625 112.9140625 C61.63402739 117.23418766 64.43017265 119.23208812 69.37153625 120.36581421 C72.77054183 120.88756322 76.1681593 121.29962319 79.5859375 121.6796875 C80.86919922 121.83537201 82.15246094 121.99105652 83.47460938 122.15145874 C86.23424216 122.4862538 88.99479278 122.81109598 91.75653076 123.12805176 C96.08541268 123.62515605 100.41120256 124.14621865 104.73681641 124.67089844 C113.38480019 125.71648861 122.03575684 126.73605102 130.6875 127.75 C138.79336892 128.70000251 146.89843468 129.65528941 155.00079346 130.63482666 C157.99459203 130.99190054 160.98997178 131.3321857 163.98583984 131.67138672 C177.28526519 133.23280868 189.51854605 135.29984746 198.6328125 146.04296875 C206.33157974 156.43147266 207.79321346 166.07199003 206.6875 178.75 C203.99808192 191.70082871 194.33053952 200.41708326 185.25 209.375 C184.34701172 210.27734375 183.44402344 211.1796875 182.51367188 212.109375 C178.80831274 215.79058625 175.10042605 219.41196564 171.14257812 222.82128906 C162.1695347 230.62585778 153.73632982 239.0591048 145.24761105 247.38238716 C142.12279067 250.44516644 138.98581307 253.49283568 135.81665039 256.50976562 C132.72874289 259.4500738 129.67690421 262.42375517 126.64676094 265.42351913 C125.49418342 266.55288951 124.32955285 267.67010341 123.15263176 268.77408218 C116.58179453 274.74374756 116.58179453 274.74374756 113.12721252 282.66108704 C113.34440836 286.12394079 113.98474378 289.35129738 114.6875 292.75 C115.02061118 295.19540692 115.30391212 297.64410673 115.58650208 300.09584141 C115.91239676 302.90057994 116.2674014 305.70030353 116.63038635 308.50047302 C117.16237587 312.6091018 117.69035079 316.71818971 118.21299744 320.82801819 C119.33965681 329.683758 120.47187972 338.53876479 121.61547852 347.39233398 C122.31793059 352.83342943 123.01173943 358.27557097 123.70025444 363.71844673 C123.96214747 365.77548853 124.22722481 367.83212779 124.49571419 369.88831902 C129.15193544 405.57131455 129.15193544 405.57131455 119.0625 420.5625 C112.44552419 429.08585359 104.13705998 434.04280917 93.6875 436.4375 C79.15975208 437.95080708 67.82048475 432.72639207 55.375 425.875 C53.94843799 425.10255207 52.52134683 424.33108063 51.09375 423.56054688 C42.17428597 418.73038634 33.33095874 413.76731626 24.52832031 408.72753906 C15.98350455 403.85738953 7.31384932 399.23136073 -1.375 394.625 C-2.07689453 394.25270264 -2.77878906 393.88040527 -3.50195312 393.49682617 C-7.76633198 391.23676555 -12.03211836 388.97963978 -16.3125 386.75 C-17.79061157 385.86658936 -17.79061157 385.86658936 -19.29858398 384.96533203 C-23.70150171 383.1898987 -26.8994609 383.77082905 -31.26599121 385.54269409 C-33.45728407 386.57226499 -35.5948881 387.67533413 -37.734375 388.80859375 C-38.53985275 389.22462357 -39.34533051 389.64065338 -40.17521667 390.06929016 C-42.80935139 391.43255261 -45.43579414 392.80998651 -48.0625 394.1875 C-49.89733339 395.14002759 -51.73270812 396.09151309 -53.56860352 397.04199219 C-57.32258264 398.98707884 -61.07378747 400.9373597 -64.82275391 402.89208984 C-72.21332369 406.74344958 -79.62442459 410.55470484 -87.03720093 414.36309814 C-89.22928797 415.48935848 -91.42095736 416.61642802 -93.61254883 417.74365234 C-108.75971124 425.53233956 -108.75971124 425.53233956 -116.25 429.3125 C-116.94150146 429.66473633 -117.63300293 430.01697266 -118.34545898 430.37988281 C-127.35593567 434.89394688 -137.95834388 435.23191354 -147.74609375 432.94921875 C-159.05035223 428.67153446 -166.24280948 421.30896103 -171.25390625 410.44921875 C-176.69901871 396.56518661 -172.31667246 379.61175618 -170.16918945 365.42602539 C-169.62704546 361.82608228 -169.11034493 358.22310579 -168.59570312 354.61914062 C-165.14346544 331.06094475 -159.67171923 310.73642399 -143.3125 292.75 C-142.70019531 292.04488281 -142.08789062 291.33976562 -141.45703125 290.61328125 C-126.59364568 274.48222954 -102.45746146 265.71454526 -83.17236328 256.19799805 C-74.46241328 251.88465318 -65.88878162 247.32152879 -57.3125 242.75 C-58.72499023 242.95338234 -58.72499023 242.95338234 -60.16601562 243.16087341 C-69.10750786 244.44749375 -78.04994633 245.72735153 -86.99331665 247.00085354 C-91.58945163 247.65554024 -96.18523965 248.31247848 -100.78027344 248.97485352 C-105.2274909 249.61583136 -109.67556802 250.25051459 -114.12426758 250.88112068 C-115.80833977 251.12091204 -117.49210872 251.36284469 -119.17553711 251.60711479 C-146.33221386 255.54306168 -172.44093937 256.61038809 -195.64453125 239.30859375 C-202.16806591 234.31008832 -208.44465474 229.00397325 -214.69433594 223.66967773 C-217.90061073 220.93315263 -221.14037054 218.25126242 -224.4375 215.625 C-225.62859375 214.67560547 -225.62859375 214.67560547 -226.84375 213.70703125 C-228.58905825 212.32348784 -230.33958133 210.94651081 -232.09375 209.57421875 C-242.17255606 201.55824525 -251.78550038 193.12324112 -253.59472656 179.64794922 C-254.70844108 166.7786701 -252.58709901 156.48750839 -244.125 146.375 C-230.07324988 132.00022114 -210.0176984 132.04322401 -191.11328125 129.6484375 C-188.90221004 129.36418289 -186.69120752 129.07939352 -184.48027039 128.7940979 C-178.70723901 128.05027912 -172.9334803 127.31228217 -167.15948486 126.57598877 C-157.88093767 125.39207633 -148.60337915 124.20047775 -139.32613182 123.00642776 C-136.09355278 122.59142852 -132.86056596 122.17972781 -129.6275177 121.7684021 C-127.65441604 121.51546248 -125.68132677 121.26242621 -123.70825195 121.00927734 C-122.81112488 120.89602615 -121.9139978 120.78277496 -120.98968506 120.66609192 C-120.16444839 120.55966873 -119.33921173 120.45324554 -118.4889679 120.34359741 C-117.77470296 120.25254919 -117.06043802 120.16150097 -116.32452869 120.06769371 C-115.66055923 119.96285479 -114.99658976 119.85801586 -114.3125 119.75 C-113.60761035 119.67588205 -112.9027207 119.60176411 -112.17647076 119.52540016 C-110.06936813 118.88976705 -110.06936813 118.88976705 -109.19797039 116.46805954 C-108.90576516 115.57109989 -108.61355993 114.67414024 -108.3125 113.75 C-107.60686744 112.24565038 -106.88365043 110.74944981 -106.14497375 109.26104736 C-105.49971992 107.95763901 -105.49971992 107.95763901 -104.84143066 106.62789917 C-104.13935486 105.21735764 -104.13935486 105.21735764 -103.4230957 103.77832031 C-102.92686203 102.77767548 -102.43062836 101.77703064 -101.9193573 100.74606323 C-100.27814271 97.43884631 -98.63364287 94.13328057 -96.98828125 90.828125 C-96.42515921 89.69655724 -95.86203716 88.56498947 -95.28185081 87.39913177 C-92.91318649 82.64058883 -90.54368933 77.88246528 -88.17104816 73.12590408 C-84.78431669 66.33622884 -81.40439921 59.54326155 -78.03402263 52.74545217 C-75.36874619 47.3713462 -72.69239308 42.00283043 -70.01222801 36.63613129 C-68.87859859 34.36217395 -67.7483644 32.08652057 -66.62166786 29.80912018 C-65.04016859 26.61436272 -63.44604502 23.42620444 -61.84887695 20.23925781 C-61.39094757 19.30699371 -60.93301819 18.37472961 -60.46121216 17.41421509 C-54.25953061 5.12697228 -46.50820769 -3.60706581 -33.3125 -8.25 C-21.13066441 -11.06119283 -9.391945 -8.05817766 0 0 Z " fill="#FEC336" transform="translate(287.3125,41.25)"/>
<path d="M0 0 C8.49289395 7.692737 12.81040448 18.71609937 17.8125 28.8125 C18.5784693 30.35130865 19.34458401 31.89004494 20.11083984 33.42871094 C24.68779784 42.63539459 29.17776244 51.87973425 33.57788086 61.17236328 C38.02793716 70.53957637 42.66416533 79.8126976 47.33227539 89.07275391 C47.96377283 90.32581188 48.59520317 91.57890368 49.2265625 92.83203125 C49.53087692 93.43587646 49.83519135 94.03972168 50.14872742 94.66186523 C51.88205768 98.11208653 53.57025579 101.57906125 55.2109375 105.07421875 C55.56583252 105.8206665 55.92072754 106.56711426 56.28637695 107.33618164 C57.16250267 109.18987455 58.02166275 111.05156223 58.87890625 112.9140625 C61.63402739 117.23418766 64.43017265 119.23208812 69.37153625 120.36581421 C72.77054183 120.88756322 76.1681593 121.29962319 79.5859375 121.6796875 C80.86919922 121.83537201 82.15246094 121.99105652 83.47460938 122.15145874 C86.23424216 122.4862538 88.99479278 122.81109598 91.75653076 123.12805176 C96.08541268 123.62515605 100.41120256 124.14621865 104.73681641 124.67089844 C113.38480019 125.71648861 122.03575684 126.73605102 130.6875 127.75 C138.79336892 128.70000251 146.89843468 129.65528941 155.00079346 130.63482666 C157.99459203 130.99190054 160.98997178 131.3321857 163.98583984 131.67138672 C177.28526519 133.23280868 189.51854605 135.29984746 198.6328125 146.04296875 C206.33157974 156.43147266 207.79321346 166.07199003 206.6875 178.75 C203.99808192 191.70082871 194.33053952 200.41708326 185.25 209.375 C184.34701172 210.27734375 183.44402344 211.1796875 182.51367188 212.109375 C178.80831274 215.79058625 175.10042605 219.41196564 171.14257812 222.82128906 C162.1695347 230.62585778 153.73632982 239.0591048 145.24761105 247.38238716 C142.12279067 250.44516644 138.98581307 253.49283568 135.81665039 256.50976562 C132.72874289 259.4500738 129.67690421 262.42375517 126.64676094 265.42351913 C125.49418342 266.55288951 124.32955285 267.67010341 123.15263176 268.77408218 C116.58179453 274.74374756 116.58179453 274.74374756 113.12721252 282.66108704 C113.34440836 286.12394079 113.98474378 289.35129738 114.6875 292.75 C115.02061118 295.19540692 115.30391212 297.64410673 115.58650208 300.09584141 C115.91239676 302.90057994 116.2674014 305.70030353 116.63038635 308.50047302 C117.16237587 312.6091018 117.69035079 316.71818971 118.21299744 320.82801819 C119.33965681 329.683758 120.47187972 338.53876479 121.61547852 347.39233398 C122.31793059 352.83342943 123.01173943 358.27557097 123.70025444 363.71844673 C123.96214747 365.77548853 124.22722481 367.83212779 124.49571419 369.88831902 C129.15193544 405.57131455 129.15193544 405.57131455 119.0625 420.5625 C112.44552419 429.08585359 104.13705998 434.04280917 93.6875 436.4375 C79.15975208 437.95080708 67.82048475 432.72639207 55.375 425.875 C53.94843799 425.10255207 52.52134683 424.33108063 51.09375 423.56054688 C42.17428597 418.73038634 33.33095874 413.76731626 24.52832031 408.72753906 C15.98350455 403.85738953 7.31384932 399.23136073 -1.375 394.625 C-2.07689453 394.25270264 -2.77878906 393.88040527 -3.50195312 393.49682617 C-7.76633198 391.23676555 -12.03211836 388.97963978 -16.3125 386.75 C-17.79061157 385.86658936 -17.79061157 385.86658936 -19.29858398 384.96533203 C-23.70150171 383.1898987 -26.8994609 383.77082905 -31.26599121 385.54269409 C-33.45728407 386.57226499 -35.5948881 387.67533413 -37.734375 388.80859375 C-38.53985275 389.22462357 -39.34533051 389.64065338 -40.17521667 390.06929016 C-42.80935139 391.43255261 -45.43579414 392.80998651 -48.0625 394.1875 C-49.89733339 395.14002759 -51.73270812 396.09151309 -53.56860352 397.04199219 C-57.32258264 398.98707884 -61.07378747 400.9373597 -64.82275391 402.89208984 C-72.21332369 406.74344958 -79.62442459 410.55470484 -87.03720093 414.36309814 C-89.22928797 415.48935848 -91.42095736 416.61642802 -93.61254883 417.74365234 C-108.75971124 425.53233956 -108.75971124 425.53233956 -116.25 429.3125 C-116.94150146 429.66473633 -117.63300293 430.01697266 -118.34545898 430.37988281 C-127.35593567 434.89394688 -137.95834388 435.23191354 -147.74609375 432.94921875 C-159.05035223 428.67153446 -166.24280948 421.30896103 -171.25390625 410.44921875 C-176.69901871 396.56518661 -172.31667246 379.61175618 -170.16918945 365.42602539 C-169.62704546 361.82608228 -169.11034493 358.22310579 -168.59570312 354.61914062 C-165.14346544 331.06094475 -159.67171923 310.73642399 -143.3125 292.75 C-142.70019531 292.04488281 -142.08789062 291.33976562 -141.45703125 290.61328125 C-126.59364568 274.48222954 -102.45746146 265.71454526 -83.17236328 256.19799805 C-74.46241328 251.88465318 -65.88878162 247.32152879 -57.3125 242.75 C-58.72499023 242.95338234 -58.72499023 242.95338234 -60.16601562 243.16087341 C-69.10750786 244.44749375 -78.04994633 245.72735153 -86.99331665 247.00085354 C-91.58945163 247.65554024 -96.18523965 248.31247848 -100.78027344 248.97485352 C-105.2274909 249.61583136 -109.67556802 250.25051459 -114.12426758 250.88112068 C-115.80833977 251.12091204 -117.49210872 251.36284469 -119.17553711 251.60711479 C-146.33221386 255.54306168 -172.44093937 256.61038809 -195.64453125 239.30859375 C-202.16806591 234.31008832 -208.44465474 229.00397325 -214.69433594 223.66967773 C-217.90061073 220.93315263 -221.14037054 218.25126242 -224.4375 215.625 C-225.62859375 214.67560547 -225.62859375 214.67560547 -226.84375 213.70703125 C-228.58905825 212.32348784 -230.33958133 210.94651081 -232.09375 209.57421875 C-242.17255606 201.55824525 -251.78550038 193.12324112 -253.59472656 179.64794922 C-254.70844108 166.7786701 -252.58709901 156.48750839 -244.125 146.375 C-230.07324988 132.00022114 -210.0176984 132.04322401 -191.11328125 129.6484375 C-188.90221004 129.36418289 -186.69120752 129.07939352 -184.48027039 128.7940979 C-178.70723901 128.05027912 -172.9334803 127.31228217 -167.15948486 126.57598877 C-157.88093767 125.39207633 -148.60337915 124.20047775 -139.32613182 123.00642776 C-136.09355278 122.59142852 -132.86056596 122.17972781 -129.6275177 121.7684021 C-127.65441604 121.51546248 -125.68132677 121.26242621 -123.70825195 121.00927734 C-122.81112488 120.89602615 -121.9139978 120.78277496 -120.98968506 120.66609192 C-120.16444839 120.55966873 -119.33921173 120.45324554 -118.4889679 120.34359741 C-117.77470296 120.25254919 -117.06043802 120.16150097 -116.32452869 120.06769371 C-115.66055923 119.96285479 -114.99658976 119.85801586 -114.3125 119.75 C-113.60761035 119.67588205 -112.9027207 119.60176411 -112.17647076 119.52540016 C-110.06936813 118.88976705 -110.06936813 118.88976705 -109.19797039 116.46805954 C-108.90576516 115.57109989 -108.61355993 114.67414024 -108.3125 113.75 C-107.60686744 112.24565038 -106.88365043 110.74944981 -106.14497375 109.26104736 C-105.49971992 107.95763901 -105.49971992 107.95763901 -104.84143066 106.62789917 C-104.13935486 105.21735764 -104.13935486 105.21735764 -103.4230957 103.77832031 C-102.92686203 102.77767548 -102.43062836 101.77703064 -101.9193573 100.74606323 C-100.27814271 97.43884631 -98.63364287 94.13328057 -96.98828125 90.828125 C-96.42515921 89.69655724 -95.86203716 88.56498947 -95.28185081 87.39913177 C-92.91318649 82.64058883 -90.54368933 77.88246528 -88.17104816 73.12590408 C-84.78431669 66.33622884 -81.40439921 59.54326155 -78.03402263 52.74545217 C-75.36874619 47.3713462 -72.69239308 42.00283043 -70.01222801 36.63613129 C-68.87859859 34.36217395 -67.7483644 32.08652057 -66.62166786 29.80912018 C-65.04016859 26.61436272 -63.44604502 23.42620444 -61.84887695 20.23925781 C-61.39094757 19.30699371 -60.93301819 18.37472961 -60.46121216 17.41421509 C-54.25953061 5.12697228 -46.50820769 -3.60706581 -33.3125 -8.25 C-21.13066441 -11.06119283 -9.391945 -8.05817766 0 0 Z M-35.3125 19.75 C-36.77461156 22.35654986 -37.9611241 24.96566368 -39.07421875 27.73828125 C-42.22780493 35.40835993 -46.35655993 42.66746125 -50.25 49.98046875 C-54.00376392 57.0722316 -57.58175045 64.24955882 -61.15753174 71.43200684 C-63.24739892 75.62631935 -65.3450132 79.81675907 -67.44140625 84.0078125 C-68.3405275 85.80597323 -69.23961573 87.60415047 -70.13867188 89.40234375 C-71.96679688 93.05859375 -73.79492188 96.71484375 -75.62304688 100.37109375 C-76.07054291 101.26640808 -76.51803894 102.16172241 -76.97909546 103.08416748 C-77.86300052 104.85133214 -78.74793138 106.61798413 -79.63394165 108.38409424 C-81.56274313 112.23140119 -83.48069386 116.08198067 -85.34716797 119.95996094 C-85.6558934 120.59545868 -85.96461884 121.23095642 -86.28269958 121.88571167 C-87.08110435 123.53272883 -87.87093322 125.18389601 -88.65991211 126.83544922 C-92.65703886 133.88489509 -97.86753499 138.89077193 -105.60620117 141.53320312 C-114.94837055 143.97369169 -124.42481506 145.06165539 -133.99328613 146.19784546 C-137.12371705 146.56977322 -140.25285088 146.95131415 -143.38183594 147.33520508 C-151.14862441 148.28613964 -158.91734478 149.22088285 -166.68603516 150.15612793 C-173.26879492 150.94924015 -179.85074167 151.74858323 -186.4317627 152.55599976 C-189.49514622 152.92929251 -192.55951099 153.29358095 -195.62402344 153.6574707 C-212.72286665 154.64203645 -212.72286665 154.64203645 -227 162.25 C-230.3206551 166.71672191 -231.02002959 171.27169942 -230.3125 176.75 C-227.7711015 182.64604452 -224.29074843 185.84639192 -219.3125 189.75 C-217.49763834 191.22626807 -215.6853098 192.70565361 -213.875 194.1875 C-212.93785156 194.95191406 -212.00070313 195.71632812 -211.03515625 196.50390625 C-202.15967241 203.82586207 -202.15967241 203.82586207 -198.90625 207.21484375 C-196.0001817 210.0140713 -192.62320629 212.21521606 -189.34765625 214.55859375 C-187.37689765 215.98149668 -185.42485043 217.4308186 -183.49609375 218.91015625 C-167.49368283 231.08837793 -150.02066072 232.37891567 -130.578125 229.76171875 C-127.56985735 229.33980456 -124.56620341 228.89060102 -121.5625 228.4375 C-119.95326715 228.20344762 -118.34388999 227.97038548 -116.734375 227.73828125 C-112.25826727 227.08961688 -107.78506786 226.42257826 -103.3125 225.75 C-102.31669922 225.60127441 -101.32089844 225.45254883 -100.29492188 225.29931641 C-97.23792498 224.84220096 -94.18126768 224.38318647 -91.12597656 223.91479492 C-80.94796081 222.36489235 -70.74322757 220.99619068 -60.54394531 219.59472656 C-53.17999317 218.58058927 -45.82393234 217.54372256 -38.48168945 216.38061523 C-34.76410724 215.79572163 -31.04097553 215.26035837 -27.3125 214.75 C-26.5817627 214.64606934 -25.85102539 214.54213867 -25.09814453 214.43505859 C-17.04500299 213.35244705 -10.68738571 212.76215257 -3.9140625 217.9140625 C-0.89472668 221.37525234 0.0009038 225.04393842 0.125 229.5625 C0.16496094 230.35269531 0.20492187 231.14289063 0.24609375 231.95703125 C-0.63573646 236.3661823 -2.21394849 239.46260396 -5.3125 242.75 C-9.46970493 245.47735684 -13.86542867 247.54631174 -18.375 249.625 C-19.55900391 250.1921875 -20.74300781 250.759375 -21.96289062 251.34375 C-24.15408562 252.39155089 -26.34968786 253.43022175 -28.55102539 254.45654297 C-30.82391114 255.5211481 -33.07450359 256.61442032 -35.3125 257.75 C-35.3125 258.41 -35.3125 259.07 -35.3125 259.75 C-36.33537109 259.89308594 -36.33537109 259.89308594 -37.37890625 260.0390625 C-40.95569676 260.90587458 -44.00703457 262.43924932 -47.25 264.125 C-48.67686442 264.85329363 -50.10396094 265.58113267 -51.53125 266.30859375 C-52.29824219 266.70159668 -53.06523437 267.09459961 -53.85546875 267.49951172 C-56.44803602 268.81898007 -59.05043284 270.11706154 -61.65625 271.41015625 C-71.09728745 276.09584332 -80.50393424 280.82282316 -89.77124023 285.84545898 C-92.80748472 287.48006169 -95.79446201 288.95574686 -98.97265625 290.3125 C-101.96967551 291.60244513 -104.56208284 293.00994017 -107.3125 294.75 C-108.93091797 295.73033203 -108.93091797 295.73033203 -110.58203125 296.73046875 C-126.76297047 306.71937488 -136.65446655 319.38764738 -142.3125 337.75 C-143.56615168 343.35377688 -144.22835252 349.05727978 -144.9375 354.75 C-145.14194285 356.30341406 -145.34784838 357.85663627 -145.55517578 359.40966797 C-145.86276329 361.71970369 -146.16866404 364.0298643 -146.46762085 366.34103394 C-147.03125061 370.69831869 -147.64526968 375.04219234 -148.328125 379.3828125 C-148.47556152 380.33027344 -148.62299805 381.27773438 -148.77490234 382.25390625 C-149.03827524 383.92702545 -149.30871761 385.59905745 -149.58837891 387.26953125 C-150.54957504 393.57299774 -150.93161866 399.99150155 -147.625 405.625 C-143.27547208 409.6218635 -139.48830331 411.17053143 -133.53808594 411.0690918 C-129.34606335 410.46806355 -125.94182508 408.33261572 -122.3125 406.25 C-120.6401546 405.32921703 -118.96696239 404.40997053 -117.29296875 403.4921875 C-116.04459229 402.79947754 -116.04459229 402.79947754 -114.77099609 402.09277344 C-111.1033031 400.08956475 -107.37171942 398.22501007 -103.625 396.375 C-103.00302734 396.06626953 -102.38105469 395.75753906 -101.74023438 395.43945312 C-100.5389424 394.84333299 -99.33728692 394.24794477 -98.13525391 393.65332031 C-95.53187997 392.36314035 -92.93353555 391.06299495 -90.33569336 389.76171875 C-88.99783308 389.09270789 -87.6588182 388.4260005 -86.31860352 387.76171875 C-82.27094953 385.75204092 -78.26320969 383.68036342 -74.27661133 381.55224609 C-71.87746148 380.27661476 -69.46857876 379.02066004 -67.05859375 377.765625 C-63.41762537 375.86800986 -59.80282149 373.92911345 -56.20056152 371.95904541 C-29.59985841 357.47801221 -29.59985841 357.47801221 -14.5546875 361.484375 C-12.00486949 362.39559523 -9.71105115 363.49525554 -7.3125 364.75 C-6.26707031 365.2553125 -5.22164062 365.760625 -4.14453125 366.28125 C-0.05796515 368.27326788 3.90203093 370.22635395 7.6875 372.75 C8.6775 372.75 9.6675 372.75 10.6875 372.75 C10.6875 373.41 10.6875 374.07 10.6875 374.75 C12.78766623 375.92441535 14.89208755 377.08964012 17 378.25 C17.89235352 378.75080078 17.89235352 378.75080078 18.80273438 379.26171875 C21.64578844 380.81825114 23.39410988 381.75 26.6875 381.75 C26.6875 382.41 26.6875 383.07 26.6875 383.75 C27.63367188 384.21148437 28.57984375 384.67296875 29.5546875 385.1484375 C42.03585642 391.28519857 54.30868889 397.81977661 66.1875 405.0625 C67.68498571 405.96252994 69.18491842 406.85850353 70.6875 407.75 C71.90953125 408.47896484 71.90953125 408.47896484 73.15625 409.22265625 C79.06342574 412.49530454 83.9419554 413.83108895 90.6875 412.75 C93.22097971 411.95233912 95.31915856 410.9856564 97.6875 409.75 C97.6875 409.09 97.6875 408.43 97.6875 407.75 C98.6775 407.42 99.6675 407.09 100.6875 406.75 C109.86821991 393.73118648 100.12849947 360.44679334 97.77807617 345.84472656 C95.70224074 332.9395328 94.3292347 319.9194303 92.88256836 306.93115234 C92.62434621 304.61914623 92.36200649 302.30762928 92.09960938 299.99609375 C91.08081284 290.92204157 90.25162586 281.86561562 89.6875 272.75 C90.3475 272.75 91.0075 272.75 91.6875 272.75 C92.038125 271.55375 92.38875 270.3575 92.75 269.125 C94.31433143 264.91390877 96.43589821 262.88485233 99.93359375 260.17578125 C101.94058805 258.63861157 101.94058805 258.63861157 104.125 255.8125 C106.14929042 253.39322608 107.96595378 251.57218719 110.34277344 249.55957031 C114.6836932 245.80442983 118.73290957 241.81559934 122.765625 237.734375 C123.86641388 236.62790619 123.86641388 236.62790619 124.98944092 235.49908447 C127.30792952 233.16849372 129.62311713 230.83466752 131.9375 228.5 C135.00231538 225.40856711 138.07044531 222.32047947 141.140625 219.234375 C142.18757538 218.17497711 142.18757538 218.17497711 143.25567627 217.09417725 C143.91025818 216.43629211 144.56484009 215.77840698 145.23925781 215.10058594 C145.81025208 214.52435486 146.38124634 213.94812378 146.96954346 213.35443115 C148.6875 211.75 148.6875 211.75 150.90301514 210.16558838 C151.78633514 209.46487213 151.78633514 209.46487213 152.6875 208.75 C152.6875 208.09 152.6875 207.43 152.6875 206.75 C154.0075 206.09 155.3275 205.43 156.6875 204.75 C156.6875 204.09 156.6875 203.43 156.6875 202.75 C158.0075 202.09 159.3275 201.43 160.6875 200.75 C160.6875 200.09 160.6875 199.43 160.6875 198.75 C162.0075 198.09 163.3275 197.43 164.6875 196.75 C164.6875 196.09 164.6875 195.43 164.6875 194.75 C166.0075 194.09 167.3275 193.43 168.6875 192.75 C168.6875 192.09 168.6875 191.43 168.6875 190.75 C169.6775 190.42 170.6675 190.09 171.6875 189.75 C173.20782049 188.25404669 173.20782049 188.25404669 174.625 186.4375 C176.33811498 184.35455623 177.99914288 182.44701387 179.9375 180.5625 C183.04498316 177.3440353 183.62490893 175.39677443 184.0625 170.875 C183.95813274 166.56382939 182.41714171 164.10355981 179.6875 160.75 C179.275 160.1725 178.8625 159.595 178.4375 159 C173.65224936 155.58196383 166.23776592 155.2973667 160.4921875 154.6015625 C159.71879532 154.50425842 158.94540314 154.40695435 158.14857483 154.30670166 C155.62052564 153.99068178 153.09159912 153.68249558 150.5625 153.375 C148.78328104 153.15513871 147.0040656 152.93524893 145.22485352 152.71533203 C131.45032624 151.02680427 117.65726056 149.55027307 103.85229492 148.13598633 C92.53045062 146.97199193 81.25035762 145.59694076 69.97412109 144.04931641 C66.21805308 143.55765087 62.4538927 143.15421667 58.6875 142.75 C58.6875 142.09 58.6875 141.43 58.6875 140.75 C55.3875 139.76 52.0875 138.77 48.6875 137.75 C48.6875 137.09 48.6875 136.43 48.6875 135.75 C47.0375 135.09 45.3875 134.43 43.6875 133.75 C43.6875 132.76 43.6875 131.77 43.6875 130.75 C43.0275 130.75 42.3675 130.75 41.6875 130.75 C41.6875 130.09 41.6875 129.43 41.6875 128.75 C41.0275 128.75 40.3675 128.75 39.6875 128.75 C39.45417969 127.9559375 39.22085937 127.161875 38.98046875 126.34375 C37.33843426 121.77978707 35.20057941 117.56642669 33 113.25 C32.32517578 111.91279907 32.32517578 111.91279907 31.63671875 110.54858398 C30.32376382 107.94729203 29.0062116 105.34837725 27.6875 102.75 C23.46018667 94.40162911 19.34588711 86.00615276 15.3125 77.5625 C14.65024414 76.17913452 14.65024414 76.17913452 13.97460938 74.76782227 C13.56275391 73.90213623 13.15089844 73.0364502 12.7265625 72.14453125 C12.35740723 71.36956299 11.98825195 70.59459473 11.60791016 69.79614258 C10.6875 67.75 10.6875 67.75 9.6875 64.75 C9.0275 64.75 8.3675 64.75 7.6875 64.75 C7.49982056 63.64906006 7.49982056 63.64906006 7.30834961 62.52587891 C6.71600318 59.87744047 5.91982602 57.77618477 4.75390625 55.3359375 C4.35719727 54.50126953 3.96048828 53.66660156 3.55175781 52.80664062 C3.12217773 51.92169922 2.69259766 51.03675781 2.25 50.125 C1.80624023 49.20654297 1.36248047 48.28808594 0.90527344 47.34179688 C-0.49003339 44.47251898 -1.89894825 41.61032904 -3.3125 38.75 C-3.75932129 37.84024414 -4.20614258 36.93048828 -4.66650391 35.99316406 C-5.94751047 33.40275774 -7.25032221 30.82473435 -8.5625 28.25 C-8.94978271 27.46802246 -9.33706543 26.68604492 -9.73608398 25.88037109 C-12.2763027 20.98686453 -14.71019408 17.85037385 -19.3125 14.75 C-25.48133831 12.97554566 -31.19440571 14.96103822 -35.3125 19.75 Z " fill="#E78411" transform="translate(287.3125,41.25)"/>
<path d="M0 0 C6.15492262 3.49985796 9.30089052 9.57765084 12 16 C12 17.32 12 18.64 12 20 C11.26394531 20.03738281 10.52789062 20.07476562 9.76953125 20.11328125 C2.42439383 20.58975994 2.42439383 20.58975994 -4 24 C-4.66 24 -5.32 24 -6 24 C-6 24.66 -6 25.32 -6 26 C-7.875 28.125 -7.875 28.125 -10 30 C-10.66 30 -11.32 30 -12 30 C-12.33 31.32 -12.66 32.64 -13 34 C-13.66 34 -14.32 34 -15 34 C-15.2165625 35.423125 -15.2165625 35.423125 -15.4375 36.875 C-16 40 -16 40 -17 42 C-17.66 42 -18.32 42 -19 42 C-19.33 43.98 -19.66 45.96 -20 48 C-20.66 48 -21.32 48 -22 48 C-22.99 51.3 -23.98 54.6 -25 58 C-25.66 58 -26.32 58 -27 58 C-27.99 61.96 -28.98 65.92 -30 70 C-30.66 70 -31.32 70 -32 70 C-32.33 71.32 -32.66 72.64 -33 74 C-33.66 74 -34.32 74 -35 74 C-35.99 77.96 -36.98 81.92 -38 86 C-38.66 86 -39.32 86 -40 86 C-40.33 87.32 -40.66 88.64 -41 90 C-41.66 90 -42.32 90 -43 90 C-43.33 91.98 -43.66 93.96 -44 96 C-44.66 96 -45.32 96 -46 96 C-46.99 99.3 -47.98 102.6 -49 106 C-49.66 106 -50.32 106 -51 106 C-51.33 107.98 -51.66 109.96 -52 112 C-52.66 112 -53.32 112 -54 112 C-54.556875 113.8871875 -54.556875 113.8871875 -55.125 115.8125 C-56.74474851 120.73404355 -59.10165343 125.0483727 -61.6953125 129.51953125 C-62.85643704 131.72705845 -63.53470432 133.5657092 -64 136 C-64.66 136 -65.32 136 -66 136 C-66.99 138.97 -66.99 138.97 -68 142 C-68.66 142 -69.32 142 -70 142 C-70 142.66 -70 143.32 -70 144 C-76.86132464 150.02078681 -84.63964864 151.11098068 -93.40075684 151.81994629 C-97.33163398 152.13815296 -101.25477081 152.53808875 -105.1796875 152.921875 C-106.02519165 153.00201843 -106.8706958 153.08216187 -107.74182129 153.16473389 C-114.76429305 153.84153428 -121.75991122 154.68429033 -128.7578125 155.578125 C-129.83612335 155.71585327 -130.9144342 155.85358154 -132.02542114 155.9954834 C-136.32911403 156.54786777 -140.63225788 157.10434073 -144.93487549 157.66503906 C-147.95084289 158.0570068 -150.96753608 158.44293181 -153.984375 158.828125 C-154.87883331 158.94665833 -155.77329163 159.06519165 -156.69485474 159.18731689 C-161.84451651 159.84133762 -166.80866709 160.11269174 -172 160 C-172 160.66 -172 161.32 -172 162 C-173.01578125 162.00257813 -174.0315625 162.00515625 -175.078125 162.0078125 C-183.75888465 162.19505287 -190.05489973 163.27157001 -197.7421875 167.72265625 C-200 169 -200 169 -202 169 C-202 169.66 -202 170.32 -202 171 C-205.12981912 170.66466224 -206.00061159 169.99933599 -208.1875 167.625 C-211.19807404 163.26485829 -211.53099474 159.17228213 -211 154 C-209.27257524 149.10562986 -206.55353629 145.54474904 -202 143 C-193.4489883 140.40544843 -184.10683815 139.98924545 -175.25 139 C-172.31740708 138.66927586 -169.38512595 138.33593156 -166.453125 138 C-165.72684906 137.91682022 -165.00057312 137.83364044 -164.25228882 137.74794006 C-159.9670846 137.24991548 -155.69813486 136.68718199 -151.4296875 136.05859375 C-145.14930439 135.1368594 -138.85666909 134.35686418 -132.5546875 133.59765625 C-131.52907715 133.47321136 -130.5034668 133.34876648 -129.44677734 133.22055054 C-125.17968702 132.70281322 -120.91261132 132.18536058 -116.64404297 131.67993164 C-92.94058995 130.02267797 -92.94058995 130.02267797 -73.39453125 118.171875 C-70.26311288 113.77277787 -67.91812693 108.9331137 -65.52734375 104.10546875 C-65.18573212 103.41906815 -64.84412048 102.73266754 -64.49215698 102.02546692 C-63.73600406 100.50604529 -62.98048062 98.98631028 -62.22549438 97.46630859 C-58.53248621 90.03412619 -54.82455403 82.60935258 -51.11914062 75.18334961 C-50.12590524 73.19184774 -49.13338791 71.19998757 -48.14160156 69.20776367 C-42.25022086 57.37535579 -36.27321031 45.60022493 -30.07177734 33.92700195 C-28.32962847 30.64283439 -26.64670918 27.33327582 -25 24 C-24.0574926 22.1149852 -23.11425784 20.23074358 -22.16015625 18.3515625 C-21.28137207 16.57032318 -20.44177166 14.76968372 -19.62109375 12.9609375 C-15.3473662 3.78860317 -10.88144899 -2.15668358 0 0 Z " fill="#FDEDBC" transform="translate(268,56)"/>
<path d="M0 0 C1.79237963 3.26845697 1.06706044 5.44028025 0.0625 8.9375 C-2.24850235 10.9099744 -4.84428396 12.00526466 -7.625 13.1875 C-8.68750977 13.67476563 -8.68750977 13.67476563 -9.77148438 14.171875 C-11.16471581 14.80995699 -12.56295905 15.43722441 -13.96630859 16.05273438 C-15.78206822 16.86773473 -17.55968968 17.76632879 -19.33203125 18.671875 C-21.9375 19.9375 -21.9375 19.9375 -23.9375 19.9375 C-23.9375 20.5975 -23.9375 21.2575 -23.9375 21.9375 C-24.9275 22.35 -25.9175 22.7625 -26.9375 23.1875 C-31.02469005 24.93915288 -34.97539151 26.92222409 -38.9375 28.9375 C-40.27031331 29.60520569 -41.60364502 30.27187765 -42.9375 30.9375 C-43.60394531 31.27136719 -44.27039063 31.60523438 -44.95703125 31.94921875 C-46.22316603 32.58103749 -47.49122395 33.2090263 -48.76171875 33.83203125 C-51.94900069 35.40228546 -55.08448597 37.01919809 -58.19140625 38.74609375 C-59.34511719 39.38675781 -60.49882812 40.02742188 -61.6875 40.6875 C-63.31945312 41.60789062 -63.31945312 41.60789062 -64.984375 42.546875 C-67.9375 43.9375 -67.9375 43.9375 -71.9375 43.9375 C-71.9375 44.5975 -71.9375 45.2575 -71.9375 45.9375 C-72.906875 46.4221875 -73.87625 46.906875 -74.875 47.40625 C-75.51550293 47.72658203 -76.15600586 48.04691406 -76.81591797 48.37695312 C-78.24176499 49.08971256 -79.66787609 49.80194394 -81.09423828 50.51367188 C-84.89986919 52.4135657 -88.7005894 54.32223547 -92.4921875 56.25 C-93.21664062 56.61673828 -93.94109375 56.98347656 -94.6875 57.36132812 C-96.08756288 58.07036732 -97.48604697 58.78253397 -98.8828125 59.49804688 C-103.71263519 61.9375 -103.71263519 61.9375 -105.9375 61.9375 C-105.9375 62.5975 -105.9375 63.2575 -105.9375 63.9375 C-107.2575 63.9375 -108.5775 63.9375 -109.9375 63.9375 C-109.9375 64.5975 -109.9375 65.2575 -109.9375 65.9375 C-111.44977067 67.2677109 -113.02419024 68.52777591 -114.625 69.75 C-121.60585044 74.81005515 -121.60585044 74.81005515 -125.9375 81.9375 C-126.5975 81.9375 -127.2575 81.9375 -127.9375 81.9375 C-128.2675 83.2575 -128.5975 84.5775 -128.9375 85.9375 C-129.5975 85.9375 -130.2575 85.9375 -130.9375 85.9375 C-131.185 86.7625 -131.4325 87.5875 -131.6875 88.4375 C-132.9375 91.9375 -132.9375 91.9375 -134.8125 95.4375 C-141.07273935 107.91143416 -142.06088435 121.59059423 -143.61279297 135.23925781 C-144.20613923 140.16983138 -145.02750646 145.0556523 -145.9375 149.9375 C-148.17822431 148.27502713 -149.67526175 146.81809676 -150.48510742 144.09863281 C-151.4327462 137.49446975 -150.34097385 131.21229844 -149.25 124.6875 C-148.86766179 122.29461018 -148.48753164 119.90136671 -148.109375 117.5078125 C-147.91279297 116.27063477 -147.71621094 115.03345703 -147.51367188 113.75878906 C-146.93254582 109.9046429 -146.42997824 106.04803777 -145.953125 102.1796875 C-145.79287842 100.90641602 -145.63263184 99.63314453 -145.4675293 98.32128906 C-145.16509801 95.88983628 -144.87411639 93.45692014 -144.59692383 91.02246094 C-142.3102779 73.11274451 -134.19460182 57.2382394 -120.1953125 45.671875 C-115.00239756 41.7879774 -109.80646145 38.66960274 -103.9375 35.9375 C-103.215625 35.49148438 -102.49375 35.04546875 -101.75 34.5859375 C-98.05168575 32.41831443 -94.20110969 30.6723032 -90.3125 28.875 C-80.34707983 24.21123732 -70.63568256 19.12906969 -60.9375 13.9375 C-58.52908423 12.65124188 -56.12000245 11.36627654 -53.70947266 10.08398438 C-52.23126948 9.2973884 -50.75431054 8.50844822 -49.27880859 7.71679688 C-44.74602295 5.30137944 -41.39258935 3.80046972 -36.25 3.875 C-35.03763672 3.88853516 -35.03763672 3.88853516 -33.80078125 3.90234375 C-32.87845703 3.91974609 -32.87845703 3.91974609 -31.9375 3.9375 C-31.9375 3.2775 -31.9375 2.6175 -31.9375 1.9375 C-28.06327792 1.43134729 -24.18801183 0.93367279 -20.3125 0.4375 C-19.21808594 0.29441406 -18.12367188 0.15132813 -16.99609375 0.00390625 C-15.93261719 -0.13144531 -14.86914062 -0.26679688 -13.7734375 -0.40625 C-12.79938965 -0.53193359 -11.8253418 -0.65761719 -10.82177734 -0.78710938 C-2.82724835 -1.55042652 -2.82724835 -1.55042652 0 0 Z " fill="#FDEBB9" transform="translate(287.9375,298.0625)"/>
<path d="M0 0 C1.46953125 0.23783203 1.46953125 0.23783203 2.96875 0.48046875 C27.50267236 4.34660981 52.21416018 7.1861995 76.90109253 9.87579346 C98.50212374 12.2301937 98.50212374 12.2301937 108.4375 13.5625 C109.25951904 13.6651416 110.08153809 13.7677832 110.9284668 13.87353516 C116.7615132 14.69573137 120.35844876 16.13045553 124.25 20.5625 C126.47774234 23.66542683 127.13880623 25.24470511 127.125 29 C127.12886719 30.051875 127.12886719 30.051875 127.1328125 31.125 C127 33 127 33 126 35 C116.94982996 34.1183731 107.9123395 33.12802993 98.875 32.125 C98.08097778 32.03696106 97.28695557 31.94892212 96.46887207 31.85821533 C83.78036102 30.44855791 71.10758146 28.94155433 58.4453125 27.31152344 C56.19364227 27.02466928 53.94110793 26.74771289 51.6875 26.4765625 C47.78883877 26.00470072 43.89338121 25.51326369 40 25 C39.17419434 24.89187988 38.34838867 24.78375977 37.49755859 24.67236328 C34.80908089 24.31439063 32.1232374 23.9404419 29.4375 23.5625 C28.18694824 23.39717773 28.18694824 23.39717773 26.91113281 23.22851562 C19.58265372 22.16761974 13.53563903 20.20014575 8 15 C8 14.34 8 13.68 8 13 C7.34 13 6.68 13 6 13 C4.02 8.71 2.04 4.42 0 0 Z " fill="#FEEDBB" transform="translate(344,183)"/>
<path d="M0 0 C0.33 0 0.66 0 1 0 C1.07347656 1.71509766 1.07347656 1.71509766 1.1484375 3.46484375 C1.22345189 4.95575473 1.29900028 6.44663892 1.375 7.9375 C1.4059375 8.69224609 1.436875 9.44699219 1.46875 10.22460938 C1.5726315 12.15507395 1.77895614 14.07942081 2 16 C2.66 16.33 3.32 16.66 4 17 C4.28875 16.05125 4.5775 15.1025 4.875 14.125 C6 11 6 11 8 9 C6.32236842 17.00101215 6.32236842 17.00101215 5.3112793 20.13427734 C3.20053927 26.68169218 2.1790626 33.04719135 1.4375 39.875 C1.19193013 41.98719226 0.94455411 44.09917536 0.6953125 46.2109375 C0.57833008 47.20963867 0.46134766 48.20833984 0.34082031 49.23730469 C-0.26988964 54.18773006 -1.08597845 59.09654321 -2 64 C-4.23548873 62.34141159 -5.7343931 60.8830368 -6.54980469 58.17211914 C-7.52137248 51.4653897 -6.36001919 45.06179267 -5.25 38.4375 C-4.87260424 36.05506577 -4.49765846 33.67224233 -4.125 31.2890625 C-3.93550781 30.08540039 -3.74601563 28.88173828 -3.55078125 27.64160156 C-2.67907171 21.87811772 -1.95608432 16.09827408 -1.25 10.3125 C-1.05905762 8.75390259 -1.05905762 8.75390259 -0.86425781 7.16381836 C-0.57351524 4.77618657 -0.28518981 2.38830035 0 0 Z " fill="#FEE7AE" transform="translate(144,384)"/>
<path d="M0 0 C0.495 1.485 0.495 1.485 1 3 C-3.455 3.495 -3.455 3.495 -8 4 C-8 4.66 -8 5.32 -8 6 C-8.78375 6.144375 -9.5675 6.28875 -10.375 6.4375 C-12.96421018 6.87798925 -12.96421018 6.87798925 -15 8 C-15.73075648 10.3140622 -16.40138258 12.64828869 -17 15 C-17.61875 14.79375 -18.2375 14.5875 -18.875 14.375 C-19.57625 14.25125 -20.2775 14.1275 -21 14 C-21.66 14.66 -22.32 15.32 -23 16 C-22.96759342 18.00920807 -22.93411591 20.01843341 -22.88671875 22.02734375 C-23.04818935 24.83915937 -23.91996407 26.14282506 -26 28 C-26.6290625 28.06574219 -27.258125 28.13148437 -27.90625 28.19921875 C-30.3226119 28.87666385 -30.3226119 28.87666385 -31.703125 31.8359375 C-32.21359375 33.00382812 -32.7240625 34.17171875 -33.25 35.375 C-33.77078125 36.53773437 -34.2915625 37.70046875 -34.828125 38.8984375 C-36.1767232 41.91513298 -36.1767232 41.91513298 -36 45 C-38.5 46.6875 -38.5 46.6875 -41 48 C-40.34 45.36 -39.68 42.72 -39 40 C-38.34 40 -37.68 40 -37 40 C-36.690625 38.72125 -36.38125 37.4425 -36.0625 36.125 C-35.52394756 33.89898325 -35.0263 32.05260001 -34 30 C-33.34 30 -32.68 30 -32 30 C-31.67 28.02 -31.34 26.04 -31 24 C-30.34 24 -29.68 24 -29 24 C-28.34 21.36 -27.68 18.72 -27 16 C-26.34 16 -25.68 16 -25 16 C-24.67 14.68 -24.34 13.36 -24 12 C-23.34 12 -22.68 12 -22 12 C-21.34 10.68 -20.68 9.36 -20 8 C-19.34 8 -18.68 8 -18 8 C-18 7.34 -18 6.68 -18 6 C-11.97181491 1.71329061 -7.28695785 1.525623 0 2 C0 1.34 0 0.68 0 0 Z " fill="#FAD457" transform="translate(280,74)"/>
<path d="M0 0 C0.99 0 1.98 0 3 0 C3 0.99 3 1.98 3 3 C4.08539063 3.13277344 5.17078125 3.26554688 6.2890625 3.40234375 C7.73438322 3.58066254 9.17969526 3.75905169 10.625 3.9375 C11.33785156 4.02451172 12.05070312 4.11152344 12.78515625 4.20117188 C16.87591961 4.70782605 20.93842635 5.2889043 25 6 C25 6.66 25 7.32 25 8 C16.78625287 7.19588207 8.58058309 6.32059313 0.375 5.4375 C-0.91535156 5.29892578 -2.20570313 5.16035156 -3.53515625 5.01757812 C-6.69013915 4.67870959 -9.84508601 4.33950937 -13 4 C-13 3.67 -13 3.34 -13 3 C-12.14535156 2.95101562 -11.29070312 2.90203125 -10.41015625 2.8515625 C-9.30542969 2.77679688 -8.20070313 2.70203125 -7.0625 2.625 C-5.40927734 2.52058594 -5.40927734 2.52058594 -3.72265625 2.4140625 C-2.37494141 2.20910156 -2.37494141 2.20910156 -1 2 C-0.67 1.34 -0.34 0.68 0 0 Z " fill="#FDE59C" transform="translate(445,210)"/>
<path d="M0 0 C0.66 0.99 1.32 1.98 2 3 C1.525625 3.433125 1.05125 3.86625 0.5625 4.3125 C-1.23686957 6.02309613 -1.23686957 6.02309613 -2 9 C-2.66 9 -3.32 9 -4 9 C-4.144375 9.763125 -4.28875 10.52625 -4.4375 11.3125 C-5 14 -5 14 -6 17 C-6.66 17 -7.32 17 -8 17 C-8 18.65 -8 20.3 -8 22 C-8.639375 22.268125 -9.27875 22.53625 -9.9375 22.8125 C-12.33131686 23.88667752 -12.33131686 23.88667752 -13 27 C-14.98 27.33 -16.96 27.66 -19 28 C-17.71034824 26.62437146 -16.37310707 25.29233607 -15 24 C-14.34 24 -13.68 24 -13 24 C-13 23.34 -13 22.68 -13 22 C-12.34 22 -11.68 22 -11 22 C-10.34 20.02 -9.68 18.04 -9 16 C-8.34 16 -7.68 16 -7 16 C-6.938125 15.195625 -6.87625 14.39125 -6.8125 13.5625 C-5.7367866 8.84591049 -3.49658593 3.49658593 0 0 Z " fill="#F9D360" transform="translate(211,176)"/>
<path d="M0 0 C0 0.99 0 1.98 0 3 C-2.31 3.66 -4.62 4.32 -7 5 C-7 5.99 -7 6.98 -7 8 C-9.66666667 7.33333333 -12.33333333 6.66666667 -15 6 C-15 5.34 -15 4.68 -15 4 C-15.598125 4.350625 -16.19625 4.70125 -16.8125 5.0625 C-19 6 -19 6 -22 5 C-18.44319929 2.62879953 -15.1232796 2.09400605 -11 1.375 C-9.91332031 1.17390625 -9.91332031 1.17390625 -8.8046875 0.96875 C-5.82907773 0.43072462 -3.02980844 0 0 0 Z " fill="#FCE6B0" transform="translate(183,183)"/>
<path d="M0 0 C-1.24374574 1.60902058 -2.49526899 3.21203107 -3.75 4.8125 C-4.44609375 5.70582031 -5.1421875 6.59914063 -5.859375 7.51953125 C-7.80173013 9.77025298 -9.47161264 11.45316139 -12 13 C-12.99 13 -13.98 13 -15 13 C-15 11.35 -15 9.7 -15 8 C-14.21625 7.71125 -13.4325 7.4225 -12.625 7.125 C-9.90328368 6.15087746 -9.90328368 6.15087746 -8 4 C-7.3574765 1.93125966 -7.3574765 1.93125966 -7 0 C-2.25 -1.125 -2.25 -1.125 0 0 Z " fill="#EB7716" transform="translate(409,458)"/>
<path d="M0 0 C1.0625 1.875 1.0625 1.875 2 4 C1.67 4.66 1.34 5.32 1 6 C0.34 6 -0.32 6 -1 6 C-0.67 6.86625 -0.34 7.7325 0 8.625 C0.98731341 11.95718275 1.16420974 14.55159538 1 18 C-0.32 18.33 -1.64 18.66 -3 19 C-3.33 20.32 -3.66 21.64 -4 23 C-4.33 23 -4.66 23 -5 23 C-4.76153643 20.88789411 -4.52259611 18.77584095 -4.28125 16.6640625 C-4.08961119 14.84881708 -3.92397508 13.03068224 -3.78125 11.2109375 C-3.7090625 10.31632812 -3.636875 9.42171875 -3.5625 8.5 C-3.50191406 7.6646875 -3.44132813 6.829375 -3.37890625 5.96875 C-3.25386719 5.3190625 -3.12882813 4.669375 -3 4 C-2.34 3.67 -1.68 3.34 -1 3 C-0.67 2.01 -0.34 1.02 0 0 Z " fill="#FDBD26" transform="translate(150,410)"/>
<path d="M0 0 C-0.33 0.99 -0.66 1.98 -1 3 C-7.93 2.505 -7.93 2.505 -15 2 C-15.33 2.99 -15.66 3.98 -16 5 C-18.31 4.67 -20.62 4.34 -23 4 C-23.33 4.66 -23.66 5.32 -24 6 C-24.33 5.67 -24.66 5.34 -25 5 C-27.32817964 4.63239269 -29.6618385 4.29758419 -32 4 C-32 3.67 -32 3.34 -32 3 C-28.16772354 2.49167358 -24.33403696 1.99485826 -20.5 1.5 C-18.88351563 1.28537109 -18.88351563 1.28537109 -17.234375 1.06640625 C-11.43522303 0.32383191 -5.84610901 -0.17027502 0 0 Z " fill="#FCCD5A" transform="translate(160,209)"/>
<path d="M0 0 C0 0.99 0 1.98 0 3 C3.96 3 7.92 3 12 3 C10 5 10 5 7.05078125 5.046875 C5.81714844 4.94890625 4.58351563 4.8509375 3.3125 4.75 C2.65564209 4.6991626 1.99878418 4.6483252 1.32202148 4.59594727 C-5.81983967 4.00496101 -12.91066793 3.03574639 -20 2 C-20 1.67 -20 1.34 -20 1 C-17.4167588 0.83178895 -14.83342301 0.66537483 -12.25 0.5 C-11.52039063 0.45230469 -10.79078125 0.40460938 -10.0390625 0.35546875 C-6.68189836 0.14183103 -3.36563724 0 0 0 Z " fill="#E89537" transform="translate(392,186)"/>
<path d="M0 0 C0.99 0 1.98 0 3 0 C3 0.99 3 1.98 3 3 C4.52367187 2.7834375 4.52367187 2.7834375 6.078125 2.5625 C14.43699415 1.41987681 22.54232114 0.71167004 31 1 C31 1.33 31 1.66 31 2 C27.35547656 2.50986264 23.70921254 3.00605846 20.0625 3.5 C18.53012695 3.71462891 18.53012695 3.71462891 16.96679688 3.93359375 C10.91392631 4.74580002 5.10659056 5.15282396 -1 5 C-0.67 3.35 -0.34 1.7 0 0 Z " fill="#E49432" transform="translate(125,186)"/>
<path d="M0 0 C0.7437085 0.04632568 1.48741699 0.09265137 2.25366211 0.14038086 C9.98163083 0.66241985 17.6428717 1.624281 25.3125 2.6875 C25.3125 3.0175 25.3125 3.3475 25.3125 3.6875 C19.7025 3.6875 14.0925 3.6875 8.3125 3.6875 C8.3125 3.0275 8.3125 2.3675 8.3125 1.6875 C6.394375 1.935 6.394375 1.935 4.4375 2.1875 C-0.6159158 2.75791736 -5.60812649 2.78293708 -10.6875 2.6875 C-10.6875 2.0275 -10.6875 1.3675 -10.6875 0.6875 C-7.00587337 -0.53970888 -3.80577517 -0.25422765 0 0 Z " fill="#DF8918" transform="translate(367.6875,163.3125)"/>
<path d="M0 0 C0 0.66 0 1.32 0 2 C-1.32 2.33 -2.64 2.66 -4 3 C-4 3.66 -4 4.32 -4 5 C-5.8253125 5.2165625 -5.8253125 5.2165625 -7.6875 5.4375 C-10.13263546 5.73610946 -12.46373253 6.10081142 -14.875 6.625 C-17 7 -17 7 -19 6 C-13.71898337 0.71898337 -7.19639622 0 0 0 Z " fill="#FDE2A9" transform="translate(80,197)"/>
<path d="M0 0 C1.79398884 0.25499841 3.58520875 0.52953814 5.375 0.8125 C6.87160156 1.03873047 6.87160156 1.03873047 8.3984375 1.26953125 C11 2 11 2 13 5 C11.35 5 9.7 5 8 5 C7.67 6.65 7.34 8.3 7 10 C4 9 4 9 2.83203125 6.93359375 C2.49558594 6.10988281 2.15914063 5.28617188 1.8125 4.4375 C1.46832031 3.61121094 1.12414062 2.78492188 0.76953125 1.93359375 C0.51558594 1.29550781 0.26164062 0.65742188 0 0 Z " fill="#FDE7B1" transform="translate(344,183)"/>
<path d="M0 0 C0 0.66 0 1.32 0 2 C-1.24716797 2.09087891 -1.24716797 2.09087891 -2.51953125 2.18359375 C-4.14955078 2.30927734 -4.14955078 2.30927734 -5.8125 2.4375 C-7.43091797 2.55931641 -7.43091797 2.55931641 -9.08203125 2.68359375 C-12.05989905 2.90212461 -12.05989905 2.90212461 -15 4 C-16.33525717 4.07973476 -17.67412083 4.10771338 -19.01171875 4.09765625 C-20.14770508 4.09282227 -20.14770508 4.09282227 -21.30664062 4.08789062 C-22.09232422 4.07951172 -22.87800781 4.07113281 -23.6875 4.0625 C-24.48478516 4.05798828 -25.28207031 4.05347656 -26.10351562 4.04882812 C-28.06904257 4.0370585 -30.03453085 4.01912348 -32 4 C-32 3.67 -32 3.34 -32 3 C-28.16772354 2.49167358 -24.33403696 1.99485826 -20.5 1.5 C-18.88351563 1.28537109 -18.88351563 1.28537109 -17.234375 1.06640625 C-11.43522303 0.32383191 -5.84610901 -0.17027502 0 0 Z " fill="#FAD35F" transform="translate(128,213)"/>
<path d="M0 0 C0.33 0 0.66 0 1 0 C0.60924218 5.86136737 -1.35220351 10.295121 -3.94140625 15.546875 C-5.19810598 18.01378179 -5.19810598 18.01378179 -5 21 C-7.5 22.6875 -7.5 22.6875 -10 24 C-9.34 21.36 -8.68 18.72 -8 16 C-7.34 16 -6.68 16 -6 16 C-5.690625 14.72125 -5.38125 13.4425 -5.0625 12.125 C-4.52394756 9.89898325 -4.0263 8.05260001 -3 6 C-2.34 6 -1.68 6 -1 6 C-0.67 4.02 -0.34 2.04 0 0 Z " fill="#F7D55A" transform="translate(249,98)"/>
<path d="M0 0 C4.29 0 8.58 0 13 0 C10.02551753 2.97448247 7.85803457 4.42529201 4 6 C1.625 5.6875 1.625 5.6875 0 5 C0 3.35 0 1.7 0 0 Z " fill="#ED791A" transform="translate(168,464)"/>
<path d="M0 0 C0.33 0 0.66 0 1 0 C1.07347656 1.01320313 1.07347656 1.01320313 1.1484375 2.046875 C1.22320312 2.93890625 1.29796875 3.8309375 1.375 4.75 C1.44460937 5.63171875 1.51421875 6.5134375 1.5859375 7.421875 C1.86631914 9.99021206 1.86631914 9.99021206 3.03125 12.0625 C4.65760993 15.31521985 4.11954845 18.41354644 4 22 C1.70304977 20.29581112 0.2293311 18.85571307 -0.5234375 16.046875 C-1.23364676 10.55714938 -0.7803958 5.4627706 0 0 Z " fill="#FDDD9D" transform="translate(138,426)"/>
<path d="M0 0 C0.66 0.33 1.32 0.66 2 1 C1.67 1.99 1.34 2.98 1 4 C0.34 4 -0.32 4 -1 4 C-1 4.66 -1 5.32 -1 6 C-6.61522166 8.92968087 -11.65957136 9.89252835 -18 9 C-18.66 8.34 -19.32 7.68 -20 7 C-15.38 7 -10.76 7 -6 7 C-6 6.01 -6 5.02 -6 4 C-5.195625 3.71125 -4.39125 3.4225 -3.5625 3.125 C-0.8673532 2.26737432 -0.8673532 2.26737432 0 0 Z " fill="#FDAE2C" transform="translate(386,445)"/>
<path d="M0 0 C0.99 0.33 1.98 0.66 3 1 C2.2884375 2.175625 2.2884375 2.175625 1.5625 3.375 C0.66101977 4.88948678 -0.21179485 6.4235897 -1 8 C-0.01 8.33 0.98 8.66 2 9 C2 11.97 2 14.94 2 18 C1.34 18 0.68 18 0 18 C-0.33 15.36 -0.66 12.72 -1 10 C-2.98 10.99 -2.98 10.99 -5 12 C-4.34 9.36 -3.68 6.72 -3 4 C-2.34 4 -1.68 4 -1 4 C-0.67 2.68 -0.34 1.36 0 0 Z " fill="#FCCD3E" transform="translate(236,126)"/>
<path d="M0 0 C1.2375 -0.04125 2.475 -0.0825 3.75 -0.125 C4.79414063 -0.15980469 4.79414063 -0.15980469 5.859375 -0.1953125 C8.30155975 0.02751458 9.88636771 0.79085 12 2 C10.21118264 3.00508801 8.41885304 4.00392736 6.625 5 C5.62726563 5.556875 4.62953125 6.11375 3.6015625 6.6875 C1 8 1 8 -1 8 C-0.67 6.68 -0.34 5.36 0 4 C1.98 4.495 1.98 4.495 4 5 C3.67 4.34 3.34 3.68 3 3 C2.01 2.67 1.02 2.34 0 2 C0 1.34 0 0.68 0 0 Z " fill="#E6811C" transform="translate(228,304)"/>
<path d="M0 0 C0.33 0.66 0.66 1.32 1 2 C1.66 2 2.32 2 3 2 C3 6.95 3 11.9 3 17 C2.34 17 1.68 17 1 17 C0.67 17.66 0.34 18.32 0 19 C0 12.66666667 0 6.33333333 0 0 Z " fill="#F07C12" transform="translate(402,356)"/>
<path d="M0 0 C1.75570313 0.01353516 1.75570313 0.01353516 3.546875 0.02734375 C4.43890625 0.03894531 5.3309375 0.05054688 6.25 0.0625 C6.25 0.7225 6.25 1.3825 6.25 2.0625 C8.23 1.7325 10.21 1.4025 12.25 1.0625 C11.92 3.3725 11.59 5.6825 11.25 8.0625 C10.64865234 7.4128125 10.64865234 7.4128125 10.03515625 6.75 C6.68768297 3.4708425 4.36308473 1.6260839 -0.4375 1.5625 C-3.68788611 1.70105998 -5.91536199 2.47561461 -8.75 4.0625 C-8.75 3.4025 -8.75 2.7425 -8.75 2.0625 C-9.41 1.7325 -10.07 1.4025 -10.75 1.0625 C-7.14006828 -0.07230527 -3.7657673 -0.03765767 0 0 Z " fill="#DF982E" transform="translate(263.75,54.9375)"/>
<path d="M0 0 C5.28 0 10.56 0 16 0 C15.67 0.99 15.34 1.98 15 3 C9.72 2.67 4.44 2.34 -1 2 C-0.67 1.34 -0.34 0.68 0 0 Z " fill="#FECE4B" transform="translate(80,218)"/>
<path d="M0 0 C0.33 0.99 0.66 1.98 1 3 C1.66 3 2.32 3 3 3 C2.67 4.65 2.34 6.3 2 8 C1.67 7.34 1.34 6.68 1 6 C0.34 6 -0.32 6 -1 6 C-1.66 7.65 -2.32 9.3 -3 11 C-3.66 11 -4.32 11 -5 11 C-5.33 11.99 -5.66 12.98 -6 14 C-6.33 13.34 -6.66 12.68 -7 12 C-6.0625 9.875 -6.0625 9.875 -5 8 C-4.34 8 -3.68 8 -3 8 C-2.67 6.02 -2.34 4.04 -2 2 C-1.34 2 -0.68 2 0 2 C0 1.34 0 0.68 0 0 Z " fill="#FBD054" transform="translate(227,144)"/>
<path d="M0 0 C2.92509086 3.90012114 3.47535095 5.38308839 4 10 C2.02 10.99 0.04 11.98 -2 13 C-1.34 8.71 -0.68 4.42 0 0 Z " fill="#E4811D" transform="translate(123,372)"/>
<path d="M0 0 C1.125 1.6875 1.125 1.6875 2 4 C1.4375 6.6875 1.4375 6.6875 0 9 C-2.625 9.8125 -2.625 9.8125 -5 10 C-4.56802365 5.2482602 -3.67230705 3.07999946 0 0 Z " fill="#F9CD4E" transform="translate(255,92)"/>
<path d="M0 0 C5.28 0.66 10.56 1.32 16 2 C16 2.33 16 2.66 16 3 C15.14535156 3.04898438 14.29070312 3.09796875 13.41015625 3.1484375 C12.30542969 3.22320312 11.20070313 3.29796875 10.0625 3.375 C8.96035156 3.44460937 7.85820312 3.51421875 6.72265625 3.5859375 C5.37494141 3.79089844 5.37494141 3.79089844 4 4 C3.67 4.66 3.34 5.32 3 6 C2.01 6 1.02 6 0 6 C0 4.02 0 2.04 0 0 Z " fill="#FCC94C" transform="translate(392,208)"/>
<path d="M0 0 C0.66 1.32 1.32 2.64 2 4 C2.66 4 3.32 4 4 4 C3.67 4.66 3.34 5.32 3 6 C2.01 6 1.02 6 0 6 C0 6.66 0 7.32 0 8 C-1.32 8 -2.64 8 -4 8 C-4 6.02 -4 4.04 -4 2 C-3.01 2 -2.02 2 -1 2 C-0.67 1.34 -0.34 0.68 0 0 Z " fill="#FBC747" transform="translate(348,192)"/>
<path d="M0 0 C3.3 0.33 6.6 0.66 10 1 C4.72346191 4.51769206 -0.86392402 4.10579441 -7 4 C-7 3.67 -7 3.34 -7 3 C-5.02 3 -3.04 3 -1 3 C-0.67 2.01 -0.34 1.02 0 0 Z " fill="#E37A1B" transform="translate(377,474)"/>
<path d="M0 0 C-0.33 1.32 -0.66 2.64 -1 4 C-2.6875 4.75 -2.6875 4.75 -5 5 C-7.75 3.0625 -7.75 3.0625 -10 1 C-3.71428571 -1.42857143 -3.71428571 -1.42857143 0 0 Z " fill="#E67B1B" transform="translate(278,424)"/>
<path d="M0 0 C0.99 0.33 1.98 0.66 3 1 C2.34 2.98 1.68 4.96 1 7 C-0.32 7 -1.64 7 -3 7 C-3 6.34 -3 5.68 -3 5 C-3.99 4.67 -4.98 4.34 -6 4 C-3.1875 1.9375 -3.1875 1.9375 0 0 Z " fill="#FCE6AE" transform="translate(190,178)"/>
<path d="M0 0 C1.5625 1.0625 1.5625 1.0625 3 3 C3.6875 6.6875 3.6875 6.6875 4 10 C-2.57142857 4.85714286 -2.57142857 4.85714286 -4 1 C-2 0 -2 0 0 0 Z " fill="#E87A19" transform="translate(123,456)"/>
<path d="M0 0 C-0.33 0.99 -0.66 1.98 -1 3 C-2.175625 2.979375 -3.35125 2.95875 -4.5625 2.9375 C-7.29396263 2.93270796 -9.71510114 3.10401471 -12.4375 3.5 C-16.65788388 4.09233458 -20.74769735 4.08678169 -25 4 C-25 3.67 -25 3.34 -25 3 C-21.20860533 2.49792285 -17.41684155 1.99869006 -13.625 1.5 C-12.54476562 1.35691406 -11.46453125 1.21382812 -10.3515625 1.06640625 C-8.8046875 0.86337891 -8.8046875 0.86337891 -7.2265625 0.65625 C-6.27346191 0.53056641 -5.32036133 0.40488281 -4.33837891 0.27539062 C-2 0 -2 0 0 0 Z " fill="#D68E18" transform="translate(145,165)"/>
<path d="M0 0 C-0.33 1.32 -0.66 2.64 -1 4 C-4.40562852 4.77842938 -7.50765756 5.09978121 -11 5 C-4.63636364 0 -4.63636364 0 0 0 Z " fill="#FEDF9F" transform="translate(208,323)"/>
<path d="M0 0 C0 0.33 0 0.66 0 1 C-2.20751848 1.33868777 -4.41605911 1.67071689 -6.625 2 C-7.85476562 2.185625 -9.08453125 2.37125 -10.3515625 2.5625 C-13.6166027 2.95402516 -16.71712451 3.08080924 -20 3 C-20 2.34 -20 1.68 -20 1 C-18.95199219 0.90912109 -18.95199219 0.90912109 -17.8828125 0.81640625 C-16.97273438 0.73261719 -16.06265625 0.64882812 -15.125 0.5625 C-14.22007813 0.48128906 -13.31515625 0.40007812 -12.3828125 0.31640625 C-4.77739726 -0.69349315 -4.77739726 -0.69349315 0 0 Z " fill="#E49430" transform="translate(100,194)"/>
<path d="M0 0 C0.33 0 0.66 0 1 0 C1 1.98 1 3.96 1 6 C0.01 6.33 -0.98 6.66 -2 7 C-2.0825 7.7425 -2.165 8.485 -2.25 9.25 C-3.1396946 12.51221354 -4.48503749 13.80954878 -7 16 C-5.35433477 10.31497465 -2.70967216 5.23318364 0 0 Z " fill="#DE9115" transform="translate(214,85)"/>
<path d="M0 0 C0.66 0.99 1.32 1.98 2 3 C0.18690997 6.77727089 -1.9073259 10.37269822 -4 14 C-4.66 14 -5.32 14 -6 14 C-4.50829734 9.0276578 -2.39542583 4.58154261 0 0 Z " fill="#FCE59F" transform="translate(242,81)"/>
<path d="M0 0 C0 0.66 0 1.32 0 2 C-1.0828125 2.1546875 -1.0828125 2.1546875 -2.1875 2.3125 C-5.05823062 2.86711079 -5.05823062 2.86711079 -7.5 4.5 C-10.06565201 6.03939121 -12.06168772 6.5802411 -15 7 C-15 6.34 -15 5.68 -15 5 C-13.06891037 3.96709159 -11.129882 2.94901328 -9.1875 1.9375 C-8.10855469 1.36902344 -7.02960938 0.80054688 -5.91796875 0.21484375 C-3 -1 -3 -1 0 0 Z " fill="#DE8209" transform="translate(210,426)"/>
<path d="M0 0 C0.99 0.33 1.98 0.66 3 1 C3.33 1.99 3.66 2.98 4 4 C5.65 4.33 7.3 4.66 9 5 C5.25 8 5.25 8 3 8 C3 7.34 3 6.68 3 6 C2.01 5.67 1.02 5.34 0 5 C0 3.35 0 1.7 0 0 Z " fill="#E4821F" transform="translate(192,320)"/>
<path d="M0 0 C5.28 0 10.56 0 16 0 C16 0.33 16 0.66 16 1 C13.79248152 1.33868777 11.58394089 1.67071689 9.375 2 C8.14523438 2.185625 6.91546875 2.37125 5.6484375 2.5625 C2.3833973 2.95402516 -0.71712451 3.08080924 -4 3 C-2.68 2.67 -1.36 2.34 0 2 C0 1.34 0 0.68 0 0 Z " fill="#E3912D" transform="translate(108,191)"/>
<path d="M0 0 C0.33 0 0.66 0 1 0 C1.3690205 13.6332574 1.3690205 13.6332574 -1 20 C-1.33 20 -1.66 20 -2 20 C-2.26404456 13.13484138 -1.25841946 6.74153283 0 0 Z " fill="#FABD47" transform="translate(144,428)"/>
<path d="M0 0 C0.99 0 1.98 0 3 0 C3 0.66 3 1.32 3 2 C3.66 2.33 4.32 2.66 5 3 C3.35 4.32 1.7 5.64 0 7 C0 6.34 0 5.68 0 5 C-0.66 5 -1.32 5 -2 5 C-2 4.01 -2 3.02 -2 2 C-1.34 2 -0.68 2 0 2 C0 1.34 0 0.68 0 0 Z " fill="#E0821C" transform="translate(426,288)"/>
<path d="M0 0 C0.33 0 0.66 0 1 0 C1.20257027 3.64626491 1.01679759 5.92678462 -1 9 C-2.62746694 10.70496537 -4.28891311 12.37897032 -6 14 C-4.50829734 9.0276578 -2.39542583 4.58154261 0 0 Z " fill="#DF9013" transform="translate(198,117)"/>
<path d="M0 0 C1.89213369 2.38573379 3.02391783 4.07175348 4 7 C1.69 6.67 -0.62 6.34 -3 6 C-3 4.68 -3 3.36 -3 2 C-2.01 2 -1.02 2 0 2 C0 1.34 0 0.68 0 0 Z " fill="#DB9012" transform="translate(299,60)"/>
<path d="M0 0 C1.65 0.33 3.3 0.66 5 1 C4.67 2.98 4.34 4.96 4 7 C1.08482708 5.92598892 -0.77810176 5.22189824 -3 3 C-2.01 2.67 -1.02 2.34 0 2 C0 1.34 0 0.68 0 0 Z " fill="#E37C1D" transform="translate(348,464)"/>
<path d="M0 0 C1.11375 0.598125 2.2275 1.19625 3.375 1.8125 C4.00148438 2.14894531 4.62796875 2.48539063 5.2734375 2.83203125 C7 4 7 4 9 7 C7.68 7.33 6.36 7.66 5 8 C4.896875 7.360625 4.79375 6.72125 4.6875 6.0625 C4.3471875 5.0415625 4.3471875 5.0415625 4 4 C3.01 3.67 2.02 3.34 1 3 C0.67 2.01 0.34 1.02 0 0 Z " fill="#E98F18" transform="translate(64,228)"/>
<path d="M0 0 C2.31 0 4.62 0 7 0 C6.01 2.31 5.02 4.62 4 7 C3.67 6.01 3.34 5.02 3 4 C2.01 4 1.02 4 0 4 C0 2.68 0 1.36 0 0 Z " fill="#E79025" transform="translate(224,104)"/>
<path d="M0 0 C2.31 0.33 4.62 0.66 7 1 C4.37801226 3.15377564 2.35595828 4.40072174 -1 5 C-0.67 3.35 -0.34 1.7 0 0 Z " fill="#E77C1E" transform="translate(236,432)"/>
<path d="M0 0 C1.65 0 3.3 0 5 0 C4.67 2.64 4.34 5.28 4 8 C0 3.375 0 3.375 0 0 Z " fill="#E98E1E" transform="translate(467,200)"/>
<path d="M0 0 C1.32 0.33 2.64 0.66 4 1 C1.525 4.465 1.525 4.465 -1 8 C-1.66 7.67 -2.32 7.34 -3 7 C-2.38722388 4.03824877 -1.74627478 2.61941217 0 0 Z " fill="#E3911D" transform="translate(195,168)"/>
<path d="M0 0 C0.33 0 0.66 0 1 0 C0.49202991 4.3177458 -0.19682779 8.03302114 -2 12 C-2.99 12 -3.98 12 -5 12 C-4.34 10.02 -3.68 8.04 -3 6 C-2.34 6 -1.68 6 -1 6 C-0.67 4.02 -0.34 2.04 0 0 Z " fill="#FDD570" transform="translate(249,98)"/>
<path d="M0 0 C0.93423645 3.01031744 1.04449911 3.86650268 0 7 C-0.34227417 8.33106622 -0.67751743 9.66400079 -1 11 C-2.32 11.33 -3.64 11.66 -5 12 C-3.68938409 7.76570244 -2.05643741 3.92592596 0 0 Z " fill="#DB9014" transform="translate(222,69)"/>
<path d="M0 0 C0.66 0 1.32 0 2 0 C3.305239 3.91571701 2.32239848 5.03892997 0.5625 8.6875 C0.08941406 9.68136719 -0.38367188 10.67523438 -0.87109375 11.69921875 C-1.42990234 12.83810547 -1.42990234 12.83810547 -2 14 C-3.06517032 10.38442187 -2.75606317 9.31700821 -1 6 C-0.61709538 4.00889599 -0.27395385 2.00899487 0 0 Z " fill="#EA9B2E" transform="translate(250,58)"/>
<path d="M0 0 C0.66 0 1.32 0 2 0 C2 0.66 2 1.32 2 2 C2.66 2 3.32 2 4 2 C4 1.34 4 0.68 4 0 C4.66 0.33 5.32 0.66 6 1 C4.68 3.31 3.36 5.62 2 8 C1.34 7.67 0.68 7.34 0 7 C0 4.69 0 2.38 0 0 Z " fill="#E48B2D" transform="translate(148,360)"/>
<path d="M0 0 C-1.62249941 0.83819158 -3.24808497 1.6704116 -4.875 2.5 C-6.23238281 3.19609375 -6.23238281 3.19609375 -7.6171875 3.90625 C-10 5 -10 5 -12 5 C-11.67 3.68 -11.34 2.36 -11 1 C-9.02 1.495 -9.02 1.495 -7 2 C-7 1.34 -7 0.68 -7 0 C-3.98968256 -0.93423645 -3.13349732 -1.04449911 0 0 Z " fill="#E48D2A" transform="translate(239,307)"/>
<path d="M0 0 C3.96 0 7.92 0 12 0 C12 0.33 12 0.66 12 1 C9.36 1 6.72 1 4 1 C4 1.66 4 2.32 4 3 C1.36 3 -1.28 3 -4 3 C-2.68 2.67 -1.36 2.34 0 2 C0 1.34 0 0.68 0 0 Z " fill="#FACA4C" transform="translate(252,299)"/>
<path d="M0 0 C0.598125 0.78375 1.19625 1.5675 1.8125 2.375 C3.91085249 5.14574323 3.91085249 5.14574323 7 7 C6.34 7 5.68 7 5 7 C5.33 8.32 5.66 9.64 6 11 C5.01 10.67 4.02 10.34 3 10 C1.25327015 6.5065403 0 3.93154432 0 0 Z " fill="#E79616" transform="translate(297,106)"/>
<path d="M0 0 C0.99 0 1.98 0 3 0 C3 0.66 3 1.32 3 2 C3.66 2 4.32 2 5 2 C5.33 4.31 5.66 6.62 6 9 C3 8 3 8 2.05078125 6.15234375 C1.80714844 5.42144531 1.56351562 4.69054687 1.3125 3.9375 C1.06113281 3.20402344 0.80976563 2.47054687 0.55078125 1.71484375 C0.36902344 1.14894531 0.18726563 0.58304687 0 0 Z " fill="#E8971A" transform="translate(279,71)"/>
<path d="M0 0 C2.04119788 1.61594832 4.04072937 3.2856382 6 5 C6 5.66 6 6.32 6 7 C4.68 7 3.36 7 2 7 C2 6.34 2 5.68 2 5 C1.01 5 0.02 5 -1 5 C-0.67 3.35 -0.34 1.7 0 0 Z " fill="#DE8F1A" transform="translate(288,43)"/>
<path d="M0 0 C1.32 1.32 2.64 2.64 4 4 C3.34 4 2.68 4 2 4 C1.67 5.65 1.34 7.3 1 9 C-1 8 -1 8 -1.75 6.1875 C-2.05694702 3.50171361 -1.38111722 2.2747813 0 0 Z " fill="#E08F14" transform="translate(284,39)"/>
<path d="M0 0 C1.61949011 2.57213134 2.04408751 3.67669159 1.625 6.75 C1.41875 7.4925 1.2125 8.235 1 9 C-0.32 9 -1.64 9 -3 9 C-2.30058404 5.85262818 -1.23921302 2.97411124 0 0 Z " fill="#DE8B19" transform="translate(331,125)"/>
<path d="M0 0 C0.33 0.99 0.66 1.98 1 3 C-0.77444972 5.24606427 -1.58352485 5.95081002 -4.48046875 6.29296875 C-5.82044922 6.24076172 -5.82044922 6.24076172 -7.1875 6.1875 C-8.53908203 6.14689453 -8.53908203 6.14689453 -9.91796875 6.10546875 C-10.60503906 6.07066406 -11.29210937 6.03585938 -12 6 C-12 5.67 -12 5.34 -12 5 C-6.555 4.01 -6.555 4.01 -1 3 C-0.67 2.01 -0.34 1.02 0 0 Z " fill="#DB8B1D" transform="translate(178,157)"/>
<path d="M0 0 C2.08954032 4.17908064 2.16552619 4.80410573 1 9 C-0.32 9 -1.64 9 -3 9 C-2.01 6.03 -1.02 3.06 0 0 Z " fill="#DD8C18" transform="translate(323,109)"/>
<path d="M0 0 C0.66 0.33 1.32 0.66 2 1 C2.1875 3.375 2.1875 3.375 2 6 C1.01 6.66 0.02 7.32 -1 8 C-1.66 7.34 -2.32 6.68 -3 6 C-2.01 4.02 -1.02 2.04 0 0 Z " fill="#DB950C" transform="translate(228,57)"/>
<path d="M0 0 C0 0.66 0 1.32 0 2 C-6.4 6.06153846 -6.4 6.06153846 -9.4375 5.75 C-9.953125 5.5025 -10.46875 5.255 -11 5 C-2.81818182 0 -2.81818182 0 0 0 Z " fill="#FDD693" transform="translate(191,331)"/>
<path d="M0 0 C-2.2008849 2.47859908 -4.06372969 3.61210366 -7.1875 4.6875 C-8.26064453 5.06455078 -8.26064453 5.06455078 -9.35546875 5.44921875 C-9.89816406 5.63097656 -10.44085938 5.81273437 -11 6 C-11 4 -11 4 -9.4375 1.875 C-6.19346756 -0.62040957 -3.9901641 -0.3069357 0 0 Z " fill="#FEE6A2" transform="translate(259,321)"/>
<path d="M0 0 C1.32 0 2.64 0 4 0 C4 0.66 4 1.32 4 2 C5.32 2.33 6.64 2.66 8 3 C2.06 3.495 2.06 3.495 -4 4 C-2.68 2.68 -1.36 1.36 0 0 Z " fill="#FAB930" transform="translate(260,252)"/>
<path d="M0 0 C0 1.98 0 3.96 0 6 C-1.65 6 -3.3 6 -5 6 C-4.6875 4.125 -4.6875 4.125 -4 2 C-1 0 -1 0 0 0 Z " fill="#FECB42" transform="translate(203,198)"/>
<path d="M0 0 C2.64 0 5.28 0 8 0 C7.01 1.485 7.01 1.485 6 3 C2.875 3.1875 2.875 3.1875 0 3 C0 2.01 0 1.02 0 0 Z " fill="#EB8A08" transform="translate(392,186)"/>
<path d="M0 0 C0.33 1.65 0.66 3.3 1 5 C-1.91517292 3.92598892 -3.77810176 3.22189824 -6 1 C-3 0 -3 0 0 0 Z " fill="#E07E1A" transform="translate(134,466)"/>
<path d="M0 0 C0.33 0 0.66 0 1 0 C1 2.64 1 5.28 1 8 C-1.31 8 -3.62 8 -6 8 C-4.68 7.67 -3.36 7.34 -2 7 C-2 6.01 -2 5.02 -2 4 C-1.34 4 -0.68 4 0 4 C0 2.68 0 1.36 0 0 Z " fill="#FEE3B1" transform="translate(470,208)"/>
<path d="M0 0 C0.33 0.66 0.66 1.32 1 2 C0.01 2.495 0.01 2.495 -1 3 C-1.28875 3.66 -1.5775 4.32 -1.875 5 C-3 7 -3 7 -5.125 7.75 C-6.053125 7.87375 -6.053125 7.87375 -7 8 C-5.50902342 4.2047869 -3.24299151 2.38957269 0 0 Z " fill="#DB9014" transform="translate(242,39)"/>
<path d="M0 0 C0.66 0 1.32 0 2 0 C1.875 1.875 1.875 1.875 1 4 C-2.0625 5.25 -2.0625 5.25 -5 6 C-3.38405168 3.95880212 -1.7143618 1.95927063 0 0 Z " fill="#F4CC4D" transform="translate(171,368)"/>
<path d="M0 0 C0.33 1.32 0.66 2.64 1 4 C-3.455 4.495 -3.455 4.495 -8 5 C-7.34 4.67 -6.68 4.34 -6 4 C-6 3.34 -6 2.68 -6 2 C-4.02 1.34 -2.04 0.68 0 0 Z " fill="#FDC354" transform="translate(222,340)"/>
<path d="M0 0 C2.64 0.33 5.28 0.66 8 1 C7.67 1.66 7.34 2.32 7 3 C4.4375 3.625 4.4375 3.625 2 4 C2 3.34 2 2.68 2 2 C1.34 2 0.68 2 0 2 C0 1.34 0 0.68 0 0 Z " fill="#E38524" transform="translate(240,300)"/>
<path d="M0 0 C0.99 0.66 1.98 1.32 3 2 C3 4 3 4 1.125 6.125 C-1 8 -1 8 -3 8 C-1.125 2.25 -1.125 2.25 0 0 Z " fill="#FCE5A9" transform="translate(205,155)"/>
<path d="M0 0 C0.99 0.33 1.98 0.66 3 1 C2.21654285 2.17219543 1.42297164 3.33763668 0.625 4.5 C0.18414062 5.1496875 -0.25671875 5.799375 -0.7109375 6.46875 C-1.13632813 6.9740625 -1.56171875 7.479375 -2 8 C-2.66 8 -3.32 8 -4 8 C-3.67 6.68 -3.34 5.36 -3 4 C-2.34 4 -1.68 4 -1 4 C-0.67 2.68 -0.34 1.36 0 0 Z " fill="#FBD45B" transform="translate(236,126)"/>
<path d="M0 0 C1.125 1.6875 1.125 1.6875 2 4 C1.125 6.75 1.125 6.75 0 9 C-0.99 9 -1.98 9 -3 9 C-2.30058404 5.85262818 -1.23921302 2.97411124 0 0 Z " fill="#E28A1B" transform="translate(315,93)"/>
<path d="M0 0 C2.97 0.99 5.94 1.98 9 3 C5 5 5 5 3 5 C3 4.34 3 3.68 3 3 C2.01 2.67 1.02 2.34 0 2 C0 1.34 0 0.68 0 0 Z " fill="#DE9312" transform="translate(271,33)"/>
<path d="M0 0 C2.31 0 4.62 0 7 0 C7 1.32 7 2.64 7 4 C4.08482708 2.92598892 2.22189824 2.22189824 0 0 Z " fill="#FEAB30" transform="translate(337,436)"/>
<path d="M0 0 C1.32 0 2.64 0 4 0 C3.6875 1.9375 3.6875 1.9375 3 4 C2.01 4.33 1.02 4.66 0 5 C-0.66 4.34 -1.32 3.68 -2 3 C-1.34 3 -0.68 3 0 3 C0 2.01 0 1.02 0 0 Z " fill="#E97824" transform="translate(292,434)"/>
<path d="M0 0 C0.99 0 1.98 0 3 0 C3 1.32 3 2.64 3 4 C1.35 4.33 -0.3 4.66 -2 5 C-1.34 3.35 -0.68 1.7 0 0 Z " fill="#FBEEAC" transform="translate(154,376)"/>
<path d="M0 0 C3.63 0.33 7.26 0.66 11 1 C11 1.33 11 1.66 11 2 C7.37 2.33 3.74 2.66 0 3 C0 2.01 0 1.02 0 0 Z " fill="#E48321" transform="translate(176,288)"/>
<path d="M0 0 C1.98 0.66 3.96 1.32 6 2 C6 2.99 6 3.98 6 5 C4.35 4.67 2.7 4.34 1 4 C0.67 2.68 0.34 1.36 0 0 Z " fill="#F08406" transform="translate(58,250)"/>
<path d="M0 0 C0.66 0.99 1.32 1.98 2 3 C1.54625 3.433125 1.0925 3.86625 0.625 4.3125 C-1.20024334 6.10798342 -1.20024334 6.10798342 -3 9 C-2.25 2.25 -2.25 2.25 0 0 Z " fill="#FDCD54" transform="translate(211,176)"/>
<path d="M0 0 C1.32 0 2.64 0 4 0 C3.34 1.98 2.68 3.96 2 6 C1.34 6 0.68 6 0 6 C0 4.02 0 2.04 0 0 Z " fill="#F5F5B9" transform="translate(232,120)"/>
<path d="M0 0 C0.99 0 1.98 0 3 0 C2.67 2.31 2.34 4.62 2 7 C0.4375 5.75 0.4375 5.75 -1 4 C-0.6875 1.8125 -0.6875 1.8125 0 0 Z " fill="#EB9B1F" transform="translate(273,56)"/>
<path d="M0 0 C0.66 0 1.32 0 2 0 C2.5625 1.9375 2.5625 1.9375 3 4 C2 5 2 5 -1.0625 5.0625 C-2.5165625 5.0315625 -2.5165625 5.0315625 -4 5 C-3.01 4.34 -2.02 3.68 -1 3 C-0.67 2.01 -0.34 1.02 0 0 Z " fill="#EE8107" transform="translate(476,240)"/>
<path d="M0 0 C0.99 0.33 1.98 0.66 3 1 C2.0022242 3.99332739 1.2477975 4.94766315 -1 7 C-1.66 6.67 -2.32 6.34 -3 6 C-2.01 4.02 -1.02 2.04 0 0 Z " fill="#DD8E14" transform="translate(186,141)"/>
<path d="M0 0 C0.66 0.99 1.32 1.98 2 3 C1.67 3.99 1.34 4.98 1 6 C0.01 5.67 -0.98 5.34 -2 5 C-2 3.68 -2 2.36 -2 1 C-1.34 0.67 -0.68 0.34 0 0 Z " fill="#E68C08" transform="translate(277,59)"/>
</svg>
